0
SECTION
2
HEADER
9
$INSUNITS
70
4
9
$ACADVER
1
AC1014
9
$HANDSEED
5
FFFF
0
ENDSEC
0
SECTION
2
TABLES
0
TABLE
2
VPORT
5
8
100
AcDbSymbolTable
0
ENDTAB
0
TABLE
2
LTYPE
5
5
100
AcDbSymbolTable
0
LTYPE
5
14
100
AcDbSymbolTableRecord
100
AcDbLinetypeTableRecord
2
BYBLOCK
70
0
0
LTYPE
5
15
100
AcDbSymbolTableRecord
100
AcDbLinetypeTableRecord
2
BYLAYER
70
0
0
LTYPE
5
16
100
AcDbSymbolTableRecord
100
AcDbLinetypeTableRecord
2
DASHED
70
0
3
Dashed __ __ __ __ __ __ __ __ __ __ __ __ __ _
72
65
73
2
40
0.75
49
0.5
74
0
49
-0.25
74
0
0
ENDTAB
0
TABLE
2
LAYER
5
2
100
AcDbSymbolTable
70
2
0
LAYER
5
50
100
AcDbSymbolTableRecord
100
AcDbLayerTableRecord
2
0
70
0
62
7
6
CONTINUOUS
0
ENDTAB
0
TABLE
2
STYLE
5
3
100
AcDbSymbolTable
70
1
0
STYLE
5
11
100
AcDbSymbolTableRecord
100
AcDbTextStyleTableRecord
2
STANDARD
70
0
0
ENDTAB
0
TABLE
2
VIEW
5
6
100
AcDbSymbolTable
70
0
0
ENDTAB
0
TABLE
2
UCS
5
7
100
AcDbSymbolTable
70
0
0
ENDTAB
0
TABLE
2
APPID
5
9
100
AcDbSymbolTable
70
2
0
APPID
5
12
100
AcDbSymbolTableRecord
100
AcDbRegAppTableRecord
2
ACAD
70
0
0
ENDTAB
0
TABLE
2
DIMSTYLE
5
A
100
AcDbSymbolTable
70
1
0
ENDTAB
0
TABLE
2
BLOCK_RECORD
5
1
100
AcDbSymbolTable
70
1
0
BLOCK_RECORD
5
1F
100
AcDbSymbolTableRecord
100
AcDbBlockTableRecord
2
*MODEL_SPACE
0
BLOCK_RECORD
5
1B
100
AcDbSymbolTableRecord
100
AcDbBlockTableRecord
2
*PAPER_SPACE
0
ENDTAB
0
ENDSEC
0
SECTION
2
BLOCKS
0
BLOCK
5
20
100
AcDbEntity
100
AcDbBlockBegin
2
*MODEL_SPACE
0
ENDBLK
5
21
100
AcDbEntity
100
AcDbBlockEnd
0
BLOCK
5
1C
100
AcDbEntity
100
AcDbBlockBegin
2
*PAPER_SPACE
0
ENDBLK
5
1D
100
AcDbEntity
100
AcDbBlockEnd
0
ENDSEC
0
SECTION
2
ENTITIES
0
SPLINE
5
100
100
AcDbEntity
8
0
100
AcDbSpline
70
2
71
3
72
341
73
337
74
0
42
0.000000001
43
0.0000000001
44
0.0000000001
40
0
40
0
40
0
40
0
40
0.16891738772392279
40
0.16891738772392279
40
0.16891738772392279
40
0.33530513942241669
40
0.33530513942241669
40
0.33530513942241669
40
0.49865734577183307
40
0.49865734577183307
40
0.49865734577183307
40
0.65846827626237125
40
0.65846827626237125
40
0.65846827626237125
40
0.81440031528481693
40
0.81440031528481693
40
0.81440031528481693
40
0.96679127216347904
40
0.96679127216347904
40
0.96679127216347904
40
1.1161463260651989
40
1.1161463260651989
40
1.1161463260651989
40
1.2629721164705208
40
1.2629721164705208
40
1.2629721164705208
40
1.4068621255305307
40
1.4068621255305307
40
1.4068621255305307
40
1.5437740333151564
40
1.5437740333151564
40
1.5437740333151564
40
1.6667039277055606
40
1.6667039277055606
40
1.6667039277055606
40
1.7607734599688465
40
1.7607734599688465
40
1.7607734599688465
40
1.8181520841809251
40
1.8181520841809251
40
1.8181520841809251
40
1.8582124194429228
40
1.8582124194429228
40
1.8582124194429228
40
1.896232467172565
40
1.896232467172565
40
1.896232467172565
40
1.9348102094294428
40
1.9348102094294428
40
1.9348102094294428
40
1.973556824218343
40
1.973556824218343
40
1.973556824218343
40
2.0124579937056866
40
2.0124579937056866
40
2.0124579937056866
40
2.0525889627617584
40
2.0525889627617584
40
2.0525889627617584
40
2.0967487526256732
40
2.0967487526256732
40
2.0967487526256732
40
2.1486008600548296
40
2.1486008600548296
40
2.1486008600548296
40
2.2081299680567446
40
2.2081299680567446
40
2.2081299680567446
40
2.2731223398429381
40
2.2731223398429381
40
2.2731223398429381
40
2.3409281295228697
40
2.3409281295228697
40
2.3409281295228697
40
2.4090542239192838
40
2.4090542239192838
40
2.4090542239192838
40
2.4762885120943015
40
2.4762885120943015
40
2.4762885120943015
40
2.5415235944514021
40
2.5415235944514021
40
2.5415235944514021
40
2.6036183576556158
40
2.6036183576556158
40
2.6036183576556158
40
2.6660822757666289
40
2.6660822757666289
40
2.6660822757666289
40
2.7321495252623329
40
2.7321495252623329
40
2.7321495252623329
40
2.8003775415765793
40
2.8003775415765793
40
2.8003775415765793
40
2.8695523204831139
40
2.8695523204831139
40
2.8695523204831139
40
2.9388867060931068
40
2.9388867060931068
40
2.9388867060931068
40
3.008217987173714
40
3.008217987173714
40
3.008217987173714
40
3.0775466580839144
40
3.0775466580839144
40
3.0775466580839144
40
3.1468736950180003
40
3.1468736950180003
40
3.1468736950180003
40
3.2162007319520876
40
3.2162007319520876
40
3.2162007319520876
40
3.2855294028622879
40
3.2855294028622879
40
3.2855294028622879
40
3.3548606839428952
40
3.3548606839428952
40
3.3548606839428952
40
3.424195069552888
40
3.424195069552888
40
3.424195069552888
40
3.4933698484594227
40
3.4933698484594227
40
3.4933698484594227
40
3.561597864773669
40
3.561597864773669
40
3.561597864773669
40
3.627665114269373
40
3.627665114269373
40
3.627665114269373
40
3.6901290323803861
40
3.6901290323803861
40
3.6901290323803861
40
3.7522237955845998
40
3.7522237955845998
40
3.7522237955845998
40
3.8174588779417005
40
3.8174588779417005
40
3.8174588779417005
40
3.8846931661167181
40
3.8846931661167181
40
3.8846931661167181
40
3.9528192605131323
40
3.9528192605131323
40
3.9528192605131323
40
4.0206250501930638
40
4.0206250501930638
40
4.0206250501930638
40
4.0856174219792578
40
4.0856174219792578
40
4.0856174219792578
40
4.1451465299811732
40
4.1451465299811732
40
4.1451465299811732
40
4.1969986374103296
40
4.1969986374103296
40
4.1969986374103296
40
4.2411584272742449
40
4.2411584272742449
40
4.2411584272742449
40
4.2812893963303162
40
4.2812893963303162
40
4.2812893963303162
40
4.3201905658176596
40
4.3201905658176596
40
4.3201905658176596
40
4.35893718060656
40
4.35893718060656
40
4.35893718060656
40
4.3975149228634383
40
4.3975149228634383
40
4.3975149228634383
40
4.4355349705930802
40
4.4355349705930802
40
4.4355349705930802
40
4.4755953058550784
40
4.4755953058550784
40
4.4755953058550784
40
4.5329739300671568
40
4.5329739300671568
40
4.5329739300671568
40
4.6270434623304428
40
4.6270434623304428
40
4.6270434623304428
40
4.7499733567208473
40
4.7499733567208473
40
4.7499733567208473
40
4.886885264505473
40
4.886885264505473
40
4.886885264505473
40
5.0307752735654825
40
5.0307752735654825
40
5.0307752735654825
40
5.1776010639708048
40
5.1776010639708048
40
5.1776010639708048
40
5.3269561178725251
40
5.3269561178725251
40
5.3269561178725251
40
5.4793470747511872
40
5.4793470747511872
40
5.4793470747511872
40
5.6352791137736329
40
5.6352791137736329
40
5.6352791137736329
40
5.7950900442641711
40
5.7950900442641711
40
5.7950900442641711
40
5.9584422506135875
40
5.9584422506135875
40
5.9584422506135875
40
6.1248300023120814
40
6.1248300023120814
40
6.1248300023120814
40
6.2937473900360041
40
6.2937473900360041
40
6.2937473900360041
40
6.4635447034086893
40
6.4635447034086893
40
6.4635447034086893
40
6.6280165390379207
40
6.6280165390379207
40
6.6280165390379207
40
6.7772959213152131
40
6.7772959213152131
40
6.7772959213152131
40
6.8920327502523282
40
6.8920327502523282
40
6.8920327502523282
40
6.9638061080599059
40
6.9638061080599059
40
6.9638061080599059
40
7.0194034235201599
40
7.0194034235201599
40
7.0194034235201599
40
7.0754050415284429
40
7.0754050415284429
40
7.0754050415284429
40
7.1331336449723315
40
7.1331336449723315
40
7.1331336449723315
40
7.1914583968638626
40
7.1914583968638626
40
7.1914583968638626
40
7.2512632747213068
40
7.2512632747213068
40
7.2512632747213068
40
7.3154059307203969
40
7.3154059307203969
40
7.3154059307203969
40
7.3923844395488079
40
7.3923844395488079
40
7.3923844395488079
40
7.4920644381207069
40
7.4920644381207069
40
7.4920644381207069
40
7.6094753048517498
40
7.6094753048517498
40
7.6094753048517498
40
7.7350996091468707
40
7.7350996091468707
40
7.7350996091468707
40
7.8641996288131111
40
7.8641996288131111
40
7.8641996288131111
40
7.9930360895490669
40
7.9930360895490669
40
7.9930360895490669
40
8.1169272481890644
40
8.1169272481890644
40
8.1169272481890644
40
8.2299918670255465
40
8.2299918670255465
40
8.2299918670255465
40
8.3259039311774359
40
8.3259039311774359
40
8.3259039311774359
40
8.4218159953293235
40
8.4218159953293235
40
8.4218159953293235
40
8.5348806141658056
40
8.5348806141658056
40
8.5348806141658056
40
8.6587717728058031
40
8.6587717728058031
40
8.6587717728058031
40
8.7876082335417589
40
8.7876082335417589
40
8.7876082335417589
40
8.9167082532080002
40
8.9167082532080002
40
8.9167082532080002
40
9.042332557503121
40
9.042332557503121
40
9.042332557503121
40
9.1597434242341649
40
9.1597434242341649
40
9.1597434242341649
40
9.2594234228060639
40
9.2594234228060639
40
9.2594234228060639
40
9.3364019316344748
40
9.3364019316344748
40
9.3364019316344748
40
9.4005445876335649
40
9.4005445876335649
40
9.4005445876335649
40
9.4603494654910101
40
9.4603494654910101
40
9.4603494654910101
40
9.5186742173825412
40
9.5186742173825412
40
9.5186742173825412
40
9.5764028208264307
40
9.5764028208264307
40
9.5764028208264307
40
9.6324044388347136
40
9.6324044388347136
40
9.6324044388347136
40
9.6880017542949677
40
9.6880017542949677
40
9.6880017542949677
40
9.7597751121025453
40
9.7597751121025453
40
9.7597751121025453
40
9.8745119410396605
40
9.8745119410396605
40
9.8745119410396605
40
10.023791323316953
40
10.023791323316953
40
10.023791323316953
40
10.188263158946185
40
10.188263158946185
40
10.188263158946185
40
10.35806047231887
40
10.35806047231887
40
10.35806047231887
40
10.35806047231887
10
-12.003906965255736
20
5.0144630670547485
30
0
10
-12.004007746222669
20
4.4513976127255237
30
0
10
-12.003933672746447
20
3.8883451526655537
30
0
10
-12.003906965255739
20
3.3252891898155195
30
0
10
-12.003880657725226
20
2.7706653171555495
30
0
10
-12.003900308136593
20
2.216038045832585
30
0
10
-12.003906965255737
20
1.6614116728305817
30
0
10
-12.003913500923712
20
1.1169037940678226
30
0
10
-12.003907513068949
20
0.57239678114743786
30
0
10
-12.00390577316284
20
0.027889609336852993
30
0
10
-12.003904070975766
20
-0.50481331357124526
30
0
10
-12.003906434553098
20
-1.0375163885551275
30
0
10
-12.003906965255736
20
-1.5702196955680847
30
0
10
-12.003907483077292
20
-2.0899933593691871
30
0
10
-12.00390625591854
20
-2.6097672440725517
30
0
10
-12.003906965255739
20
-3.1295400857925415
30
0
10
-12.003907658484502
20
-3.637509334484589
30
0
10
-12.00391020125557
20
-4.1454775870258951
30
0
10
-12.003906965255737
20
-4.6534496545791617
30
0
10
-12.003903793722863
20
-5.1513020014897126
30
0
10
-12.003895071372717
20
-5.6491580129224683
30
0
10
-12.003905773162844
20
-6.1470001935958862
30
0
10
-12.003916293722764
20
-6.6364116314075803
30
0
10
-12.003945586114508
20
-7.1258097029294598
30
0
10
-12.003906965255739
20
-7.6152580976486206
30
0
10
-12.003869116620951
20
-8.0949199728282455
30
0
10
-12.00376604343451
20
-8.5746301788999304
30
0
10
-12.001366615295412
20
-9.0541559457778931
30
0
10
-11.999083550013381
20
-9.5104265930871623
30
0
10
-11.994721457474371
20
-9.9665302565812492
30
0
10
-11.983588933944704
20
-10.423159599304197
30
0
10
-11.973593310014358
20
-10.83315605457816
30
0
10
-11.958139493078486
20
-11.243576302472428
30
0
10
-11.929391622543335
20
-11.651263236999512
30
0
10
-11.907392915489876
20
-11.96323714237862
30
0
10
-11.877609535379953
20
-12.273610486216018
30
0
10
-11.793832778930664
20
-12.58213996887207
30
0
10
-11.742732333224646
20
-12.770330521304293
30
0
10
-11.671543606359759
20
-12.957835063630466
30
0
10
-11.542987823486326
20
-13.098189830780029
30
0
10
-11.453233357733657
20
-13.196182055320811
30
0
10
-11.335515396329161
20
-13.271191184251119
30
0
10
-11.210780143737791
20
-13.322067260742184
30
0
10
-11.092397703199619
20
-13.370352200042783
30
0
10
-10.967694555723075
20
-13.396899698508356
30
0
10
-10.842155218124391
20
-13.415169715881348
30
0
10
-10.714774415148563
20
-13.433707725782224
30
0
10
-10.586532710935714
20
-13.443723638227867
30
0
10
-10.458291769027708
20
-13.453550338745115
30
0
10
-10.329489457498207
20
-13.46342005525295
30
0
10
-10.200687914962073
20
-13.473098899671305
30
0
10
-10.071538686752319
20
-13.477046489715574
30
0
10
-9.9418743007635211
20
-13.481009826131292
30
0
10
-9.8118594498323493
20
-13.479196094676919
30
0
10
-9.6826851367950439
20
-13.465955257415773
30
0
10
-9.5494271800895021
20
-13.452295831814791
30
0
10
-9.4170637458982558
20
-13.426475379932931
30
0
10
-9.2895996570587176
20
-13.385126590728762
30
0
10
-9.1493392170358305
20
-13.339626721542144
30
0
10
-9.01501120883845
20
-13.275324176504981
30
0
10
-8.8900101184844988
20
-13.197145462036135
30
0
10
-8.7432347378550013
20
-13.10534857817858
30
0
10
-8.6093186468934846
20
-12.994420220751788
30
0
10
-8.4823793172836286
20
-12.876675128936766
30
0
10
-8.3366458951202187
20
-12.741497203971457
30
0
10
-8.2001080670671538
20
-12.597334605540523
30
0
10
-8.0682438611984271
20
-12.449049949645998
30
0
10
-7.9242778623657912
20
-12.287156519531528
30
0
10
-7.7858826899100508
20
-12.120349712695635
30
0
10
-7.6498764753341675
20
-11.951687335968018
30
0
10
-7.5079827649302171
20
-11.775723829344004
30
0
10
-7.3686893175299994
20
-11.597740626273698
30
0
10
-7.2294104099273682
20
-11.419737339019774
30
0
10
-7.0894735689650314
20
-11.240893190052919
30
0
10
-6.9495514054925245
20
-11.062028766704735
30
0
10
-6.8070155382156372
20
-10.885229110717772
30
0
10
-6.6663455400207212
20
-10.710743854734904
30
0
10
-6.5231298196331853
20
-10.538269662165284
30
0
10
-6.3751536607742318
20
-10.369923114776611
30
0
10
-6.231577560363637
20
-10.206582337599849
30
0
10
-6.0835199149307755
20
-10.047127384770032
30
0
10
-5.9193152189254761
20
-9.9032616615295392
30
0
10
-5.7630150910333384
20
-9.7663214187178617
30
0
10
-5.5920850844176524
20
-9.6435056463326738
30
0
10
-5.4048323631286621
20
-9.5555788278579712
30
0
10
-5.2164664197689454
20
-9.4671292822674182
30
0
10
-5.0115831069501402
20
-9.413984755070846
30
0
10
-4.8052307963371268
20
-9.3805015087127686
30
0
10
-4.5869747214451291
20
-9.3450867275404814
30
0
10
-4.3670752773180554
20
-9.3316670400161055
30
0
10
-4.1469845175743103
20
-9.3239331245422363
30
0
10
-3.9196955648627627
20
-9.3159462669819213
30
0
10
-3.6922025777217868
20
-9.3140231760725971
30
0
10
-3.4647619724273682
20
-9.3150663375854492
30
0
10
-3.234165299161277
20
-9.3161239744758877
30
0
10
-3.0036224715762234
20
-9.320230757058944
30
0
10
-2.773071825504303
20
-9.3239963054656982
30
0
10
-2.5419892308062892
20
-9.327770542107924
30
0
10
-2.3108987815006556
20
-9.331201968100622
30
0
10
-2.0798037946224213
20
-9.3342500925064087
30
0
10
-1.8487191552964342
20
-9.3372980804288055
30
0
10
-1.617629978804187
20
-9.3399628010890918
30
0
10
-1.3865360617637634
20
-9.3421560525894165
30
0
10
-1.1554508449015863
20
-9.3443492215186392
30
0
10
-0.92436088784816817
20
-9.3460709567867895
30
0
10
-0.69326803088188171
20
-9.3472450971603394
30
0
10
-0.462180620438708
20
-9.3484192098611061
30
0
10
-0.23109031021935744
20
-9.3490457534790021
30
0
10
-6.7887946736187696e-15
20
-9.3490457534790021
30
0
10
0.23109031021934828
20
-9.3490457534790021
30
0
10
0.46218062043870334
20
-9.3484192098611079
30
0
10
0.69326803088188171
20
-9.3472450971603411
30
0
10
0.9243608878481685
20
-9.3460709567867912
30
0
10
1.1554508449015866
20
-9.3443492215186392
30
0
10
1.3865360617637634
20
-9.3421560525894165
30
0
10
1.6176299788041872
20
-9.3399628010890918
30
0
10
1.8487191552964342
20
-9.3372980804288055
30
0
10
2.0798037946224213
20
-9.3342500925064087
30
0
10
2.3108987815006552
20
-9.331201968100622
30
0
10
2.5419892308062888
20
-9.327770542107924
30
0
10
2.773071825504303
20
-9.3239963054656982
30
0
10
3.0036224715762225
20
-9.320230757058944
30
0
10
3.2341652991612762
20
-9.3161239744758877
30
0
10
3.4647619724273682
20
-9.3150663375854492
30
0
10
3.6922025777217868
20
-9.3140231760725971
30
0
10
3.9196955648627623
20
-9.3159462669819213
30
0
10
4.1469845175743103
20
-9.3239331245422363
30
0
10
4.3670752773180554
20
-9.3316670400161055
30
0
10
4.5869747214451291
20
-9.3450867275404796
30
0
10
4.8052307963371277
20
-9.3805015087127686
30
0
10
5.0115831069501402
20
-9.413984755070846
30
0
10
5.2164664197689454
20
-9.4671292822674165
30
0
10
5.4048323631286621
20
-9.5555788278579694
30
0
10
5.5920850844176524
20
-9.643505646332672
30
0
10
5.7630150910333402
20
-9.76632141871786
30
0
10
5.9193152189254761
20
-9.9032616615295392
30
0
10
6.0835199149307755
20
-10.047127384770032
30
0
10
6.231577560363637
20
-10.206582337599851
30
0
10
6.375153660774231
20
-10.369923114776613
30
0
10
6.5231298196331844
20
-10.538269662165288
30
0
10
6.6663455400207203
20
-10.710743854734906
30
0
10
6.8070155382156372
20
-10.885229110717773
30
0
10
6.9495514054925236
20
-11.062028766704737
30
0
10
7.0894735689650297
20
-11.240893190052923
30
0
10
7.2294104099273682
20
-11.419737339019777
30
0
10
7.3686893175299994
20
-11.597740626273698
30
0
10
7.507982764930218
20
-11.775723829344006
30
0
10
7.6498764753341675
20
-11.951687335968018
30
0
10
7.7858826899100517
20
-12.120349712695633
30
0
10
7.9242778623657895
20
-12.287156519531523
30
0
10
8.0682438611984235
20
-12.449049949645994
30
0
10
8.200108067067152
20
-12.597334605540521
30
0
10
8.3366458951202205
20
-12.741497203971457
30
0
10
8.4823793172836321
20
-12.876675128936768
30
0
10
8.6093186468934864
20
-12.994420220751788
30
0
10
8.7432347378549995
20
-13.105348578178573
30
0
10
8.8900101184844953
20
-13.197145462036131
30
0
10
9.0150112088384464
20
-13.275324176504979
30
0
10
9.149339217035827
20
-13.339626721542144
30
0
10
9.2895996570587158
20
-13.385126590728762
30
0
10
9.4170637458982558
20
-13.426475379932929
30
0
10
9.5494271800895021
20
-13.452295831814789
30
0
10
9.6826851367950439
20
-13.46595525741577
30
0
10
9.8118594498323493
20
-13.479196094676917
30
0
10
9.9418743007635229
20
-13.481009826131293
30
0
10
10.071538686752319
20
-13.477046489715578
30
0
10
10.200687914962074
20
-13.473098899671312
30
0
10
10.329489457498211
20
-13.463420055252955
30
0
10
10.458291769027712
20
-13.453550338745119
30
0
10
10.586532710935712
20
-13.443723638227867
30
0
10
10.714774415148558
20
-13.433707725782222
30
0
10
10.842155218124388
20
-13.415169715881346
30
0
10
10.967694555723073
20
-13.396899698508353
30
0
10
11.092397703199619
20
-13.370352200042788
30
0
10
11.210780143737793
20
-13.322067260742189
30
0
10
11.335515396329164
20
-13.271191184251128
30
0
10
11.45323335773366
20
-13.196182055320815
30
0
10
11.54298782348633
20
-13.098189830780031
30
0
10
11.67154360635976
20
-12.957835063630466
30
0
10
11.742732333224646
20
-12.770330521304293
30
0
10
11.793832778930664
20
-12.58213996887207
30
0
10
11.877609535379953
20
-12.273610486216015
30
0
10
11.907392915489876
20
-11.963237142378615
30
0
10
11.929391622543335
20
-11.65126323699951
30
0
10
11.958139493078484
20
-11.243576302472428
30
0
10
11.973593310014358
20
-10.83315605457816
30
0
10
11.9835889339447
20
-10.423159599304199
30
0
10
11.99472145747437
20
-9.9665302565812492
30
0
10
11.999083550013376
20
-9.5104265930871623
30
0
10
12.001366615295408
20
-9.0541559457778913
30
0
10
12.003766043434506
20
-8.5746301788999304
30
0
10
12.003869116620951
20
-8.0949199728282455
30
0
10
12.003906965255739
20
-7.6152580976486206
30
0
10
12.003945586114511
20
-7.1258097029294589
30
0
10
12.003916293722764
20
-6.6364116314075794
30
0
10
12.003905773162842
20
-6.1470001935958862
30
0
10
12.003895071372714
20
-5.6491580129224683
30
0
10
12.003903793722863
20
-5.1513020014897126
30
0
10
12.003906965255739
20
-4.6534496545791635
30
0
10
12.00391020125557
20
-4.145477587025896
30
0
10
12.003907658484501
20
-3.6375093344845895
30
0
10
12.003906965255737
20
-3.1295400857925419
30
0
10
12.003906255918537
20
-2.6097672440725517
30
0
10
12.003907483077292
20
-2.0899933593691871
30
0
10
12.003906965255737
20
-1.5702196955680847
30
0
10
12.0039064345531
20
-1.0375163885551282
30
0
10
12.003904070975766
20
-0.50481331357124526
30
0
10
12.00390577316284
20
0.027889609336853027
30
0
10
12.003907513068949
20
0.57239678114743797
30
0
10
12.003913500923712
20
1.1169037940678226
30
0
10
12.003906965255736
20
1.6614116728305817
30
0
10
12.00390030813659
20
2.216038045832585
30
0
10
12.003880657725222
20
2.7706653171555509
30
0
10
12.003906965255739
20
3.3252891898155212
30
0
10
12.003933672746443
20
3.888345152665555
30
0
10
12.004007746222667
20
4.4513976127255255
30
0
10
12.003906965255737
20
5.0144630670547485
30
0
10
12.003805659299882
20
5.5804616459241529
30
0
10
12.003527672450051
20
6.1464733547951003
30
0
10
12.000088691711424
20
6.7124319076538068
30
0
10
11.996757570249368
20
7.2606398870958975
30
0
10
11.990460626622028
20
7.8087979925790787
30
0
10
11.973356008529663
20
8.3569329977035505
30
0
10
11.957831363759032
20
8.8544361395423792
30
0
10
11.933403463532596
20
9.3519202515339099
30
0
10
11.891865730285643
20
9.8475009202957153
30
0
10
11.85993963492481
20
10.22840653196714
30
0
10
11.817905852253165
20
10.608187678603933
30
0
10
11.688040494918823
20
10.976619720458984
30
0
10
11.606803521184126
20
11.207091531583661
30
0
10
11.491197182127724
20
11.433122325570528
30
0
10
11.310874223709108
20
11.587264537811281
30
0
10
11.171191858132675
20
11.706666687320102
30
0
10
10.992676850675625
20
11.782932721596639
30
0
10
10.811371803283693
20
11.831402778625487
30
0
10
10.628748309272096
20
11.880225308923912
30
0
10
10.443294049556197
20
11.900846128513239
30
0
10
10.257111787796022
20
11.911489963531494
30
0
10
10.065188012382071
20
11.922462034567014
30
0
10
9.8724906421506802
20
11.922832289826646
30
0
10
9.6799391508102417
20
11.922931671142578
30
0
10
9.4853992297173768
20
11.923032078743812
30
0
10
9.2910082159798417
20
11.92285598902374
30
0
10
9.0967226028442365
20
11.916921138763426
30
0
10
8.8975065412887204
20
11.910835677901453
30
0
10
8.6984012977838816
20
11.898695463976354
30
0
10
8.5001558065414429
20
11.874845027923586
30
0
10
8.287531137723537
20
11.849264667759524
30
0
10
8.075895463664402
20
11.810213743091211
30
0
10
7.8716844320297223
20
11.746580600738524
30
0
10
7.6266078841896698
20
11.670213566444755
30
0
10
7.3922248555218575
20
11.558441404055086
30
0
10
7.1719372272491455
20
11.425764560699461
30
0
10
6.8866852678928385
20
11.253960407079228
30
0
10
6.6250682469600486
20
11.047103623980979
30
0
10
6.371195912361145
20
10.832111835479736
30
0
10
6.0721653016936452
20
10.578877760543623
30
0
10
5.7838796404362451
20
10.314357208952725
30
0
10
5.4991787672042856
20
10.045907497406008
30
0
10
5.1945617404523494
20
9.7586784768713528
30
0
10
4.8940485897144388
20
9.4669513423105656
30
0
10
4.5952564477920541
20
9.1735136508941668
30
0
10
4.2881974625523958
20
8.8719572606300865
30
0
10
3.9829560357059366
20
8.5685943502936404
30
0
10
3.6779853701591496
20
8.2650560140609741
30
0
10
3.3736373051556279
20
7.9621373542575196
30
0
10
3.0695588970566572
20
7.6590439840940139
30
0
10
2.7584889531135559
20
7.3626095056533813
30
0
10
2.4593592226549292
20
7.0775534680607253
30
0
10
2.1537643862543705
20
6.7986549388330397
30
0
10
1.8389926850795746
20
6.5322911739349365
30
0
10
1.5517280989338005
20
6.2892042750742503
30
0
10
1.2568204548964039
20
6.0565570995598002
30
0
10
0.91949634253978718
20
5.8743494749069214
30
0
10
0.63334624326675426
20
5.7197837976463406
30
0
10
0.31667312163337435
20
5.6015145778655988
30
0
10
-6.8234891431383057e-15
20
5.6015145778656006
30
0
10
-0.31667312163338213
20
5.6015145778656015
30
0
10
-0.63334624326675859
20
5.7197837976463415
30
0
10
-0.9194963425397874
20
5.8743494749069205
30
0
10
-1.2568204548964059
20
6.0565570995598002
30
0
10
-1.5517280989338011
20
6.2892042750742512
30
0
10
-1.8389926850795746
20
6.5322911739349365
30
0
10
-2.1537643862543696
20
6.7986549388330388
30
0
10
-2.4593592226549283
20
7.0775534680607244
30
0
10
-2.7584889531135555
20
7.3626095056533813
30
0
10
-3.0695588970566572
20
7.6590439840940139
30
0
10
-3.3736373051556292
20
7.9621373542575213
30
0
10
-3.6779853701591492
20
8.2650560140609759
30
0
10
-3.9829560357059366
20
8.5685943502936404
30
0
10
-4.2881974625523922
20
8.8719572606300829
30
0
10
-4.5952564477920523
20
9.173513650894165
30
0
10
-4.8940485897144361
20
9.466951342310562
30
0
10
-5.1945617404523485
20
9.7586784768713528
30
0
10
-5.4991787672042838
20
10.045907497406006
30
0
10
-5.7838796404362425
20
10.314357208952725
30
0
10
-6.0721653016936417
20
10.57887776054362
30
0
10
-6.3711959123611441
20
10.832111835479735
30
0
10
-6.6250682469600459
20
11.047103623980979
30
0
10
-6.8866852678928394
20
11.25396040707923
30
0
10
-7.1719372272491455
20
11.425764560699465
30
0
10
-7.3922248555218584
20
11.558441404055092
30
0
10
-7.6266078841896725
20
11.670213566444756
30
0
10
-7.8716844320297259
20
11.746580600738524
30
0
10
-8.0758954636644056
20
11.810213743091211
30
0
10
-8.2875311377235388
20
11.849264667759522
30
0
10
-8.5001558065414446
20
11.874845027923582
30
0
10
-8.6984012977838852
20
11.898695463976352
30
0
10
-8.8975065412887204
20
11.910835677901453
30
0
10
-9.0967226028442383
20
11.916921138763426
30
0
10
-9.2910082159798417
20
11.92285598902374
30
0
10
-9.4853992297173804
20
11.923032078743814
30
0
10
-9.6799391508102417
20
11.92293167114258
30
0
10
-9.8724906421506802
20
11.922832289826648
30
0
10
-10.06518801238207
20
11.922462034567014
30
0
10
-10.257111787796019
20
11.911489963531492
30
0
10
-10.443294049556194
20
11.900846128513239
30
0
10
-10.628748309272094
20
11.880225308923912
30
0
10
-10.81137180328369
20
11.831402778625487
30
0
10
-10.992676850675622
20
11.782932721596637
30
0
10
-11.171191858132675
20
11.7066666873201
30
0
10
-11.310874223709106
20
11.587264537811278
30
0
10
-11.491197182127724
20
11.433122325570524
30
0
10
-11.606803521184126
20
11.207091531583659
30
0
10
-11.688040494918823
20
10.976619720458984
30
0
10
-11.817905852253167
20
10.608187678603933
30
0
10
-11.859939634924812
20
10.22840653196714
30
0
10
-11.891865730285643
20
9.8475009202957153
30
0
10
-11.933403463532596
20
9.3519202515339099
30
0
10
-11.957831363759034
20
8.8544361395423774
30
0
10
-11.973356008529665
20
8.3569329977035522
30
0
10
-11.990460626622028
20
7.8087979925790787
30
0
10
-11.99675757024937
20
7.2606398870959001
30
0
10
-12.000088691711428
20
6.7124319076538086
30
0
10
-12.003527672450051
20
6.1464733547951038
30
0
10
-12.003805659299882
20
5.5804616459241547
30
0
10
-12.003906965255736
20
5.0144630670547485
30
0
0
SPLINE
5
101
100
AcDbEntity
8
0
100
AcDbSpline
70
2
71
3
72
197
73
193
74
0
42
0.000000001
43
0.0000000001
44
0.0000000001
40
0
40
0
40
0
40
0
40
0.1389766755115566
40
0.1389766755115566
40
0.1389766755115566
40
0.26331197328013289
40
0.26331197328013289
40
0.26331197328013289
40
0.35896621124550704
40
0.35896621124550704
40
0.35896621124550704
40
0.41911741948793041
40
0.41911741948793041
40
0.41911741948793041
40
0.49165223412493603
40
0.49165223412493603
40
0.49165223412493603
40
0.60729595849860263
40
0.60729595849860263
40
0.60729595849860263
40
0.75308601401295483
40
0.75308601401295483
40
0.75308601401295483
40
0.91393079233530372
40
0.91393079233530372
40
0.91393079233530372
40
1.0761726310111024
40
1.0761726310111024
40
1.0761726310111024
40
1.2317760185010831
40
1.2317760185010831
40
1.2317760185010831
40
1.3727772563422955
40
1.3727772563422955
40
1.3727772563422955
40
1.4903776827215367
40
1.4903776827215367
40
1.4903776827215367
40
1.6079781091007792
40
1.6079781091007792
40
1.6079781091007792
40
1.7489793469419914
40
1.7489793469419914
40
1.7489793469419914
40
1.9045827344319721
40
1.9045827344319721
40
1.9045827344319721
40
2.0668245731077706
40
2.0668245731077706
40
2.0668245731077706
40
2.2276693514301193
40
2.2276693514301193
40
2.2276693514301193
40
2.3734594069444714
40
2.3734594069444714
40
2.3734594069444714
40
2.4891031313181382
40
2.4891031313181382
40
2.4891031313181382
40
2.5616379459551437
40
2.5616379459551437
40
2.5616379459551437
40
2.6217891541975669
40
2.6217891541975669
40
2.6217891541975669
40
2.7174433921629411
40
2.7174433921629411
40
2.7174433921629411
40
2.8417786899315174
40
2.8417786899315174
40
2.8417786899315174
40
2.9807553654430738
40
2.9807553654430738
40
2.9807553654430738
40
3.1222043360460536
40
3.1222043360460536
40
3.1222043360460536
40
3.2636532019801652
40
3.2636532019801652
40
3.2636532019801652
40
3.403226686355735
40
3.403226686355735
40
3.403226686355735
40
3.5243508223053635
40
3.5243508223053635
40
3.5243508223053635
40
3.6023736905744745
40
3.6023736905744745
40
3.6023736905744745
40
3.6679067493076243
40
3.6679067493076243
40
3.6679067493076243
40
3.7324153596234235
40
3.7324153596234235
40
3.7324153596234235
40
3.7969239955747383
40
3.7969239955747383
40
3.7969239955747383
40
3.8613502330924829
40
3.8613502330924829
40
3.8613502330924829
40
3.9252999251280176
40
3.9252999251280176
40
3.9252999251280176
40
3.9880117362160714
40
3.9880117362160714
40
3.9880117362160714
40
4.0488674580780311
40
4.0488674580780311
40
4.0488674580780311
40
4.1124763641006705
40
4.1124763641006705
40
4.1124763641006705
40
4.1812278963025005
40
4.1812278963025005
40
4.1812278963025005
40
4.2521790068689507
40
4.2521790068689507
40
4.2521790068689507
40
4.3239109310278119
40
4.3239109310278119
40
4.3239109310278119
40
4.3957746050409918
40
4.3957746050409918
40
4.3957746050409918
40
4.4676371561289479
40
4.4676371561289479
40
4.4676371561289479
40
4.5394988090869814
40
4.5394988090869814
40
4.5394988090869814
40
4.6113598754758529
40
4.6113598754758529
40
4.6113598754758529
40
4.6832209418647226
40
4.6832209418647226
40
4.6832209418647226
40
4.7550825948227562
40
4.7550825948227562
40
4.7550825948227562
40
4.8269451459107122
40
4.8269451459107122
40
4.8269451459107122
40
4.8988088199238922
40
4.8988088199238922
40
4.8988088199238922
40
4.9705407440827534
40
4.9705407440827534
40
4.9705407440827534
40
5.0414918546492036
40
5.0414918546492036
40
5.0414918546492036
40
5.1102433868510335
40
5.1102433868510335
40
5.1102433868510335
40
5.173852292873673
40
5.173852292873673
40
5.173852292873673
40
5.2347080147356326
40
5.2347080147356326
40
5.2347080147356326
40
5.2974198258236864
40
5.2974198258236864
40
5.2974198258236864
40
5.3613695178592211
40
5.3613695178592211
40
5.3613695178592211
40
5.4257957553769653
40
5.4257957553769653
40
5.4257957553769653
40
5.4903043913282801
40
5.4903043913282801
40
5.4903043913282801
40
5.5548130016440789
40
5.5548130016440789
40
5.5548130016440789
40
5.6203460603772282
40
5.6203460603772282
40
5.6203460603772282
40
5.6983689286463397
40
5.6983689286463397
40
5.6983689286463397
40
5.8194930645959682
40
5.8194930645959682
40
5.8194930645959682
40
5.9590665489715384
40
5.9590665489715384
40
5.9590665489715384
40
6.10051541490565
40
6.10051541490565
40
6.10051541490565
40
6.2419643855086298
40
6.2419643855086298
40
6.2419643855086298
40
6.2419643855086298
10
-8.9359754323959351
20
4.0834563970565805
30
0
10
-8.9402041081498957
20
4.5465392047046578
30
0
10
-8.9462562805656916
20
5.0095375417196921
30
0
10
-8.9338588714599627
20
5.4732215404510507
30
0
10
-8.9227675459044615
20
5.8880558127530502
30
0
10
-8.8969092446521252
20
6.3034388861153552
30
0
10
-8.8674098253250122
20
6.7147976160049438
30
0
10
-8.8447151881077684
20
7.0312661212819494
30
0
10
-8.8198655159426966
20
7.3453527755319712
30
0
10
-8.6681026220321638
20
7.6503455638885498
30
0
10
-8.5726680482039814
20
7.8421372201193451
30
0
10
-8.4270469468605853
20
8.0303328006646897
30
0
10
-8.2506513595581055
20
8.0834174156188965
30
0
10
-8.0379403999344028
20
8.1474308048472857
30
0
10
-7.7804792271997991
20
8.014974803429757
30
0
10
-7.5554084777832022
20
7.8766149282455444
30
0
10
-7.1965736225435126
20
7.6560249763686272
30
0
10
-6.9200705942854501
20
7.4204282211317185
30
0
10
-6.6420227289199838
20
7.1673381328582773
30
0
10
-6.2914925644270365
20
6.848271808945249
30
0
10
-5.9385071576461872
20
6.5014029608554793
30
0
10
-5.5957788228988647
20
6.1520314216613761
30
0
10
-5.2176593219992027
20
5.7665827188979604
30
0
10
-4.8520246195545678
20
5.3780877672702854
30
0
10
-4.4852009415626517
20
4.9885362386703509
30
0
10
-4.1151911183779957
20
4.5956011560507628
30
0
10
-3.7439715756162899
20
4.2015910623841224
30
0
10
-3.363900780677795
20
3.8159632682800289
30
0
10
-2.9993813468428683
20
3.4461142110785059
30
0
10
-2.6267201756234995
20
3.0839755298049147
30
0
10
-2.2426004707813258
20
2.7371087670326237
30
0
10
-1.8945273681605037
20
2.4227927119273547
30
0
10
-1.5370454100265318
20
2.1210167670418909
30
0
10
-1.1213002353906629
20
1.8822282552719114
30
0
10
-0.77455285536163454
20
1.6830695015719055
30
0
10
-0.38727642768082082
20
1.5277260541915905
30
0
10
-6.7541002040992335e-15
20
1.5277260541915891
30
0
10
0.38727642768081183
20
1.5277260541915876
30
0
10
0.77455285536163077
20
1.6830695015719035
30
0
10
1.1213002353906634
20
1.8822282552719118
30
0
10
1.5370454100265321
20
2.1210167670418905
30
0
10
1.8945273681605039
20
2.4227927119273538
30
0
10
2.2426004707813258
20
2.7371087670326228
30
0
10
2.6267201756234999
20
3.0839755298049147
30
0
10
2.9993813468428687
20
3.4461142110785059
30
0
10
3.3639007806777954
20
3.8159632682800297
30
0
10
3.7439715756162908
20
4.2015910623841233
30
0
10
4.1151911183779957
20
4.5956011560507628
30
0
10
4.4852009415626517
20
4.98853623867035
30
0
10
4.8520246195545687
20
5.3780877672702845
30
0
10
5.2176593219992036
20
5.7665827188979613
30
0
10
5.5957788228988639
20
6.1520314216613761
30
0
10
5.9385071576461854
20
6.5014029608554802
30
0
10
6.2914925644270356
20
6.848271808945249
30
0
10
6.6420227289199838
20
7.1673381328582773
30
0
10
6.9200705942854492
20
7.4204282211317185
30
0
10
7.1965736225435144
20
7.6560249763686281
30
0
10
7.5554084777832031
20
7.8766149282455462
30
0
10
7.7804792271997991
20
8.0149748034297588
30
0
10
8.0379403999343992
20
8.1474308048472857
30
0
10
8.2506513595581055
20
8.0834174156188965
30
0
10
8.4270469468605853
20
8.0303328006646897
30
0
10
8.5726680482039814
20
7.842137220119346
30
0
10
8.6681026220321655
20
7.6503455638885507
30
0
10
8.8198655159427002
20
7.3453527755319739
30
0
10
8.8447151881077684
20
7.0312661212819503
30
0
10
8.8674098253250122
20
6.7147976160049438
30
0
10
8.8969092446521216
20
6.3034388861153552
30
0
10
8.9227675459044598
20
5.8880558127530502
30
0
10
8.9338588714599609
20
5.4732215404510498
30
0
10
8.9462562805656916
20
5.0095375417196912
30
0
10
8.9402041081498957
20
4.5465392047046578
30
0
10
8.9359754323959368
20
4.0834563970565805
30
0
10
8.9316715315420012
20
3.6121356793559216
30
0
10
8.929256581798878
20
3.1407274589471657
30
0
10
8.9273685216903687
20
2.6689928770065308
30
0
10
8.9254804629789781
20
2.1972586441382473
30
0
10
8.9241192931224305
20
1.7251980502210842
30
0
10
8.91876220703125
20
1.2545304000377655
30
0
10
8.913476147175567
20
0.79010303623303912
30
0
10
8.9042994273462774
20
0.32703192469000708
30
0
10
8.9021247625350952
20
-0.14110527932643879
30
0
10
8.9002375531026363
20
-0.5473623459608794
30
0
10
8.9036236264590212
20
-0.95743471227200816
30
0
10
8.8051795959472656
20
-1.3484607636928558
30
0
10
8.7417662591727243
20
-1.600342635630313
30
0
10
8.6360998176516972
20
-1.8443214817677014
30
0
10
8.4994345903396606
20
-2.0662885904312138
30
0
10
8.3846465728403796
20
-2.2527234638416824
30
0
10
8.247989917246775
20
-2.4236297702983123
30
0
10
8.1133812665939331
20
-2.5958365201950073
30
0
10
7.9808768915813388
20
-2.7653512405145833
30
0
10
7.8503569909393658
20
-2.936126063593623
30
0
10
7.7192986011505145
20
-3.1065565347671513
30
0
10
7.5882401592794801
20
-3.2769870736692037
30
0
10
7.4566432278335784
20
-3.4470732603920546
30
0
10
7.3252147436141986
20
-3.6172759532928471
30
0
10
7.1939541361614934
20
-3.7872612421968324
30
0
10
7.0628615458867454
20
-3.9573627398365536
30
0
10
6.9297784566879272
20
-4.1259056329727182
30
0
10
6.7976797512954548
20
-4.293201854607064
30
0
10
6.6636198845642847
20
-4.4589624437134399
30
0
10
6.5262293815612793
20
-4.6219947934150696
30
0
10
6.391498361045505
20
-4.7818713086928746
30
0
10
6.2535643992333227
20
-4.9391241839383424
30
0
10
6.0983407497406006
20
-5.0804579257965088
30
0
10
5.9477112737928586
20
-5.217608595423223
30
0
10
5.7808004146235312
20
-5.3397685077833446
30
0
10
5.5974334478378296
20
-5.4260498285293579
30
0
10
5.4057707446266923
20
-5.5162346173203192
30
0
10
5.1961292648570332
20
-5.5672210004553371
30
0
10
4.9856469035148629
20
-5.6001949310302752
30
0
10
4.7581475524242629
20
-5.6358347241268092
30
0
10
4.5296658569985553
20
-5.6504318028718323
30
0
10
4.3008419871330261
20
-5.6611829996109009
30
0
10
4.0646973199362133
20
-5.6722781610440443
30
0
10
3.8281882335836892
20
-5.6792774201815384
30
0
10
3.5916972160339355
20
-5.6839799880981445
30
0
10
3.3526036261000187
20
-5.6887343075506926
30
0
10
3.113528504849794
20
-5.6911411076774385
30
0
10
2.8744396567344674
20
-5.6933867931365976
30
0
10
2.634911674701045
20
-5.6956366032408932
30
0
10
2.3953699153320125
20
-5.6977247062962366
30
0
10
2.1558295190334325
20
-5.6995701789855957
30
0
10
1.9162928657379317
20
-5.7014156228380237
30
0
10
1.6767575754702864
20
-5.7030184439069824
30
0
10
1.4372198283672331
20
-5.704338550567627
30
0
10
1.1976850749794734
20
-5.7056586407297303
30
0
10
0.95814786481771619
20
-5.7066960235501396
30
0
10
0.71860983967781067
20
-5.707404613494873
30
0
10
0.47907376976176808
20
-5.7081131976557575
30
0
10
0.23953688488088132
20
-5.7084929943084717
30
0
10
-6.7887946736187696e-15
20
-5.7084929943084717
30
0
10
-0.23953688488088906
20
-5.7084929943084717
30
0
10
-0.47907376976177279
20
-5.7081131976557566
30
0
10
-0.71860983967781067
20
-5.707404613494873
30
0
10
-0.95814786481771752
20
-5.7066960235501396
30
0
10
-1.1976850749794741
20
-5.7056586407297321
30
0
10
-1.4372198283672333
20
-5.7043385505676278
30
0
10
-1.6767575754702864
20
-5.7030184439069833
30
0
10
-1.9162928657379319
20
-5.7014156228380237
30
0
10
-2.155829519033432
20
-5.6995701789855957
30
0
10
-2.3953699153320116
20
-5.6977247062962357
30
0
10
-2.6349116747010437
20
-5.6956366032408932
30
0
10
-2.8744396567344666
20
-5.6933867931365967
30
0
10
-3.1135285048497936
20
-5.6911411076774385
30
0
10
-3.3526036261000183
20
-5.6887343075506926
30
0
10
-3.5916972160339355
20
-5.6839799880981445
30
0
10
-3.8281882335836892
20
-5.6792774201815384
30
0
10
-4.0646973199362133
20
-5.6722781610440451
30
0
10
-4.3008419871330261
20
-5.6611829996109009
30
0
10
-4.5296658569985535
20
-5.6504318028718314
30
0
10
-4.758147552424262
20
-5.6358347241268083
30
0
10
-4.9856469035148612
20
-5.6001949310302734
30
0
10
-5.1961292648570323
20
-5.5672210004553353
30
0
10
-5.4057707446266932
20
-5.5162346173203192
30
0
10
-5.5974334478378296
20
-5.4260498285293579
30
0
10
-5.780800414623533
20
-5.3397685077833446
30
0
10
-5.9477112737928595
20
-5.217608595423223
30
0
10
-6.0983407497406006
20
-5.0804579257965088
30
0
10
-6.253564399233321
20
-4.9391241839383424
30
0
10
-6.3914983610455023
20
-4.7818713086928746
30
0
10
-6.5262293815612775
20
-4.6219947934150687
30
0
10
-6.6636198845642838
20
-4.4589624437134399
30
0
10
-6.7976797512954548
20
-4.2932018546070658
30
0
10
-6.9297784566879281
20
-4.1259056329727182
30
0
10
-7.0628615458867463
20
-3.9573627398365541
30
0
10
-7.1939541361614934
20
-3.787261242196831
30
0
10
-7.3252147436141968
20
-3.6172759532928467
30
0
10
-7.4566432278335775
20
-3.4470732603920533
30
0
10
-7.5882401592794757
20
-3.2769870736692033
30
0
10
-7.7192986011505127
20
-3.1065565347671509
30
0
10
-7.8503569909393622
20
-2.9361260635936244
30
0
10
-7.9808768915813388
20
-2.7653512405145841
30
0
10
-8.1133812665939331
20
-2.5958365201950073
30
0
10
-8.2479899172467732
20
-2.4236297702983105
30
0
10
-8.3846465728403778
20
-2.2527234638416802
30
0
10
-8.4994345903396606
20
-2.0662885904312129
30
0
10
-8.636099817651699
20
-1.8443214817676998
30
0
10
-8.7417662591727243
20
-1.6003426356303132
30
0
10
-8.8051795959472656
20
-1.3484607636928561
30
0
10
-8.9036236264590212
20
-0.95743471227201038
30
0
10
-8.9002375531026381
20
-0.54736234596087951
30
0
10
-8.902124762535097
20
-0.14110527932643893
30
0
10
-8.904299427346281
20
0.3270319246900083
30
0
10
-8.9134761471755724
20
0.79010303623303912
30
0
10
-8.9187622070312518
20
1.2545304000377657
30
0
10
-8.9241192931224287
20
1.7251980502210826
30
0
10
-8.9254804629789763
20
2.1972586441382469
30
0
10
-8.9273685216903669
20
2.6689928770065308
30
0
10
-8.9292565817988763
20
3.1407274589471661
30
0
10
-8.9316715315419977
20
3.6121356793559221
30
0
10
-8.9359754323959351
20
4.0834563970565805
30
0
0
ENDSEC
0
SECTION
2
OBJECTS
0
DICTIONARY
5
C
100
AcDbDictionary
3
ACAD_GROUP
350
D
3
ACAD_MLINESTYLE
350
17
0
DICTIONARY
5
D
100
AcDbDictionary
0
DICTIONARY
5
1A
330
C
100
AcDbDictionary
0
DICTIONARY
5
17
100
AcDbDictionary
0
ENDSEC
0
EOF
