0
SECTION
2
HEADER
9
$INSUNITS
70
4
9
$ACADVER
1
AC1014
9
$HANDSEED
5
FFFF
0
ENDSEC
0
SECTION
2
TABLES
0
TABLE
2
VPORT
5
8
100
AcDbSymbolTable
0
ENDTAB
0
TABLE
2
LTYPE
5
5
100
AcDbSymbolTable
0
LTYPE
5
14
100
AcDbSymbolTableRecord
100
AcDbLinetypeTableRecord
2
BYBLOCK
70
0
0
LTYPE
5
15
100
AcDbSymbolTableRecord
100
AcDbLinetypeTableRecord
2
BYLAYER
70
0
0
LTYPE
5
16
100
AcDbSymbolTableRecord
100
AcDbLinetypeTableRecord
2
DASHED
70
0
3
Dashed __ __ __ __ __ __ __ __ __ __ __ __ __ _
72
65
73
2
40
0.75
49
0.5
74
0
49
-0.25
74
0
0
ENDTAB
0
TABLE
2
LAYER
5
2
100
AcDbSymbolTable
70
2
0
LAYER
5
50
100
AcDbSymbolTableRecord
100
AcDbLayerTableRecord
2
0
70
0
62
7
6
CONTINUOUS
0
ENDTAB
0
TABLE
2
STYLE
5
3
100
AcDbSymbolTable
70
1
0
STYLE
5
11
100
AcDbSymbolTableRecord
100
AcDbTextStyleTableRecord
2
STANDARD
70
0
0
ENDTAB
0
TABLE
2
VIEW
5
6
100
AcDbSymbolTable
70
0
0
ENDTAB
0
TABLE
2
UCS
5
7
100
AcDbSymbolTable
70
0
0
ENDTAB
0
TABLE
2
APPID
5
9
100
AcDbSymbolTable
70
2
0
APPID
5
12
100
AcDbSymbolTableRecord
100
AcDbRegAppTableRecord
2
ACAD
70
0
0
ENDTAB
0
TABLE
2
DIMSTYLE
5
A
100
AcDbSymbolTable
70
1
0
ENDTAB
0
TABLE
2
BLOCK_RECORD
5
1
100
AcDbSymbolTable
70
1
0
BLOCK_RECORD
5
1F
100
AcDbSymbolTableRecord
100
AcDbBlockTableRecord
2
*MODEL_SPACE
0
BLOCK_RECORD
5
1B
100
AcDbSymbolTableRecord
100
AcDbBlockTableRecord
2
*PAPER_SPACE
0
ENDTAB
0
ENDSEC
0
SECTION
2
BLOCKS
0
BLOCK
5
20
100
AcDbEntity
100
AcDbBlockBegin
2
*MODEL_SPACE
0
ENDBLK
5
21
100
AcDbEntity
100
AcDbBlockEnd
0
BLOCK
5
1C
100
AcDbEntity
100
AcDbBlockBegin
2
*PAPER_SPACE
0
ENDBLK
5
1D
100
AcDbEntity
100
AcDbBlockEnd
0
ENDSEC
0
SECTION
2
ENTITIES
0
SPLINE
5
100
100
AcDbEntity
8
0
100
AcDbSpline
70
2
71
3
72
341
73
337
74
0
42
0.000000001
43
0.0000000001
44
0.0000000001
40
0
40
0
40
0
40
0
40
0.1499935984611985
40
0.1499935984611985
40
0.1499935984611985
40
0.30407422780999949
40
0.30407422780999949
40
0.30407422780999949
40
0.46306005120286753
40
0.46306005120286753
40
0.46306005120286753
40
0.62776830792436411
40
0.62776830792436411
40
0.62776830792436411
40
0.79874393343938976
40
0.79874393343938976
40
0.79874393343938976
40
0.97544200718420382
40
0.97544200718420382
40
0.97544200718420382
40
1.1570450663568341
40
1.1570450663568341
40
1.1570450663568341
40
1.3427355587484204
40
1.3427355587484204
40
1.3427355587484204
40
1.5306001182164684
40
1.5306001182164684
40
1.5306001182164684
40
1.7143721920818173
40
1.7143721920818173
40
1.7143721920818173
40
1.8843740384824073
40
1.8843740384824073
40
1.8843740384824073
40
2.0224626053931858
40
2.0224626053931858
40
2.0224626053931858
40
2.1220637966189133
40
2.1220637966189133
40
2.1220637966189133
40
2.2061820607328397
40
2.2061820607328397
40
2.2061820607328397
40
2.2885096979606403
40
2.2885096979606403
40
2.2885096979606403
40
2.3711664992742048
40
2.3711664992742048
40
2.3711664992742048
40
2.4538423578388047
40
2.4538423578388047
40
2.4538423578388047
40
2.5359379012185967
40
2.5359379012185967
40
2.5359379012185967
40
2.6166902662643321
40
2.6166902662643321
40
2.6166902662643321
40
2.6946790478598932
40
2.6946790478598932
40
2.6946790478598932
40
2.7693702668529903
40
2.7693702668529903
40
2.7693702668529903
40
2.8422184364939493
40
2.8422184364939493
40
2.8422184364939493
40
2.9143813123550024
40
2.9143813123550024
40
2.9143813123550024
40
2.9862841072162798
40
2.9862841072162798
40
2.9862841072162798
40
3.0581451060856177
40
3.0581451060856177
40
3.0581451060856177
40
3.1300060900537945
40
3.1300060900537945
40
3.1300060900537945
40
3.2018670814725518
40
3.2018670814725518
40
3.2018670814725518
40
3.2737280728913083
40
3.2737280728913083
40
3.2737280728913083
40
3.3455890643100661
40
3.3455890643100661
40
3.3455890643100661
40
3.4174500557288234
40
3.4174500557288234
40
3.4174500557288234
40
3.4893110396970002
40
3.4893110396970002
40
3.4893110396970002
40
3.5611720385663381
40
3.5611720385663381
40
3.5611720385663381
40
3.6330748334276155
40
3.6330748334276155
40
3.6330748334276155
40
3.7052377092886686
40
3.7052377092886686
40
3.7052377092886686
40
3.7780858789296277
40
3.7780858789296277
40
3.7780858789296277
40
3.8527770979227247
40
3.8527770979227247
40
3.8527770979227247
40
3.9307658795182858
40
3.9307658795182858
40
3.9307658795182858
40
4.0115182445640212
40
4.0115182445640212
40
4.0115182445640212
40
4.0936137879438128
40
4.0936137879438128
40
4.0936137879438128
40
4.1762896465084127
40
4.1762896465084127
40
4.1762896465084127
40
4.2589464478219767
40
4.2589464478219767
40
4.2589464478219767
40
4.3412740850497773
40
4.3412740850497773
40
4.3412740850497773
40
4.4253923491637037
40
4.4253923491637037
40
4.4253923491637037
40
4.5249935403894312
40
4.5249935403894312
40
4.5249935403894312
40
4.6630821073002098
40
4.6630821073002098
40
4.6630821073002098
40
4.8330839537007995
40
4.8330839537007995
40
4.8330839537007995
40
5.0168560275661482
40
5.0168560275661482
40
5.0168560275661482
40
5.2047205870341964
40
5.2047205870341964
40
5.2047205870341964
40
5.3904110794257827
40
5.3904110794257827
40
5.3904110794257827
40
5.572014138598413
40
5.572014138598413
40
5.572014138598413
40
5.7487122123432268
40
5.7487122123432268
40
5.7487122123432268
40
5.9196878378582527
40
5.9196878378582527
40
5.9196878378582527
40
6.0843960945797493
40
6.0843960945797493
40
6.0843960945797493
40
6.2433819179726173
40
6.2433819179726173
40
6.2433819179726173
40
6.3974625473214184
40
6.3974625473214184
40
6.3974625473214184
40
6.5474561457826166
40
6.5474561457826166
40
6.5474561457826166
40
6.6932673884029494
40
6.6932673884029494
40
6.6932673884029494
40
6.8311656108900269
40
6.8311656108900269
40
6.8311656108900269
40
6.9544589793093952
40
6.9544589793093952
40
6.9544589793093952
40
7.0485799446246595
40
7.0485799446246595
40
7.0485799446246595
40
7.1059583544087657
40
7.1059583544087657
40
7.1059583544087657
40
7.1460186896707638
40
7.1460186896707638
40
7.1460186896707638
40
7.1840387957843994
40
7.1840387957843994
40
7.1840387957843994
40
7.2226165143219729
40
7.2226165143219729
40
7.2226165143219729
40
7.2613631291108733
40
7.2613631291108733
40
7.2613631291108733
40
7.3002642985982167
40
7.3002642985982167
40
7.3002642985982167
40
7.3403952196345577
40
7.3403952196345577
40
7.3403952196345577
40
7.3845551109899574
40
7.3845551109899574
40
7.3845551109899574
40
7.4364070710655934
40
7.4364070710655934
40
7.4364070710655934
40
7.4959361790675088
40
7.4959361790675088
40
7.4959361790675088
40
7.5609285508537027
40
7.5609285508537027
40
7.5609285508537027
40
7.6287343405336339
40
7.6287343405336339
40
7.6287343405336339
40
7.696860621990238
40
7.696860621990238
40
7.696860621990238
40
7.7640947274334833
40
7.7640947274334833
40
7.7640947274334833
40
7.8293298097905835
40
7.8293298097905835
40
7.8293298097905835
40
7.891424606368826
40
7.891424606368826
40
7.891424606368826
40
7.9538885411861839
40
7.9538885411861839
40
7.9538885411861839
40
8.019955780475005
40
8.019955780475005
40
8.019955780475005
40
8.0881837967892523
40
8.0881837967892523
40
8.0881837967892523
40
8.1573585741569836
40
8.1573585741569836
40
8.1573585741569836
40
8.2266929606484887
40
8.2266929606484887
40
8.2266929606484887
40
8.2960242417290964
40
8.2960242417290964
40
8.2960242417290964
40
8.3653529117643473
40
8.3653529117643473
40
8.3653529117643473
40
8.4346799491631046
40
8.4346799491631046
40
8.4346799491631046
40
8.5040069865618602
40
8.5040069865618602
40
8.5040069865618602
40
8.5733356565971111
40
8.5733356565971111
40
8.5733356565971111
40
8.6426669376777188
40
8.6426669376777188
40
8.6426669376777188
40
8.7120013241692238
40
8.7120013241692238
40
8.7120013241692238
40
8.7811761015369552
40
8.7811761015369552
40
8.7811761015369552
40
8.8494041178512024
40
8.8494041178512024
40
8.8494041178512024
40
8.9154713571400244
40
8.9154713571400244
40
8.9154713571400244
40
8.9779352919573832
40
8.9779352919573832
40
8.9779352919573832
40
9.0400300885356248
40
9.0400300885356248
40
9.0400300885356248
40
9.105265170892725
40
9.105265170892725
40
9.105265170892725
40
9.1724992763359712
40
9.1724992763359712
40
9.1724992763359712
40
9.2406255577925762
40
9.2406255577925762
40
9.2406255577925762
40
9.3084313474725082
40
9.3084313474725082
40
9.3084313474725082
40
9.3734237192587013
40
9.3734237192587013
40
9.3734237192587013
40
9.4329528272606158
40
9.4329528272606158
40
9.4329528272606158
40
9.4848047873362518
40
9.4848047873362518
40
9.4848047873362518
40
9.5289646786916506
40
9.5289646786916506
40
9.5289646786916506
40
9.5690955997279925
40
9.5690955997279925
40
9.5690955997279925
40
9.6079967692153367
40
9.6079967692153367
40
9.6079967692153367
40
9.6467433840042371
40
9.6467433840042371
40
9.6467433840042371
40
9.6853211025418098
40
9.6853211025418098
40
9.6853211025418098
40
9.7233412086554463
40
9.7233412086554463
40
9.7233412086554463
40
9.7634015439174444
40
9.7634015439174444
40
9.7634015439174444
40
9.8207799537015514
40
9.8207799537015514
40
9.8207799537015514
40
9.9149009190168158
40
9.9149009190168158
40
9.9149009190168158
40
10.038194287436184
40
10.038194287436184
40
10.038194287436184
40
10.176092509923262
40
10.176092509923262
40
10.176092509923262
40
10.321903752543594
40
10.321903752543594
40
10.321903752543594
40
10.321903752543594
10
-12.003906965255737
20
8.6893421411514318
30
0
10
-12.003944070710478
20
8.1893334911905331
30
0
10
-12.003915942643246
20
7.6893766753297257
30
0
10
-12.003905773162842
20
7.1894061565399126
30
0
10
-12.003895326584077
20
6.6758124233319647
30
0
10
-12.003903830598011
20
6.1622042302654059
30
0
10
-12.003906965255737
20
5.6485998630523673
30
0
10
-12.003910199706048
20
5.1186447767793943
30
0
10
-12.003907717488902
20
4.5886937638313183
30
0
10
-12.003906965255739
20
4.0587416291236886
30
0
10
-12.003906185947177
20
3.5097147386075807
30
0
10
-12.003907263399697
20
2.9606866441268762
30
0
10
-12.003906965255737
20
2.4116590619087228
30
0
10
-12.003906655767004
20
1.8417402481028353
30
0
10
-12.003904864003502
20
1.2718219862857529
30
0
10
-12.003905773162842
20
0.70190280675888084
30
0
10
-12.003906712751181
20
0.11290878548084138
30
0
10
-12.003910537084357
20
-0.47608621596536199
30
0
10
-12.003906965255737
20
-1.065077930688858
30
0
10
-12.003903294276249
20
-1.6704195450835613
30
0
10
-12.003891810813624
20
-2.2757576877497607
30
0
10
-12.003906965255737
20
-2.881108522415162
30
0
10
-12.003922460786658
20
-3.5000842988739835
30
0
10
-12.003965806822736
20
-4.1190733450922981
30
0
10
-12.003906965255737
20
-4.7380134463310242
30
0
10
-12.003847434770789
20
-5.364200107579765
30
0
10
-12.003683309847142
20
-5.9903366710425443
30
0
10
-11.998767852783203
20
-6.616652011871337
30
0
10
-11.99395947518823
20
-7.2293235524945523
30
0
10
-11.984604518960968
20
-7.8421661662669893
30
0
10
-11.962794065475464
20
-8.454020619392395
30
0
10
-11.942617891340941
20
-9.0200281991727458
30
0
10
-11.91178289263692
20
-9.5851901578779302
30
0
10
-11.853127479553223
20
-10.150498151779175
30
0
10
-11.805483044473373
20
-10.609684757065121
30
0
10
-11.739482875084576
20
-11.068967715454294
30
0
10
-11.578825712203979
20
-11.503865718841553
30
0
10
-11.462946134626844
20
-11.817551059837587
30
0
10
-11.29782108254993
20
-12.118550083262921
30
0
10
-11.071248054504395
20
-12.36083984375
30
0
10
-10.879895626087821
20
-12.565465850868353
30
0
10
-10.644714444024036
20
-12.728216535300021
30
0
10
-10.399035215377811
20
-12.866525650024414
30
0
10
-10.158585764554637
20
-13.00189057632516
30
0
10
-9.9080804542790144
20
-13.113843433738278
30
0
10
-9.6531325578689575
20
-13.214969635009766
30
0
10
-9.3971653234326311
20
-13.316500161180024
30
0
10
-9.1367199069615985
20
-13.407117283408915
30
0
10
-8.8763934373855573
20
-13.49761962890625
30
0
10
-8.6160069472570271
20
-13.588142840513694
30
0
10
-8.3557394588783112
20
-13.678551222457912
30
0
10
-8.0949306488037127
20
-13.767518997192383
30
0
10
-7.8359524978289476
20
-13.855862292767725
30
0
10
-7.5764405977366911
20
-13.942785133865261
30
0
10
-7.3159635066986084
20
-14.026706218719482
30
0
10
-7.0597481230662726
20
-14.109254257263196
30
0
10
-6.8025988734058078
20
-14.18889796046013
30
0
10
-6.5429586172103882
20
-14.260282516479492
30
0
10
-6.2922040142662912
20
-14.329224083027256
30
0
10
-6.0391259864371252
20
-14.390462133822435
30
0
10
-5.7832759618759155
20
-14.436655044555664
30
0
10
-5.538243922357835
20
-14.480894802388997
30
0
10
-5.2906693443408104
20
-14.51133481529936
30
0
10
-5.0424700975418091
20
-14.531967639923096
30
0
10
-4.8003953117862981
20
-14.552091337576238
30
0
10
-4.5577263050301395
20
-14.56288587167046
30
0
10
-4.3149858713150024
20
-14.570076465606689
30
0
10
-4.074528933673637
20
-14.57719941653524
30
0
10
-3.8340019066008706
20
-14.580785914000185
30
0
10
-3.5934653878211975
20
-14.582576751708984
30
0
10
-3.3537957826385827
20
-14.5843611350899
30
0
10
-3.1141167540435704
20
-14.584362778803982
30
0
10
-2.8744396567344666
20
-14.584362506866455
30
0
10
-2.6349018800463009
20
-14.584362235087003
30
0
10
-2.3953660323994432
20
-14.584360049882378
30
0
10
-2.1558296680450439
20
-14.584360122680664
30
0
10
-1.9162933533611202
20
-14.58436019547894
30
0
10
-1.6767565219698699
20
-14.584362526279197
30
0
10
-1.4372198283672333
20
-14.584362506866455
30
0
10
-1.1976831099293195
20
-14.584362487453708
30
0
10
-0.95814652928004862
20
-14.58436011782748
30
0
10
-0.71860991418361664
20
-14.584360122680664
30
0
10
-0.47907329908718743
20
-14.58436012753385
30
0
10
-0.23953664954359716
20
-14.584362506866455
30
0
10
-6.852157730108388e-15
20
-14.584362506866455
30
0
10
0.23953664954358794
20
-14.584362506866455
30
0
10
0.47907329908718288
20
-14.58436012753385
30
0
10
0.71860991418361653
20
-14.584360122680664
30
0
10
0.95814652928004851
20
-14.584360117827478
30
0
10
1.1976831099293195
20
-14.58436248745371
30
0
10
1.4372198283672333
20
-14.584362506866455
30
0
10
1.6767565219698699
20
-14.584362526279197
30
0
10
1.9162933533611206
20
-14.584360195478938
30
0
10
2.1558296680450439
20
-14.584360122680664
30
0
10
2.3953660323994432
20
-14.584360049882374
30
0
10
2.6349018800463004
20
-14.584362235087003
30
0
10
2.8744396567344666
20
-14.584362506866457
30
0
10
3.1141167540435695
20
-14.584362778803984
30
0
10
3.3537957826385822
20
-14.584361135089903
30
0
10
3.5934653878211975
20
-14.582576751708986
30
0
10
3.8340019066008701
20
-14.580785914000188
30
0
10
4.074528933673637
20
-14.57719941653524
30
0
10
4.3149858713150024
20
-14.570076465606689
30
0
10
4.5577263050301395
20
-14.56288587167046
30
0
10
4.8003953117862972
20
-14.552091337576243
30
0
10
5.0424700975418091
20
-14.531967639923097
30
0
10
5.2906693443408104
20
-14.511334815299364
30
0
10
5.538243922357835
20
-14.480894802388999
30
0
10
5.7832759618759164
20
-14.436655044555666
30
0
10
6.0391259864371261
20
-14.390462133822435
30
0
10
6.2922040142662912
20
-14.329224083027256
30
0
10
6.5429586172103882
20
-14.260282516479492
30
0
10
6.8025988734058052
20
-14.18889796046013
30
0
10
7.0597481230662709
20
-14.109254257263196
30
0
10
7.3159635066986084
20
-14.026706218719482
30
0
10
7.5764405977366902
20
-13.942785133865261
30
0
10
7.8359524978289468
20
-13.855862292767725
30
0
10
8.0949306488037109
20
-13.767518997192383
30
0
10
8.3557394588783112
20
-13.678551222457909
30
0
10
8.6160069472570271
20
-13.588142840513694
30
0
10
8.8763934373855591
20
-13.49761962890625
30
0
10
9.1367199069615985
20
-13.407117283408915
30
0
10
9.3971653234326329
20
-13.316500161180025
30
0
10
9.6531325578689575
20
-13.214969635009766
30
0
10
9.9080804542790162
20
-13.113843433738278
30
0
10
10.158585764554635
20
-13.00189057632516
30
0
10
10.399035215377808
20
-12.866525650024414
30
0
10
10.644714444024036
20
-12.728216535300021
30
0
10
10.879895626087821
20
-12.565465850868353
30
0
10
11.071248054504395
20
-12.36083984375
30
0
10
11.297821082549932
20
-12.118550083262921
30
0
10
11.462946134626844
20
-11.817551059837587
30
0
10
11.578825712203979
20
-11.503865718841553
30
0
10
11.739482875084574
20
-11.068967715454294
30
0
10
11.805483044473373
20
-10.609684757065118
30
0
10
11.853127479553223
20
-10.150498151779173
30
0
10
11.911782892636921
20
-9.5851901578779302
30
0
10
11.942617891340941
20
-9.0200281991727458
30
0
10
11.962794065475464
20
-8.4540206193923932
30
0
10
11.984604518960968
20
-7.8421661662669893
30
0
10
11.993959475188227
20
-7.2293235524945496
30
0
10
11.998767852783203
20
-6.6166520118713379
30
0
10
12.003683309847142
20
-5.9903366710425452
30
0
10
12.003847434770789
20
-5.3642001075797676
30
0
10
12.003906965255741
20
-4.7380134463310251
30
0
10
12.003965806822738
20
-4.1190733450922989
30
0
10
12.003922460786656
20
-3.5000842988739826
30
0
10
12.003906965255737
20
-2.8811085224151611
30
0
10
12.003891810813624
20
-2.2757576877497594
30
0
10
12.003903294276251
20
-1.6704195450835615
30
0
10
12.003906965255737
20
-1.0650779306888578
30
0
10
12.003910537084357
20
-0.47608621596536205
30
0
10
12.003906712751181
20
0.11290878548084221
30
0
10
12.003905773162842
20
0.70190280675888084
30
0
10
12.003904864003502
20
1.2718219862857529
30
0
10
12.003906655767002
20
1.8417402481028342
30
0
10
12.003906965255737
20
2.4116590619087224
30
0
10
12.003907263399693
20
2.9606866441268744
30
0
10
12.003906185947177
20
3.5097147386075807
30
0
10
12.003906965255737
20
4.0587416291236877
30
0
10
12.0039077174889
20
4.5886937638313166
30
0
10
12.003910199706048
20
5.1186447767793926
30
0
10
12.003906965255737
20
5.6485998630523682
30
0
10
12.003903830598009
20
6.1622042302654076
30
0
10
12.003895326584075
20
6.6758124233319682
30
0
10
12.003905773162842
20
7.189406156539917
30
0
10
12.003915942643244
20
7.6893766753297292
30
0
10
12.003944070710482
20
8.1893334911905349
30
0
10
12.003906965255741
20
8.68934214115143
30
0
10
12.003870894433257
20
9.17540876879203
30
0
10
12.003773177256134
20
9.6615243801946598
30
0
10
12.00136661529541
20
10.147452354431152
30
0
10
11.999090654877511
20
10.607009537401177
30
0
10
11.994749646930849
20
11.066398896328206
30
0
10
11.983588933944704
20
11.526319980621338
30
0
10
11.973610256386673
20
11.9375306450293
30
0
10
11.958179932285184
20
12.349166368693842
30
0
10
11.929391622543335
20
12.75806188583374
30
0
10
11.907414905243494
20
13.070208769966118
30
0
10
11.877653624149485
20
13.380758758198581
30
0
10
11.793832778930664
20
13.689458370208742
30
0
10
11.742733570701066
20
13.877649096672114
30
0
10
11.671543581920798
20
14.065152146436271
30
0
10
11.542987823486328
20
14.205505847930908
30
0
10
11.453233039376368
20
14.303497694660251
30
0
10
11.335515177646695
20
14.378506482096105
30
0
10
11.210780143737791
20
14.429383277893066
30
0
10
11.092397728955476
20
14.477668974012968
30
0
10
10.967694695016942
20
14.504218118038292
30
0
10
10.84215521812439
20
14.522488117218018
30
0
10
10.714774547738038
20
14.541026068793704
30
0
10
10.586532719514871
20
14.551040246653901
30
0
10
10.458291769027712
20
14.560866355895998
30
0
10
10.329489369688078
20
14.570735484608374
30
0
10
10.200687855786875
20
14.580414894339771
30
0
10
10.071538686752319
20
14.584362506866459
30
0
10
9.9418743601747632
20
14.588325865854275
30
0
10
9.8118595994392308
20
14.5865116098022
30
0
10
9.6826851367950422
20
14.57327127456665
30
0
10
9.5494271852064081
20
14.559612383205929
30
0
10
9.4170634987878064
20
14.533793587224352
30
0
10
9.289599657058714
20
14.492444992065428
30
0
10
9.1493389987647937
20
14.446945177389781
30
0
10
9.0150114183959325
20
14.382640785320685
30
0
10
8.8900101184844971
20
14.30446147918701
30
0
10
8.7432352462311549
20
14.212664372446877
30
0
10
8.6093186526774588
20
14.101737719604149
30
0
10
8.4823793172836304
20
13.983993530273438
30
0
10
8.3366454743328937
20
13.848816257263088
30
0
10
8.2001079325696669
20
13.704653202522463
30
0
10
8.0682438611984253
20
13.556368350982668
30
0
10
7.9242780092067377
20
13.39447470726765
30
0
10
7.7858828026597227
20
13.227667997535878
30
0
10
7.6498764753341675
20
13.059005737304689
30
0
10
7.5079826472997926
20
12.883042352220055
30
0
10
7.368688996653356
20
12.705059291796692
30
0
10
7.2294104099273682
20
12.527055740356445
30
0
10
7.0894735071206583
20
12.348210834885453
30
0
10
6.9495518109736008
20
12.169345244233545
30
0
10
6.8070155382156372
20
11.992545127868652
30
0
10
6.6663459084164458
20
11.818060370857113
30
0
10
6.5231297341464334
20
11.645587343814887
30
0
10
6.375153660774231
20
11.477241516113281
30
0
10
6.2315772530913085
20
11.313900993290993
30
0
10
6.0835197837984936
20
11.154445896215041
30
0
10
5.9193152189254761
20
11.010580062866211
30
0
10
5.7630151318466538
20
10.873639641645404
30
0
10
5.5920851095391635
20
10.750823736964282
30
0
10
5.4048323631286621
20
10.662896633148193
30
0
10
5.2164664453593907
20
10.57444682440252
30
0
10
5.0115831575086913
20
10.52130186011469
30
0
10
4.8052307963371286
20
10.487818717956543
30
0
10
4.5869747600627955
20
10.452404061938285
30
0
10
4.3670752714485515
20
10.438985086548826
30
0
10
4.1469845175743094
20
10.431251525878906
30
0
10
3.9196955358098249
20
10.423265033492747
30
0
10
3.69220257325731
20
10.421341928544463
30
0
10
3.4647619724273682
20
10.422384738922119
30
0
10
3.234165308817365
20
10.423442019781334
30
0
10
3.0036224701996463
20
10.42754809968098
30
0
10
2.773071825504303
20
10.431313514709473
30
0
10
2.5419892241076081
20
10.435087617797638
30
0
10
2.3108987805693171
20
10.438519482147639
30
0
10
2.0798037946224217
20
10.441567897796631
30
0
10
1.8487191591657226
20
10.44461617691044
30
0
10
1.6176299817073092
20
10.447281041670962
30
0
10
1.3865360617637634
20
10.449473857879639
30
0
10
1.1554508449149428
20
10.45166659150593
30
0
10
0.92436088593819121
20
10.453387312134804
30
0
10
0.69326803088188171
20
10.454561710357666
30
0
10
0.46218061788335829
20
10.455736080924357
30
0
10
0.23109030894167648
20
10.456364154815672
30
0
10
-6.83481049534862e-15
20
10.456364154815674
30
0
10
-0.23109030894168422
20
10.456364154815674
30
0
10
-0.46218061788336307
20
10.455736080924357
30
0
10
-0.6932680308818816
20
10.454561710357666
30
0
10
-0.92436088593819221
20
10.453387312134804
30
0
10
-1.155450844914943
20
10.451666591505933
30
0
10
-1.3865360617637634
20
10.449473857879639
30
0
10
-1.6176299817073088
20
10.447281041670962
30
0
10
-1.8487191591657219
20
10.444616176910436
30
0
10
-2.0798037946224208
20
10.441567897796631
30
0
10
-2.3108987805693166
20
10.438519482147637
30
0
10
-2.5419892241076081
20
10.435087617797636
30
0
10
-2.773071825504303
20
10.431313514709473
30
0
10
-3.0036224701996463
20
10.427548099680976
30
0
10
-3.2341653088173645
20
10.423442019781334
30
0
10
-3.4647619724273682
20
10.422384738922119
30
0
10
-3.6922025732573105
20
10.421341928544464
30
0
10
-3.9196955358098262
20
10.423265033492747
30
0
10
-4.1469845175743094
20
10.431251525878906
30
0
10
-4.3670752714485523
20
10.438985086548826
30
0
10
-4.5869747600627955
20
10.452404061938285
30
0
10
-4.8052307963371268
20
10.487818717956543
30
0
10
-5.0115831575086878
20
10.521301860114686
30
0
10
-5.2164664453593881
20
10.574446824402514
30
0
10
-5.4048323631286612
20
10.662896633148193
30
0
10
-5.5920851095391608
20
10.750823736964282
30
0
10
-5.7630151318466547
20
10.87363964164541
30
0
10
-5.9193152189254761
20
11.010580062866211
30
0
10
-6.0835197837984953
20
11.154445896215046
30
0
10
-6.2315772530913103
20
11.313900993290995
30
0
10
-6.375153660774231
20
11.477241516113281
30
0
10
-6.5231297341464334
20
11.645587343814888
30
0
10
-6.666345908416444
20
11.818060370857113
30
0
10
-6.8070155382156372
20
11.992545127868651
30
0
10
-6.9495518109735999
20
12.169345244233543
30
0
10
-7.0894735071206583
20
12.348210834885451
30
0
10
-7.2294104099273682
20
12.527055740356444
30
0
10
-7.368688996653356
20
12.705059291796687
30
0
10
-7.5079826472997881
20
12.883042352220045
30
0
10
-7.6498764753341666
20
13.059005737304686
30
0
10
-7.7858828026597209
20
13.227667997535875
30
0
10
-7.9242780092067369
20
13.394474707267648
30
0
10
-8.0682438611984271
20
13.556368350982668
30
0
10
-8.2001079325696686
20
13.704653202522469
30
0
10
-8.3366454743328973
20
13.848816257263092
30
0
10
-8.4823793172836321
20
13.983993530273438
30
0
10
-8.6093186526774605
20
14.10173771960415
30
0
10
-8.7432352462311513
20
14.212664372446877
30
0
10
-8.8900101184844971
20
14.304461479187012
30
0
10
-9.0150114183959325
20
14.382640785320685
30
0
10
-9.1493389987647973
20
14.446945177389779
30
0
10
-9.2895996570587158
20
14.492444992065428
30
0
10
-9.4170634987878099
20
14.533793587224356
30
0
10
-9.5494271852064081
20
14.559612383205927
30
0
10
-9.6826851367950422
20
14.573271274566649
30
0
10
-9.8118595994392273
20
14.5865116098022
30
0
10
-9.9418743601747632
20
14.588325865854269
30
0
10
-10.071538686752319
20
14.584362506866455
30
0
10
-10.200687855786871
20
14.580414894339768
30
0
10
-10.329489369688076
20
14.570735484608374
30
0
10
-10.45829176902771
20
14.560866355895996
30
0
10
-10.586532719514869
20
14.551040246653898
30
0
10
-10.714774547738042
20
14.541026068793702
30
0
10
-10.84215521812439
20
14.522488117218016
30
0
10
-10.967694695016945
20
14.504218118038295
30
0
10
-11.092397728955479
20
14.477668974012969
30
0
10
-11.210780143737793
20
14.429383277893066
30
0
10
-11.335515177646695
20
14.378506482096105
30
0
10
-11.453233039376368
20
14.303497694660251
30
0
10
-11.542987823486328
20
14.205505847930908
30
0
10
-11.671543581920798
20
14.065152146436269
30
0
10
-11.742733570701064
20
13.877649096672116
30
0
10
-11.793832778930664
20
13.689458370208742
30
0
10
-11.877653624149483
20
13.380758758198585
30
0
10
-11.907414905243492
20
13.07020876996612
30
0
10
-11.929391622543335
20
12.75806188583374
30
0
10
-11.958179932285184
20
12.34916636869384
30
0
10
-11.973610256386673
20
11.937530645029298
30
0
10
-11.983588933944702
20
11.526319980621338
30
0
10
-11.994749646930849
20
11.066398896328209
30
0
10
-11.999090654877513
20
10.607009537401177
30
0
10
-12.001366615295412
20
10.147452354431154
30
0
10
-12.003773177256134
20
9.6615243801946598
30
0
10
-12.003870894433256
20
9.1754087687920318
30
0
10
-12.003906965255737
20
8.6893421411514318
30
0
0
SPLINE
5
101
100
AcDbEntity
8
0
100
AcDbSpline
70
2
71
3
72
245
73
241
74
0
42
0.000000001
43
0.0000000001
44
0.0000000001
40
0
40
0
40
0
40
0
40
0.11067789799184065
40
0.11067789799184065
40
0.11067789799184065
40
0.22249088250940938
40
0.22249088250940938
40
0.22249088250940938
40
0.33430389499316815
40
0.33430389499316815
40
0.33430389499316815
40
0.44611683389088935
40
0.44611683389088935
40
0.44611683389088935
40
0.55792988408521216
40
0.55792988408521216
40
0.55792988408521216
40
0.66848666032097714
40
0.66848666032097714
40
0.66848666032097714
40
0.76685619321164245
40
0.76685619321164245
40
0.76685619321164245
40
0.83867987619832252
40
0.83867987619832252
40
0.83867987619832252
40
0.90371504246431389
40
0.90371504246431389
40
0.90371504246431389
40
0.96822365278011291
40
0.96822365278011291
40
0.96822365278011291
40
1.0327323123261392
40
1.0327323123261392
40
1.0327323123261392
40
1.0971585498438836
40
1.0971585498438836
40
1.0971585498438836
40
1.1611082187602961
40
1.1611082187602961
40
1.1611082187602961
40
1.2238200516357418
40
1.2238200516357418
40
1.2238200516357418
40
1.2846757734977019
40
1.2846757734977019
40
1.2846757734977019
40
1.3482846632021219
40
1.3482846632021219
40
1.3482846632021219
40
1.417036200691383
40
1.417036200691383
40
1.417036200691383
40
1.487987309342728
40
1.487987309342728
40
1.487987309342728
40
1.5597192342832595
40
1.5597192342832595
40
1.5597192342832595
40
1.6315829082964393
40
1.6315829082964393
40
1.6315829082964393
40
1.7034454593843957
40
1.7034454593843957
40
1.7034454593843957
40
1.7753071123424293
40
1.7753071123424293
40
1.7753071123424293
40
1.847168178731299
40
1.847168178731299
40
1.847168178731299
40
1.91902924512017
40
1.91902924512017
40
1.91902924512017
40
1.9908908980782036
40
1.9908908980782036
40
1.9908908980782036
40
2.0627534491661601
40
2.0627534491661601
40
2.0627534491661601
40
2.13461712317934
40
2.13461712317934
40
2.13461712317934
40
2.2063490481198715
40
2.2063490481198715
40
2.2063490481198715
40
2.2773001567712163
40
2.2773001567712163
40
2.2773001567712163
40
2.3460516942604772
40
2.3460516942604772
40
2.3460516942604772
40
2.4096605839648975
40
2.4096605839648975
40
2.4096605839648975
40
2.4705163058268576
40
2.4705163058268576
40
2.4705163058268576
40
2.5332281387023032
40
2.5332281387023032
40
2.5332281387023032
40
2.5971778076187158
40
2.5971778076187158
40
2.5971778076187158
40
2.6616040451364604
40
2.6616040451364604
40
2.6616040451364604
40
2.7261127046824867
40
2.7261127046824867
40
2.7261127046824867
40
2.7906213149982859
40
2.7906213149982859
40
2.7906213149982859
40
2.8556564812642775
40
2.8556564812642775
40
2.8556564812642775
40
2.9274801642509578
40
2.9274801642509578
40
2.9274801642509578
40
3.0258496971416231
40
3.0258496971416231
40
3.0258496971416231
40
3.136406473377388
40
3.136406473377388
40
3.136406473377388
40
3.2482195235717106
40
3.2482195235717106
40
3.2482195235717106
40
3.360032462469432
40
3.360032462469432
40
3.360032462469432
40
3.4718454749531906
40
3.4718454749531906
40
3.4718454749531906
40
3.5836584594707594
40
3.5836584594707594
40
3.5836584594707594
40
3.6943363574626003
40
3.6943363574626003
40
3.6943363574626003
40
3.7940648075511967
40
3.7940648075511967
40
3.7940648075511967
40
3.8704979181562869
40
3.8704979181562869
40
3.8704979181562869
40
3.941131522338849
40
3.941131522338849
40
3.941131522338849
40
4.011316932351483
40
4.011316932351483
40
4.011316932351483
40
4.0815021763316501
40
4.0815021763316501
40
4.0815021763316501
40
4.1515673749750412
40
4.1515673749750412
40
4.1515673749750412
40
4.2209293372997623
40
4.2209293372997623
40
4.2209293372997623
40
4.2883778399827301
40
4.2883778399827301
40
4.2883778399827301
40
4.3520511782213314
40
4.3520511782213314
40
4.3520511782213314
40
4.4163598680684153
40
4.4163598680684153
40
4.4163598680684153
40
4.485191013663135
40
4.485191013663135
40
4.485191013663135
40
4.556150363360282
40
4.556150363360282
40
4.556150363360282
40
4.6278800957755823
40
4.6278800957755823
40
4.6278800957755823
40
4.6997410946445246
40
4.6997410946445246
40
4.6997410946445246
40
4.7716020786123057
40
4.7716020786123057
40
4.7716020786123057
40
4.8434630700306673
40
4.8434630700306673
40
4.8434630700306673
40
4.9153240614490299
40
4.9153240614490299
40
4.9153240614490299
40
4.9871850528673907
40
4.9871850528673907
40
4.9871850528673907
40
5.0590460442857523
40
5.0590460442857523
40
5.0590460442857523
40
5.1309070282535334
40
5.1309070282535334
40
5.1309070282535334
40
5.2027680271224757
40
5.2027680271224757
40
5.2027680271224757
40
5.274497759537776
40
5.274497759537776
40
5.274497759537776
40
5.345457109234923
40
5.345457109234923
40
5.345457109234923
40
5.4142882548296427
40
5.4142882548296427
40
5.4142882548296427
40
5.4785969446767266
40
5.4785969446767266
40
5.4785969446767266
40
5.5422702829153279
40
5.5422702829153279
40
5.5422702829153279
40
5.6097187855982957
40
5.6097187855982957
40
5.6097187855982957
40
5.6790807479230168
40
5.6790807479230168
40
5.6790807479230168
40
5.7491459465664079
40
5.7491459465664079
40
5.7491459465664079
40
5.819331190546575
40
5.819331190546575
40
5.819331190546575
40
5.889516600559209
40
5.889516600559209
40
5.889516600559209
40
5.9601502047417707
40
5.9601502047417707
40
5.9601502047417707
40
6.0365833153468609
40
6.0365833153468609
40
6.0365833153468609
40
6.1363117654354573
40
6.1363117654354573
40
6.1363117654354573
40
6.1363117654354573
10
-8.9532262086868304
20
-5.1336455345153809
30
0
10
-8.9541185435337738
20
-4.7619880969789845
30
0
10
-8.9547577632180211
20
-4.3950487902117281
30
0
10
-8.9531892538070661
20
-4.0268665552139264
30
0
10
-8.9516046581320019
20
-3.6549083296928009
30
0
10
-8.9477668172491107
20
-3.2816815508490609
30
0
10
-8.944581151008606
20
-2.9087698459625244
30
0
10
-8.9413954839713163
20
-2.5358580478048918
30
0
10
-8.9388619919026517
20
-2.1632613237620713
30
0
10
-8.9359754323959351
20
-1.7906728386878967
30
0
10
-8.9330888747889112
20
-1.4180845988205153
30
0
10
-8.9298492502085516
20
-1.0455045979109354
30
0
10
-8.9273685216903687
20
-0.67257657647132874
30
0
10
-8.9248877907029112
20
-0.29964818382583275
30
0
10
-8.9231659572884148
20
0.073628230042517007
30
0
10
-8.91876220703125
20
0.4455208033323288
30
0
10
-8.9144079350483878
20
0.8132349828264871
30
0
10
-8.9074316729462204
20
1.1795962432942622
30
0
10
-8.9021247625350952
20
1.550963371992111
30
0
10
-8.8974028602147737
20
1.8813927877617178
30
0
10
-8.8940025527113757
20
2.2157852566989558
30
0
10
-8.8051795959472656
20
2.5298699736595154
30
0
10
-8.740326264828413
20
2.7591962749952117
30
0
10
-8.6299335487987836
20
2.9776963781042989
30
0
10
-8.4994345903396589
20
3.1797808408737183
30
0
10
-8.381269925036964
20
3.3627650055596203
30
0
10
-8.2466201409009106
20
3.5322899780233028
30
0
10
-8.1133812665939331
20
3.7031546235084534
30
0
10
-7.981221158223776
20
3.8726358667372036
30
0
10
-7.8504492053644519
20
4.0434351775342261
30
0
10
-7.7192986011505127
20
4.2138746380805969
30
0
10
-7.5881478968480112
20
4.3843142286991128
30
0
10
-7.4566185406129515
20
4.5543939685177302
30
0
10
-7.3252147436141968
20
4.7245943546295157
30
0
10
-7.1939788398494464
20
4.8945772775179694
30
0
10
-7.0628681746745716
20
5.0646805385995695
30
0
10
-6.9297784566879264
20
5.2332240343093863
30
0
10
-6.7976732192979492
20
5.4005207935790711
30
0
10
-6.6636180993893444
20
5.5662807776735228
30
0
10
-6.5262293815612793
20
5.7293128967285156
30
0
10
-6.3915000161494415
20
5.8891892991672847
30
0
10
-6.2535648567962667
20
6.0464424178665155
30
0
10
-6.0983407497406006
20
6.1877763271331796
30
0
10
-5.9477108821044204
20
6.3249271115645378
30
0
10
-5.7808003393829672
20
6.4470870775351123
30
0
10
-5.5974334478378287
20
6.5333682298660269
30
0
10
-5.4057708724403311
20
6.6235528194866475
30
0
10
-5.1961292661829805
20
6.6745387809939754
30
0
10
-4.9856469035148621
20
6.7075127363204965
30
0
10
-4.7581474751322936
20
6.7431525680536852
30
0
10
-4.5296658479774878
20
6.7577501928768049
30
0
10
-4.3008419871330261
20
6.7685014009475717
30
0
10
-4.0646973537809137
20
6.7795965729221805
30
0
10
-3.8281882382471699
20
6.7865952739421829
30
0
10
-3.5916972160339355
20
6.7912977933883676
30
0
10
-3.3526036123261975
20
6.7960520640172115
30
0
10
-3.113528502363895
20
6.7984593360684773
30
0
10
-2.8744396567344666
20
6.8007051944732666
30
0
10
-2.6349116798016703
20
6.8029551778163224
30
0
10
-2.3953699166991784
20
6.8050431540357872
30
0
10
-2.155829519033432
20
6.8068885803222647
30
0
10
-1.9162928643707844
20
6.8087339777725369
30
0
10
-1.6767575751022112
20
6.8103368328698188
30
0
10
-1.4372198283672333
20
6.811656951904296
30
0
10
-1.1976850753475459
20
6.8129770544400783
30
0
10
-0.95814786492288029
20
6.8140144279802159
30
0
10
-0.71860983967781067
20
6.814723014831543
30
0
10
-0.47907376965661086
20
6.8154315958990432
30
0
10
-0.23953688482830901
20
6.8158113956451407
30
0
10
-6.8868521996279242e-15
20
6.8158113956451407
30
0
10
0.23953688482829966
20
6.8158113956451425
30
0
10
0.4790737696566062
20
6.8154315958990432
30
0
10
0.71860983967781056
20
6.8147230148315421
30
0
10
0.9581478649228804
20
6.8140144279802159
30
0
10
1.1976850753475459
20
6.8129770544400783
30
0
10
1.4372198283672333
20
6.8116569519042978
30
0
10
1.6767575751022106
20
6.8103368328698179
30
0
10
1.9162928643707844
20
6.8087339777725351
30
0
10
2.1558295190334316
20
6.8068885803222647
30
0
10
2.395369916699178
20
6.8050431540357863
30
0
10
2.6349116798016703
20
6.8029551778163224
30
0
10
2.8744396567344666
20
6.8007051944732675
30
0
10
3.113528502363895
20
6.79845933606848
30
0
10
3.352603612326198
20
6.7960520640172106
30
0
10
3.591697216033936
20
6.7912977933883658
30
0
10
3.8281882382471699
20
6.7865952739421829
30
0
10
4.0646973537809137
20
6.7795965729221805
30
0
10
4.3008419871330261
20
6.7685014009475699
30
0
10
4.5296658479774878
20
6.757750192876804
30
0
10
4.7581474751322963
20
6.7431525680536852
30
0
10
4.9856469035148629
20
6.7075127363204965
30
0
10
5.1961292661829814
20
6.6745387809939762
30
0
10
5.4057708724403311
20
6.6235528194866475
30
0
10
5.5974334478378296
20
6.5333682298660269
30
0
10
5.7808003393829672
20
6.4470870775351106
30
0
10
5.9477108821044178
20
6.324927111564536
30
0
10
6.0983407497405997
20
6.1877763271331778
30
0
10
6.2535648567962649
20
6.0464424178665155
30
0
10
6.3915000161494406
20
5.8891892991672856
30
0
10
6.5262293815612793
20
5.7293128967285165
30
0
10
6.6636180993893444
20
5.5662807776735237
30
0
10
6.7976732192979483
20
5.4005207935790702
30
0
10
6.9297784566879264
20
5.2332240343093863
30
0
10
7.0628681746745725
20
5.0646805385995695
30
0
10
7.1939788398494473
20
4.8945772775179721
30
0
10
7.3252147436141977
20
4.7245943546295175
30
0
10
7.4566185406129541
20
4.5543939685177337
30
0
10
7.5881478968480112
20
4.3843142286991128
30
0
10
7.7192986011505127
20
4.2138746380805969
30
0
10
7.8504492053644519
20
4.0434351775342261
30
0
10
7.981221158223776
20
3.8726358667372036
30
0
10
8.1133812665939331
20
3.7031546235084543
30
0
10
8.2466201409009123
20
3.5322899780233055
30
0
10
8.3812699250369675
20
3.3627650055596217
30
0
10
8.4994345903396606
20
3.1797808408737183
30
0
10
8.6299335487987854
20
2.9776963781042993
30
0
10
8.740326264828413
20
2.7591962749952117
30
0
10
8.8051795959472656
20
2.5298699736595154
30
0
10
8.8940025527113757
20
2.2157852566989562
30
0
10
8.8974028602147737
20
1.8813927877617185
30
0
10
8.9021247625350952
20
1.5509633719921112
30
0
10
8.9074316729462204
20
1.1795962432942626
30
0
10
8.9144079350483878
20
0.81323498282648732
30
0
10
8.91876220703125
20
0.4455208033323288
30
0
10
8.923165957288413
20
0.073628230042517007
30
0
10
8.9248877907029129
20
-0.2996481838258333
30
0
10
8.9273685216903687
20
-0.67257657647132874
30
0
10
8.9298492502085516
20
-1.0455045979109359
30
0
10
8.9330888747889112
20
-1.4180845988205153
30
0
10
8.9359754323959333
20
-1.7906728386878967
30
0
10
8.9388619919026517
20
-2.1632613237620704
30
0
10
8.9413954839713146
20
-2.5358580478048909
30
0
10
8.9445811510086077
20
-2.9087698459625244
30
0
10
8.9477668172491107
20
-3.2816815508490622
30
0
10
8.9516046581320055
20
-3.6549083296928044
30
0
10
8.9531892538070679
20
-4.0268665552139282
30
0
10
8.9547577632180229
20
-4.3950487902117299
30
0
10
8.9541185435337738
20
-4.7619880969789854
30
0
10
8.9532262086868304
20
-5.1336455345153809
30
0
10
8.9524221531991426
20
-5.4685346215139123
30
0
10
8.9514125869840306
20
-5.8072544805457476
30
0
10
8.8675779104232788
20
-6.1272454261779794
30
0
10
8.8033259833110318
20
-6.3724904221486165
30
0
10
8.6904235959805014
20
-6.6067342826848821
30
0
10
8.5591429471969622
20
-6.8265807628631601
30
0
10
8.4378234652395037
20
-7.0297459767202009
30
0
10
8.3008088831301752
20
-7.2206157769321067
30
0
10
8.1650209426879865
20
-7.4127364158630371
30
0
10
8.030094622772701
20
-7.6036379841931083
30
0
10
7.896379426998581
20
-7.7957745676134884
30
0
10
7.762330174446106
20
-7.9875749349594125
30
0
10
7.6282812390040977
20
-8.1793748485773019
30
0
10
7.4938982483642382
20
-8.3708385477114593
30
0
10
7.35964059829712
20
-8.5624122619628906
30
0
10
7.2256125834624685
20
-8.7536583071810519
30
0
10
7.0917094808004411
20
-8.9450139914970723
30
0
10
6.9556337594985962
20
-9.1348558664321917
30
0
10
6.8209238145188262
20
-9.3227923203616783
30
0
10
6.6840846446771627
20
-9.5092452002708967
30
0
10
6.5437299013137817
20
-9.6929270029067975
30
0
10
6.4072470659523271
20
-9.8715416519546437
30
0
10
6.2674399469813791
20
-10.047536004000186
30
0
10
6.1081308126449585
20
-10.207886695861816
30
0
10
5.9577383800244608
20
-10.359262388924865
30
0
10
5.789965933996295
20
-10.496696598574731
30
0
10
5.6014502048492432
20
-10.59350848197937
30
0
10
5.4110534093869767
20
-10.691286383305215
30
0
10
5.1994973001075451
20
-10.747627230328725
30
0
10
4.9868303537368774
20
-10.782725811004639
30
0
10
4.7592077791885377
20
-10.820292670513307
30
0
10
4.5303126365047097
20
-10.833524520421751
30
0
10
4.3011283874511719
20
-10.842604637145996
30
0
10
4.06485794427965
20
-10.85196550383446
30
0
10
3.8282802404770226
20
-10.856913931739115
30
0
10
3.5917329788208008
20
-10.859370231628418
30
0
10
3.3526176000216754
20
-10.861853198771485
30
0
10
3.1135333279581752
20
-10.861789631702191
30
0
10
2.8744396567344666
20
-10.86176633834839
30
0
10
2.6349084406147583
20
-10.861743002367415
30
0
10
2.3953677909021658
20
-10.86176008763978
30
0
10
2.1558296680450444
20
-10.861766338348389
30
0
10
1.9162915948587631
20
-10.861772589055702
30
0
10
1.6767560485269051
20
-10.861768005203754
30
0
10
1.4372198283672333
20
-10.861766338348389
30
0
10
1.1976835833723336
20
-10.861764671492853
30
0
10
0.9581466645494805
20
-10.861765921634504
30
0
10
0.71860991418361653
20
-10.861766338348389
30
0
10
0.47907316381774967
20
-10.861766755062272
30
0
10
0.23953658190887217
20
-10.861766338348387
30
0
10
-6.852157730108388e-15
20
-10.861766338348389
30
0
10
-0.23953658190887994
20
-10.861766338348389
30
0
10
-0.47907316381775478
20
-10.861766755062273
30
0
10
-0.71860991418361664
20
-10.861766338348389
30
0
10
-0.95814666454948172
20
-10.861765921634506
30
0
10
-1.1976835833723338
20
-10.86176467149285
30
0
10
-1.4372198283672333
20
-10.861766338348389
30
0
10
-1.6767560485269049
20
-10.861768005203755
30
0
10
-1.9162915948587629
20
-10.861772589055704
30
0
10
-2.1558296680450444
20
-10.86176633834839
30
0
10
-2.3953677909021658
20
-10.86176008763978
30
0
10
-2.6349084406147587
20
-10.861743002367412
30
0
10
-2.874439656734467
20
-10.861766338348389
30
0
10
-3.1135333279581756
20
-10.861789631702187
30
0
10
-3.3526176000216763
20
-10.861853198771485
30
0
10
-3.5917329788208008
20
-10.859370231628418
30
0
10
-3.8282802404770235
20
-10.856913931739117
30
0
10
-4.06485794427965
20
-10.851965503834462
30
0
10
-4.3011283874511719
20
-10.842604637145996
30
0
10
-4.5303126365047097
20
-10.833524520421751
30
0
10
-4.7592077791885377
20
-10.820292670513307
30
0
10
-4.9868303537368766
20
-10.782725811004639
30
0
10
-5.1994973001075451
20
-10.747627230328723
30
0
10
-5.4110534093869767
20
-10.691286383305211
30
0
10
-5.6014502048492432
20
-10.593508481979368
30
0
10
-5.789965933996295
20
-10.496696598574729
30
0
10
-5.9577383800244608
20
-10.359262388924865
30
0
10
-6.1081308126449585
20
-10.207886695861816
30
0
10
-6.2674399469813791
20
-10.047536004000186
30
0
10
-6.407247065952328
20
-9.8715416519546437
30
0
10
-6.5437299013137817
20
-9.6929270029067975
30
0
10
-6.6840846446771636
20
-9.5092452002708967
30
0
10
-6.820923814518828
20
-9.3227923203616783
30
0
10
-6.9556337594985962
20
-9.1348558664321917
30
0
10
-7.0917094808004411
20
-8.9450139914970723
30
0
10
-7.2256125834624685
20
-8.7536583071810554
30
0
10
-7.3596405982971191
20
-8.5624122619628924
30
0
10
-7.4938982483642373
20
-8.3708385477114593
30
0
10
-7.6282812390040968
20
-8.1793748485773001
30
0
10
-7.762330174446106
20
-7.9875749349594116
30
0
10
-7.896379426998581
20
-7.7957745676134866
30
0
10
-8.030094622772701
20
-7.6036379841931092
30
0
10
-8.1650209426879883
20
-7.4127364158630371
30
0
10
-8.300808883130177
20
-7.2206157769321075
30
0
10
-8.4378234652395037
20
-7.0297459767202009
30
0
10
-8.5591429471969604
20
-6.8265807628631601
30
0
10
-8.6904235959805014
20
-6.6067342826848812
30
0
10
-8.8033259833110318
20
-6.3724904221486156
30
0
10
-8.8675779104232788
20
-6.1272454261779785
30
0
10
-8.9514125869840306
20
-5.8072544805457484
30
0
10
-8.9524221531991444
20
-5.4685346215139123
30
0
10
-8.9532262086868304
20
-5.1336455345153809
30
0
0
ENDSEC
0
SECTION
2
OBJECTS
0
DICTIONARY
5
C
100
AcDbDictionary
3
ACAD_GROUP
350
D
3
ACAD_MLINESTYLE
350
17
0
DICTIONARY
5
D
100
AcDbDictionary
0
DICTIONARY
5
1A
330
C
100
AcDbDictionary
0
DICTIONARY
5
17
100
AcDbDictionary
0
ENDSEC
0
EOF
