0
SECTION
2
HEADER
9
$INSUNITS
70
4
9
$ACADVER
1
AC1014
9
$HANDSEED
5
FFFF
0
ENDSEC
0
SECTION
2
TABLES
0
TABLE
2
VPORT
5
8
100
AcDbSymbolTable
0
ENDTAB
0
TABLE
2
LTYPE
5
5
100
AcDbSymbolTable
0
LTYPE
5
14
100
AcDbSymbolTableRecord
100
AcDbLinetypeTableRecord
2
BYBLOCK
70
0
0
LTYPE
5
15
100
AcDbSymbolTableRecord
100
AcDbLinetypeTableRecord
2
BYLAYER
70
0
0
LTYPE
5
16
100
AcDbSymbolTableRecord
100
AcDbLinetypeTableRecord
2
DASHED
70
0
3
Dashed __ __ __ __ __ __ __ __ __ __ __ __ __ _
72
65
73
2
40
0.75
49
0.5
74
0
49
-0.25
74
0
0
ENDTAB
0
TABLE
2
LAYER
5
2
100
AcDbSymbolTable
70
2
0
LAYER
5
50
100
AcDbSymbolTableRecord
100
AcDbLayerTableRecord
2
0
70
0
62
7
6
CONTINUOUS
0
ENDTAB
0
TABLE
2
STYLE
5
3
100
AcDbSymbolTable
70
1
0
STYLE
5
11
100
AcDbSymbolTableRecord
100
AcDbTextStyleTableRecord
2
STANDARD
70
0
0
ENDTAB
0
TABLE
2
VIEW
5
6
100
AcDbSymbolTable
70
0
0
ENDTAB
0
TABLE
2
UCS
5
7
100
AcDbSymbolTable
70
0
0
ENDTAB
0
TABLE
2
APPID
5
9
100
AcDbSymbolTable
70
2
0
APPID
5
12
100
AcDbSymbolTableRecord
100
AcDbRegAppTableRecord
2
ACAD
70
0
0
ENDTAB
0
TABLE
2
DIMSTYLE
5
A
100
AcDbSymbolTable
70
1
0
ENDTAB
0
TABLE
2
BLOCK_RECORD
5
1
100
AcDbSymbolTable
70
1
0
BLOCK_RECORD
5
1F
100
AcDbSymbolTableRecord
100
AcDbBlockTableRecord
2
*MODEL_SPACE
0
BLOCK_RECORD
5
1B
100
AcDbSymbolTableRecord
100
AcDbBlockTableRecord
2
*PAPER_SPACE
0
ENDTAB
0
ENDSEC
0
SECTION
2
BLOCKS
0
BLOCK
5
20
100
AcDbEntity
100
AcDbBlockBegin
2
*MODEL_SPACE
0
ENDBLK
5
21
100
AcDbEntity
100
AcDbBlockEnd
0
BLOCK
5
1C
100
AcDbEntity
100
AcDbBlockBegin
2
*PAPER_SPACE
0
ENDBLK
5
1D
100
AcDbEntity
100
AcDbBlockEnd
0
ENDSEC
0
SECTION
2
ENTITIES
0
SPLINE
5
100
100
AcDbEntity
8
0
100
AcDbSpline
70
2
71
3
72
677
73
673
74
0
42
0.000000001
43
0.0000000001
44
0.0000000001
40
0
40
0
40
0
40
0
40
0.036830543815033763
40
0.036830543815033763
40
0.036830543815033763
40
0.077273392049300976
40
0.077273392049300976
40
0.077273392049300976
40
0.12203169422568289
40
0.12203169422568289
40
0.12203169422568289
40
0.16761465031085945
40
0.16761465031085945
40
0.16761465031085945
40
0.21319831105861695
40
0.21319831105861695
40
0.21319831105861695
40
0.25846436783776067
40
0.25846436783776067
40
0.25846436783776067
40
0.30183907300716506
40
0.30183907300716506
40
0.30183907300716506
40
0.3414518474192097
40
0.3414518474192097
40
0.3414518474192097
40
0.3754733930552816
40
0.3754733930552816
40
0.3754733930552816
40
0.40307807500151549
40
0.40307807500151549
40
0.40307807500151549
40
0.42618959762544806
40
0.42618959762544806
40
0.42618959762544806
40
0.44692615678493852
40
0.44692615678493852
40
0.44692615678493852
40
0.46670734426630733
40
0.46670734426630733
40
0.46670734426630733
40
0.48644037632247733
40
0.48644037632247733
40
0.48644037632247733
40
0.50683814980910014
40
0.50683814980910014
40
0.50683814980910014
40
0.52901125103156632
40
0.52901125103156632
40
0.52901125103156632
40
0.55479318006971245
40
0.55479318006971245
40
0.55479318006971245
40
0.58599851836861594
40
0.58599851836861594
40
0.58599851836861594
40
0.62206430694127601
40
0.62206430694127601
40
0.62206430694127601
40
0.66143998198085041
40
0.66143998198085041
40
0.66143998198085041
40
0.7024915698091424
40
0.7024915698091424
40
0.7024915698091424
40
0.74382395420086589
40
0.74382395420086589
40
0.74382395420086589
40
0.78515559410159474
40
0.78515559410159474
40
0.78515559410159474
40
0.82568583029673615
40
0.82568583029673615
40
0.82568583029673615
40
0.86226203539305968
40
0.86226203539305968
40
0.86226203539305968
40
0.89692499530057712
40
0.89692499530057712
40
0.89692499530057712
40
0.93404940108850298
40
0.93404940108850298
40
0.93404940108850298
40
0.97269853611734902
40
0.97269853611734902
40
0.97269853611734902
40
1.0128527727399699
40
1.0128527727399699
40
1.0128527727399699
40
1.0550818729471376
40
1.0550818729471376
40
1.0550818729471376
40
1.09999664799316
40
1.09999664799316
40
1.09999664799316
40
1.1482473800272994
40
1.1482473800272994
40
1.1482473800272994
40
1.2005152722295294
40
1.2005152722295294
40
1.2005152722295294
40
1.2571926424959881
40
1.2571926424959881
40
1.2571926424959881
40
1.3174182110495964
40
1.3174182110495964
40
1.3174182110495964
40
1.3800095638831626
40
1.3800095638831626
40
1.3800095638831626
40
1.4437822137220726
40
1.4437822137220726
40
1.4437822137220726
40
1.5075629791535605
40
1.5075629791535605
40
1.5075629791535605
40
1.5702049654599965
40
1.5702049654599965
40
1.5702049654599965
40
1.6306007834975702
40
1.6306007834975702
40
1.6306007834975702
40
1.687710851154981
40
1.687710851154981
40
1.687710851154981
40
1.7408466084697141
40
1.7408466084697141
40
1.7408466084697141
40
1.7903654486664775
40
1.7903654486664775
40
1.7903654486664775
40
1.8368844953057639
40
1.8368844953057639
40
1.8368844953057639
40
1.8810199083785244
40
1.8810199083785244
40
1.8810199083785244
40
1.9233671389142708
40
1.9233671389142708
40
1.9233671389142708
40
1.9644807977167862
40
1.9644807977167862
40
1.9644807977167862
40
2.0048561948777124
40
2.0048561948777124
40
2.0048561948777124
40
2.0449114490661482
40
2.0449114490661482
40
2.0449114490661482
40
2.0849912991722381
40
2.0849912991722381
40
2.0849912991722381
40
2.1254634281502245
40
2.1254634281502245
40
2.1254634281502245
40
2.166776064745072
40
2.166776064745072
40
2.166776064745072
40
2.2094446768815938
40
2.2094446768815938
40
2.2094446768815938
40
2.2540366372966667
40
2.2540366372966667
40
2.2540366372966667
40
2.3011501304132076
40
2.3011501304132076
40
2.3011501304132076
40
2.3513927456437722
40
2.3513927456437722
40
2.3513927456437722
40
2.4053687745744874
40
2.4053687745744874
40
2.4053687745744874
40
2.4634097511374029
40
2.4634097511374029
40
2.4634097511374029
40
2.5247705145318933
40
2.5247705145318933
40
2.5247705145318933
40
2.5883642410354128
40
2.5883642410354128
40
2.5883642410354128
40
2.6530419539797925
40
2.6530419539797925
40
2.6530419539797925
40
2.7176225948895705
40
2.7176225948895705
40
2.7176225948895705
40
2.7809079625417596
40
2.7809079625417596
40
2.7809079625417596
40
2.8416884620422982
40
2.8416884620422982
40
2.8416884620422982
40
2.8987663207340355
40
2.8987663207340355
40
2.8987663207340355
40
2.9512798356813268
40
2.9512798356813268
40
2.9512798356813268
40
2.9996528539065088
40
2.9996528539065088
40
2.9996528539065088
40
3.0446002977906499
40
3.0446002977906499
40
3.0446002977906499
40
3.0868064361808214
40
3.0868064361808214
40
3.0868064361808214
40
3.1269058201186817
40
3.1269058201186817
40
3.1269058201186817
40
3.1654841543045178
40
3.1654841543045178
40
3.1654841543045178
40
3.2025538004328213
40
3.2025538004328213
40
3.2025538004328213
40
3.2373126086036623
40
3.2373126086036623
40
3.2373126086036623
40
3.2742416327713908
40
3.2742416327713908
40
3.2742416327713908
40
3.3152349470981921
40
3.3152349470981921
40
3.3152349470981921
40
3.3570436511603239
40
3.3570436511603239
40
3.3570436511603239
40
3.3988529420494866
40
3.3988529420494866
40
3.3988529420494866
40
3.44037670496895
40
3.44037670496895
40
3.44037670496895
40
3.4801983110994241
40
3.4801983110994241
40
3.4801983110994241
40
3.5166539973620994
40
3.5166539973620994
40
3.5166539973620994
40
3.5481597936077294
40
3.5481597936077294
40
3.5481597936077294
40
3.5741269530646393
40
3.5741269530646393
40
3.5741269530646393
40
3.5963908964011133
40
3.5963908964011133
40
3.5963908964011133
40
3.616819492713637
40
3.616819492713637
40
3.616819492713637
40
3.6365572141189593
40
3.6365572141189593
40
3.6365572141189593
40
3.6563331993042025
40
3.6563331993042025
40
3.6563331993042025
40
3.6770399060917893
40
3.6770399060917893
40
3.6770399060917893
40
3.700065487874149
40
3.700065487874149
40
3.700065487874149
40
3.7274977177387227
40
3.7274977177387227
40
3.7274977177387227
40
3.7612465040758427
40
3.7612465040758427
40
3.7612465040758427
40
3.8005090424715458
40
3.8005090424715458
40
3.8005090424715458
40
3.8434840012683171
40
3.8434840012683171
40
3.8434840012683171
40
3.8883280405620115
40
3.8883280405620115
40
3.8883280405620115
40
3.9334849577341222
40
3.9334849577341222
40
3.9334849577341222
40
3.9786418749062329
40
3.9786418749062329
40
3.9786418749062329
40
4.0230413543457972
40
4.0230413543457972
40
4.0230413543457972
40
4.0635125001428687
40
4.0635125001428687
40
4.0635125001428687
40
4.1008016876335125
40
4.1008016876335125
40
4.1008016876335125
40
4.1389659493162254
40
4.1389659493162254
40
4.1389659493162254
40
4.1780979613633695
40
4.1780979613633695
40
4.1780979613633695
40
4.2183144691991377
40
4.2183144691991377
40
4.2183144691991377
40
4.2600908651321214
40
4.2600908651321214
40
4.2600908651321214
40
4.303975681663804
40
4.303975681663804
40
4.303975681663804
40
4.3505982354531545
40
4.3505982354531545
40
4.3505982354531545
40
4.4006466340889565
40
4.4006466340889565
40
4.4006466340889565
40
4.4546941981045922
40
4.4546941981045922
40
4.4546941981045922
40
4.5125843062485362
40
4.5125843062485362
40
4.5125843062485362
40
4.5738636138134536
40
4.5738636138134536
40
4.5738636138134536
40
4.6380072808032091
40
4.6380072808032091
40
4.6380072808032091
40
4.7044849455019637
40
4.7044849455019637
40
4.7044849455019637
40
4.7728115379623119
40
4.7728115379623119
40
4.7728115379623119
40
4.8426075081792641
40
4.8426075081792641
40
4.8426075081792641
40
4.9136489236652654
40
4.9136489236652654
40
4.9136489236652654
40
4.9868839490286918
40
4.9868839490286918
40
4.9868839490286918
40
5.0672648961725599
40
5.0672648961725599
40
5.0672648961725599
40
5.1607720925247396
40
5.1607720925247396
40
5.1607720925247396
40
5.273293307791989
40
5.273293307791989
40
5.273293307791989
40
5.4106059622786846
40
5.4106059622786846
40
5.4106059622786846
40
5.5784654115516208
40
5.5784654115516208
40
5.5784654115516208
40
5.7825900479937467
40
5.7825900479937467
40
5.7825900479937467
40
6.0286591153689963
40
6.0286591153689963
40
6.0286591153689963
40
6.3193997942785014
40
6.3193997942785014
40
6.3193997942785014
40
6.6457784916725284
40
6.6457784916725284
40
6.6457784916725284
40
6.9958225588064673
40
6.9958225588064673
40
6.9958225588064673
40
7.3575612931808418
40
7.3575612931808418
40
7.3575612931808418
40
7.7190258009348103
40
7.7190258009348103
40
7.7190258009348103
40
8.068248880065827
40
8.068248880065827
40
8.068248880065827
40
8.3932714674585274
40
8.3932714674585274
40
8.3932714674585274
40
8.6821470435667685
40
8.6821470435667685
40
8.6821470435667685
40
8.9261568180578603
40
8.9261568180578603
40
8.9261568180578603
40
9.1294083790665255
40
9.1294083790665255
40
9.1294083790665255
40
9.299202962558935
40
9.299202962558935
40
9.299202962558935
40
9.442816684332124
40
9.442816684332124
40
9.442816684332124
40
9.5674852213696209
40
9.5674852213696209
40
9.5674852213696209
40
9.6803916860415971
40
9.6803916860415971
40
9.6803916860415971
40
9.7886826878237194
40
9.7886826878237194
40
9.7886826878237194
40
9.8995146684654145
40
9.8995146684654145
40
9.8995146684654145
40
10.018699991993602
40
10.018699991993602
40
10.018699991993602
40
10.146470975184979
40
10.146470975184979
40
10.146470975184979
40
10.281634393144705
40
10.281634393144705
40
10.281634393144705
40
10.422977625010008
40
10.422977625010008
40
10.422977625010008
40
10.569276134769071
40
10.569276134769071
40
10.569276134769071
40
10.719296780133741
40
10.719296780133741
40
10.719296780133741
40
10.869715913199569
40
10.869715913199569
40
10.869715913199569
40
11.000634804667076
40
11.000634804667076
40
11.000634804667076
40
11.079559142560013
40
11.079559142560013
40
11.079559142560013
40
11.140091966198819
40
11.140091966198819
40
11.140091966198819
40
11.198898656069979
40
11.198898656069979
40
11.198898656069979
40
11.257705158591619
40
11.257705158591619
40
11.257705158591619
40
11.316263795133343
40
11.316263795133343
40
11.316263795133343
40
11.373354208795497
40
11.373354208795497
40
11.373354208795497
40
11.427374652585826
40
11.427374652585826
40
11.427374652585826
40
11.47624771124312
40
11.47624771124312
40
11.47624771124312
40
11.520105222531278
40
11.520105222531278
40
11.520105222531278
40
11.562341933537303
40
11.562341933537303
40
11.562341933537303
40
11.604954013749126
40
11.604954013749126
40
11.604954013749126
40
11.648630015940412
40
11.648630015940412
40
11.648630015940412
40
11.693704668845234
40
11.693704668845234
40
11.693704668845234
40
11.740510041820903
40
11.740510041820903
40
11.740510041820903
40
11.78939234936672
40
11.78939234936672
40
11.78939234936672
40
11.840697254781906
40
11.840697254781906
40
11.840697254781906
40
11.894655775559503
40
11.894655775559503
40
11.894655775559503
40
11.951037266657643
40
11.951037266657643
40
11.951037266657643
40
12.009495326475625
40
12.009495326475625
40
12.009495326475625
40
12.069684147476448
40
12.069684147476448
40
12.069684147476448
40
12.130491068426718
40
12.130491068426718
40
12.130491068426718
40
12.187909088988993
40
12.187909088988993
40
12.187909088988993
40
12.237615251238536
40
12.237615251238536
40
12.237615251238536
40
12.279782908045625
40
12.279782908045625
40
12.279782908045625
40
12.333467469468589
40
12.333467469468589
40
12.333467469468589
40
12.405891028274812
40
12.405891028274812
40
12.405891028274812
40
12.489682835431976
40
12.489682835431976
40
12.489682835431976
40
12.578857649026943
40
12.578857649026943
40
12.578857649026943
40
12.668939650326816
40
12.668939650326816
40
12.668939650326816
40
12.759022128957872
40
12.759022128957872
40
12.759022128957872
40
12.850435345371535
40
12.850435345371535
40
12.850435345371535
40
12.955169205438791
40
12.955169205438791
40
12.955169205438791
40
13.094344321376576
40
13.094344321376576
40
13.094344321376576
40
13.245606498631631
40
13.245606498631631
40
13.245606498631631
40
13.395716623167717
40
13.395716623167717
40
13.395716623167717
40
13.542102540180709
40
13.542102540180709
40
13.542102540180709
40
13.6835305083601
40
13.6835305083601
40
13.6835305083601
40
13.818776042083288
40
13.818776042083288
40
13.818776042083288
40
13.946624795437449
40
13.946624795437449
40
13.946624795437449
40
14.06588259061294
40
14.06588259061294
40
14.06588259061294
40
14.176780795080289
40
14.176780795080289
40
14.176780795080289
40
14.285129904621476
40
14.285129904621476
40
14.285129904621476
40
14.398084212278114
40
14.398084212278114
40
14.398084212278114
40
14.522789928587844
40
14.522789928587844
40
14.522789928587844
40
14.666430409972584
40
14.666430409972584
40
14.666430409972584
40
14.836240988304315
40
14.836240988304315
40
14.836240988304315
40
15.039498912240173
40
15.039498912240173
40
15.039498912240173
40
15.283504765649097
40
15.283504765649097
40
15.283504765649097
40
15.572366908674589
40
15.572366908674589
40
15.572366908674589
40
15.897367890179119
40
15.897367890179119
40
15.897367890179119
40
16.246561776537451
40
16.246561776537451
40
16.246561776537451
40
16.607991760922307
40
16.607991760922307
40
16.607991760922307
40
16.969692501462607
40
16.969692501462607
40
16.969692501462607
40
17.31969599647622
40
17.31969599647622
40
17.31969599647622
40
17.646034208026631
40
17.646034208026631
40
17.646034208026631
40
17.93673640997428
40
17.93673640997428
40
17.93673640997428
40
18.182772614616134
40
18.182772614616134
40
18.182772614616134
40
18.386871646484096
40
18.386871646484096
40
18.386871646484096
40
18.554718802935668
40
18.554718802935668
40
18.554718802935668
40
18.692044493054553
40
18.692044493054553
40
18.692044493054553
40
18.804616987245861
40
18.804616987245861
40
18.804616987245861
40
18.898242141868529
40
18.898242141868529
40
18.898242141868529
40
18.978842469874401
40
18.978842469874401
40
18.978842469874401
40
19.05242954882247
40
19.05242954882247
40
19.05242954882247
40
19.12397170426803
40
19.12397170426803
40
19.12397170426803
40
19.194396633812698
40
19.194396633812698
40
19.194396633812698
40
19.263452939783448
40
19.263452939783448
40
19.263452939783448
40
19.330722995997835
40
19.330722995997835
40
19.330722995997835
40
19.395679547565525
40
19.395679547565525
40
19.395679547565525
40
19.45775216806906
40
19.45775216806906
40
19.45775216806906
40
19.516370735234222
40
19.516370735234222
40
19.516370735234222
40
19.571026553660005
40
19.571026553660005
40
19.571026553660005
40
19.621504828941848
40
19.621504828941848
40
19.621504828941848
40
19.66836755933619
40
19.66836755933619
40
19.66836755933619
40
19.712311086829679
40
19.712311086829679
40
19.712311086829679
40
19.753979491494793
40
19.753979491494793
40
19.753979491494793
40
19.793945126060638
40
19.793945126060638
40
19.793945126060638
40
19.83271114753153
40
19.83271114753153
40
19.83271114753153
40
19.87042138347427
40
19.87042138347427
40
19.87042138347427
40
19.87042138347427
10
-7.1163618564605704
20
-29.780812263488777
30
0
10
-7.1158462059511383
20
-29.904274363587938
30
0
10
-7.099386200344421
20
-30.029345837459314
30
0
10
-7.0572662353515616
20
-30.144345760345459
30
0
10
-7.0110151845825639
20
-30.270624765390679
30
0
10
-6.9338239300711866
20
-30.384759720057829
30
0
10
-6.8502974510192862
20
-30.49180269241333
30
0
10
-6.7578582793892696
20
-30.61026768466099
30
0
10
-6.6576597504171451
20
-30.720046445715418
30
0
10
-6.55725121498108
20
-30.830113887786865
30
0
10
-6.4549926922309862
20
-30.942209278683936
30
0
10
-6.3525163531558269
20
-31.054604086261158
30
0
10
-6.2501001358032227
20
-31.16692066192627
30
0
10
-6.1476823352080592
20
-31.279238973882638
30
0
10
-6.0453246581942928
20
-31.391479051508107
30
0
10
-5.9429490566253653
20
-31.503736972808838
30
0
10
-5.8412867566389384
20
-31.615212737505015
30
0
10
-5.7396067810057101
20
-31.726706098091213
30
0
10
-5.6389379501342773
20
-31.839115619659424
30
0
10
-5.542475364932713
20
-31.946828334288931
30
0
10
-5.4469411924473459
20
-32.055382249444733
30
0
10
-5.3537642955780038
20
-32.165937423706055
30
0
10
-5.2686687224396032
20
-32.266904039179153
30
0
10
-5.1855392593084746
20
-32.369539825421995
30
0
10
-5.1065742969512939
20
-32.475476264953613
30
0
10
-5.0387550111183712
20
-32.566460081804173
30
0
10
-4.9740075788292941
20
-32.659878553863713
30
0
10
-4.9177500605583182
20
-32.758481502532959
30
0
10
-4.8721033719696569
20
-32.838486775253124
30
0
10
-4.8320460256758206
20
-32.921905252668807
30
0
10
-4.8010849952697745
20
-33.008663654327393
30
0
10
-4.7751634303670061
20
-33.081300563046497
30
0
10
-4.7556179953480378
20
-33.156278616360574
30
0
10
-4.7427859902381888
20
-33.23230504989624
30
0
10
-4.7312726149653841
20
-33.300518930147682
30
0
10
-4.7251638045421283
20
-33.369576796107076
30
0
10
-4.7224697470664987
20
-33.43867301940918
30
0
10
-4.7198998098073259
20
-33.504585851759089
30
0
10
-4.7204372257206684
20
-33.570533588481986
30
0
10
-4.7209924459457406
20
-33.636479377746582
30
0
10
-4.7215463145398227
20
-33.702264628240435
30
0
10
-4.7221179008653316
20
-33.768047940746243
30
0
10
-4.7256779670715341
20
-33.833754062652588
30
0
10
-4.729357960286201
20
-33.901673609304879
30
0
10
-4.7362311689592715
20
-33.969510677163491
30
0
10
-4.7485059499740601
20
-34.036450386047363
30
0
10
-4.7618490710800483
20
-34.109216217173881
30
0
10
-4.7815749379581858
20
-34.180921687753553
30
0
10
-4.80791836977005
20
-34.250073432922363
30
0
10
-4.8385493799648067
20
-34.33048010986478
30
0
10
-4.8781273636321041
20
-34.407434140140964
30
0
10
-4.9235418438911438
20
-34.480512142181396
30
0
10
-4.9785095779988371
20
-34.568962613536954
30
0
10
-5.042027569900938
20
-34.651734842797588
30
0
10
-5.1086628437042245
20
-34.731724262237549
30
0
10
-5.1856770286956131
20
-34.824172594697146
30
0
10
-5.2668551986504442
20
-34.912903721393285
30
0
10
-5.3499984741210929
20
-34.999737739562988
30
0
10
-5.4407721054826386
20
-35.094540826287187
30
0
10
-5.5338880827737045
20
-35.18708261742244
30
0
10
-5.627915859222413
20
-35.278675556182861
30
0
10
-5.7259456585668982
20
-35.374166885949165
30
0
10
-5.8249665250627105
20
-35.468626874095683
30
0
10
-5.9239768981933594
20
-35.563054084777832
30
0
10
-6.0236645112065537
20
-35.658127186097992
30
0
10
-6.1233414868125067
20
-35.75316706001859
30
0
10
-6.22306227684021
20
-35.8483338356018
30
0
10
-6.3227812706678819
20
-35.943498897013221
30
0
10
-6.4225440773389231
20
-36.0387908555157
30
0
10
-6.5221464633941659
20
-36.133604049682617
30
0
10
-6.6198175996499389
20
-36.226578854535035
30
0
10
-6.7173344759598947
20
-36.319093281149321
30
0
10
-6.8067348003387442
20
-36.422185897827148
30
0
10
-6.8874134468784511
20
-36.515221049987872
30
0
10
-6.9614819544445865
20
-36.616871105004194
30
0
10
-7.0028543472290048
20
-36.730923652648926
30
0
10
-7.0420626136029405
20
-36.839010286457658
30
0
10
-7.0519058701137141
20
-36.958235837559542
30
0
10
-7.0471501350402823
20
-37.074711322784424
30
0
10
-7.0420566912271463
20
-37.199457829988958
30
0
10
-7.0202172665460836
20
-37.321049835028319
30
0
10
-6.9975316524505624
20
-37.442624568939209
30
0
10
-6.9739143219160704
20
-37.569192475072434
30
0
10
-6.94937986724414
20
-37.695741662265753
30
0
10
-6.9225227832794181
20
-37.821767330169671
30
0
10
-6.8946198120044304
20
-37.95270077760027
30
0
10
-6.8642097901887142
20
-38.083069137299624
30
0
10
-6.8311738967895517
20
-38.212780952453613
30
0
10
-6.7964309612956511
20
-38.349195281324349
30
0
10
-6.7587837731720981
20
-38.484883462262204
30
0
10
-6.7180395126342765
20
-38.619635105133057
30
0
10
-6.6747040096873747
20
-38.762956646367293
30
0
10
-6.6278649741476139
20
-38.905218738159178
30
0
10
-6.5776705741882333
20
-39.046285152435303
30
0
10
-6.5237480834360726
20
-39.19782899846993
30
0
10
-6.4659532922002931
20
-39.347992957838464
30
0
10
-6.4046227931976327
20
-39.49669361114502
30
0
10
-6.3381861657012468
20
-39.657774477481496
30
0
10
-6.267600585131393
20
-39.817138236923533
30
0
10
-6.1934483051300049
20
-39.974813461303711
30
0
10
-6.1130403136716946
20
-40.145790646292653
30
0
10
-6.028438442963405
20
-40.314782378822045
30
0
10
-5.9405374526977539
20
-40.482029914855957
30
0
10
-5.8471335581577319
20
-40.659747721795092
30
0
10
-5.7500045417227694
20
-40.835496111002797
30
0
10
-5.6496155261993399
20
-41.009359359741211
30
0
10
-5.5452830235406356
20
-41.190052314709163
30
0
10
-5.43742937240693
20
-41.368709115890439
30
0
10
-5.3262495994567871
20
-41.545271873474121
30
0
10
-5.2129715121725537
20
-41.725166929328196
30
0
10
-5.0962405694195025
20
-41.902888153228147
30
0
10
-4.976002275943757
20
-42.078208923339844
30
0
10
-4.8557486811593051
20
-42.253552004457035
30
0
10
-4.7319868429170828
20
-42.426494020792248
30
0
10
-4.6044355630874625
20
-42.596607208251953
30
0
10
-4.4791616584799971
20
-42.763683095273748
30
0
10
-4.3502324220804631
20
-42.928030266762001
30
0
10
-4.2171138525009146
20
-43.088932037353516
30
0
10
-4.088768546424272
20
-43.244064315743131
30
0
10
-3.9565289565575883
20
-43.395993848424581
30
0
10
-3.8196021318435673
20
-43.54362964630127
30
0
10
-3.6901246203597875
20
-43.683233524174867
30
0
10
-3.5564560059435077
20
-43.818998148177528
30
0
10
-3.4174627065658574
20
-43.949141502380371
30
0
10
-3.2881420013548461
20
-44.070228133314359
30
0
10
-3.1542119182182167
20
-44.186448644070865
30
0
10
-3.0153053998947144
20
-44.296431541442871
30
0
10
-2.8858541596986313
20
-44.398927973122248
30
0
10
-2.7520809118511433
20
-44.496007070552899
30
0
10
-2.6139238476753239
20
-44.58643913269043
30
0
10
-2.4841361772370747
20
-44.671392926025391
30
0
10
-2.3504797357188698
20
-44.750480630093953
30
0
10
-2.2131578624248505
20
-44.822635650634766
30
0
10
-2.0828723548831207
20
-44.89109345161971
30
0
10
-1.9492874249286827
20
-44.953310827789622
30
0
10
-1.8128468096256256
20
-45.008497238159173
30
0
10
-1.681934197996674
20
-45.061447725753034
30
0
10
-1.5483926141988802
20
-45.107925436709181
30
0
10
-1.4128297567367554
20
-45.147476196289062
30
0
10
-1.2812158354134442
20
-45.185874845130449
30
0
10
-1.1476966843771754
20
-45.217744227888204
30
0
10
-1.0129466652870176
20
-45.243010520935059
30
0
10
-0.88061629876963465
20
-45.267823117192947
30
0
10
-0.7470988717353132
20
-45.286267632761067
30
0
10
-0.61303652822971344
20
-45.298590660095215
30
0
10
-0.48003718645702154
20
-45.310815976177501
30
0
10
-0.34650153541275514
20
-45.317016495673982
30
0
10
-0.21293904632329946
20
-45.317678451538086
30
0
10
-0.079294543224698588
20
-45.318340813876013
30
0
10
0.054376830888999347
20
-45.313457808586307
30
0
10
0.18757503479719162
20
-45.302581787109375
30
0
10
0.32207690728272204
20
-45.291599317294327
30
0
10
0.45609630199200557
20
-45.274505944701843
30
0
10
0.58900896459817886
20
-45.251102447509766
30
0
10
0.72468189972074371
20
-45.227212916640987
30
0
10
0.85920165715132968
20
-45.196748447807181
30
0
10
0.99193453788757335
20
-45.15986442565918
30
0
10
1.1290240163791092
20
-45.121769785258898
30
0
10
1.2642073943809564
20
-45.076827266796002
30
0
10
1.3969241082668304
20
-45.025534629821777
30
0
10
1.5356232164797241
20
-44.971929904403922
30
0
10
1.6716282718271542
20
-44.911389676555601
30
0
10
1.8045492470264435
20
-44.844741821289062
30
0
10
1.9449864781282822
20
-44.774325243029118
30
0
10
2.0819809778788723
20
-44.697090774382261
30
0
10
2.2153821587562561
20
-44.614124298095703
30
0
10
2.3576434040760654
20
-44.525647463342864
30
0
10
2.4958181670917021
20
-44.43065193414246
30
0
10
2.6299947500228882
20
-44.330348968505859
30
0
10
2.7741416876152689
20
-44.22259271915074
30
0
10
2.9136741774134918
20
-44.108710960729397
30
0
10
3.0489587783813477
20
-43.990039825439453
30
0
10
3.1944316949639622
20
-43.862431538603474
30
0
10
3.3349928112086067
20
-43.72928533308334
30
0
10
3.4716629981994624
20
-43.592300415039062
30
0
10
3.6161503501298036
20
-43.447480330290546
30
0
10
3.7562889422595296
20
-43.298369846610981
30
0
10
3.8927638530731197
20
-43.145995140075684
30
0
10
4.03420518581982
20
-42.988075406398934
30
0
10
4.1717113373993646
20
-42.826649552184151
30
0
10
4.3057334423065177
20
-42.662391662597649
30
0
10
4.4420400201087586
20
-42.495333916250019
30
0
10
4.574742764364256
20
-42.325346764806028
30
0
10
4.704045057296752
20
-42.152814865112305
30
0
10
4.8331532859050448
20
-41.980541911225025
30
0
10
4.9588712627167393
20
-41.80573184196512
30
0
10
5.0811707973480216
20
-41.628561019897461
30
0
10
5.2010174093326436
20
-41.454943656337129
30
0
10
5.3175813292014276
20
-41.279059288035896
30
0
10
5.4305851459503174
20
-41.100912094116218
30
0
10
5.5391162121710771
20
-40.929816059870731
30
0
10
5.6443634194596601
20
-40.756632782680612
30
0
10
5.7457578182220468
20
-40.581207275390625
30
0
10
5.8409754490781705
20
-40.416468380542696
30
0
10
5.9327953861120317
20
-40.2497521200129
30
0
10
6.0201656818389893
20
-40.080718994140625
30
0
10
6.1005492392423282
20
-39.925202936153568
30
0
10
6.1771663498582576
20
-39.767725742554852
30
0
10
6.2493515014648446
20
-39.608235359191895
30
0
10
6.3158451204457453
20
-39.461320203561932
30
0
10
6.378578115281357
20
-39.312696807846606
30
0
10
6.4371550083160409
20
-39.162449836730957
30
0
10
6.4915837313766414
20
-39.022842726181317
30
0
10
6.5424241456996111
20
-38.881833847803506
30
0
10
6.5894877910614014
20
-38.73957633972168
30
0
10
6.6336810656423948
20
-38.605994993280291
30
0
10
6.6745442066186191
20
-38.471312678317922
30
0
10
6.7122626304626456
20
-38.335766792297363
30
0
10
6.7480983078532315
20
-38.20698679175598
30
0
10
6.7810953751004588
20
-38.077427280224498
30
0
10
6.8113899230957022
20
-37.947218418121338
30
0
10
6.8405353383564558
20
-37.821948638317309
30
0
10
6.8671793697917716
20
-37.696077835961511
30
0
10
6.8927824497222892
20
-37.57011890411377
30
0
10
6.9173842665930518
20
-37.449085865004236
30
0
10
6.9410249572197422
20
-37.327971454603919
30
0
10
6.9477427005767813
20
-37.203519344329834
30
0
10
6.9540416749959091
20
-37.086825297332439
30
0
10
6.9454618162465103
20
-36.967196709513217
30
0
10
6.9076514244079599
20
-36.858251094818115
30
0
10
6.8674802865733628
20
-36.742503304552436
30
0
10
6.7943145655833632
20
-36.638814146403234
30
0
10
6.7145121097564697
20
-36.543493270874023
30
0
10
6.6259268511559641
20
-36.437681684986252
30
0
10
6.5291636347029067
20
-36.342181715314332
30
0
10
6.4322304725646973
20
-36.246235370635979
30
0
10
6.3333692324772271
20
-36.148380576595137
30
0
10
6.2343312187560471
20
-36.050061473432159
30
0
10
6.1353421211242676
20
-35.951864719390869
30
0
10
6.0363516340813685
20
-35.853666587059799
30
0
10
5.9374100645010532
20
-35.755590807285039
30
0
10
5.8384549617767334
20
-35.657484531402588
30
0
10
5.7401756526133996
20
-35.560048252192445
30
0
10
5.641882994518542
20
-35.462581891986105
30
0
10
5.5446016788482657
20
-35.364103317260742
30
0
10
5.4513081533074894
20
-35.269661611131887
30
0
10
5.3589447550105174
20
-35.174288975697742
30
0
10
5.2689611911773673
20
-35.076704025268555
30
0
10
5.1865834849354204
20
-34.987367439367191
30
0
10
5.1062003049626439
20
-34.89617672434872
30
0
10
5.030040740966796
20
-34.801352024078369
30
0
10
4.964221990823944
20
-34.719402457576052
30
0
10
4.9015577715962229
20
-34.634738743081876
30
0
10
4.8475471138954171
20
-34.544529914855957
30
0
10
4.8030313889172254
20
-34.470179563298394
30
0
10
4.7643941143032409
20
-34.392062360862774
30
0
10
4.734814167022706
20
-34.310605525970459
30
0
10
4.7094526610311647
20
-34.240765374242635
30
0
10
4.690749332249359
20
-34.168470208591458
30
0
10
4.6785074472427359
20
-34.095203876495361
30
0
10
4.667274732394108
20
-34.027977316533793
30
0
10
4.6614820619734436
20
-33.959933108258454
30
0
10
4.6589207649230948
20
-33.89185905456543
30
0
10
4.6564460884038352
20
-33.826087197989054
30
0
10
4.6569879173608735
20
-33.760287480544982
30
0
10
4.6575474739074698
20
-33.694486618041985
30
0
10
4.658108115216999
20
-33.628558193209493
30
0
10
4.6586865529165395
20
-33.562628618874115
30
0
10
4.6623530983924875
20
-33.496785163879402
30
0
10
4.6661922033160916
20
-33.427842903674104
30
0
10
4.6734169286213909
20
-33.358995059666725
30
0
10
4.6860215067863473
20
-33.291075229644775
30
0
10
4.7000376295984649
20
-33.215549284507432
30
0
10
4.7207060176115405
20
-33.141170841969554
30
0
10
4.7477251291275016
20
-33.069241046905518
30
0
10
4.7799151725691083
20
-32.983545289423276
30
0
10
4.8211193540182489
20
-32.901325111731424
30
0
10
4.8678746819496155
20
-32.822630405426025
30
0
10
4.9253959108204564
20
-32.725815423848708
30
0
10
4.9913190256812845
20
-32.63433638661094
30
0
10
5.0602805614471436
20
-32.545361518859863
30
0
10
5.1405087782128422
20
-32.441850265849645
30
0
10
5.2248493288296238
20
-32.341728267083923
30
0
10
5.311131477355957
20
-32.243320941925049
30
0
10
5.4055719269378386
20
-32.135608834740815
30
0
10
5.502338503857958
20
-32.029950988705828
30
0
10
5.6000161170959464
20
-31.925153732299805
30
0
10
5.7019419559751148
20
-31.815798600480662
30
0
10
5.8048598006308874
20
-31.707380544238504
30
0
10
5.9077656269073477
20
-31.59898042678833
30
0
10
6.0113894294658108
20
-31.489823999262121
30
0
10
6.115001045354914
20
-31.38068576171986
30
0
10
6.2186586856842041
20
-31.271474361419678
30
0
10
6.3223163260134942
20
-31.162262961119499
30
0
10
6.4260199907829731
20
-31.052978398061398
30
0
10
6.5295517444610587
20
-30.943968296051025
30
0
10
6.6313469124361504
20
-30.83678667059889
30
0
10
6.7329758880403867
20
-30.729870376091132
30
0
10
6.8269836902618408
20
-30.614323616027832
30
0
10
6.9126739622603104
20
-30.509000088997155
30
0
10
6.9920319983589838
20
-30.396505731298031
30
0
10
7.0422613620758066
20
-30.271618366241455
30
0
10
7.0885415482253142
20
-30.156550006325034
30
0
10
7.110093362017297
20
-30.030960778977818
30
0
10
7.1163618564605713
20
-29.906163215637207
30
0
10
7.1227774551471823
20
-29.778436998328477
30
0
10
7.1131840032421225
20
-29.651540037337966
30
0
10
7.1021187305450448
20
-29.524786472320557
30
0
10
7.0907728701669006
20
-29.394818753450032
30
0
10
7.0778795992125527
20
-29.265001795084153
30
0
10
7.0620298385620108
20
-29.135525226593018
30
0
10
7.0457408212063575
20
-29.002460373577055
30
0
10
7.026329172430529
20
-28.869755038850418
30
0
10
7.0033657550811768
20
-28.737661838531494
30
0
10
6.9795116497203011
20
-28.600445105066878
30
0
10
6.9518249055888646
20
-28.463888912967853
30
0
10
6.919933557510376
20
-28.328313827514648
30
0
10
6.8864326791287755
20
-28.185896378174945
30
0
10
6.8482920812339536
20
-28.044561565798549
30
0
10
6.8055415153503418
20
-27.904636859893799
30
0
10
6.7601239719957995
20
-27.755983005483959
30
0
10
6.7095033372656196
20
-27.608920683344881
30
0
10
6.6540002822875968
20
-27.463726997375488
30
0
10
6.5944188395035805
20
-27.307864418340671
30
0
10
6.5292110898842655
20
-27.154155181279801
30
0
10
6.4591169357299796
20
-27.002744674682617
30
0
10
6.3834218408410583
20
-26.839235566079545
30
0
10
6.3020282362085798
20
-26.678407229780788
30
0
10
6.2175738811492929
20
-26.519246101379395
30
0
10
6.1271151928318179
20
-26.348769316656899
30
0
10
6.0331450714737622
20
-26.180205229175257
30
0
10
5.9375619888305664
20
-26.012570858001709
30
0
10
5.8363829565729102
20
-25.835122265850995
30
0
10
5.7333965715819168
20
-25.658715437892727
30
0
10
5.6301462650299063
20
-25.482466220855713
30
0
10
5.5220697618310695
20
-25.297978642029033
30
0
10
5.4137040876293705
20
-25.113663752799923
30
0
10
5.3063881397247306
20
-24.928731918334961
30
0
10
5.1951672829132054
20
-24.737070963159905
30
0
10
5.0850739351035257
20
-24.544747348290592
30
0
10
4.9777162075042725
20
-24.350888729095459
30
0
10
4.8673725645020136
20
-24.151638365402704
30
0
10
4.75991882818108
20
-23.950766424547993
30
0
10
4.6569991111755362
20
-23.747570514678955
30
0
10
4.5518660839866758
20
-23.540004833986533
30
0
10
4.451464183059592
20
-23.330014154618453
30
0
10
4.3574672937393197
20
-23.117151260375977
30
0
10
4.2617931158772384
20
-22.900490022421586
30
0
10
4.1727545722017485
20
-22.680853150950533
30
0
10
4.0923509001731881
20
-22.458059787750244
30
0
10
4.0094645314255857
20
-22.228387032876835
30
0
10
3.9357545206426852
20
-21.995359845047794
30
0
10
3.8716968894004826
20
-21.759741306304932
30
0
10
3.8013888223862491
20
-21.501132243021068
30
0
10
3.7427087000361796
20
-21.239401453648391
30
0
10
3.6928191781044011
20
-20.976088047027588
30
0
10
3.6347826720796395
20
-20.669775428304845
30
0
10
3.58864220485914
20
-20.361321104203626
30
0
10
3.5498464107513423
20
-20.052011013031006
30
0
10
3.5031617696695379
20
-19.679804929318653
30
0
10
3.4671124649137646
20
-19.306359665797839
30
0
10
3.4369105100631718
20
-18.932480812072754
30
0
10
3.4000542551660615
20
-18.476226427159649
30
0
10
3.3719058591131508
20
-18.019326340799527
30
0
10
3.3485004305839543
20
-17.562203407287598
30
0
10
3.3198881926398642
20
-17.003388168035368
30
0
10
3.2983639041690478
20
-16.444239903236504
30
0
10
3.2805520296096802
20
-15.884984731674194
30
0
10
3.2588919894121697
20
-15.204905301722551
30
0
10
3.2427217382073543
20
-14.524667781755303
30
0
10
3.2293602824211116
20
-13.844380378723145
30
0
10
3.2132532557466096
20
-13.02430451855761
30
0
10
3.2012279499803946
20
-12.20415616868789
30
0
10
3.1912216544151311
20
-11.383985280990601
30
0
10
3.179398806476355
20
-10.414919793587099
30
0
10
3.1703945755388627
20
-9.4458228424971207
30
0
10
3.1633481383323669
20
-8.4767121076583862
30
0
10
3.155437972457571
20
-7.3888110253138528
30
0
10
3.1499949758279011
20
-6.3008925729877587
30
0
10
3.1466221809387211
20
-5.2129679918289185
30
0
10
3.1430048283049743
20
-4.0461591646459567
30
0
10
3.1417687778113459
20
-2.8793432876174463
30
0
10
3.1428423523902889
20
-1.7125293612480141
30
0
10
3.1439517941603583
20
-0.5067331984072676
30
0
10
3.1475277640588679
20
0.69906088125749388
30
0
10
3.153807520866394
20
1.904841363430021
30
0
10
3.1600825171207294
20
3.109707768465777
30
0
10
3.1690572024685211
20
4.3145605966174401
30
0
10
3.1813165545463558
20
5.5193817615509015
30
0
10
3.1931607289782389
20
6.6834002142468645
30
0
10
3.2080708590397782
20
7.8473891120351063
30
0
10
3.2271683216094975
20
9.0113115310668963
30
0
10
3.2449423665337069
20
10.094576351649264
30
0
10
3.2663435042041362
20
11.177783587930687
30
0
10
3.2931619882583623
20
12.260867357254035
30
0
10
3.3169978856144859
20
13.223497217371232
30
0
10
3.3451131660767413
20
14.186029545896927
30
0
10
3.3810964226722717
20
15.148284435272219
30
0
10
3.4114910529335734
20
15.961089732703934
30
0
10
3.4474994689189495
20
16.773697077839469
30
0
10
3.4915816783905034
20
17.585879564285282
30
0
10
3.5283006086320916
20
18.262399013304471
30
0
10
3.570621382339997
20
18.93862368244363
30
0
10
3.6204722523689274
20
19.614304304122921
30
0
10
3.662117234927933
20
20.178762009454083
30
0
10
3.709017310605434
20
20.742840035702713
30
0
10
3.7624368071556096
20
21.306304931640632
30
0
10
3.8076194776332208
20
21.782888395787509
30
0
10
3.8574660910556302
20
22.259033231282736
30
0
10
3.9121410250663762
20
22.734618186950684
30
0
10
3.9596033702488671
20
23.147465092720637
30
0
10
4.0107041783268143
20
23.559890091547938
30
0
10
4.0642511844635019
20
23.971989154815681
30
0
10
4.1127462041399045
20
24.345208007253159
30
0
10
4.1632476145290385
20
24.718159524804438
30
0
10
4.2134347558021554
20
25.091154575347907
30
0
10
4.2615703149203705
20
25.448902094947208
30
0
10
4.3094167735480164
20
25.806689661145935
30
0
10
4.3543583154678354
20
26.16485595703125
30
0
10
4.400354381826947
20
26.531426395191353
30
0
10
4.4433076080879417
20
26.898393544855637
30
0
10
4.4816890358924875
20
27.2658371925354
30
0
10
4.5229632499223458
20
27.660974857436198
30
0
10
4.5589505475024961
20
28.056663553888423
30
0
10
4.5913758873939523
20
28.452632427215576
30
0
10
4.6261370260610466
20
28.877125399676473
30
0
10
4.656804543366226
20
29.301940368674259
30
0
10
4.6845021843910217
20
29.726943969726562
30
0
10
4.7138023254467223
20
30.176536967515268
30
0
10
4.7397789930391525
20
30.626341056126734
30
0
10
4.7634330391883859
20
31.076271533966057
30
0
10
4.7881685732544135
20
31.546773307393092
30
0
10
4.8103642452351298
20
32.017413291551279
30
0
10
4.8305365443229666
20
32.488110065460205
30
0
10
4.8514160534159609
20
32.975308749560604
30
0
10
4.8701278299671431
20
33.462568275135744
30
0
10
4.8881757259368896
20
33.949959278106697
30
0
10
4.9066827975763401
20
34.449750512693129
30
0
10
4.9244917779250104
20
34.949679999892354
30
0
10
4.9387174844741812
20
35.449314117431641
30
0
10
4.9529809776165674
20
35.950275372648775
30
0
10
4.9636421357571718
20
36.450939686988946
30
0
10
4.9790263175964347
20
36.952965259551995
30
0
10
4.9924161037990284
20
37.389908553325206
30
0
10
5.0093837109354471
20
37.827883037809485
30
0
10
4.9619650840759286
20
38.262042999267571
30
0
10
4.9333788068264859
20
38.523775947916974
30
0
10
4.8813928301232448
20
38.784122595693773
30
0
10
4.8014941811561576
20
39.03480052947998
30
0
10
4.7402140873850298
20
39.227063696471696
30
0
10
4.6625144384453137
20
39.413639268192085
30
0
10
4.5860192179679871
20
39.600479602813728
30
0
10
4.511705309631612
20
39.781992060898943
30
0
10
4.4385281189714529
20
39.963754397394752
30
0
10
4.3650433421134949
20
40.145449638366699
30
0
10
4.2915587993672961
20
40.327144300484164
30
0
10
4.217766672383144
20
40.50877186750526
30
0
10
4.1440665721893319
20
40.690417289733887
30
0
10
4.0706771136213806
20
40.871297087097105
30
0
10
3.9973789077035802
20
41.05219458946776
30
0
10
3.9217269420623784
20
41.232151985168457
30
0
10
3.847971775141203
20
41.407597363832579
30
0
10
3.7719793990319284
20
41.582149186855105
30
0
10
3.6912047863006592
20
41.754446029663086
30
0
10
3.6147737333999563
20
41.917477812323476
30
0
10
3.5340609337496902
20
42.078490612033583
30
0
10
3.4427335858345032
20
42.234115600585938
30
0
10
3.360108443971578
20
42.374911726281994
30
0
10
3.2687952131308506
20
42.511297887317667
30
0
10
3.1602132320404048
20
42.632913589477525
30
0
10
3.0627743650614092
20
42.742048605308923
30
0
10
2.9514292543500726
20
42.839289210821356
30
0
10
2.8313142061233525
20
42.923040390014648
30
0
10
2.7156381353565058
20
43.003696456629072
30
0
10
2.5918283539962665
20
43.071841705514373
30
0
10
2.4651259183883667
20
43.133516311645508
30
0
10
2.3372974435720617
20
43.195739036874215
30
0
10
2.2065246704164201
20
43.251375595529112
30
0
10
2.074509859085083
20
43.303804397583008
30
0
10
1.9391989528742659
20
43.35754222174014
30
0
10
1.8025832127637984
20
43.407910109580719
30
0
10
1.6659928858280182
20
43.458313941955566
30
0
10
1.5250284827715812
20
43.510331872521149
30
0
10
1.3840911465794585
20
43.562388086608728
30
0
10
1.2431541085243227
20
43.614454269409173
30
0
10
1.0968055465911677
20
43.668519624289218
30
0
10
0.95045730612952672
20
43.722595728111443
30
0
10
0.80411791801452648
20
43.776693344116211
30
0
10
0.65128488793435357
20
43.833191479584883
30
0
10
0.49846151325682542
20
43.889713078751136
30
0
10
0.34564446657896042
20
43.946251869201674
30
0
10
0.1852538361184948
20
44.00559271135883
30
0
10
0.024870176429286055
20
44.064952491018644
30
0
10
-0.13550549745559695
20
44.124336242675781
30
0
10
-0.3041761939807881
20
44.186791467409414
30
0
10
-0.47283805724721939
20
44.249273208051356
30
0
10
-0.64149171113967896
20
44.311766624450676
30
0
10
-0.8177186415405312
20
44.37706626479725
30
0
10
-0.99393660874145029
20
44.442378653027887
30
0
10
-1.170154809951782
20
44.507732391357415
30
0
10
-1.3528632475388562
20
44.575493152383515
30
0
10
-1.535571936690229
20
44.643298365504478
30
0
10
-1.7182546854019163
20
44.711008071899414
30
0
10
-1.9063461016477203
20
44.780722451933798
30
0
10
-2.0944100186839427
20
44.850335586210292
30
0
10
-2.2825522720813751
20
44.920382499694824
30
0
10
-2.4726266237552008
20
44.991148749311293
30
0
10
-2.662780928978262
20
45.062357733141233
30
0
10
-2.8549560904502864
20
45.125570297241211
30
0
10
-3.0364209171594632
20
45.185259889290364
30
0
10
-3.2196876237197491
20
45.237819539464709
30
0
10
-3.4079673886299138
20
45.28004169464112
30
0
10
-3.5709591541293868
20
45.31659295982184
30
0
10
-3.7377077950403557
20
45.345397121724751
30
0
10
-3.9036020636558533
20
45.317678451538086
30
0
10
-4.0443365776205855
20
45.294163633280498
30
0
10
-4.1844562182947893
20
45.229970553402012
30
0
10
-4.2813381552696237
20
45.130257606506348
30
0
10
-4.4046806573226842
20
45.003310884122087
30
0
10
-4.4579418023356414
20
44.818792175497393
30
0
10
-4.4965299963951111
20
44.638428688049316
30
0
10
-4.5485876879849414
20
44.395107977337432
30
0
10
-4.5739412534638548
20
44.159349586616294
30
0
10
-4.5905834436416635
20
43.920326232910156
30
0
10
-4.6098379405627936
20
43.643783639727303
30
0
10
-4.6174315900034921
20
43.362870641863068
30
0
10
-4.6207815408706665
20
43.082952499389648
30
0
10
-4.6243467014068553
20
42.785051678011037
30
0
10
-4.6231053963804678
20
42.488277642169351
30
0
10
-4.6218675374984741
20
42.191205024719238
30
0
10
-4.6206170857069697
20
41.891110246468898
30
0
10
-4.6193701505327152
20
41.590710780685136
30
0
10
-4.6181035041809064
20
41.29039287567138
30
0
10
-4.616836851117327
20
40.990073379317522
30
0
10
-4.6155504866673009
20
40.689835444598032
30
0
10
-4.6143382787704477
20
40.389575958251953
30
0
10
-4.6131081636082385
20
40.084880907419432
30
0
10
-4.6119544121280978
20
39.780163663517108
30
0
10
-4.6097549796104422
20
39.475455284118652
30
0
10
-4.6072350479575723
20
39.126345100479298
30
0
10
-4.6033424800269378
20
38.777246553026465
30
0
10
-4.5969861745834342
20
38.428194522857666
30
0
10
-4.5885396268626932
20
37.964358312334461
30
0
10
-4.5757425368050262
20
37.50060424344062
30
0
10
-4.5625472068786612
20
37.036869525909424
30
0
10
-4.5482058907546437
20
36.532860439443979
30
0
10
-4.533394158454696
20
36.028874211548796
30
0
10
-4.5175680518150338
20
35.524916648864746
30
0
10
-4.5018624809862109
20
35.024797360168748
30
0
10
-4.4851579284624927
20
34.524706301703034
30
0
10
-4.4670605659484863
20
34.024665355682373
30
0
10
-4.4494121960246273
20
33.537030343363924
30
0
10
-4.430439269570984
20
33.049442987773091
30
0
10
-4.4094881415367118
20
32.561938762664795
30
0
10
-4.3892466078604206
20
32.090945832178065
30
0
10
-4.367158602918952
20
31.620030496436389
30
0
10
-4.3424946069717398
20
31.149246692657471
30
0
10
-4.3189087820562886
20
30.699042906023493
30
0
10
-4.2929672592003456
20
30.248959403029136
30
0
10
-4.2637267708778372
20
29.799087047576904
30
0
10
-4.2360854885627335
20
29.373818883596073
30
0
10
-4.205496223752518
20
28.948739402784067
30
0
10
-4.1708272695541391
20
28.523979187011719
30
0
10
-4.1384879394451817
20
28.12776126949359
30
0
10
-4.1025987785182565
20
27.731821151770752
30
0
10
-4.0614438056945801
20
27.336428165435791
30
0
10
-4.0231736650775058
20
26.968750965140362
30
0
10
-3.9803500718736813
20
26.601546880269922
30
0
10
-3.934513628482819
20
26.234734058380127
30
0
10
-3.8897307769498428
20
25.876352758962859
30
0
10
-3.8420719895259032
20
25.518344942187955
30
0
10
-3.7941581010818486
20
25.160372257232673
30
0
10
-3.7442077127560616
20
24.787184540597664
30
0
10
-3.693980077275278
20
24.41403500568784
30
0
10
-3.6457920074462891
20
24.040615558624268
30
0
10
-3.5925906033539845
20
23.628346734210737
30
0
10
-3.5418752203946031
20
23.215748914592936
30
0
10
-3.4948286414146428
20
22.802729606628425
30
0
10
-3.4406387177113658
20
22.326999271461862
30
0
10
-3.3913162887347488
20
21.850709737080408
30
0
10
-3.3466830849647522
20
21.373984813690186
30
0
10
-3.2939180839572697
20
20.81040458779821
30
0
10
-3.2477066367519281
20
20.246215872194597
30
0
10
-3.2067704200744624
20
19.681652784347538
30
0
10
-3.15777105562147
20
19.005888516338036
30
0
10
-3.1163296919369081
20
18.329587872583687
30
0
10
-3.0805054306983952
20
17.652999162673961
30
0
10
-3.0374993364365741
20
16.840772006302615
30
0
10
-3.0025882610033623
20
16.028129706897285
30
0
10
-2.973302006721497
20
15.2152967453003
30
0
10
-2.9386319770690861
20
14.253038389902681
30
0
10
-2.9118449103865576
20
13.290512829032004
30
0
10
-2.8893622756004333
20
12.327895164489744
30
0
10
-2.8640668931880224
20
11.244846750761727
30
0
10
-2.8442203491796025
20
10.161681746032858
30
0
10
-2.828040719032288
20
9.0784639120101946
30
0
10
-2.8106566855908302
20
7.9146119030593916
30
0
10
-2.7975058115874751
20
6.7506989069046135
30
0
10
-2.7874785661697383
20
5.5867606401443464
30
0
10
-2.7770999561873264
20
4.3820368290624785
30
0
10
-2.7700677202525763
20
3.1772859453322289
30
0
10
-2.7658158540725704
20
1.9725257158279441
30
0
10
-2.7615608027142731
20
0.76686297058875086
30
0
10
-2.760090288358759
20
-0.43880913443202318
30
0
10
-2.7611953020095825
20
-1.6444787383079551
30
0
10
-2.7622645799968164
20
-2.8111575086026952
30
0
10
-2.7657454966764399
20
-3.9778339369086635
30
0
10
-2.7717572450637813
20
-5.1444977521896362
30
0
10
-2.7773625125681529
20
-6.232278269765791
30
0
10
-2.7851679405702523
20
-7.3200478222986076
30
0
10
-2.7956435084342961
20
-8.4077924489974976
30
0
10
-2.804975148239091
20
-9.3767557727707072
30
0
10
-2.8164256116110264
20
-10.345699317263771
30
0
10
-2.830994725227356
20
-11.314599514007568
30
0
10
-2.8433253143840327
20
-12.134629515453923
30
0
10
-2.8578898258572369
20
-12.95462846644676
30
0
10
-2.8769001364707951
20
-13.774533271789551
30
0
10
-2.8926701163295894
20
-14.454684297684079
30
0
10
-2.9114994780599219
20
-15.134770537139561
30
0
10
-2.9362398386001591
20
-15.814660787582397
30
0
10
-2.9565858398930605
20
-16.373789580068802
30
0
10
-2.980929511349399
20
-16.932785823141238
30
0
10
-3.0128398537635808
20
-17.49138355255127
30
0
10
-3.0389475930103975
20
-17.948405406908435
30
0
10
-3.0701203439574054
20
-18.405160502426217
30
0
10
-3.1105279922485347
20
-18.861161470413208
30
0
10
-3.1436520912324877
20
-19.234967466039421
30
0
10
-3.1829819229678562
20
-19.608266697622444
30
0
10
-3.2335034012794499
20
-19.980149269104004
30
0
10
-3.2755214915124888
20
-20.28943941592501
30
0
10
-3.3252808925779727
20
-20.597749652764527
30
0
10
-3.3874559402465825
20
-20.903656482696533
30
0
10
-3.4409813977592303
20
-21.167006550647042
30
0
10
-3.5037083390514008
20
-21.428575405714977
30
0
10
-3.5784471035003658
20
-21.686704158782959
30
0
10
-3.6466826491371833
20
-21.922372442036057
30
0
10
-3.7249306004807101
20
-22.155173242439439
30
0
10
-3.8125389814376831
20
-22.384347915649414
30
0
10
-3.8977127986125799
20
-22.607154015977756
30
0
10
-3.9917340368256058
20
-22.826532722976658
30
0
10
-4.0925392508506784
20
-23.042700290679932
30
0
10
-4.1917702573983213
20
-23.255492114333187
30
0
10
-4.2975750125559902
20
-23.465172308012221
30
0
10
-4.4082465767860421
20
-23.672220706939697
30
0
10
-4.516767372634118
20
-23.875245369932387
30
0
10
-4.629967654483802
20
-24.075739535731575
30
0
10
-4.7462040185928354
20
-24.274435043334961
30
0
10
-4.8594337466799766
20
-24.467990979728192
30
0
10
-4.9755445223394892
20
-24.659840104715833
30
0
10
-5.0929546356201163
20
-24.850881099700928
30
0
10
-5.2063268625374839
20
-25.035351946621944
30
0
10
-5.3209105920640409
20
-25.219069292997169
30
0
10
-5.4354166984558105
20
-25.402836799621582
30
0
10
-5.5448389802095912
20
-25.578445424529743
30
0
10
-5.6541903784204628
20
-25.754099854547231
30
0
10
-5.7619953155517587
20
-25.930707454681396
30
0
10
-5.8638014081043845
20
-26.097487661258189
30
0
10
-5.964228357874072
20
-26.265117910364143
30
0
10
-6.0614681243896493
20
-26.434621810913086
30
0
10
-6.1521342610672356
20
-26.592666861464423
30
0
10
-6.2400295705499884
20
-26.752340799957857
30
0
10
-6.3226175308227548
20
-26.914753913879395
30
0
10
-6.3988929926800422
20
-27.06475320233659
30
0
10
-6.4706414192922468
20
-27.217088938465661
30
0
10
-6.5371179580688477
20
-27.371695041656494
30
0
10
-6.5988330641584039
20
-27.515227365031215
30
0
10
-6.6560044422692091
20
-27.660716469479869
30
0
10
-6.7082679271697989
20
-27.807950973510742
30
0
10
-6.7572757819471221
20
-27.946013852507061
30
0
10
-6.8019681502501905
20
-28.085611452811815
30
0
10
-6.8422544002532959
20
-28.226461410522461
30
0
10
-6.8804548785334703
20
-28.36001903253678
30
0
10
-6.914693670663274
20
-28.494702690361411
30
0
10
-6.9452762603759766
20
-28.630208969116211
30
0
10
-6.9746090993545309
20
-28.760177813894813
30
0
10
-7.000578450112604
20
-28.890903420879901
30
0
10
-7.023521661758422
20
-29.022130966186523
30
0
10
-7.0457762073182497
20
-29.149419570363378
30
0
10
-7.0651835531947853
20
-29.277180432614649
30
0
10
-7.0831882953643808
20
-29.405171871185303
30
0
10
-7.1007026816630479
20
-29.529677486257874
30
0
10
-7.1168898232066589
20
-29.654401289268367
30
0
10
-7.1163618564605704
20
-29.780812263488777
30
0
0
SPLINE
5
101
100
AcDbEntity
8
0
100
AcDbSpline
70
0
71
3
72
64
73
60
74
0
42
0.000000001
43
0.0000000001
44
0.0000000001
40
0
40
0
40
0
40
0
40
0.016564671935096947
40
0.026340605008255705
40
0.036117195278967687
40
0.045893769498237126
40
0.055669972283033171
40
0.065446825662489869
40
0.075222838304881412
40
0.083910336937518981
40
0.084998648914715882
40
0.094775558124408688
40
0.10455078708325424
40
0.11432762539328235
40
0.12410402220808651
40
0.13387959045857134
40
0.14365740493440457
40
0.15343139024846353
40
0.159680476456173
40
0.16320878979980019
40
0.17151340469397205
40
0.17298622666563002
40
0.18275983619700553
40
0.19253765067283876
40
0.20231492081906258
40
0.21208972610669741
40
0.22186573581145308
40
0.23164315237541758
40
0.24141988147955354
40
0.24597535008785887
40
0.25119457146444429
40
0.26097157850953934
40
0.27074646062773272
40
0.28052444097824647
40
0.28895339228675865
40
0.29030036878276971
40
0.30007661130937419
40
0.30985313397898362
40
0.31962895060479157
40
0.32940488629671327
40
0.33918118229116717
40
0.34895785775957572
40
0.35682547711632201
40
0.35873410046024662
40
0.36851040516922923
40
0.37828561965382074
40
0.38806339258067335
40
0.3978375304111082
40
0.40761487989583839
40
0.41739208344763379
40
0.42002227403205822
40
0.42716769475819677
40
0.43694405335041658
40
0.44671990777136883
40
0.45649751589662274
40
0.46627291622886191
40
0.47604864447345402
40
0.4773374145483712
40
0.48283551441576511
40
0.48283551441576511
40
0.48283551441576511
40
0.48283551441576511
10
-3.2814404368400574
20
-29.49023962020874
30
0
10
-3.2264113537491279
20
-29.485046694654777
30
0
10
-3.1382487060978952
20
-29.486877091495526
30
0
10
-3.0189769068740659
20
-29.504435613917618
30
0
10
-2.9239908970442712
20
-29.528277856022179
30
0
10
-2.8318127857719047
20
-29.56128406981534
30
0
10
-2.7432314351569649
20
-29.603082634161439
30
0
10
-2.6594462703342083
20
-29.65364411790301
30
0
10
-2.582987706452311
20
-29.709030294448048
30
0
10
-2.5361610092718969
20
-29.754491770128237
30
0
10
-2.4876091018542144
20
-29.797983872419927
30
0
10
-2.4427667911688964
20
-29.850586038805311
30
0
10
-2.3838702278255495
20
-29.92863435482019
30
0
10
-2.3336791266142063
20
-30.012786629243777
30
0
10
-2.2918083762939871
20
-30.10126493112233
30
0
10
-2.258710681801587
20
-30.193470589252097
30
0
10
-2.2353616867326456
20
-30.288465918244547
30
0
10
-2.2212565944428442
20
-30.373616294765867
30
0
10
-2.2200837646413101
20
-30.438826849324879
30
0
10
-2.2155796796378104
20
-30.499012105048475
30
0
10
-2.2206748648710817
20
-30.54330407564975
30
0
10
-2.2232394942337144
20
-30.608426597747531
30
0
10
-2.2356220903258279
20
-30.677741159252491
30
0
10
-2.2586399931687429
20
-30.772768185252861
30
0
10
-2.2918271120011831
20
-30.864964108602035
30
0
10
-2.3336600221918982
20
-30.953457539190335
30
0
10
-2.3839367658332011
20
-31.037536682524753
30
0
10
-2.4426020359349869
20
-31.115816429718016
30
0
10
-2.49559012530375
20
-31.17663450046086
30
0
10
-2.5448703315867598
20
-31.2193450990593
30
0
10
-2.5921226506740873
20
-31.264290709161568
30
0
10
-2.6594938717025327
20
-31.31257377899388
30
0
10
-2.7433079146186352
20
-31.362904627054892
30
0
10
-2.8274520988791787
20
-31.4038721292901
30
0
10
-2.8896165128364899
20
-31.423737499371562
30
0
10
-2.950823475538122
20
-31.446157196191955
30
0
10
-3.0191761050385368
20
-31.461175976979597
30
0
10
-3.1157875381434326
20
-31.476278799262033
30
0
10
-3.2136461398403289
20
-31.480848597097729
30
0
10
-3.3114615084843408
20
-31.476206885681968
30
0
10
-3.4082014895184565
20
-31.461464082967488
30
0
10
-3.4974293702297614
20
-31.440384088237074
30
0
10
-3.5581025820734347
20
-31.416348503977911
30
0
10
-3.619699249525639
20
-31.395006368945705
30
0
10
-3.6837906110516672
20
-31.362545926982289
30
0
10
-3.7680682109352941
20
-31.312925888795846
30
0
10
-3.8465786075394925
20
-31.254355091052265
30
0
10
-3.9193250404359974
20
-31.188764035578394
30
0
10
-3.9845179910150064
20
-31.115850304347607
30
0
10
-4.0301919019692409
20
-31.057306421714564
30
0
10
-4.0629467893886071
20
-31.00093516776354
30
0
10
-4.0982125746141636
20
-30.946043067332766
30
0
10
-4.1352372424131731
20
-30.864796929584493
30
0
10
-4.1685093155557933
20
-30.772801407291706
30
0
10
-4.1924046146323004
20
-30.677751327470858
30
0
10
-4.2060356349635821
20
-30.580935287292977
30
0
10
-4.2114870989323574
20
-30.511365049162986
30
0
10
-4.2084010359685715
20
-30.456230758185043
30
0
10
-4.2077368547586467
20
-30.433625676142722
30
0
10
-4.2065128684043884
20
-30.415327548980713
30
0
0
SPLINE
5
102
100
AcDbEntity
8
0
100
AcDbSpline
70
0
71
3
72
64
73
60
74
0
42
0.000000001
43
0.0000000001
44
0.0000000001
40
0
40
0
40
0
40
0
40
0.012486083062540764
40
0.01656200461110572
40
0.026338897558211567
40
0.036116382515074825
40
0.045892339432587664
40
0.055668949942639823
40
0.065443038007806126
40
0.075221497177960742
40
0.07743236650170307
40
0.084999411189436921
40
0.094300992919897977
40
0.094776801683078282
40
0.10454985363390296
40
0.11432708029200049
40
0.1241038350066837
40
0.13387929784243507
40
0.14365533732853047
40
0.15343209583693918
40
0.15705522237793076
40
0.16320746949418555
40
0.17298427192249075
40
0.18276103043089945
40
0.19253637607810373
40
0.20231318583291336
40
0.20685730222942372
40
0.21208929401278853
40
0.22186713418528853
40
0.23163961153145565
40
0.24141806180938488
40
0.25119405467509398
40
0.26097336586131425
40
0.26545603331839879
40
0.2707474539265135
40
0.28052406443656563
40
0.29029945905598276
40
0.30007734939703923
40
0.30985123544092202
40
0.31962864669239277
40
0.32940605794386352
40
0.33917994398774631
40
0.34895783432880279
40
0.35873322894821991
40
0.36850983945827209
40
0.37828390196206207
40
0.38806326102544381
40
0.39783923180498731
40
0.4009862796547059
40
0.40580147833485408
40
0.40761564075704076
40
0.41738994643721194
40
0.42716936488788726
40
0.43694417340336483
40
0.44672095304545939
40
0.45649629145414922
40
0.46627304996255792
40
0.47313808740540841
40
0.4828361222499537
40
0.4828361222499537
40
0.4828361222499537
40
0.4828361222499537
10
-4.2065128684043884
20
-30.415327548980713
30
0
10
-4.2481136908963695
20
-30.421910990036935
30
0
10
-4.3031805600983901
20
-30.4164510692693
30
0
10
-4.3909798653315049
20
-30.413849755268604
30
0
10
-4.468933486496331
20
-30.400648637298961
30
0
10
-4.5639689874148619
20
-30.377434410076386
30
0
10
-4.6561191992182298
20
-30.344237630280535
30
0
10
-4.7447618543097727
20
-30.302561297375682
30
0
10
-4.82827466613554
20
-30.251671709697771
30
0
10
-4.8879418460243311
20
-30.209853369232768
30
0
10
-4.9356918471342874
20
-30.165459619051219
30
0
10
-4.9847763823036164
20
-30.124738514873744
30
0
10
-5.0213844755808488
20
-30.079681999571186
30
0
10
-5.0653218930028254
20
-30.031551202091752
30
0
10
-5.1034195585505611
20
-29.976328004990801
30
0
10
-5.1544386517163288
20
-29.892936887849459
30
0
10
-5.1960986100922888
20
-29.804262099569257
30
0
10
-5.2292824114890628
20
-29.71211614227979
30
0
10
-5.2524768829158131
20
-29.617087161395492
30
0
10
-5.265512390369155
20
-29.540639799216265
30
0
10
-5.2675456953008082
20
-29.475468107179672
30
0
10
-5.2725997201663706
20
-29.410427060428852
30
0
10
-5.2669248060588671
20
-29.324648764217951
30
0
10
-5.2531208637047193
20
-29.227751739657858
30
0
10
-5.2287566163945565
20
-29.132976668039134
30
0
10
-5.2031146415099911
20
-29.056556014873109
30
0
10
-5.1739337524025881
20
-28.998229993921964
30
0
10
-5.1474951820953487
20
-28.938602105549229
30
0
10
-5.1036220108228232
20
-28.868258166243663
30
0
10
-5.0457268488588793
20
-28.789417776211927
30
0
10
-4.9799171094016756
20
-28.716812598939711
30
0
10
-4.9070989909524982
20
-28.651489898909542
30
0
10
-4.8434420818223769
20
-28.602334743218623
30
0
10
-4.7867904165962729
20
-28.570026643857481
30
0
10
-4.7317059727304507
20
-28.535111333906489
30
0
10
-4.6559606936401687
20
-28.500918205724744
30
0
10
-4.5640007837103207
20
-28.467533177403975
30
0
10
-4.4689560603448113
20
-28.443851409068614
30
0
10
-4.3721142998517211
20
-28.429439877143764
30
0
10
-4.2743076654404657
20
-28.42464471899051
30
0
10
-4.1765071265819751
20
-28.429445646762098
30
0
10
-4.0796470835274032
20
-28.443828336364767
30
0
10
-3.9846694120181474
20
-28.467619731339333
30
0
10
-3.8924596106825122
20
-28.500595150021123
30
0
10
-3.8039796759565365
20
-28.542486729589754
30
0
10
-3.7198808009422208
20
-28.592734944850385
30
0
10
-3.641645273090826
20
-28.651448640678009
30
0
10
-3.5842614513398976
20
-28.70121882939096
30
0
10
-3.545099587982218
20
-28.745555596778345
30
0
10
-3.5231945651377892
20
-28.769672366883505
30
0
10
-3.4861625816790598
20
-28.809922160446781
30
0
10
-3.4450748727893603
20
-28.868466006439238
30
0
10
-3.3941772253844205
20
-28.951978052295942
30
0
10
-3.3525011216712279
20
-29.040641052541687
30
0
10
-3.3193824137025914
20
-29.132794352218369
30
0
10
-3.2959793996917535
20
-29.227807472068335
30
0
10
-3.2818049429797109
20
-29.314998032654774
30
0
10
-3.2799260820037319
20
-29.402860935908674
30
0
10
-3.2752529319684114
20
-29.457916194929233
30
0
10
-3.2814404368400574
20
-29.49023962020874
30
0
0
SPLINE
5
103
100
AcDbEntity
8
0
100
AcDbSpline
70
0
71
3
72
62
73
58
74
0
42
0.000000001
43
0.0000000001
44
0.0000000001
40
0
40
0
40
0
40
0
40
0.016561165007810182
40
0.019346484051934263
40
0.026338242441932419
40
0.036114441185672322
40
0.045889910462568101
40
0.05566663856775951
40
0.065445199500930293
40
0.074378995196088052
40
0.075219682723121434
40
0.084996912130447244
40
0.094771143790469622
40
0.1045487028558105
40
0.11432451938204177
40
0.12410100469938729
40
0.13387653491774446
40
0.13709354252509184
40
0.14365405024847139
40
0.15342924632716695
40
0.16320639505108012
40
0.17298262102017697
40
0.18275855409333575
40
0.19253514436404773
40
0.20231059039560856
40
0.21208758756931614
40
0.21739856350622919
40
0.22186358305304463
40
0.23164044802936062
40
0.24141529808251083
40
0.25119220729220365
40
0.26096743625104923
40
0.2666204800127861
40
0.27074570613246812
40
0.28052210294727231
40
0.29029744671597735
40
0.3000738735597433
40
0.30985090944628429
40
0.31962521840950686
40
0.32940265527533608
40
0.3391793307273922
40
0.34895575757115815
40
0.34973773633614685
40
0.35873145635059112
40
0.36850777035064036
40
0.37828378005539604
40
0.38805985609559568
40
0.39783658519973164
40
0.40761239577243741
40
0.41738840841482894
40
0.42636231530361579
40
0.42716414826898691
40
0.4369414148431886
40
0.44671838702917405
40
0.45649387678591435
40
0.4662706094300979
40
0.48283470816976187
40
0.48283470816976187
40
0.48283470816976187
40
0.48283470816976187
10
-4.206508994102478
20
-36.914854049682617
30
0
10
-4.2104656586279079
20
-36.860019494537013
30
0
10
-4.2126624580146945
20
-36.794745593172195
30
0
10
-4.1985991438603714
20
-36.708064727825018
30
0
10
-4.1909833456890802
20
-36.643259717279989
30
0
10
-4.16817528594735
20
-36.557485104112132
30
0
10
-4.1356193175510949
20
-36.465191143394847
30
0
10
-4.0934109374280094
20
-36.376862138836316
30
0
10
-4.0453948962755328
20
-36.294623120682083
30
0
10
-4.0046872152034245
20
-36.243594241631996
30
0
10
-3.9661015604496197
20
-36.191065193695138
30
0
10
-3.9186868454032919
20
-36.14190943206615
30
0
10
-3.8467674948132649
20
-36.07566609723979
30
0
10
-3.767959204151397
20
-36.017479396789412
30
0
10
-3.6840346262550288
20
-35.96697808475929
30
0
10
-3.5953728466421371
20
-35.925671909991522
30
0
10
-3.524220112027312
20
-35.8984075619206
30
0
10
-3.460723163921088
20
-35.883591959997261
30
0
10
-3.3979343679911329
20
-35.865873323413865
30
0
10
-3.3113599189207781
20
-35.85439201866479
30
0
10
-3.2136611456819537
20
-35.84917526738262
30
0
10
-3.1158273888834569
20
-35.854101592729698
30
0
10
-3.0189887114433929
20
-35.868452011286024
30
0
10
-2.923950790361256
20
-35.892186006855276
30
0
10
-2.8319805528789246
20
-35.9255284889256
30
0
10
-2.7561844194736156
20
-35.959773379759142
30
0
10
-2.7010913661188924
20
-35.994686993158787
30
0
10
-2.6444260855202391
20
-36.026974427753409
30
0
10
-2.5808919655274254
20
-36.076151351615493
30
0
10
-2.5079317220465853
20
-36.141363614785973
30
0
10
-2.4426630795847868
20
-36.214288770128313
30
0
10
-2.3912468470246031
20
-36.281090011530026
30
0
10
-2.3592079718194023
20
-36.337915266236948
30
0
10
-2.3245575812950356
20
-36.393165724154251
30
0
10
-2.2921571719436522
20
-36.465458715462312
30
0
10
-2.2587062840145808
20
-36.557376922942552
30
0
10
-2.2350349560168996
20
-36.652433256555611
30
0
10
-2.220622376883485
20
-36.749275571871081
30
0
10
-2.2158751952553941
20
-36.847063300201825
30
0
10
-2.2204831917287584
20
-36.944933904526813
30
0
10
-2.2356241749958965
20
-37.04153180665574
30
0
10
-2.2500826542709484
20
-37.108088830018616
30
0
10
-2.2723163864578302
20
-37.169358393023685
30
0
10
-2.2921322263222974
20
-37.231548410251754
30
0
10
-2.3338646846776352
20
-37.317368412533952
30
0
10
-2.3839417055999501
20
-37.401447285149843
30
0
10
-2.4423602749074163
20
-37.480049530485381
30
0
10
-2.508042545067926
20
-37.552693849882864
30
0
10
-2.5807634871817431
20
-37.618181086198362
30
0
10
-2.6567157909878132
20
-37.675843194109049
30
0
10
-2.7138462397390066
20
-37.707408413105625
30
0
10
-2.7696163992109102
20
-37.741148206640084
30
0
10
-2.8321279060634348
20
-37.768355379252554
30
0
10
-2.9238963717712334
20
-37.802098487566838
30
0
10
-3.0190105394510325
20
-37.825671344282192
30
0
10
-3.1382343440594052
20
-37.843334711854034
30
0
10
-3.2264177453874989
20
-37.845145804651857
30
0
10
-3.2814398407936096
20
-37.839956283569336
30
0
0
SPLINE
5
104
100
AcDbEntity
8
0
100
AcDbSpline
70
0
71
3
72
64
73
60
74
0
42
0.000000001
43
0.0000000001
44
0.0000000001
40
0
40
0
40
0
40
0
40
0.016562831218965918
40
0.026338174696456322
40
0.036114900787042589
40
0.037958262121040913
40
0.043623141700572236
40
0.045891904920305295
40
0.055665420190911599
40
0.065444020757485191
40
0.075220241500476473
40
0.084995590391029552
40
0.094772521684677175
40
0.10455088674731108
40
0.1143224391774018
40
0.12410243623058129
40
0.13387783084999841
40
0.13567595741283592
40
0.14365572123520298
40
0.15343240431583283
40
0.16124660743602029
40
0.16320676769647743
40
0.17298113107278498
40
0.18275805901754799
40
0.19253554397441125
40
0.2023115008919241
40
0.21208800946353493
40
0.22186222011471465
40
0.23164053729532022
40
0.23518886598860625
40
0.24141749067697699
40
0.25119488114031996
40
0.26096927390752633
40
0.27074629606389583
40
0.28052261974363624
40
0.29029808257938761
40
0.30007406366672312
40
0.30441202163359432
40
0.30984986240423129
40
0.31962642670398123
40
0.32940322913228642
40
0.33917857260977685
40
0.34895530593785012
40
0.35873076877360149
40
0.3647618463630577
40
0.36787382118751955
40
0.36850838557195953
40
0.37828418075023135
40
0.38805723270105602
40
0.39783568297898525
40
0.40761263635662864
40
0.41739109552678327
40
0.42716604178387912
40
0.42938481604655543
40
0.43694193883654492
40
0.44671789575405774
40
0.45649578609511421
40
0.46626942723936543
40
0.48283492508001274
40
0.48283492508001274
40
0.48283492508001274
40
0.48283492508001274
10
-3.2814398407936096
20
-37.839956283569336
30
0
10
-3.2762857227363167
20
-37.894945571237862
30
0
10
-3.2778425250490444
20
-37.983226278652545
30
0
10
-3.2961735266852226
20
-38.102218276705436
30
0
10
-3.3117839980553616
20
-38.172120076083914
30
0
10
-3.3315993818677549
20
-38.226237905732781
30
0
10
-3.3425925845250943
20
-38.256909291293383
30
0
10
-3.3619641612717825
20
-38.312684259132766
30
0
10
-3.3947668671369784
20
-38.377933268155203
30
0
10
-3.4445486210454606
20
-38.46211705587114
30
0
10
-3.5030178980150599
20
-38.540728765533508
30
0
10
-3.5687336431442751
20
-38.613295789766781
30
0
10
-3.6413041477356503
20
-38.679065046779137
30
0
10
-3.7199815044570861
20
-38.737310690617981
30
0
10
-3.8039000635428026
20
-38.787878990140918
30
0
10
-3.8926001024485037
20
-38.829042960844234
30
0
10
-3.9592319187386629
20
-38.854937825914455
30
0
10
-4.022614294208279
20
-38.870199413102213
30
0
10
-4.0853711431437931
20
-38.887915163361328
30
0
10
-4.1700634011789859
20
-38.900490006095517
30
0
10
-4.2352482496275687
20
-38.901767346041673
30
0
10
-4.3003143276586968
20
-38.905624012636501
30
0
10
-4.372122450007093
20
-38.900181807684731
30
0
10
-4.4689493689995441
20
-38.88649295565186
30
0
10
-4.5639636987588439
20
-38.862554970740682
30
0
10
-4.6561240394344381
20
-38.829557187321775
30
0
10
-4.7447462617724989
20
-38.787808993233433
30
0
10
-4.8283357423501378
20
-38.73701969217165
30
0
10
-4.8914381353287411
20
-38.692364345627752
30
0
10
-4.9389709824210692
20
-38.647715764554064
30
0
10
-4.9885335843960741
20
-38.605290344334378
30
0
10
-5.045442531387943
20
-38.540512652851028
30
0
10
-5.1040097427706534
20
-38.462135636571674
30
0
10
-5.1542447471381001
20
-38.378068071192295
30
0
10
-5.1962794153120502
20
-38.289597644518203
30
0
10
-5.2287565696699509
20
-38.197323136500181
30
0
10
-5.2496443463211806
20
-38.120175996741608
30
0
10
-5.2578746045619855
20
-38.055487996288491
30
0
10
-5.2691018308798165
20
-37.991237218410525
30
0
10
-5.2717859217339136
20
-37.907678538628311
30
0
10
-5.2673648007826621
20
-37.809959110655711
30
0
10
-5.2529766400347278
20
-37.713036744568377
30
0
10
-5.2288836533866467
20
-37.618221722787382
30
0
10
-5.201243627117023
20
-37.537257782388743
30
0
10
-5.1729484287350243
20
-37.480834190821717
30
0
10
-5.1591032453295727
20
-37.451334923034082
30
0
10
-5.1399385224644938
20
-37.41053280505114
30
0
10
-5.1033486358101809
20
-37.353695882725347
30
0
10
-5.0458200196081471
20
-37.274637209978138
30
0
10
-4.9798190466057353
20
-37.202244143541499
30
0
10
-4.9073879206546973
20
-37.136280044361527
30
0
10
-4.8283973891904957
20
-37.078603924378498
30
0
10
-4.7669006809480967
20
-37.039486846534203
30
0
10
-4.7076418990233888
20
-37.012325902729458
30
0
10
-4.6495831612586862
20
-36.982546412820447
30
0
10
-4.563831430683039
20
-36.953147708431317
30
0
10
-4.4690022160862055
20
-36.929007867190144
30
0
10
-4.3496791713618217
20
-36.91156946131477
30
0
10
-4.2615483034857062
20
-36.909643222746851
30
0
10
-4.206508994102478
20
-36.914854049682617
30
0
0
SPLINE
5
105
100
AcDbEntity
8
0
100
AcDbSpline
70
2
71
3
72
287
73
283
74
0
42
0.000000001
43
0.0000000001
44
0.0000000001
40
0
40
0
40
0
40
0
40
0.023369591052047237
40
0.023369591052047237
40
0.023369591052047237
40
0.025033884458003201
40
0.025033884458003201
40
0.025033884458003201
40
0.038229195792164529
40
0.038229195792164529
40
0.038229195792164529
40
0.046730254065616511
40
0.046730254065616511
40
0.046730254065616511
40
0.053671148353165159
40
0.053671148353165159
40
0.053671148353165159
40
0.070101942622530902
40
0.070101942622530902
40
0.070101942622530902
40
0.085240057409776401
40
0.085240057409776401
40
0.085240057409776401
40
0.093472659543135495
40
0.093472659543135495
40
0.093472659543135495
40
0.11683339940345749
40
0.11683339940345749
40
0.11683339940345749
40
0.12330673196080119
40
0.12330673196080119
40
0.12330673196080119
40
0.14020595870493618
40
0.14020595870493618
40
0.14020595870493618
40
0.16357376743094143
40
0.16357376743094143
40
0.16357376743094143
40
0.17442695693138346
40
0.17442695693138346
40
0.17442695693138346
40
0.18693841480044904
40
0.18693841480044904
40
0.18693841480044904
40
0.2103085135219093
40
0.2103085135219093
40
0.2103085135219093
40
0.23363171314413408
40
0.23363171314413408
40
0.23363171314413408
40
0.25704479063678271
40
0.25704479063678271
40
0.25704479063678271
40
0.25821887120745973
40
0.25821887120745973
40
0.25821887120745973
40
0.28040882999358907
40
0.28040882999358907
40
0.28040882999358907
40
0.30377809065022687
40
0.30377809065022687
40
0.30377809065022687
40
0.32714568774311764
40
0.32714568774311764
40
0.32714568774311764
40
0.35051339602012099
40
0.35051339602012099
40
0.35051339602012099
40
0.37388047860678075
40
0.37388047860678075
40
0.37388047860678075
40
0.37649560049522046
40
0.37649560049522046
40
0.37649560049522046
40
0.39724851372195019
40
0.39724851372195019
40
0.39724851372195019
40
0.42061622568389068
40
0.42061622568389068
40
0.42061622568389068
40
0.44398382277678144
40
0.44398382277678144
40
0.44398382277678144
40
0.46735307641879936
40
0.46735307641879936
40
0.46735307641879936
40
0.49071711575971366
40
0.49071711575971366
40
0.49071711575971366
40
0.49276105905767947
40
0.49276105905767947
40
0.49276105905767947
40
0.51408817832535014
40
0.51408817832535014
40
0.51408817832535014
40
0.51902872534551403
40
0.51902872534551403
40
0.51902872534551403
40
0.53745339818835824
40
0.53745339818835824
40
0.53745339818835824
40
0.56082349690981848
40
0.56082349690981848
40
0.56082349690981848
40
0.57650093466202601
40
0.57650093466202601
40
0.57650093466202601
40
0.58418756378639625
40
0.58418756378639625
40
0.58418756378639625
40
0.60755587846268821
40
0.60755587846268821
40
0.60755587846268821
40
0.62756885573640075
40
0.62756885573640075
40
0.62756885573640075
40
0.63092844542363247
40
0.63092844542363247
40
0.63092844542363247
40
0.65428917891105232
40
0.65428917891105232
40
0.65428917891105232
40
0.66549883546441069
40
0.66549883546441069
40
0.66549883546441069
40
0.6776599008519848
40
0.6776599008519848
40
0.6776599008519848
40
0.69706500710304187
40
0.69706500710304187
40
0.69706500710304187
40
0.70103137945438043
40
0.70103137945438043
40
0.70103137945438043
40
0.71387413176082104
40
0.71387413176082104
40
0.71387413176082104
40
0.72439216931075956
40
0.72439216931075956
40
0.72439216931075956
40
0.72567783928791307
40
0.72567783928791307
40
0.72567783928791307
40
0.74776171795306767
40
0.74776171795306767
40
0.74776171795306767
40
0.75381696986883107
40
0.75381696986883107
40
0.75381696986883107
40
0.77113126659544529
40
0.77113126659544529
40
0.77113126659544529
40
0.78387293320066054
40
0.78387293320066054
40
0.78387293320066054
40
0.78891090122729235
40
0.78891090122729235
40
0.78891090122729235
40
0.79449983907734523
40
0.79449983907734523
40
0.79449983907734523
40
0.81786391687087234
40
0.81786391687087234
40
0.81786391687087234
40
0.84123441432730617
40
0.84123441432730617
40
0.84123441432730617
40
0.86197670961278938
40
0.86197670961278938
40
0.86197670961278938
40
0.86460226001904106
40
0.86460226001904106
40
0.86460226001904106
40
0.88796807844337411
40
0.88796807844337411
40
0.88796807844337411
40
0.91133658462107048
40
0.91133658462107048
40
0.91133658462107048
40
0.92645697275537775
40
0.92645697275537775
40
0.92645697275537775
40
0.93470612775399442
40
0.93470612775399442
40
0.93470612775399442
40
0.95807110279887164
40
0.95807110279887164
40
0.95807110279887164
40
0.98144001514992341
40
0.98144001514992341
40
0.98144001514992341
40
0.99262626030172341
40
0.99262626030172341
40
0.99262626030172341
40
1.0048078903043065
40
1.0048078903043065
40
1.0048078903043065
40
1.0281751908093713
40
1.0281751908093713
40
1.0281751908093713
40
1.0515418740589635
40
1.0515418740589635
40
1.0515418740589635
40
1.0749109777085233
40
1.0749109777085233
40
1.0749109777085233
40
1.0982777805458066
40
1.0982777805458066
40
1.0982777805458066
40
1.1216458156562013
40
1.1216458156562013
40
1.1216458156562013
40
1.1242787636680265
40
1.1242787636680265
40
1.1242787636680265
40
1.1450128982640302
40
1.1450128982640302
40
1.1450128982640302
40
1.168379697416233
40
1.168379697416233
40
1.168379697416233
40
1.1917488010657928
40
1.1917488010657928
40
1.1917488010657928
40
1.2151154913307767
40
1.2151154913307767
40
1.2151154913307767
40
1.2384827918358414
40
1.2384827918358414
40
1.2384827918358414
40
1.2557027596851917
40
1.2557027596851917
40
1.2557027596851917
40
1.2618506605996649
40
1.2618506605996649
40
1.2618506605996649
40
1.2852195729507168
40
1.2852195729507168
40
1.2852195729507168
40
1.308584547995594
40
1.308584547995594
40
1.308584547995594
40
1.3195485680507251
40
1.3195485680507251
40
1.3195485680507251
40
1.3319546714868304
40
1.3319546714868304
40
1.3319546714868304
40
1.3553226717183864
40
1.3553226717183864
40
1.3553226717183864
40
1.3786884824811647
40
1.3786884824811647
40
1.3786884824811647
40
1.3841422955107778
40
1.3841422955107778
40
1.3841422955107778
40
1.4020563345450678
40
1.4020563345450678
40
1.4020563345450678
40
1.4254268269812793
40
1.4254268269812793
40
1.4254268269812793
40
1.4278084871706216
40
1.4278084871706216
40
1.4278084871706216
40
1.4487911147988604
40
1.4487911147988604
40
1.4487911147988604
40
1.4594519450874945
40
1.4594519450874945
40
1.4594519450874945
40
1.4623457088998617
40
1.4623457088998617
40
1.4623457088998617
40
1.4721595604794111
40
1.4721595604794111
40
1.4721595604794111
40
1.4924209569860643
40
1.4924209569860643
40
1.4924209569860643
40
1.4955291515315243
40
1.4955291515315243
40
1.4955291515315243
40
1.4955291515315243
10
-2.4128279089927678
20
-33.66508960723877
30
0
10
-2.4162467267572736
20
-33.587253272524592
30
0
10
-2.4124075807914007
20
-33.508801463424113
30
0
10
-2.4013561010360718
20
-33.431675434112549
30
0
10
-2.4005690566739393
20
-33.426182811596178
30
0
10
-2.3997454331813479
20
-33.42069691309915
30
0
10
-2.398914098739624
20
-33.415212631225586
30
0
10
-2.3923228830668943
20
-33.371730630691928
30
0
10
-2.3852469514156898
20
-33.328350252308013
30
0
10
-2.3795506358146667
20
-33.284687995910645
30
0
10
-2.3758807935773789
20
-33.256558656891301
30
0
10
-2.3727835692685972
20
-33.228312322709314
30
0
10
-2.3670753836631775
20
-33.200597763061523
30
0
10
-2.362414797700056
20
-33.177969541662073
30
0
10
-2.3560136665297837
20
-33.155695817136234
30
0
10
-2.3502126336097717
20
-33.133268356323242
30
0
10
-2.33648016996607
20
-33.080177071636271
30
0
10
-2.3261105649963785
20
-33.026224272344813
30
0
10
-2.3102945089340206
20
-32.973883152008057
30
0
10
-2.2957227683213421
20
-32.925659927082883
30
0
10
-2.2765278553967687
20
-32.878804761723885
30
0
10
-2.2593006491661067
20
-32.83134937286377
30
0
10
-2.2499319307517203
20
-32.80554157968345
30
0
10
-2.2411451695156885
20
-32.779556267985683
30
0
10
-2.231568843126297
20
-32.75383472442627
30
0
10
-2.2043951663256629
20
-32.680847559716511
30
0
10
-2.1708639816777193
20
-32.609984232415684
30
0
10
-2.131659984588623
20
-32.542669773101807
30
0
10
-2.1207964369333583
20
-32.524016730276024
30
0
10
-2.1094972960936249
20
-32.505636191208083
30
0
10
-2.0983871817588811
20
-32.487142086029053
30
0
10
-2.0693832120673958
20
-32.438861532839226
30
0
10
-2.0416674935090748
20
-32.389807005273184
30
0
10
-2.0115227997303009
20
-32.342183589935303
30
0
10
-1.9698395056369267
20
-32.276331176843044
30
0
10
-1.9235118566730973
20
-32.213215141211975
30
0
10
-1.8723282217979433
20
-32.154486179351807
30
0
10
-1.8485559590609895
20
-32.127209486029543
30
0
10
-1.8237361910655108
20
-32.100879146944791
30
0
10
-1.7994314432144165
20
-32.074079513549805
30
0
10
-1.7714131515643121
20
-32.043185140599427
30
0
10
-1.7440792839926689
20
-32.011667109857555
30
0
10
-1.7153944075107574
20
-31.98138952255249
30
0
10
-1.6618140492335143
20
-31.924834146530593
30
0
10
-1.6035199743183981
20
-31.872606720400007
30
0
10
-1.542254835367203
20
-31.824421882629395
30
0
10
-1.4811126432578503
20
-31.776333742160539
30
0
10
-1.4170112998060513
20
-31.732271981004647
30
0
10
-1.3548998534679413
20
-31.685514450073242
30
0
10
-1.2925490555564676
20
-31.638576735145211
30
0
10
-1.2246177570682917
20
-31.598598888333939
30
0
10
-1.1541295051574709
20
-31.565067768096924
30
0
10
-1.1505947760277582
20
-31.563386304530432
30
0
10
-1.1470536513346747
20
-31.561721008520742
30
0
10
-1.1435154080390932
20
-31.560049057006836
30
0
10
-1.0766431039867588
20
-31.528449406938019
30
0
10
-1.0108000487223316
20
-31.494472379348771
30
0
10
-0.94289444386959087
20
-31.465229988098145
30
0
10
-0.87137994512062056
20
-31.43443348820621
30
0
10
-0.79757783970857599
20
-31.408888249033936
30
0
10
-0.72287604212760936
20
-31.386463642120361
30
0
10
-0.64817956226739204
20
-31.364040631524432
30
0
10
-0.57258351832463295
20
-31.34473780891248
30
0
10
-0.49619905650615692
20
-31.329700946807861
30
0
10
-0.41981423124686285
20
-31.314664013157156
30
0
10
-0.34264098060917636
20
-31.303893080609157
30
0
10
-0.26505321264266968
20
-31.29539966583252
30
0
10
-0.18746752215490506
20
-31.286906478474314
30
0
10
-0.10946733653613397
20
-31.280690686924135
30
0
10
-0.031664315611124025
20
-31.283924579620361
30
0
10
-0.022957007702524273
20
-31.284286500007443
30
0
10
-0.014252169265507993
20
-31.284766776912996
30
0
10
-0.0055445730686187831
20
-31.285207271575928
30
0
10
0.06355659926536425
20
-31.288702920309181
30
0
10
0.13283144396377106
20
-31.289693247166277
30
0
10
0.20173411816358566
20
-31.29539966583252
30
0
10
0.2793183024425856
20
-31.301825074461668
30
0
10
0.35643062343814136
20
-31.314229867739812
30
0
10
0.43287999927997595
20
-31.329700946807861
30
0
10
0.5093289993183443
20
-31.345171949824469
30
0
10
0.58511506072067665
20
-31.363709208485076
30
0
10
0.65955698490142822
20
-31.386463642120361
30
0
10
0.73400418633443798
20
-31.409219688837091
30
0
10
0.80710705996501642
20
-31.436193508468037
30
0
10
0.87957531213760376
20
-31.465229988098145
30
0
10
0.95202739471859577
20
-31.494259988918529
30
0
10
1.0238451390118037
20
-31.525351729372311
30
0
10
1.0908103734254837
20
-31.565067768096924
30
0
10
1.0966686558945113
20
-31.568542224289551
30
0
10
1.1024898012403832
20
-31.572082683774294
30
0
10
1.1083380877971649
20
-31.575582027435303
30
0
10
1.1693608691199788
20
-31.612095231931324
30
0
10
1.2333386398465849
20
-31.644131966167947
30
0
10
1.2912450730800629
20
-31.685261726379395
30
0
10
1.3046594237276747
20
-31.694789666449612
30
0
10
1.3177479601413042
20
-31.704805577629308
30
0
10
1.3309299945831301
20
-31.7146897315979
30
0
10
1.3800894643751396
20
-31.751550488606455
30
0
10
1.4305492592748117
20
-31.786578830397033
30
0
10
1.4789357781410217
20
-31.824421882629395
30
0
10
1.5403098786385678
20
-31.872422510599037
30
0
10
1.5983483431448031
20
-31.924951647702635
30
0
10
1.6520753502845762
20
-31.98138952255249
30
0
10
1.6881172095888646
20
-32.019249921876053
30
0
10
1.7222188390862967
20
-32.05886932026602
30
0
10
1.757371574640274
20
-32.097539901733398
30
0
10
1.7746069191641225
20
-32.116500041933705
30
0
10
1.7920949421487067
20
-32.135232093257514
30
0
10
1.8090005218982694
20
-32.154486179351807
30
0
10
1.8603956004146012
20
-32.213021011119515
30
0
10
1.9064075282608517
20
-32.276380676717466
30
0
10
1.9482035934925079
20
-32.342183589935303
30
0
10
1.9839983743827341
20
-32.398538197660123
30
0
10
2.0167010443154174
20
-32.456684797541243
30
0
10
2.0510716736316681
20
-32.513852119445801
30
0
10
2.0568414903968235
20
-32.523448829744844
30
0
10
2.0626583111325254
20
-32.533017943476722
30
0
10
2.0683409273624416
20
-32.542669773101807
30
0
10
2.1078547060131165
20
-32.609783272227759
30
0
10
2.1408796371614591
20
-32.680896121553793
30
0
10
2.168249636888504
20
-32.75383472442627
30
0
10
2.1813831413210987
20
-32.788834339833144
30
0
10
2.1932145617416667
20
-32.824254346633943
30
0
10
2.206009179353714
20
-32.85938024520874
30
0
10
2.2198897278476375
20
-32.897487420690169
30
0
10
2.2349039128959753
20
-32.935248445000369
30
0
10
2.24697545170784
20
-32.973883152008057
30
0
10
2.2662377026531679
20
-33.035531582517166
30
0
10
2.2780074517730782
20
-33.099404564902258
30
0
10
2.2941139340400696
20
-33.162121772766113
30
0
10
2.2974060729809547
20
-33.174941068677505
30
0
10
2.3008793949915853
20
-33.187712077832806
30
0
10
2.3037476837635045
20
-33.200597763061523
30
0
10
2.3130349414836893
20
-33.24232043784653
30
0
10
2.3159789980606815
20
-33.285245382777042
30
0
10
2.3225980997085571
20
-33.327634334564209
30
0
10
2.3280190529449047
20
-33.362350303225881
30
0
10
2.3359050003169775
20
-33.39670676066261
30
0
10
2.3380370438098912
20
-33.431675434112549
30
0
10
2.3382976536713604
20
-33.435949822122865
30
0
10
2.3384722924942003
20
-33.440233357461253
30
0
10
2.3386676609516144
20
-33.444516658782959
30
0
10
2.3420234936187829
20
-33.5180906772759
30
0
10
2.3514955497732579
20
-33.591595649769673
30
0
10
2.3495002090930934
20
-33.66508960723877
30
0
10
2.3489531000159536
20
-33.685241159124622
30
0
10
2.3475438494035501
20
-33.705391882879169
30
0
10
2.3465302586555477
20
-33.725569248199456
30
0
10
2.3436320124364958
20
-33.783264104693757
30
0
10
2.3439687140266683
20
-33.841176784835277
30
0
10
2.3380370438098903
20
-33.89850378036499
30
0
10
2.3336719017826031
20
-33.940690966830125
30
0
10
2.3259120901561277
20
-33.982560972724663
30
0
10
2.3193413019180298
20
-34.02454137802124
30
0
10
2.3167432570877122
20
-34.041140143801421
30
0
10
2.3143310991367922
20
-34.057756168956431
30
0
10
2.3119480907917023
20
-34.074375629425049
30
0
10
2.3093044683100867
20
-34.09281265228217
30
0
10
2.3066967198804473
20
-34.111253902936411
30
0
10
2.3037476837635045
20
-34.129660129547119
30
0
10
2.2914194899097255
20
-34.206605789340742
30
0
10
2.2731269978797748
20
-34.282939373613686
30
0
10
2.2469754517078404
20
-34.356298446655273
30
0
10
2.2208167199704238
20
-34.42967767630315
30
0
10
2.1982038977651079
20
-34.504541821436526
30
0
10
2.168249636888504
20
-34.57634449005127
30
0
10
2.1416639758293354
20
-34.640072365654646
30
0
10
2.1090945366036511
20
-34.701310147374173
30
0
10
2.0795668661594391
20
-34.763853549957275
30
0
10
2.0758292669177232
20
-34.771770265720903
30
0
10
2.0721404040589473
20
-34.779707900641426
30
0
10
2.068340927362442
20
-34.787588119506836
30
0
10
2.0345278714840855
20
-34.857717324687833
30
0
10
1.991954278480232
20
-34.923299219217732
30
0
10
1.9482035934925079
20
-34.987995624542229
30
0
10
1.9044478758948151
20
-35.052699471847909
30
0
10
1.8595147954975815
20
-35.116517626222091
30
0
10
1.8090005218982697
20
-35.175695419311523
30
0
10
1.7763157016818547
20
-35.21398589426272
30
0
10
1.7412942456285105
20
-35.250333624341685
30
0
10
1.7074693739414215
20
-35.287740230560303
30
0
10
1.6890157068214604
20
-35.308147966785633
30
0
10
1.6709181925098697
20
-35.328870868177326
30
0
10
1.6520753502845764
20
-35.348865985870361
30
0
10
1.5987047276641542
20
-35.405500323083736
30
0
10
1.5393546844655315
20
-35.456295988828842
30
0
10
1.4789357781410217
20
-35.505757331848145
30
0
10
1.4185066904346586
20
-35.555227009755498
30
0
10
1.3570083793370142
20
-35.603361915197233
30
0
10
1.2912450730800629
20
-35.644979476928711
30
0
10
1.2597654537151481
20
-35.664900996644946
30
0
10
1.2273085741571366
20
-35.683329164004419
30
0
10
1.1952975392341612
20
-35.702488422393799
30
0
10
1.1604380686844116
20
-35.723352527699575
30
0
10
1.1261073180727939
20
-35.74508362202738
30
0
10
1.0908103734254839
20
-35.765111446380615
30
0
10
1.0231023317012291
20
-35.803529637544315
30
0
10
0.95183903600064057
20
-35.835680394708042
30
0
10
0.87957531213760365
20
-35.8650255203247
30
0
10
0.80731349714628298
20
-35.894369870779535
30
0
10
0.73405130684514031
20
-35.920908737908839
30
0
10
0.65955698490142833
20
-35.943715572357178
30
0
10
0.58505494658425872
20
-35.966524769214452
30
0
10
0.50932052135458616
20
-35.985601160197611
30
0
10
0.43287999927997589
20
-36.000540256500244
30
0
10
0.35644700318044126
20
-36.015477881969566
30
0
10
0.2793080492670878
20
-36.026279027395489
30
0
10
0.20173411816358561
20
-36.03477954864502
30
0
10
0.12415609611661524
20
-36.043280518178548
30
0
10
0.046143051000320276
20
-36.049480620877567
30
0
10
-0.031664315611124025
20
-36.046254634857171
30
0
10
-0.040431109663647158
20
-36.045891153142151
30
0
10
-0.049195292582641104
20
-36.045408005172646
30
0
10
-0.057962182909250259
20
-36.044964790344238
30
0
10
-0.12700034211479666
20
-36.041474529288607
30
0
10
-0.19620639753513919
20
-36.040460667869993
30
0
10
-0.26505321264266968
20
-36.03477954864502
30
0
10
-0.34264167882329227
20
-36.028377083604816
30
0
10
-0.41977388574550328
20
-36.016046888547685
30
0
10
-0.49619905650615692
20
-36.000540256500244
30
0
10
-0.57263176452524611
20
-35.985032095146529
30
0
10
-0.64835729691623822
20
-35.966346870233878
30
0
10
-0.72287604212760914
20
-35.943715572357171
30
0
10
-0.79738709160563015
20
-35.921086611670034
30
0
10
-0.87069160314689542
20
-35.894512393018005
30
0
10
-0.94289444386959065
20
-35.865025520324707
30
0
10
-1.0150991702280718
20
-35.835537877557798
30
0
10
-1.0862021682251768
20
-35.803137428615003
30
0
10
-1.1541295051574707
20
-35.765111446380615
30
0
10
-1.2041869158460765
20
-35.737089116998831
30
0
10
-1.252519752950346
20
-35.706011787125981
30
0
10
-1.3018321990966797
20
-35.676586627960205
30
0
10
-1.3194378087824954
20
-35.666081209801099
30
0
10
-1.3371682837874042
20
-35.655786384657851
30
0
10
-1.3545641303062439
20
-35.644979476928704
30
0
10
-1.4206878395570071
20
-35.603901118148755
30
0
10
-1.4819766633561997
20
-35.555423925295571
30
0
10
-1.542254835367203
20
-35.505757331848145
30
0
10
-1.6025228514233509
20
-35.456099106466034
30
0
10
-1.6617805562215184
20
-35.405251881247715
30
0
10
-1.7153944075107572
20
-35.348865985870354
30
0
10
-1.7405527198838282
20
-35.322406891154586
30
0
10
-1.7644682795085285
20
-35.294728204620647
30
0
10
-1.7890182137489319
20
-35.267622470855706
30
0
10
-1.8167971690960165
20
-35.23695155497736
30
0
10
-1.8453883505591278
20
-35.207014223310473
30
0
10
-1.8723282217979431
20
-35.175695419311523
30
0
10
-1.9230718675033791
20
-35.116703663933315
30
0
10
-1.9679568171110566
20
-35.052810572366475
30
0
10
-2.0115227997303009
20
-34.987995624542236
30
0
10
-2.0550847004273547
20
-34.923186749565616
30
0
10
-2.0973278812860707
20
-34.857456191070469
30
0
10
-2.1316599845886235
20
-34.787588119506836
30
0
10
-2.1396734395560735
20
-34.771280215496311
30
0
10
-2.1472558973497562
20
-34.754746898901161
30
0
10
-2.1549765765666962
20
-34.738285541534417
30
0
10
-2.1803365491423055
20
-34.684215224707629
30
0
10
-2.2071878110207708
20
-34.630921285558117
30
0
10
-2.2315688431262974
20
-34.57634449005127
30
0
10
-2.2633761159204773
20
-34.505144098886333
30
0
10
-2.2909791627857721
20
-34.431760340805631
30
0
10
-2.3102945089340214
20
-34.356298446655281
30
0
10
-2.3122629137971282
20
-34.348608211218391
30
0
10
-2.3141452474464992
20
-34.340896393475411
30
0
10
-2.3160818219184875
20
-34.333195686340332
30
0
10
-2.3331432067465676
20
-34.265351805415392
30
0
10
-2.354414633490117
20
-34.198370303096866
30
0
10
-2.3670753836631775
20
-34.129660129547119
30
0
10
-2.3735080436385254
20
-34.094749940399474
30
0
10
-2.3777179077009052
20
-34.05939350486036
30
0
10
-2.3827147483825688
20
-34.024205207824707
30
0
10
-2.3840710852108713
20
-34.014653735957715
30
0
10
-2.385485405740269
20
-34.005114652378367
30
0
10
-2.3869600892066956
20
-33.995580673217773
30
0
10
-2.3919613006409088
20
-33.963247330722872
30
0
10
-2.3976567737174141
20
-33.930972696473773
30
0
10
-2.4013561010360718
20
-33.89850378036499
30
0
10
-2.4089936261202509
20
-33.831469387385965
30
0
10
-2.4081226702691194
20
-33.763606876774375
30
0
10
-2.4113023281097417
20
-33.696134090423577
30
0
10
-2.4117901027383764
20
-33.685783444236208
30
0
10
-2.4123732005340748
20
-33.675441969437081
30
0
10
-2.4128279089927678
20
-33.66508960723877
30
0
0
SPLINE
5
106
100
AcDbEntity
8
0
100
AcDbSpline
70
2
71
3
72
215
73
211
74
0
42
0.000000001
43
0.0000000001
44
0.0000000001
40
0
40
0
40
0
40
0
40
0.0092885037084438106
40
0.0092885037084438106
40
0.0092885037084438106
40
0.018576307575643575
40
0.018576307575643575
40
0.018576307575643575
40
0.027863420660841836
40
0.027863420660841836
40
0.027863420660841836
40
0.037149707392809504
40
0.037149707392809504
40
0.037149707392809504
40
0.046439876232181737
40
0.046439876232181737
40
0.046439876232181737
40
0.055726674757626035
40
0.055726674757626035
40
0.055726674757626035
40
0.065012696583447049
40
0.065012696583447049
40
0.065012696583447049
40
0.074301493700707752
40
0.074301493700707752
40
0.074301493700707752
40
0.083588069043238677
40
0.083588069043238677
40
0.083588069043238677
40
0.090352466698080294
40
0.090352466698080294
40
0.090352466698080294
40
0.092875633578920355
40
0.092875633578920355
40
0.092875633578920355
40
0.10216353027754665
40
0.10216353027754665
40
0.10216353027754665
40
0.1114504265892485
40
0.1114504265892485
40
0.1114504265892485
40
0.12073873558656384
40
0.12073873558656384
40
0.12073873558656384
40
0.12490561827967674
40
0.12490561827967674
40
0.12490561827967674
40
0.1300269349021401
40
0.1300269349021401
40
0.1300269349021401
40
0.13931324701488046
40
0.13931324701488046
40
0.13931324701488046
40
0.14860168779744318
40
0.14860168779744318
40
0.14860168779744318
40
0.15788894046326563
40
0.15788894046326563
40
0.15788894046326563
40
0.16717614693388502
40
0.16717614693388502
40
0.16717614693388502
40
0.17646342113498734
40
0.17646342113498734
40
0.17646342113498734
40
0.18575173013230267
40
0.18575173013230267
40
0.18575173013230267
40
0.19503931345533793
40
0.19503931345533793
40
0.19503931345533793
40
0.20432713346507161
40
0.20432713346507161
40
0.20432713346507161
40
0.21361408461961648
40
0.21361408461961648
40
0.21361408461961648
40
0.22290128933242664
40
0.22290128933242664
40
0.22290128933242664
40
0.22424908912941691
40
0.22424908912941691
40
0.22424908912941691
40
0.23218977127036233
40
0.23218977127036233
40
0.23218977127036233
40
0.24147652993575772
40
0.24147652993575772
40
0.24147652993575772
40
0.25076293389295495
40
0.25076293389295495
40
0.25076293389295495
40
0.26005286068707534
40
0.26005286068707534
40
0.26005286068707534
40
0.26933898676504492
40
0.26933898676504492
40
0.26933898676504492
40
0.27862633158153649
40
0.27862633158153649
40
0.27862633158153649
40
0.28791410701894798
40
0.28791410701894798
40
0.28791410701894798
40
0.29720263447264506
40
0.29720263447264506
40
0.29720263447264506
40
0.30649119923890189
40
0.30649119923890189
40
0.30649119923890189
40
0.31577740661577891
40
0.31577740661577891
40
0.31577740661577891
40
0.32506479670304489
40
0.32506479670304489
40
0.32506479670304489
40
0.33048319751730165
40
0.33048319751730165
40
0.33048319751730165
40
0.33435243031274176
40
0.33435243031274176
40
0.33435243031274176
40
0.34363939270144328
40
0.34363939270144328
40
0.34363939270144328
40
0.35292741434454189
40
0.35292741434454189
40
0.35292741434454189
40
0.36221638285776669
40
0.36221638285776669
40
0.36221638285776669
40
0.3715013132363566
40
0.3715013132363566
40
0.3715013132363566
40
0.38078963871026583
40
0.38078963871026583
40
0.38078963871026583
40
0.39007573770245457
40
0.39007573770245457
40
0.39007573770245457
40
0.39936404395571951
40
0.39936404395571951
40
0.39936404395571951
40
0.40865250157012656
40
0.40865250157012656
40
0.40865250157012656
40
0.41793984656148042
40
0.41793984656148042
40
0.41793984656148042
40
0.42722706282813955
40
0.42722706282813955
40
0.42722706282813955
40
0.43651456619588497
40
0.43651456619588497
40
0.43651456619588497
40
0.44580179415990806
40
0.44580179415990806
40
0.44580179415990806
40
0.45508921095405824
40
0.45508921095405824
40
0.45508921095405824
40
0.45767614037966092
40
0.45767614037966092
40
0.45767614037966092
40
0.4643763575127926
40
0.4643763575127926
40
0.4643763575127926
40
0.47366415142455887
40
0.47366415142455887
40
0.47366415142455887
40
0.48295107307896051
40
0.48295107307896051
40
0.48295107307896051
40
0.49223855784979192
40
0.49223855784979192
40
0.49223855784979192
40
0.5015271037353155
40
0.5015271037353155
40
0.5015271037353155
40
0.51081412438219265
40
0.51081412438219265
40
0.51081412438219265
40
0.52010182056176979
40
0.52010182056176979
40
0.52010182056176979
40
0.52938745159509748
40
0.52938745159509748
40
0.52938745159509748
40
0.53867618935417072
40
0.53867618935417072
40
0.53867618935417072
40
0.54796387393243595
40
0.54796387393243595
40
0.54796387393243595
40
0.5572522091503781
40
0.5572522091503781
40
0.5572522091503781
40
0.56653868919795336
40
0.56653868919795336
40
0.56653868919795336
40
0.57138919510741448
40
0.57138919510741448
40
0.57138919510741448
40
0.57582580047312737
40
0.57582580047312737
40
0.57582580047312737
40
0.58511356279043147
40
0.58511356279043147
40
0.58511356279043147
40
0.5944006610897451
40
0.5944006610897451
40
0.5944006610897451
40
0.5944006610897451
10
-0.74920505285263073
20
39.156596660614021
30
0
10
-0.74926333176130577
20
39.187556707978182
30
0
10
-0.74770432132210451
20
39.218541518463113
30
0
10
-0.74465319514274586
20
39.249370098113999
30
0
10
-0.74160229885013829
20
39.280196354989101
30
0
10
-0.73705951165548067
20
39.310866404571669
30
0
10
-0.73102138936519634
20
39.34124231338501
30
0
10
-0.72498371616128998
20
39.37161596298494
30
0
10
-0.71745093028509244
20
39.401695515567539
30
0
10
-0.70845931768417358
20
39.431331157684326
30
0
10
-0.6994685051433005
20
39.460964162866645
30
0
10
-0.68901912547453315
20
39.490153336576569
30
0
10
-0.67717023193836212
20
39.518764019012451
30
0
10
-0.66531638500384582
20
39.547386662067829
30
0
10
-0.65206185383126147
20
39.575430330074582
30
0
10
-0.63745640218257904
20
39.602749347686768
30
0
10
-0.62285624914127047
20
39.630058454427882
30
0
10
-0.60690615562762806
20
39.656643436460527
30
0
10
-0.58970496058464061
20
39.682400226593018
30
0
10
-0.57250520416031936
20
39.708154862561273
30
0
10
-0.55405455546917703
20
39.733081445154923
30
0
10
-0.53438611328601826
20
39.756984710693359
30
0
10
-0.51471179284193713
20
39.780895120144379
30
0
10
-0.49381895087892691
20
39.80378160077607
30
0
10
-0.47201298177242274
20
39.825816154479973
30
0
10
-0.45021222840596625
20
39.847845437768981
30
0
10
-0.42749878466305008
20
39.869023201623946
30
0
10
-0.40320247411727905
20
39.888179302215583
30
0
10
-0.38550489454513887
20
39.902132721763536
30
0
10
-0.36696748482968899
20
39.915013496572776
30
0
10
-0.34887183457612991
20
39.928476810455336
30
0
10
-0.34212203248926332
20
39.933498719194027
30
0
10
-0.3354336942227179
20
39.93860167900241
30
0
10
-0.32860513776540756
20
39.943506717681885
30
0
10
-0.30346889828087525
20
39.961562397194669
30
0
10
-0.27643268696979634
20
39.976936223755573
30
0
10
-0.24893801659345627
20
39.991252422332764
30
0
10
-0.22144630763126938
20
40.005567078931378
30
0
10
-0.19349623835852744
20
40.01882433536538
30
0
10
-0.16498416662216187
20
40.030956268310547
30
0
10
-0.13646775774320299
20
40.043090046716934
30
0
10
-0.10738917540847125
20
40.054098159248987
30
0
10
-0.077537000179290758
20
40.062265396118164
30
0
10
-0.06414484103060189
20
40.065929348078697
30
0
10
-0.050596991526151283
20
40.069021556237288
30
0
10
-0.037117768079042428
20
40.072393417358398
30
0
10
-0.020551097936954484
20
40.076537610915047
30
0
10
-0.0040880922223656743
20
40.081104239700842
30
0
10
0.012561380863189697
20
40.084834098815918
30
0
10
0.042751313449464534
20
40.091597327577674
30
0
10
0.073554338738083896
20
40.095609311572034
30
0
10
0.10442120023071765
20
40.098447799682603
30
0
10
0.1352951372292974
20
40.101286938450187
30
0
10
0.16623293970115871
20
40.10295204327933
30
0
10
0.19719367846846575
20
40.103006362915032
30
0
10
0.22815045694008035
20
40.103060675602514
30
0
10
0.25913016583979342
20
40.10150461515245
30
0
10
0.28995472937822342
20
40.098457336425781
30
0
10
0.32077913959391924
20
40.095410072856403
30
0
10
0.35144840599172777
20
40.090871605845152
30
0
10
0.38182217627763748
20
40.084834098815925
30
0
10
0.412196168075811
20
40.078796547755886
30
0
10
0.44227465945203448
20
40.071259934813142
30
0
10
0.47191102057695389
20
40.062265396118164
30
0
10
0.5015506838111462
20
40.053269855243826
30
0
10
0.53074811826346702
20
40.042816063712401
30
0
10
0.55935818701982498
20
40.030956268310547
30
0
10
0.58796602053712554
20
40.019097399487308
30
0
10
0.61598658013394758
20
40.005832746480792
30
0
10
0.64331963658332836
20
39.991252422332771
30
0
10
0.67065338959398502
20
39.97667172661675
30
0
10
0.69729960441580874
20
39.96077529270071
30
0
10
0.72298586368560791
20
39.943506717681885
30
0
10
0.74866972006219568
20
39.926239758100373
30
0
10
0.77339380048183082
20
39.907600914125638
30
0
10
0.79757556319236744
20
39.888179302215576
30
0
10
0.82175798612881723
20
39.868757160044282
30
0
10
0.84539806174235599
20
39.848552207193826
30
0
10
0.86639456450939167
20
39.82581615447998
30
0
10
0.86944166889031294
20
39.822516598996955
30
0
10
0.87243309675942504
20
39.819163735805162
30
0
10
0.87544493377208721
20
39.815828800201416
30
0
10
0.89318943887684443
20
39.796180731067523
30
0
10
0.91164236205241189
20
39.777154943182545
30
0
10
0.92876300215721119
20
39.756984710693359
30
0
10
0.94878587299226402
20
39.733395291292446
30
0
10
0.96698648859900826
20
39.708240536258792
30
0
10
0.98409421741962422
20
39.682400226593003
30
0
10
1.0012012928097072
20
39.65656090389912
30
0
10
1.017215564897795
20
39.630036078941657
30
0
10
1.0318379849195478
20
39.602749347686768
30
0
10
1.0464659520186621
20
39.575452265094086
30
0
10
1.0597010108411122
20
39.547392698029512
30
0
10
1.0715461522340772
20
39.518764019012444
30
0
10
1.0833864475156361
20
39.49014705262617
30
0
10
1.0938379624274754
20
39.46096143986491
30
0
10
1.1028304696083071
20
39.431331157684333
30
0
10
1.111824156992252
20
39.401696986738301
30
0
10
1.119358453651119
20
39.371618029645845
30
0
10
1.1254020780324934
20
39.34124231338501
30
0
10
1.1314459826350873
20
39.310865188710977
30
0
10
1.1359990767227137
20
39.280191277348628
30
0
10
1.1390319466590881
20
39.249370098114014
30
0
10
1.1420650621620785
20
39.218546423337926
30
0
10
1.1435777073236268
20
39.187575456840527
30
0
10
1.1435886472463606
20
39.156596660614014
30
0
10
1.1435995872130409
20
39.12561773994387
30
0
10
1.1421088098760062
20
39.094630989481693
30
0
10
1.1390243470668791
20
39.063823223114007
30
0
10
1.1359406670783547
20
39.033023275597031
30
0
10
1.1312641104532375
20
39.002402221335586
30
0
10
1.1254049092531206
20
38.971965312957764
30
0
10
1.1195449618131397
20
38.941524528072947
30
0
10
1.1125020685309057
20
38.911267935981122
30
0
10
1.1028314381837843
20
38.88187646865844
30
0
10
1.0971894493306336
20
38.864729051679404
30
0
10
1.0906530501845004
20
38.847876099663594
30
0
10
1.0845778882503512
20
38.830859661102295
30
0
10
1.0802396680634334
20
38.818708370638568
30
0
10
1.0761366448900809
20
38.806473714075445
30
0
10
1.071542352437973
20
38.794429302215576
30
0
10
1.0605150962708838
20
38.76552021200304
30
0
10
1.0466576392367746
20
38.73770712096519
30
0
10
1.0318379849195478
20
38.710474967956536
30
0
10
1.0170166402989325
20
38.683239708896984
30
0
10
1.0012328788896641
20
38.656585520395687
30
0
10
0.98408661782741536
20
38.630809783935547
30
0
10
0.9669386087844879
20
38.605031419760287
30
0
10
0.94842782227355604
20
38.580131686743428
30
0
10
0.9287600964307785
20
38.556194305419936
30
0
10
0.90910092061428238
20
38.532267330243087
30
0
10
0.88828581114515959
20
38.509301870227333
30
0
10
0.86639456450939178
20
38.48740816116333
30
0
10
0.84449531319658755
20
38.465506446521886
30
0
10
0.82151913758011386
20
38.444677266760927
30
0
10
0.79757556319236744
20
38.425028324127197
30
0
10
0.7736377282601179
20
38.405384091493332
30
0
10
0.74873295828658326
20
38.386919530231026
30
0
10
0.72298586368560802
20
38.369715213775635
30
0
10
0.69723264912405669
20
38.352506807936955
30
0
10
0.6706367094544472
20
38.336559246084654
30
0
10
0.64332254230976094
20
38.321955204009996
30
0
10
0.61600793005663157
20
38.307350923949592
30
0
10
0.58797506691993418
20
38.294090207454857
30
0
10
0.55935818701982498
20
38.28223705291748
30
0
10
0.53074473500856545
20
38.27038531821681
30
0
10
0.5015474061390589
20
38.259940808282508
30
0
10
0.47191102057695389
20
38.250956535339355
30
0
10
0.44227504578183219
20
38.24197238692026
30
0
10
0.41220002646487719
20
38.234448435014144
30
0
10
0.38182217627763748
20
38.228390216827393
30
0
10
0.35144338700235062
20
38.222331811359432
30
0
10
0.32076174813331804
20
38.217739230234358
30
0
10
0.28994996100664139
20
38.214778900146484
30
0
10
0.25913908754648307
20
38.211818657841725
30
0
10
0.22819807354717758
20
38.210490569772837
30
0
10
0.19718986004590988
20
38.21021556854248
30
0
10
0.16618101607827279
20
38.209940561720742
30
0
10
0.1351049698760132
20
38.210718684561186
30
0
10
0.10442786850035191
20
38.214778900146477
30
0
10
0.095883027884295938
20
38.215909837995468
30
0
10
0.087369139511319249
20
38.217295417904403
30
0
10
0.078838542103767395
20
38.218574523925781
30
0
10
0.056744064248960141
20
38.221887443093472
30
0
10
0.034537498179914611
20
38.224486109868806
30
0
10
0.012561380863189697
20
38.228404521942139
30
0
10
-0.01790175854900097
20
38.233836197225997
30
0
10
-0.047922083548879411
20
38.241803803959478
30
0
10
-0.077537000179290758
20
38.250956535339355
30
0
10
-0.10714913554330249
20
38.260108407146177
30
0
10
-0.1363559386816191
20
38.270445181009372
30
0
10
-0.16497369855642319
20
38.28225374221801
30
0
10
-0.1935931936812238
20
38.294063019443755
30
0
10
-0.22162357410657044
20
38.307344262505268
30
0
10
-0.24893518537282944
20
38.32195520401001
30
0
10
-0.27624991704818697
20
38.336567814845594
30
0
10
-0.30284571531329457
20
38.352510427983447
30
0
10
-0.32860130071640015
20
38.369715213775635
30
0
10
-0.35435265688764289
20
38.386917174431936
30
0
10
-0.37926407611088075
20
38.405380893262958
30
0
10
-0.40320247411727905
20
38.425028324127197
30
0
10
-0.42714261338939141
20
38.444677184134591
30
0
10
-0.45010958988547511
20
38.465509928386581
30
0
10
-0.47201298177242274
20
38.48740816116333
30
0
10
-0.49391150337650025
20
38.509301524804343
30
0
10
-0.51474691330111777
20
38.532259903193875
30
0
10
-0.5343889445066452
20
38.556194305419922
30
0
10
-0.5540375474146042
20
38.580136715461848
30
0
10
-0.57249197292418197
20
38.605055802552918
30
0
10
-0.58971159160137177
20
38.630809783935547
30
0
10
-0.60692925787422181
20
38.656560845266
30
0
10
-0.62291239730991377
20
38.683146611573861
30
0
10
-0.63745640218257893
20
38.710474967956536
30
0
10
-0.65200142592130816
20
38.737805238800547
30
0
10
-0.66510711345561413
20
38.765878203765851
30
0
10
-0.67716263234615315
20
38.794443607330308
30
0
10
-0.68921574337340152
20
38.82300330549235
30
0
10
-0.70021910521788244
20
38.852055245562482
30
0
10
-0.70845745503902446
20
38.881876468658461
30
0
10
-0.71276050251093404
20
38.897452663095244
30
0
10
-0.71630920702516709
20
38.913238731206391
30
0
10
-0.72024129331111908
20
38.928928375244141
30
0
10
-0.72383784910144866
20
38.94327919971964
30
0
10
-0.72775514921912043
20
38.957549354020273
30
0
10
-0.73101945221424103
20
38.971965312957764
30
0
10
-0.73785307113032683
20
39.002144242375763
30
0
10
-0.7418249389818381
20
39.032962158644281
30
0
10
-0.74464842677116383
20
39.063837528228753
30
0
10
-0.74747171269844548
20
39.094710690413848
30
0
10
-0.74914678276192159
20
39.125641297700078
30
0
10
-0.74920505285263073
20
39.156596660614021
30
0
0
SPLINE
5
107
100
AcDbEntity
8
0
100
AcDbSpline
70
2
71
3
72
212
73
208
74
0
42
0.000000001
43
0.0000000001
44
0.0000000001
40
0
40
0
40
0
40
0
40
0.0092885084554793253
40
0.0092885084554793253
40
0.0092885084554793253
40
0.018576549252872932
40
0.018576549252872932
40
0.018576549252872932
40
0.027862041605278706
40
0.027862041605278706
40
0.027862041605278706
40
0.037151279227889585
40
0.037151279227889585
40
0.037151279227889585
40
0.046439901116573083
40
0.046439901116573083
40
0.046439901116573083
40
0.055725422943114881
40
0.055725422943114881
40
0.055725422943114881
40
0.065012704731151671
40
0.065012704731151671
40
0.065012704731151671
40
0.074301618487397261
40
0.074301618487397261
40
0.074301618487397261
40
0.081449494939292655
40
0.081449494939292655
40
0.081449494939292655
40
0.0835880282155647
40
0.0835880282155647
40
0.0835880282155647
40
0.092875737770816619
40
0.092875737770816619
40
0.092875737770816619
40
0.1021635087139422
40
0.1021635087139422
40
0.1021635087139422
40
0.11145040502564404
40
0.11145040502564404
40
0.11145040502564404
40
0.12073831401257654
40
0.12073831401257654
40
0.12073831401257654
40
0.13002636142009583
40
0.13002636142009583
40
0.13002636142009583
40
0.13931273347394837
40
0.13931273347394837
40
0.13931273347394837
40
0.14860110372085267
40
0.14860110372085267
40
0.14860110372085267
40
0.15788844940722851
40
0.15788844940722851
40
0.15788844940722851
40
0.16717578666350683
40
0.16717578666350683
40
0.16717578666350683
40
0.17646291258904934
40
0.17646291258904934
40
0.17646291258904934
40
0.18575081631484922
40
0.18575081631484922
40
0.18575081631484922
40
0.19503848719896899
40
0.19503848719896899
40
0.19503848719896899
40
0.20432601848692747
40
0.20432601848692747
40
0.20432601848692747
40
0.21361318947409894
40
0.21361318947409894
40
0.21361318947409894
40
0.21723813008337514
40
0.21723813008337514
40
0.21723813008337514
40
0.22290016784208133
40
0.22290016784208133
40
0.22290016784208133
40
0.23218882145514588
40
0.23218882145514588
40
0.23218882145514588
40
0.24147678674396303
40
0.24147678674396303
40
0.24147678674396303
40
0.25076196759019198
40
0.25076196759019198
40
0.25076196759019198
40
0.26005034102861391
40
0.26005034102861391
40
0.26005034102861391
40
0.2693393879317183
40
0.2693393879317183
40
0.2693393879317183
40
0.27862513559949353
40
0.27862513559949353
40
0.27862513559949353
40
0.28791316108835524
40
0.28791316108835524
40
0.28791316108835524
40
0.29720168379098655
40
0.29720168379098655
40
0.29720168379098655
40
0.30649025331722224
40
0.30649025331722224
40
0.30649025331722224
40
0.31577479560678173
40
0.31577479560678173
40
0.31577479560678173
40
0.32506357331455954
40
0.32506357331455954
40
0.32506357331455954
40
0.33435277831192745
40
0.33435277831192745
40
0.33435277831192745
40
0.34363693570727649
40
0.34363693570727649
40
0.34363693570727649
40
0.35292639269394166
40
0.35292639269394166
40
0.35292639269394166
40
0.36221401622093768
40
0.36221401622093768
40
0.36221401622093768
40
0.36506403970734347
40
0.36506403970734347
40
0.36506403970734347
40
0.37150130805919079
40
0.37150130805919079
40
0.37150130805919079
40
0.38078956728994151
40
0.38078956728994151
40
0.38078956728994151
40
0.39007574408220569
40
0.39007574408220569
40
0.39007574408220569
40
0.3993623739122375
40
0.3993623739122375
40
0.3993623739122375
40
0.40865144331423769
40
0.40865144331423769
40
0.40865144331423769
40
0.41793878479795754
40
0.41793878479795754
40
0.41793878479795754
40
0.42722631638948627
40
0.42722631638948627
40
0.42722631638948627
40
0.43651391556897068
40
0.43651391556897068
40
0.43651391556897068
40
0.44458335382034508
40
0.44458335382034508
40
0.44458335382034508
40
0.44580114167261764
40
0.44580114167261764
40
0.44580114167261764
40
0.45508855846676782
40
0.45508855846676782
40
0.45508855846676782
40
0.46437580083482277
40
0.46437580083482277
40
0.46437580083482277
40
0.47366390617160103
40
0.47366390617160103
40
0.47366390617160103
40
0.48295074572723101
40
0.48295074572723101
40
0.48295074572723101
40
0.49223894404263674
40
0.49223894404263674
40
0.49223894404263674
40
0.50152581674092023
40
0.50152581674092023
40
0.50152581674092023
40
0.51081291519211836
40
0.51081291519211836
40
0.51081291519211836
40
0.5201006058517248
40
0.5201006058517248
40
0.5201006058517248
40
0.52810383448167897
40
0.52810383448167897
40
0.52810383448167897
40
0.52938847308508463
40
0.52938847308508463
40
0.52938847308508463
40
0.53867587026294061
40
0.53867587026294061
40
0.53867587026294061
40
0.54796503236112681
40
0.54796503236112681
40
0.54796503236112681
40
0.55725207438465629
40
0.55725207438465629
40
0.55725207438465629
40
0.56653855443223156
40
0.56653855443223156
40
0.56653855443223156
40
0.57582707870681327
40
0.57582707870681327
40
0.57582707870681327
40
0.58511339757207814
40
0.58511339757207814
40
0.58511339757207814
40
0.5944002672466685
40
0.5944002672466685
40
0.5944002672466685
40
0.5944002672466685
10
-0.74920222163200378
20
30.369837284088135
30
0
10
-0.74920354184258686
20
30.40081157558906
30
0
10
-0.74768502985626584
20
30.431785778680531
30
0
10
-0.74464939534664165
20
30.462610721588135
30
0
10
-0.74161391367522955
20
30.493434112520639
30
0
10
-0.73706146224492364
20
30.52410825829881
30
0
10
-0.73101751506328583
20
30.554485321044922
30
0
10
-0.72497522621490007
20
30.58485404895757
30
0
10
-0.71744225997364952
20
30.614925856842589
30
0
10
-0.70845551788806915
20
30.644557476043701
30
0
10
-0.69946515103213791
20
30.674201047052687
30
0
10
-0.6890198353447663
20
30.703404074209075
30
0
10
-0.67716546356677998
20
30.732021331787109
30
0
10
-0.66531187755175814
20
30.760636692480048
30
0
10
-0.65204942223752904
20
30.788666361247135
30
0
10
-0.63745252788066853
20
30.815989971160882
30
0
10
-0.62286050521307745
20
30.843304461865149
30
0
10
-0.6069349340878466
20
30.869913364929378
30
0
10
-0.58970205485820781
20
30.895626544952393
30
0
10
-0.57246590933891295
20
30.921344598606364
30
0
10
-0.55392196009848249
20
30.946166589639414
30
0
10
-0.53438134491443634
20
30.97022533416748
30
0
10
-0.51483729603865036
20
30.994288306316395
30
0
10
-0.4942962309186808
20
31.017587763700263
30
0
10
-0.47200910747051239
20
31.039059162139893
30
0
10
-0.45485902845631809
20
31.055581535726652
30
0
10
-0.43667503890662379
20
31.071021442953928
30
0
10
-0.41904341429471981
20
31.087057590484619
30
0
10
-0.41376830689729194
20
31.091855355995584
30
0
10
-0.40854264241327187
20
31.096706491761754
30
0
10
-0.40319867432117462
20
31.10141992568969
30
0
10
-0.37998967212203438
20
31.121890500459919
30
0
10
-0.35454924018402251
20
31.139763758192043
30
0
10
-0.32860130071640015
20
31.156749725341797
30
0
10
-0.3026531897437561
20
31.173735804761691
30
0
10
-0.2761975645326547
20
31.189834581869942
30
0
10
-0.24893421679735184
20
31.204493045806885
30
0
10
-0.22167343645747595
20
31.219150129353068
30
0
10
-0.19360508571304974
20
31.232367170984361
30
0
10
-0.16498036682605743
20
31.244196891784668
30
0
10
-0.13635252660090996
20
31.256027902538559
30
0
10
-0.10716819688997548
20
31.266471289888457
30
0
10
-0.077533181756734848
20
31.275494098663337
30
0
10
-0.047897724963677127
20
31.284517041907947
30
0
10
-0.017811569314804078
20
31.292119364234594
30
0
10
0.012564230710268021
20
31.298060417175293
30
0
10
0.042934551628083302
20
31.304000398484433
30
0
10
0.073594412440933454
20
31.308279709664426
30
0
10
0.10442500934004784
20
31.311671733856201
30
0
10
0.13526224020602762
20
31.315064487926023
30
0
10
0.16627028064237592
20
31.317569573122981
30
0
10
0.19719654694199562
20
31.316235065460205
30
0
10
0.22811940189700902
20
31.314900705001271
30
0
10
0.25912082599649172
20
31.314249547626709
30
0
10
0.28995852917432785
20
31.311686038970947
30
0
10
0.32079620436086764
20
31.309122532642082
30
0
10
0.3514552879935548
20
31.304227246213134
30
0
10
0.38182694464921951
20
31.298060417175293
30
0
10
0.41219791020641633
20
31.291893728461897
30
0
10
0.44228146186708128
20
31.284455555006147
30
0
10
0.4719148576259613
20
31.27549409866333
30
0
10
0.50155073519277982
20
31.266531891795204
30
0
10
0.5307363814532069
20
31.256046146878305
30
0
10
0.55936198681592952
20
31.244196891784675
30
0
10
0.58798687455342213
20
31.232347933744123
30
0
10
0.61605174947257735
20
31.219135533890601
30
0
10
0.64332440495491017
20
31.204493045806885
30
0
10
0.67059665052198425
20
31.189850777803663
30
0
10
0.69707670046659442
20
31.173778464559156
30
0
10
0.72298869490623463
20
31.15674972534179
30
0
10
0.74889968411513064
20
31.13972164673789
30
0
10
0.77424266189252899
20
31.12173721636692
30
0
10
0.79757936298847187
20
31.101419925689697
30
0
10
0.80668807387643493
20
31.093489741982722
30
0
10
0.8154911338259363
20
31.08520415318706
30
0
10
0.82444153726100911
20
31.077079772949219
30
0
10
0.83842177243378746
20
31.064389758785946
30
0
10
0.8527614875550561
20
31.05209305175693
30
0
10
0.86639747023582458
20
31.039059162139893
30
0
10
0.88876749410234657
20
31.017676880522743
30
0
10
0.90924357200290062
20
30.994310628992565
30
0
10
0.92876583337783825
20
30.97022533416748
30
0
10
0.9482866480796166
20
30.946141824153539
30
0
10
0.96685378761334084
20
30.921339377408383
30
0
10
0.98409801721572876
20
30.895626544952393
30
0
10
1.0013370771640737
20
30.869921420956068
30
0
10
1.0172540202535132
20
30.843306457016809
30
0
10
1.0318418592214582
20
30.815989971160889
30
0
10
1.046434714033637
20
30.788664092876221
30
0
10
1.059697550575849
20
30.760636210173029
30
0
10
1.0715489834547043
20
30.732021331787109
30
0
10
1.0834012756359481
20
30.703404378645036
30
0
10
1.0938419594753763
20
30.674200344695475
30
0
10
1.1028333753347397
20
30.644557476043701
30
0
10
1.1118215976698189
20
30.614925135791715
30
0
10
1.1193615813289246
20
30.584854272508217
30
0
10
1.1254058778285978
20
30.554485321044922
30
0
10
1.1314516570118973
20
30.524108919988926
30
0
10
1.1360010151528859
20
30.493434284491414
30
0
10
1.1390367150306699
20
30.462610721588135
30
0
10
1.1420725774178899
20
30.431785508614027
30
0
10
1.143594619476916
20
30.400811352288741
30
0
10
1.1435924470424654
20
30.369837284088135
30
0
10
1.1435902745970634
20
30.338863059746721
30
0
10
1.1420638722909626
20
30.307888923530868
30
0
10
1.1390271782875063
20
30.277063846588135
30
0
10
1.1359918009007182
20
30.246252134446081
30
0
10
1.1314474411642732
20
30.215589352350172
30
0
10
1.1254087090492246
20
30.185222625732422
30
0
10
1.1193672221881461
20
30.154842046435348
30
0
10
1.111829999233281
20
30.124757792786944
30
0
10
1.1028352379798889
20
30.095119476318359
30
0
10
1.0938400629618479
20
30.065479796468672
30
0
10
1.0833872155468469
20
30.036286094826519
30
0
10
1.0715461522340772
20
30.007655620574944
30
0
10
1.0597115231613854
20
29.979040703654665
30
0
10
1.0464901864486451
20
29.950988402194145
30
0
10
1.0318418592214587
20
29.923732280731201
30
0
10
1.0171851704225683
20
29.896460600903776
30
0
10
1.0010998615321738
20
29.869986010285736
30
0
10
0.98409041762352001
20
29.844050407409668
30
0
10
0.96708433086797507
20
29.818119923442268
30
0
10
0.94915447385113749
20
29.792728214477879
30
0
10
0.92876397073268901
20
29.769451618194587
30
0
10
0.92250688972393657
20
29.762308903387282
30
0
10
0.91601810295609198
20
29.755365357322283
30
0
10
0.90962640941143047
20
29.748332500457764
30
0
10
0.89518966993682181
20
29.732447583321814
30
0
10
0.88124826118824673
20
29.716107038267417
30
0
10
0.86639747023582447
20
29.700634479522705
30
0
10
0.84496943762814236
20
29.678309305438162
30
0
10
0.82164813796153524
20
29.657791215196649
30
0
10
0.79757936298847198
20
29.638254642486572
30
0
10
0.77351598426265833
20
29.618722449898733
30
0
10
0.74870546536247629
20
29.600171334776924
30
0
10
0.72298869490623485
20
29.58294153213501
30
0
10
0.6972706698251312
20
29.565710888915593
30
0
10
0.67064630476057652
20
29.549801687102981
30
0
10
0.64332634210586548
20
29.535212516784668
30
0
10
0.61599920257253538
20
29.520619513931663
30
0
10
0.58797609993792033
20
29.507347236201291
30
0
10
0.5593619868159293
20
29.495480060577393
30
0
10
0.53075319638526508
20
29.483615092441546
30
0
10
0.50155361532193776
20
29.473154703717004
30
0
10
0.4719148576259613
20
29.464199542999275
30
0
10
0.44227549323760762
20
29.455244198973325
30
0
10
0.4121969342369145
20
29.447794144577539
30
0
10
0.38182694464921951
20
29.441616535186768
30
0
10
0.35145673405064665
20
29.435438880839815
30
0
10
0.32079508862341299
20
29.430533690017818
30
0
10
0.28995376080274576
20
29.428005218505859
30
0
10
0.26315757961213088
20
29.425808381159424
30
0
10
0.23622575922758077
20
29.425405688944632
30
0
10
0.20935684442520142
20
29.4240403175354
30
0
10
0.20530196017789823
20
29.423834264441709
30
0
10
0.20124850859956867
20
29.423606286415989
30
0
10
0.19719367846846581
20
29.423441886901855
30
0
10
0.1662696571894276
20
29.422188099712514
30
0
10
0.13526545518276586
20
29.424632227770804
30
0
10
0.10443168692290783
20
29.428005218505859
30
0
10
0.073598497749131339
20
29.431378145893099
30
0
10
0.042935735920418557
20
29.435679901067644
30
0
10
0.012564230710268019
20
29.441630840301514
30
0
10
-0.017810096614137506
20
29.447582332495479
30
0
10
-0.047893113190451295
20
29.4551833152467
30
0
10
-0.077533181756734848
20
29.464199542999268
30
0
10
-0.10716921098036834
20
29.473214542022106
30
0
10
-0.13636241291547851
20
29.483644400333972
30
0
10
-0.16496986150741577
20
29.495494365692146
30
0
10
-0.19358149566218105
20
29.507346064821665
30
0
10
-0.22160720505780346
20
29.520618286580323
30
0
10
-0.24893134832382202
20
29.535212516784668
30
0
10
-0.27625159187205528
20
29.549804664091894
30
0
10
-0.30287046953225505
20
29.565718442516076
30
0
10
-0.32859653234481812
20
29.582941532135003
30
0
10
-0.35432322052760545
20
29.600165040426909
30
0
10
-0.37915705045567816
20
29.618697923569943
30
0
10
-0.40319867432117462
20
29.638254642486572
30
0
10
-0.42724183124372622
20
29.65781260847228
30
0
10
-0.45049268106761348
20
29.678394540809172
30
0
10
-0.47200910747051239
20
29.700634479522705
30
0
10
-0.49054987138192369
20
29.719798695985553
30
0
10
-0.50780277102929061
20
29.740194034639316
30
0
10
-0.52575610578060161
20
29.759933948516846
30
0
10
-0.52863788611548745
20
29.763102501680514
30
0
10
-0.53153771321662346
20
29.766254167772608
30
0
10
-0.53438417613506328
20
29.76945161819458
30
0
10
-0.55496290668660075
20
29.792567840878981
30
0
10
-0.57275246096058829
20
29.818077065016855
30
0
10
-0.58970682322978973
20
29.844050407409668
30
0
10
-0.6066644074026184
20
29.870028685618095
30
0
10
-0.62278648211090759
20
29.896471258494628
30
0
10
-0.63745252788066853
20
29.923732280731201
30
0
10
-0.65211522640429243
20
29.950987081157692
30
0
10
-0.66532256053539496
20
29.979059957395833
30
0
10
-0.67715875804424286
20
30.007686614990234
30
0
10
-0.68899423932306059
20
30.036311540333056
30
0
10
-0.69945874991458901
20
30.065490180013505
30
0
10
-0.70845358073711395
20
30.095119476318359
30
0
10
-0.71745039158608503
20
30.124755294901551
30
0
10
-0.72497687555547152
20
30.154841968536523
30
0
10
-0.73101662099361409
20
30.185222625732422
30
0
10
-0.73705493239224029
20
30.215596069534413
30
0
10
-0.74160721117967032
20
30.246263357310646
30
0
10
-0.74464365839958202
20
30.277080535888672
30
0
10
-0.74768028572352307
20
30.307899542358854
30
0
10
-0.74920090165434683
20
30.338868457412627
30
0
10
-0.74920222163200378
20
30.369837284088135
30
0
0
SPLINE
5
108
100
AcDbEntity
8
0
100
AcDbSpline
70
0
71
3
72
62
73
58
74
0
42
0.000000001
43
0.0000000001
44
0.0000000001
40
0
40
0
40
0
40
0
40
0.006784726753530812
40
0.016561384143798499
40
0.026338142652207207
40
0.03611422707697489
40
0.045891006719069448
40
0.055665815234547
40
0.065444620269839757
40
0.067353418183802263
40
0.075217689969138524
40
0.084996140247067767
40
0.094050356900570939
40
0.094769858485434233
40
0.10454819960703786
40
0.11432312030500159
40
0.12410189441550697
40
0.13387488093734715
40
0.14365574895221161
40
0.15342966447543888
40
0.16320704596051278
40
0.17298139127425788
40
0.18275831370090792
40
0.19253325533367974
40
0.20231151219517962
40
0.21208812270523178
40
0.22186218520902179
40
0.23060123549495673
40
0.23164152037877511
40
0.24141526066660346
40
0.25119164958237922
40
0.26096835860817313
40
0.27074558526627068
40
0.28052169343013472
40
0.28620353093774192
40
0.29029848310972256
40
0.30007309086889439
40
0.30985028704488077
40
0.31962552002551214
40
0.32940218179782155
40
0.33698921159132461
40
0.33917894030633744
40
0.3489556591595222
40
0.35873042846527819
40
0.3685071831799614
40
0.37828440983805894
40
0.38806111886385286
40
0.391955005787127
40
0.39783644774175919
40
0.4076121096110692
40
0.41738959887625071
40
0.42716451957421442
40
0.4369411300842666
40
0.44671994907927859
40
0.45649448520556396
40
0.46627140763221397
40
0.48283231083203648
40
0.48283231083203648
40
0.48283231083203648
40
0.48283231083203648
10
3.2180917263031006
20
-29.490225315093994
30
0
10
3.2173275795037841
20
-29.467629691177841
30
0
10
3.2124402742600955
20
-29.412536125136871
30
0
10
3.2183403479379442
20
-29.324638782346955
30
0
10
3.2322129188585746
20
-29.227786787864268
30
0
10
3.2562095444451162
20
-29.132831570657348
30
0
10
3.2889947321056452
20
-29.040527110873708
30
0
10
3.331413995018476
20
-28.95240077752446
30
0
10
3.3667266572040115
20
-28.889830227033695
30
0
10
3.4060613026444941
20
-28.837845093474137
30
0
10
3.4432893658093184
20
-28.78430858465088
30
0
10
3.5034626468251422
20
-28.718224264197673
30
0
10
3.5531151523481701
20
-28.675955571445108
30
0
10
3.6012507737980797
20
-28.632008270117502
30
0
10
3.657061381853453
20
-28.593338460706143
30
0
10
3.7404767957470684
20
-28.542312889790065
30
0
10
3.8291647205355122
20
-28.500675756860858
30
0
10
3.9213141145244146
20
-28.467589803072396
30
0
10
4.0163153974236163
20
-28.443838436287294
30
0
10
4.1131789710080184
20
-28.429444249953338
30
0
10
4.2109725837245966
20
-28.424642282456052
30
0
10
4.3087721213125434
20
-28.42945202572956
30
0
10
4.4056276020722098
20
-28.443815792727651
30
0
10
4.5005987867218424
20
-28.467643965868518
30
0
10
4.5928561930526302
20
-28.500542032665948
30
0
10
4.6811897363221533
20
-28.542655869037791
30
0
10
4.762858110326869
20
-28.590353434800967
30
0
10
4.8138959306640885
20
-28.631042664953515
30
0
10
4.866489109224938
20
-28.669551190414158
30
0
10
4.916153546147318
20
-28.71739749535973
30
0
10
4.9823388914047859
20
-28.789337778857671
30
0
10
5.0406947365842214
20
-28.868094355947328
30
0
10
5.0906287224097744
20
-28.952203566081671
30
0
10
5.1280257394750564
20
-29.027884535925406
30
0
10
5.1483628954544089
20
-29.089861890955326
30
0
10
5.1715685373606739
20
-29.150801969736495
30
0
10
5.1891269938769033
20
-29.22794140750127
30
0
10
5.2041666935642041
20
-29.324617936340836
30
0
10
5.2084571419427821
20
-29.422417610475854
30
0
10
5.2052690050246584
20
-29.513094239981918
30
0
10
5.193608215495332
20
-29.577304247371565
30
0
10
5.1847887942051152
20
-29.64189887439489
30
0
10
5.1653001873669302
20
-29.7120256123102
30
0
10
5.1329614294564134
20
-29.80430133373202
30
0
10
5.0910068740015593
20
-29.892881131674997
30
0
10
5.0403183264749627
20
-29.976524289026429
30
0
10
4.9948694500667621
20
-30.040484355410626
30
0
10
4.9501632527788448
20
-30.08795102752898
30
0
10
4.9076805023665324
20
-30.13744377928662
30
0
10
4.8437383830510399
20
-30.193560330532691
30
0
10
4.765371886645335
20
-30.252123737994282
30
0
10
4.6813239532112041
20
-30.302429726823817
30
0
10
4.5928169447253078
20
-30.344309869557534
30
0
10
4.5006150294979221
20
-30.377294875784663
30
0
10
4.4056204029166741
20
-30.401100853543653
30
0
10
4.2863674419757922
20
-30.418675833478943
30
0
10
4.1982138970024527
20
-30.420514241678713
30
0
10
4.1431969404220581
20
-30.415327548980713
30
0
0
SPLINE
5
109
100
AcDbEntity
8
0
100
AcDbSpline
70
0
71
3
72
66
73
62
74
0
42
0.000000001
43
0.0000000001
44
0.0000000001
40
0
40
0
40
0
40
0
40
0.0099743434566391693
40
0.015190093390626179
40
0.016564329467907268
40
0.02633789528459364
40
0.036115756832562393
40
0.045891460629324261
40
0.055666462330935196
40
0.065444925993363837
40
0.068042979616868907
40
0.075221193541761419
40
0.08499678259041589
40
0.094772455152800458
40
0.104548467795192
40
0.11432415650012889
40
0.12410224460343916
40
0.13387834074285948
40
0.13452962372074848
40
0.14365391772904532
40
0.15343049935834283
40
0.16320642766464075
40
0.1729825345686154
40
0.18275852660138403
40
0.18753834116364546
40
0.19253520209629318
40
0.20231085036480037
40
0.21208798223854738
40
0.22186384989346442
40
0.23124852013194369
40
0.23164077211770459
40
0.24141582633645109
40
0.25119215591780181
40
0.26096814828373982
40
0.27074621365025159
40
0.28052261046505578
40
0.29029715319775767
40
0.30007473598649909
40
0.30948833118740421
40
0.30985012101282905
40
0.31688144654773243
40
0.31962584925745557
40
0.32940321593309341
40
0.33917865782253498
40
0.34895485294632345
40
0.35873055172259105
40
0.36850856662592651
40
0.37828447672747129
40
0.38806029157090388
40
0.39783749095915916
40
0.39981783448248315
40
0.40761270530661103
40
0.41738915038146795
40
0.42716526840317165
40
0.43694167290163982
40
0.44554720104408052
40
0.44671825099294127
40
0.45649498436175906
40
0.46627018044045465
40
0.46880973091333716
40
0.48283218813760082
40
0.48283218813760082
40
0.48283218813760082
40
0.48283218813760082
10
4.1431969404220581
20
-30.415327548980713
30
0
10
4.1489126170780395
20
-30.448530114606434
30
0
10
4.1456375670637957
20
-30.49911465457096
30
0
10
4.1429459879900401
20
-30.554248989224646
30
0
10
4.14058069590385
20
-30.608753692571145
30
0
10
4.1283837861309181
20
-30.677746352260151
30
0
10
4.1052850352676584
20
-30.772743291409451
30
0
10
4.0722386506972788
20
-30.865028255427692
30
0
10
4.0298968164449276
20
-30.953165433020544
30
0
10
3.9933554698413101
20
-31.01768826418089
30
0
10
3.9538044776650381
20
-31.069524958369726
30
0
10
3.9165945711493255
20
-31.123120255533614
30
0
10
3.855641130384166
20
-31.188496590067032
30
0
10
3.7833804906272324
20
-31.254468614918054
30
0
10
3.7046550189486811
20
-31.312702253878058
30
0
10
3.6207254796555013
20
-31.363251340911834
30
0
10
3.5319975611871723
20
-31.404323927876845
30
0
10
3.4690437211427678
20
-31.429177398929596
30
0
10
3.4057518960527333
20
-31.444737921693999
30
0
10
3.3430375223246465
20
-31.462852237472351
30
0
10
3.2480714804449615
20
-31.475850191432233
30
0
10
3.1503119692276744
20
-31.481082368117942
30
0
10
3.0526136608032051
20
-31.47570047882563
30
0
10
2.9718886689402524
20
-31.46529388973687
30
0
10
2.908998635273349
20
-31.44801689175306
30
0
10
2.8453786437647399
20
-31.433677703778741
30
0
10
2.7685392613057451
20
-31.40462797436637
30
0
10
2.6800756419965017
20
-31.363007064878655
30
0
10
2.5966178539801876
20
-31.314026242102813
30
0
10
2.5456031030688591
20
-31.273314857701887
30
0
10
2.4931651460816622
20
-31.234608770452866
30
0
10
2.4451908384267549
20
-31.188111623818987
30
0
10
2.3788927361833503
20
-31.116269191556725
30
0
10
2.3206992575632697
20
-31.037425584826963
30
0
10
2.2703501980261458
20
-30.953471533698433
30
0
10
2.2284288767369977
20
-30.864946002735554
30
0
10
2.1956872427326122
20
-30.772727342444707
30
0
10
2.1711974385997159
20
-30.679044119263597
30
0
10
2.1639894772884412
20
-30.614166895406917
30
0
10
2.155564868929805
20
-30.558772910261766
30
0
10
2.1567279823740595
20
-30.524759176843975
30
0
10
2.1522030111567774
20
-30.459734511715663
30
0
10
2.1578789353548524
20
-30.385279491866353
30
0
10
2.1715460304885457
20
-30.28845605835485
30
0
10
2.1955178188644635
20
-30.193465271983605
30
0
10
2.2284572655369037
20
-30.101262254364862
30
0
10
2.2703620795984603
20
-30.012772758313794
30
0
10
2.3205858845570546
20
-29.928650302451594
30
0
10
2.3793904648222486
20
-29.850514898766662
30
0
10
2.4263493604868085
20
-29.795816279323994
30
0
10
2.4751196367490498
20
-29.752558965205704
30
0
10
2.522005989525189
20
-29.707185165812483
30
0
10
2.5961267138400759
20
-29.653592890231572
30
0
10
2.679994040107065
20
-29.603311863070655
30
0
10
2.7646745847914489
20
-29.562123280726126
30
0
10
2.8268347885692906
20
-29.542256056303518
30
0
10
2.8880702266351719
20
-29.519890302124722
30
0
10
2.9559016714119455
20
-29.505632606748375
30
0
10
3.0285330124593579
20
-29.492309689822292
30
0
10
3.1163096059182465
20
-29.489180133276566
30
0
10
3.1713763095583456
20
-29.48336686551896
30
0
10
3.2180917263031006
20
-29.490225315093994
30
0
0
SPLINE
5
110
100
AcDbEntity
8
0
100
AcDbSpline
70
0
71
3
72
64
73
60
74
0
42
0.000000001
43
0.0000000001
44
0.0000000001
40
0
40
0
40
0
40
0
40
0.016561616495819678
40
0.026338538922469713
40
0.036113480555241523
40
0.045892299550253535
40
0.055668196591001737
40
0.056616271979699317
40
0.065442381687689316
40
0.075221716812474207
40
0.084996417833586663
40
0.09477280674936242
40
0.10454951577515637
40
0.11432531095342818
40
0.11748351491083636
40
0.12410292776146853
40
0.12808071208796926
40
0.13387904397901554
40
0.1436543456294529
40
0.15343012683787277
40
0.16320678861018217
40
0.1729832122505103
40
0.1827585557280007
40
0.1873287547607172
40
0.19253527458122591
40
0.20231228875009097
40
0.21208710384103216
40
0.22186412599740163
40
0.23164217533810039
40
0.2414175042158026
40
0.25119220523691504
40
0.26097054635851868
40
0.26359259497175269
40
0.2707447314503596
40
0.2805219536908316
40
0.29030021055233152
40
0.30007515218510333
40
0.30985172494913021
40
0.31962610540922765
40
0.32940352202973994
40
0.33259131838648942
40
0.33489794089608277
40
0.33917733259325356
40
0.34895779534734456
40
0.35873086223670686
40
0.36850737080831769
40
0.3782841888133418
40
0.38806252993494544
40
0.39783720887624158
40
0.40761459933958455
40
0.4173890098511378
40
0.4271676104177114
40
0.43394599831448566
40
0.43694263447778187
40
0.44652768085601513
40
0.4467180672189866
40
0.45649553921977132
40
0.46627229772818002
40
0.48283344373995291
40
0.48283344373995291
40
0.48283344373995291
40
0.48283344373995291
10
4.1431903839111328
20
-36.914868354797363
30
0
10
4.1982044223755306
20
-36.909669630717424
30
0
10
4.2863773929335691
20
-36.911484473511706
30
0
10
4.4055994981317061
20
-36.92911321968721
30
0
10
4.5007007990569008
20
-36.952754985692714
30
0
10
4.5924846735947353
20
-36.986449005201749
30
0
10
4.65544613605788
20
-37.013856107673917
30
0
10
4.7111628660299436
20
-37.047667844568132
30
0
10
4.7682825356455085
20
-37.079254670906046
30
0
10
4.8438682420898891
20
-37.136610232944818
30
0
10
4.9165262828231375
20
-37.202145780191941
30
0
10
4.9823767001135568
20
-37.274710727025607
30
0
10
5.0401657125391219
20
-37.353594163558277
30
0
10
5.0808386486309223
20
-37.417834230369834
30
0
10
5.1075533823774695
20
-37.477299131554311
30
0
10
5.1295058211300928
20
-37.517761378029256
30
0
10
5.1463129475931169
20
-37.569867351943408
30
0
10
5.1701472056750033
20
-37.630570181487009
30
0
10
5.1892017249780329
20
-37.713217996585378
30
0
10
5.2040533585738737
20
-37.809888714643591
30
0
10
5.2088410109790262
20
-37.907771599416193
30
0
10
5.2035901308854369
20
-38.005436480973934
30
0
10
5.1932795632296163
20
-38.085482050337376
30
0
10
5.1760510740855601
20
-38.148378179931463
30
0
10
5.161770405663586
20
-38.212022373741462
30
0
10
5.13249028965964
20
-38.289497536588811
30
0
10
5.0910489709671936
20
-38.378111922753618
30
0
10
5.040605381732628
20
-38.462092651454221
30
0
10
4.9822589215448545
20
-38.540700659576224
30
0
10
4.9165906390421465
20
-38.613402884552805
30
0
10
4.8437188849848614
20
-38.678628610218446
30
0
10
4.7851829119025711
20
-38.724263938000327
30
0
10
4.7288177114512102
20
-38.75702600682822
30
0
10
4.6739264397170253
20
-38.792291203142838
30
0
10
4.5926681190269321
20
-38.829352959265179
30
0
10
4.5006482653475839
20
-38.862637903598156
30
0
10
4.4056207512683256
20
-38.886336094874437
30
0
10
4.3087567737931929
20
-38.900832577190933
30
0
10
4.21103303026812
20
-38.905100557293494
30
0
10
4.1349790128737069
20
-38.902987501660569
30
0
10
4.0847018328752345
20
-38.894843743295723
30
0
10
4.0524824664252206
20
-38.890050328739413
30
0
10
3.99834944758351
20
-38.882981457735852
30
0
10
3.9213798897555519
20
-38.862216784060465
30
0
10
3.8291204813695252
20
-38.829666723433775
30
0
10
3.7406245488126726
20
-38.787686119116344
30
0
10
3.6566257587383388
20
-38.737373224698914
30
0
10
3.5779420807891138
20
-38.679065848069136
30
0
10
3.5054390897754288
20
-38.613263940010306
30
0
10
3.4395414946129299
20
-38.540799020740401
30
0
10
3.3816502348400812
20
-38.461921929142576
30
0
10
3.3351500189553693
20
-38.387126625581246
30
0
10
3.3091822947877496
20
-38.327278095052691
30
0
10
3.2803816218235093
20
-38.269458698244698
30
0
10
3.2688886248542643
20
-38.228188036911639
30
0
10
3.2468825220992299
20
-38.166839202780935
30
0
10
3.2329729840200501
20
-38.102163764185313
30
0
10
3.2143873821377893
20
-37.98325123075449
30
0
10
3.2130158974650351
20
-37.89493067521105
30
0
10
3.2180917263031006
20
-37.839956283569336
30
0
0
SPLINE
5
111
100
AcDbEntity
8
0
100
AcDbSpline
70
0
71
3
72
62
73
58
74
0
42
0.000000001
43
0.0000000001
44
0.0000000001
40
0
40
0
40
0
40
0
40
0.016561151854701646
40
0.026337383352616157
40
0.03611374044472699
40
0.045889786726638515
40
0.055666864720319918
40
0.057583327201398318
40
0.065442099456214931
40
0.075219778194818648
40
0.084995036683520167
40
0.094772396174781781
40
0.10454822366752696
40
0.11432378134961525
40
0.12410022275827905
40
0.13324070970499394
40
0.13387607718166272
40
0.14365229764556006
40
0.15342909769417867
40
0.16320649285940036
40
0.17298076892941661
40
0.18275784636318759
40
0.19253404148697606
40
0.20230954590842051
40
0.21208627401361191
40
0.21406605983921392
40
0.22186473537460949
40
0.23163930736890215
40
0.24141646673190462
40
0.25119076464679735
40
0.25951235388691024
40
0.26096825191944684
40
0.27074417070314566
40
0.28052054826202133
40
0.29029621879191175
40
0.30007353176041013
40
0.30984884575813765
40
0.31962605401462685
40
0.3294021013860417
40
0.33917821133805354
40
0.34895459925398692
40
0.35036175320637547
40
0.35873015753545973
40
0.36850726246916565
40
0.37828325794621714
40
0.38806012292253317
40
0.39783490671774069
40
0.40761181592743351
40
0.41158288502347706
40
0.41738709816675512
40
0.42716532209470404
40
0.43694171890950823
40
0.44671703757808534
40
0.45649346080055342
40
0.46627051199303532
40
0.46639344651508613
40
0.48283315550994155
40
0.48283315550994155
40
0.48283315550994155
40
0.48283315550994155
10
3.2180917263031006
20
-37.839956283569336
30
0
10
3.1630789542462283
20
-37.845147258360264
30
0
10
3.0749091485508311
20
-37.84333109053005
30
0
10
2.9556896657418608
20
-37.825675007301697
30
0
10
2.8605909855998926
20
-37.802080378356173
30
0
10
2.7687686640553375
20
-37.768434470667756
30
0
10
2.7029923523124677
20
-37.739458308658882
30
0
10
2.6474169846353703
20
-37.705386411920038
30
0
10
2.5903504188343662
20
-37.67372789558685
30
0
10
2.517467883707083
20
-37.618149089484795
30
0
10
2.4447206918386706
20
-37.552698256766689
30
0
10
2.3790356569494966
20
-37.480051543750889
30
0
10
2.3206209099616739
20
-37.401448306378171
30
0
10
2.2705490203960093
20
-37.317366959178841
30
0
10
2.2286207094386588
20
-37.231101144159844
30
0
10
2.2088134331765588
20
-37.168905144032991
30
0
10
2.1866259325753177
20
-37.107620048632121
30
0
10
2.1723349378833419
20
-37.041524732637015
30
0
10
2.1571512955564369
20
-36.944936395790407
30
0
10
2.1525725240457674
20
-36.847063149853369
30
0
10
2.1572962466182686
20
-36.749273784453059
30
0
10
2.1717332087852932
20
-36.652439702418008
30
0
10
2.195346530116967
20
-36.55735767072531
30
0
10
2.2289513717973799
20
-36.465520873834919
30
0
10
2.2580266569013272
20
-36.399561233213348
30
0
10
2.2921241278825284
20
-36.343989072151523
30
0
10
2.3238181184246671
20
-36.286951373162978
30
0
10
2.3792146163983641
20
-36.214157189883949
30
0
10
2.4448412620450419
20
-36.141680344949506
30
0
10
2.513226566425824
20
-36.078333405595686
30
0
10
2.5669127555667552
20
-36.041243974632394
30
0
10
2.618951896197292
20
-36.001981487203622
30
0
10
2.6803203675766536
20
-35.96759600612814
30
0
10
2.7683737143253078
20
-35.92507926451259
30
0
10
2.8607085737477957
20
-35.89230292343035
30
0
10
2.9556479172678669
20
-35.868430381874269
30
0
10
3.0525277086698539
20
-35.854076131107874
30
0
10
3.1503076644913843
20
-35.849296092634276
30
0
10
3.2481771345880257
20
-35.853934264630134
30
0
10
3.3447918303330537
20
-35.869001112018928
30
0
10
3.4133251884044338
20
-35.884119459488403
30
0
10
3.474533726839983
20
-35.906531807313854
30
0
10
3.5367025548183095
20
-35.926393845791743
30
0
10
3.620600535593292
20
-35.967339555058061
30
0
10
3.7046869313460129
20
-36.017369526602593
30
0
10
3.7833909782865178
20
-36.075734472488534
30
0
10
3.8555464017265746
20
-36.141760603584224
30
0
10
3.9095787673107769
20
-36.198995875456255
30
0
10
3.947402884205085
20
-36.252111444835521
30
0
10
3.9876573702462679
20
-36.303442582189469
30
0
10
4.0300363940870811
20
-36.37692756422198
30
0
10
4.0721934488962361
20
-36.46518792936957
30
0
10
4.1053293310138974
20
-36.557437643488285
30
0
10
4.1282358702355619
20
-36.652461648976939
30
0
10
4.1401686102623696
20
-36.717298797208613
30
0
10
4.1444282136931241
20
-36.804995153870216
30
0
10
4.150330796052085
20
-36.860134278784138
30
0
10
4.1431903839111328
20
-36.914868354797363
30
0
0
ENDSEC
0
SECTION
2
OBJECTS
0
DICTIONARY
5
C
100
AcDbDictionary
3
ACAD_GROUP
350
D
3
ACAD_MLINESTYLE
350
17
0
DICTIONARY
5
D
100
AcDbDictionary
0
DICTIONARY
5
1A
330
C
100
AcDbDictionary
0
DICTIONARY
5
17
100
AcDbDictionary
0
ENDSEC
0
EOF
