0
SECTION
2
HEADER
9
$INSUNITS
70
4
9
$ACADVER
1
AC1014
9
$HANDSEED
5
FFFF
0
ENDSEC
0
SECTION
2
TABLES
0
TABLE
2
VPORT
5
8
100
AcDbSymbolTable
0
ENDTAB
0
TABLE
2
LTYPE
5
5
100
AcDbSymbolTable
0
LTYPE
5
14
100
AcDbSymbolTableRecord
100
AcDbLinetypeTableRecord
2
BYBLOCK
70
0
0
LTYPE
5
15
100
AcDbSymbolTableRecord
100
AcDbLinetypeTableRecord
2
BYLAYER
70
0
0
LTYPE
5
16
100
AcDbSymbolTableRecord
100
AcDbLinetypeTableRecord
2
DASHED
70
0
3
Dashed __ __ __ __ __ __ __ __ __ __ __ __ __ _
72
65
73
2
40
0.75
49
0.5
74
0
49
-0.25
74
0
0
ENDTAB
0
TABLE
2
LAYER
5
2
100
AcDbSymbolTable
70
2
0
LAYER
5
50
100
AcDbSymbolTableRecord
100
AcDbLayerTableRecord
2
0
70
0
62
7
6
CONTINUOUS
0
ENDTAB
0
TABLE
2
STYLE
5
3
100
AcDbSymbolTable
70
1
0
STYLE
5
11
100
AcDbSymbolTableRecord
100
AcDbTextStyleTableRecord
2
STANDARD
70
0
0
ENDTAB
0
TABLE
2
VIEW
5
6
100
AcDbSymbolTable
70
0
0
ENDTAB
0
TABLE
2
UCS
5
7
100
AcDbSymbolTable
70
0
0
ENDTAB
0
TABLE
2
APPID
5
9
100
AcDbSymbolTable
70
2
0
APPID
5
12
100
AcDbSymbolTableRecord
100
AcDbRegAppTableRecord
2
ACAD
70
0
0
ENDTAB
0
TABLE
2
DIMSTYLE
5
A
100
AcDbSymbolTable
70
1
0
ENDTAB
0
TABLE
2
BLOCK_RECORD
5
1
100
AcDbSymbolTable
70
1
0
BLOCK_RECORD
5
1F
100
AcDbSymbolTableRecord
100
AcDbBlockTableRecord
2
*MODEL_SPACE
0
BLOCK_RECORD
5
1B
100
AcDbSymbolTableRecord
100
AcDbBlockTableRecord
2
*PAPER_SPACE
0
ENDTAB
0
ENDSEC
0
SECTION
2
BLOCKS
0
BLOCK
5
20
100
AcDbEntity
100
AcDbBlockBegin
2
*MODEL_SPACE
0
ENDBLK
5
21
100
AcDbEntity
100
AcDbBlockEnd
0
BLOCK
5
1C
100
AcDbEntity
100
AcDbBlockBegin
2
*PAPER_SPACE
0
ENDBLK
5
1D
100
AcDbEntity
100
AcDbBlockEnd
0
ENDSEC
0
SECTION
2
ENTITIES
0
SPLINE
5
100
100
AcDbEntity
8
0
100
AcDbSpline
70
2
71
3
72
653
73
649
74
0
42
0.000000001
43
0.0000000001
44
0.0000000001
40
0
40
0
40
0
40
0
40
0.036830327613308331
40
0.036830327613308331
40
0.036830327613308331
40
0.077273319674829768
40
0.077273319674829768
40
0.077273319674829768
40
0.12203144163983472
40
0.12203144163983472
40
0.12203144163983472
40
0.16761457388980722
40
0.16761457388980722
40
0.16761457388980722
40
0.21319805847107021
40
0.21319805847107021
40
0.21319805847107021
40
0.25846429189610343
40
0.25846429189610343
40
0.25846429189610343
40
0.30183881742101926
40
0.30183881742101926
40
0.30183881742101926
40
0.34145177813640282
40
0.34145177813640282
40
0.34145177813640282
40
0.37547312544633221
40
0.37547312544633221
40
0.37547312544633221
40
0.40307804866273894
40
0.40307804866273894
40
0.40307804866273894
40
0.42618934057817798
40
0.42618934057817798
40
0.42618934057817798
40
0.44692589389810339
40
0.44692589389810339
40
0.44692589389810339
40
0.46670732001399234
40
0.46670732001399234
40
0.46670732001399234
40
0.4864401130111754
40
0.4864401130111754
40
0.4864401130111754
40
0.50683813008923018
40
0.50683813008923018
40
0.50683813008923018
40
0.52901121534081508
40
0.52901121534081508
40
0.52901121534081508
40
0.55479293128081641
40
0.55479293128081641
40
0.55479293128081641
40
0.58599849687336802
40
0.58599849687336802
40
0.58599849687336802
40
0.6220642854460281
40
0.6220642854460281
40
0.6220642854460281
40
0.6614399604856025
40
0.6614399604856025
40
0.6614399604856025
40
0.70249154831389449
40
0.70249154831389449
40
0.70249154831389449
40
0.74382368188605086
40
0.74382368188605086
40
0.74382368188605086
40
0.78515540804913786
40
0.78515540804913786
40
0.78515540804913786
40
0.82568564424427926
40
0.82568564424427926
40
0.82568564424427926
40
0.86226205058865013
40
0.86226205058865013
40
0.86226205058865013
40
0.89692501049616757
40
0.89692501049616757
40
0.89692501049616757
40
0.93404941628409344
40
0.93404941628409344
40
0.93404941628409344
40
0.97269855131293959
40
0.97269855131293959
40
0.97269855131293959
40
1.0128525557685331
40
1.0128525557685331
40
1.0128525557685331
40
1.0550819176158279
40
1.0550819176158279
40
1.0550819176158279
40
1.0999966554063652
40
1.0999966554063652
40
1.0999966554063652
40
1.1482471648828281
40
1.1482471648828281
40
1.1482471648828281
40
1.200515057085058
40
1.200515057085058
40
1.200515057085058
40
1.2571924273515167
40
1.2571924273515167
40
1.2571924273515167
40
1.3174179959051251
40
1.3174179959051251
40
1.3174179959051251
40
1.3800093487386913
40
1.3800093487386913
40
1.3800093487386913
40
1.4437820313132328
40
1.4437820313132328
40
1.4437820313132328
40
1.5075631495861983
40
1.5075631495861983
40
1.5075631495861983
40
1.5702051358926343
40
1.5702051358926343
40
1.5702051358926343
40
1.6306005949380953
40
1.6306005949380953
40
1.6306005949380953
40
1.6877106625955061
40
1.6877106625955061
40
1.6877106625955061
40
1.7408464199102391
40
1.7408464199102391
40
1.7408464199102391
40
1.7903652601070026
40
1.7903652601070026
40
1.7903652601070026
40
1.83688454885813
40
1.83688454885813
40
1.83688454885813
40
1.8810197611289272
40
1.8810197611289272
40
1.8810197611289272
40
1.9233669916646736
40
1.9233669916646736
40
1.9233669916646736
40
1.964480650467189
40
1.964480650467189
40
1.964480650467189
40
2.0048560476281154
40
2.0048560476281154
40
2.0048560476281154
40
2.0449113018165512
40
2.0449113018165512
40
2.0449113018165512
40
2.0849911519226412
40
2.0849911519226412
40
2.0849911519226412
40
2.1254632202511283
40
2.1254632202511283
40
2.1254632202511283
40
2.1667759621569997
40
2.1667759621569997
40
2.1667759621569997
40
2.2094445742935216
40
2.2094445742935216
40
2.2094445742935216
40
2.2540365347085944
40
2.2540365347085944
40
2.2540365347085944
40
2.3011497944182437
40
2.3011497944182437
40
2.3011497944182437
40
2.3513924096488084
40
2.3513924096488084
40
2.3513924096488084
40
2.4053684385795235
40
2.4053684385795235
40
2.4053684385795235
40
2.4634097419073289
40
2.4634097419073289
40
2.4634097419073289
40
2.5247705053018192
40
2.5247705053018192
40
2.5247705053018192
40
2.5883642318053388
40
2.5883642318053388
40
2.5883642318053388
40
2.6530419447497184
40
2.6530419447497184
40
2.6530419447497184
40
2.7176225856594964
40
2.7176225856594964
40
2.7176225856594964
40
2.7809079533116856
40
2.7809079533116856
40
2.7809079533116856
40
2.8416884528122242
40
2.8416884528122242
40
2.8416884528122242
40
2.8987663115039615
40
2.8987663115039615
40
2.8987663115039615
40
2.9512798264512528
40
2.9512798264512528
40
2.9512798264512528
40
2.9996528446764348
40
2.9996528446764348
40
2.9996528446764348
40
3.0446002885605759
40
3.0446002885605759
40
3.0446002885605759
40
3.0868064269507474
40
3.0868064269507474
40
3.0868064269507474
40
3.1269055798697618
40
3.1269055798697618
40
3.1269055798697618
40
3.1654841471075033
40
3.1654841471075033
40
3.1654841471075033
40
3.2025535574522235
40
3.2025535574522235
40
3.2025535574522235
40
3.2373125887009646
40
3.2373125887009646
40
3.2373125887009646
40
3.2742416752154586
40
3.2742416752154586
40
3.2742416752154586
40
3.3152347345680742
40
3.3152347345680742
40
3.3152347345680742
40
3.3570436911501549
40
3.3570436911501549
40
3.3570436911501549
40
3.3988529820393176
40
3.3988529820393176
40
3.3988529820393176
40
3.440376744958781
40
3.440376744958781
40
3.440376744958781
40
3.4801983510892551
40
3.4801983510892551
40
3.4801983510892551
40
3.5166540373519304
40
3.5166540373519304
40
3.5166540373519304
40
3.5481596392489827
40
3.5481596392489827
40
3.5481596392489827
40
3.5741270134847718
40
3.5741270134847718
40
3.5741270134847718
40
3.5963907261534964
40
3.5963907261534964
40
3.5963907261534964
40
3.6168195540715566
40
3.6168195540715566
40
3.6168195540715566
40
3.6365572754768789
40
3.6365572754768789
40
3.6365572754768789
40
3.6563330223139481
40
3.6563330223139481
40
3.6563330223139481
40
3.6770399625510803
40
3.6770399625510803
40
3.6770399625510803
40
3.70006532262162
40
3.70006532262162
40
3.70006532262162
40
3.7274977407144654
40
3.7274977407144654
40
3.7274977407144654
40
3.7612463311750255
40
3.7612463311750255
40
3.7612463311750255
40
3.8005088695707285
40
3.8005088695707285
40
3.8005088695707285
40
3.8434840850163381
40
3.8434840850163381
40
3.8434840850163381
40
3.8883279508964788
40
3.8883279508964788
40
3.8883279508964788
40
3.9334849589129308
40
3.9334849589129308
40
3.9334849589129308
40
3.9786419581574686
40
3.9786419581574686
40
3.9786419581574686
40
4.0230411807245581
40
4.0230411807245581
40
4.0230411807245581
40
4.0635123265216295
40
4.0635123265216295
40
4.0635123265216295
40
4.1008015140122733
40
4.1008015140122733
40
4.1008015140122733
40
4.1389660139474707
40
4.1389660139474707
40
4.1389660139474707
40
4.1780977888304482
40
4.1780977888304482
40
4.1780977888304482
40
4.218314532534607
40
4.218314532534607
40
4.218314532534607
40
4.2600909284675907
40
4.2600909284675907
40
4.2600909284675907
40
4.3039754837493698
40
4.3039754837493698
40
4.3039754837493698
40
4.3505980762864613
40
4.3505980762864613
40
4.3505980762864613
40
4.4006466945232825
40
4.4006466945232825
40
4.4006466945232825
40
4.4546940452545858
40
4.4546940452545858
40
4.4546940452545858
40
4.5125843620712409
40
4.5125843620712409
40
4.5125843620712409
40
4.5738636696361583
40
4.5738636696361583
40
4.5738636696361583
40
4.6380073366259138
40
4.6380073366259138
40
4.6380073366259138
40
4.7044850013246684
40
4.7044850013246684
40
4.7044850013246684
40
4.7728113552856613
40
4.7728113552856613
40
4.7728113552856613
40
4.8426075664293631
40
4.8426075664293631
40
4.8426075664293631
40
4.9136489707935702
40
4.9136489707935702
40
4.9136489707935702
40
4.9868840051363144
40
4.9868840051363144
40
4.9868840051363144
40
5.0672649522801825
40
5.0672649522801825
40
5.0672649522801825
40
5.1607721486323621
40
5.1607721486323621
40
5.1607721486323621
40
5.2732931266849707
40
5.2732931266849707
40
5.2732931266849707
40
5.4106057811716664
40
5.4106057811716664
40
5.4106057811716664
40
5.5784654686677682
40
5.5784654686677682
40
5.5784654686677682
40
5.782589985938098
40
5.782589985938098
40
5.782589985938098
40
6.0286591725083181
40
6.0286591725083181
40
6.0286591725083181
40
6.3193996726121062
40
6.3193996726121062
40
6.3193996726121062
40
6.6457784296099955
40
6.6457784296099955
40
6.6457784296099955
40
6.9958225265462399
40
6.9958225265462399
40
6.9958225265462399
40
7.3575612609206145
40
7.3575612609206145
40
7.3575612609206145
40
7.7190257388731229
40
7.7190257388731229
40
7.7190257388731229
40
8.0682489372031529
40
8.0682489372031529
40
8.0682489372031529
40
8.3932714054111379
40
8.3932714054111379
40
8.3932714054111379
40
8.682146981519379
40
8.682146981519379
40
8.682146981519379
40
8.9261567560104709
40
8.9261567560104709
40
8.9261567560104709
40
9.1294085549578483
40
9.1294085549578483
40
9.1294085549578483
40
9.2992030196583695
40
9.2992030196583695
40
9.2992030196583695
40
9.4428165043118675
40
9.4428165043118675
40
9.4428165043118675
40
9.5674850413493644
40
9.5674850413493644
40
9.5674850413493644
40
9.6803915060213406
40
9.6803915060213406
40
9.6803915060213406
40
9.7886825078034629
40
9.7886825078034629
40
9.7886825078034629
40
9.8995147252850888
40
9.8995147252850888
40
9.8995147252850888
40
10.018453064693155
40
10.018453064693155
40
10.018453064693155
40
10.144494638058633
40
10.144494638058633
40
10.144494638058633
40
10.274961804977899
40
10.274961804977899
40
10.274961804977899
40
10.40715991575361
40
10.40715991575361
40
10.40715991575361
40
10.538381114696515
40
10.538381114696515
40
10.538381114696515
40
10.665910893935079
40
10.665910893935079
40
10.665910893935079
40
10.787029587776503
40
10.787029587776503
40
10.787029587776503
40
10.899013699796932
40
10.899013699796932
40
10.899013699796932
40
10.999838930810908
40
10.999838930810908
40
10.999838930810908
40
11.090286834622551
40
11.090286834622551
40
11.090286834622551
40
11.171841429795489
40
11.171841429795489
40
11.171841429795489
40
11.245984178558999
40
11.245984178558999
40
11.245984178558999
40
11.31373168055911
40
11.31373168055911
40
11.31373168055911
40
11.374576701307753
40
11.374576701307753
40
11.374576701307753
40
11.429512639259549
40
11.429512639259549
40
11.429512639259549
40
11.487651594093549
40
11.487651594093549
40
11.487651594093549
40
11.567346840646858
40
11.567346840646858
40
11.567346840646858
40
11.668717622397775
40
11.668717622397775
40
11.668717622397775
40
11.782426268134184
40
11.782426268134184
40
11.782426268134184
40
11.901897454943327
40
11.901897454943327
40
11.901897454943327
40
12.021360933675592
40
12.021360933675592
40
12.021360933675592
40
12.135015641002074
40
12.135015641002074
40
12.135015641002074
40
12.236231716063026
40
12.236231716063026
40
12.236231716063026
40
12.315592705396938
40
12.315592705396938
40
12.315592705396938
40
12.373271310675975
40
12.373271310675975
40
12.373271310675975
40
12.427916726422223
40
12.427916726422223
40
12.427916726422223
40
12.48866173110374
40
12.48866173110374
40
12.48866173110374
40
12.556407325819785
40
12.556407325819785
40
12.556407325819785
40
12.630570101167104
40
12.630570101167104
40
12.630570101167104
40
12.712150442787124
40
12.712150442787124
40
12.712150442787124
40
12.80263267555981
40
12.80263267555981
40
12.80263267555981
40
12.903501052720227
40
12.903501052720227
40
12.903501052720227
40
13.015538790875748
40
13.015538790875748
40
13.015538790875748
40
13.136719898117525
40
13.136719898117525
40
13.136719898117525
40
13.264318676801059
40
13.264318676801059
40
13.264318676801059
40
13.395613947329037
40
13.395613947329037
40
13.395613947329037
40
13.527888700873312
40
13.527888700873312
40
13.527888700873312
40
13.658433689527097
40
13.658433689527097
40
13.658433689527097
40
13.784551349162166
40
13.784551349162166
40
13.784551349162166
40
13.903561924676156
40
13.903561924676156
40
13.903561924676156
40
14.014460359173155
40
14.014460359173155
40
14.014460359173155
40
14.122809232304638
40
14.122809232304638
40
14.122809232304638
40
14.235763776314197
40
14.235763776314197
40
14.235763776314197
40
14.360469255958749
40
14.360469255958749
40
14.360469255958749
40
14.504109974490637
40
14.504109974490637
40
14.504109974490637
40
14.673920196410478
40
14.673920196410478
40
14.673920196410478
40
14.877178358304446
40
14.877178358304446
40
14.877178358304446
40
15.12118421171337
40
15.12118421171337
40
15.12118421171337
40
15.410046235579912
40
15.410046235579912
40
15.410046235579912
40
15.735047395866545
40
15.735047395866545
40
15.735047395866545
40
16.084241222624254
40
16.084241222624254
40
16.084241222624254
40
16.445671207009109
40
16.445671207009109
40
16.445671207009109
40
16.807371947549409
40
16.807371947549409
40
16.807371947549409
40
17.157375442563023
40
17.157375442563023
40
17.157375442563023
40
17.483713594510387
40
17.483713594510387
40
17.483713594510387
40
17.774415856058276
40
17.774415856058276
40
17.774415856058276
40
18.02045206070013
40
18.02045206070013
40
18.02045206070013
40
18.224550973409194
40
18.224550973409194
40
18.224550973409194
40
18.392398368030939
40
18.392398368030939
40
18.392398368030939
40
18.52972393924254
40
18.52972393924254
40
18.52972393924254
40
18.642296551929704
40
18.642296551929704
40
18.642296551929704
40
18.735921706552372
40
18.735921706552372
40
18.735921706552372
40
18.81652180293003
40
18.81652180293003
40
18.81652180293003
40
18.890108881878099
40
18.890108881878099
40
18.890108881878099
40
18.961651037323659
40
18.961651037323659
40
18.961651037323659
40
19.032075966868327
40
19.032075966868327
40
19.032075966868327
40
19.101132243668939
40
19.101132243668939
40
19.101132243668939
40
19.16840233060719
40
19.16840233060719
40
19.16840233060719
40
19.233359084766565
40
19.233359084766565
40
19.233359084766565
40
19.295431502517111
40
19.295431502517111
40
19.295431502517111
40
19.354050069682273
40
19.354050069682273
40
19.354050069682273
40
19.408706040591763
40
19.408706040591763
40
19.408706040591763
40
19.459184150708314
40
19.459184150708314
40
19.459184150708314
40
19.506046837565702
40
19.506046837565702
40
19.506046837565702
40
19.549990401406969
40
19.549990401406969
40
19.549990401406969
40
19.591658806072083
40
19.591658806072083
40
19.591658806072083
40
19.631624440637928
40
19.631624440637928
40
19.631624440637928
40
19.67039046210882
40
19.67039046210882
40
19.67039046210882
40
19.708100935545833
40
19.708100935545833
40
19.708100935545833
40
19.708100935545833
10
-7.1163618564605722
20
-28.762290477752682
30
0
10
-7.1158456512193489
20
-28.885751728161289
30
0
10
-7.0993845801744246
20
-29.010822100668683
30
0
10
-7.0572650432586661
20
-29.125821590423584
30
0
10
-7.0110140265692724
20
-29.25210131022591
30
0
10
-6.9338240236979098
20
-29.36623755645158
30
0
10
-6.8502974510192889
20
-29.473280906677246
30
0
10
-6.757858876702592
20
-29.591745418839327
30
0
10
-6.6576594150633568
20
-29.701522712471359
30
0
10
-6.55725121498108
20
-29.81158971786499
30
0
10
-6.454992226837863
20
-29.923685548586825
30
0
10
-6.3525167341296287
20
-30.036081869807731
30
0
10
-6.2501001358032227
20
-30.148398876190186
30
0
10
-6.1476827458556524
20
-30.260716750718242
30
0
10
-6.0453242512003547
20
-30.372955309181727
30
0
10
-5.9429490566253671
20
-30.485212802886963
30
0
10
-5.8412863711783345
20
-30.596689008807804
30
0
10
-5.7396072174583255
20
-30.70818388731724
30
0
10
-5.6389379501342791
20
-30.82059383392334
30
0
10
-5.5424757226694545
20
-30.928306089381824
30
0
10
-5.4469407375969681
20
-31.036858528384208
30
0
10
-5.3537642955780038
20
-31.14741325378418
30
0
10
-5.2686683851875564
20
-31.248380352355749
30
0
10
-5.1855396767223771
20
-31.351017508062977
30
0
10
-5.1065742969512948
20
-31.456954479217529
30
0
10
-5.0387553669310217
20
-31.547937794362959
30
0
10
-4.9740073612053637
20
-31.641355095429155
30
0
10
-4.91775006055832
20
-31.739957332611084
30
0
10
-4.872102883491034
20
-31.819963193683456
30
0
10
-4.8320457324004291
20
-31.903382661435845
30
0
10
-4.8010843992233285
20
-31.990141868591309
30
0
10
-4.7751630661503262
20
-32.062778091746253
30
0
10
-4.7556172751644077
20
-32.137755242273165
30
0
10
-4.7427853941917437
20
-32.213780879974365
30
0
10
-4.7312720186107429
20
-32.28199470790058
30
0
10
-4.7251636992474628
20
-32.351052624012283
30
0
10
-4.7224697470664987
20
-32.420148849487305
30
0
10
-4.7198998785254105
20
-32.486062497625142
30
0
10
-4.7204370888328899
20
-32.552011007336475
30
0
10
-4.7209921479225168
20
-32.617957592010498
30
0
10
-4.7215458423858294
20
-32.683742045397224
30
0
10
-4.7221172979758412
20
-32.749524583200511
30
0
10
-4.7256773710250863
20
-32.815229892730713
30
0
10
-4.7293574598431265
20
-32.8831502335617
30
0
10
-4.7362310647707435
20
-32.950988051374068
30
0
10
-4.7485059499740609
20
-33.017928600311279
30
0
10
-4.7618490153820892
20
-33.090694423219112
30
0
10
-4.7815743198143332
20
-33.162400018895994
30
0
10
-4.8079177737236023
20
-33.231551647186279
30
0
10
-4.838548578497095
20
-33.311957581549485
30
0
10
-4.8781270120243452
20
-33.388910594200382
30
0
10
-4.9235412478446969
20
-33.461987972259529
30
0
10
-4.9785095408018325
20
-33.550439063709888
30
0
10
-5.0420273403030222
20
-33.633212313170361
30
0
10
-5.1086628437042245
20
-33.713202476501465
30
0
10
-5.1856767331007427
20
-33.805650995341352
30
0
10
-5.2668551104890104
20
-33.894381993487357
30
0
10
-5.3499984741210946
20
-33.981215953826904
30
0
10
-5.4407722017349673
20
-34.076018977413675
30
0
10
-5.5338881331097669
20
-34.168560789707556
30
0
10
-5.627915859222413
20
-34.260153770446777
30
0
10
-5.7259456060884268
20
-34.355645143978592
30
0
10
-5.8249664153017342
20
-34.450105198520802
30
0
10
-5.9239768981933603
20
-34.544532299041755
30
0
10
-6.0236640167778477
20
-34.639604712510575
30
0
10
-6.1233406674186233
20
-34.734643720004811
30
0
10
-6.2230610847473153
20
-34.829809665679932
30
0
10
-6.3227805191361286
20
-34.924974673308405
30
0
10
-6.4225437193500525
20
-35.020266616615324
30
0
10
-6.5221464633941659
20
-35.115079879760742
30
0
10
-6.6198177468499617
20
-35.208054558208786
30
0
10
-6.7173347368153644
20
-35.300568941281533
30
0
10
-6.806734800338746
20
-35.403661727905273
30
0
10
-6.8874136553767471
20
-35.496697545327315
30
0
10
-6.9614819936949948
20
-35.598348534272915
30
0
10
-7.0028543472290048
20
-35.712401866912842
30
0
10
-7.0420623606769883
20
-35.820488649944352
30
0
10
-7.0519058041529252
20
-35.939714093934789
30
0
10
-7.0471501350402832
20
-36.056189537048333
30
0
10
-7.0420567618718692
20
-36.180935999151188
30
0
10
-7.0202172690357418
20
-36.302528033648173
30
0
10
-6.9975316524505633
20
-36.424102783203118
30
0
10
-6.9739143193241615
20
-36.55067070562292
30
0
10
-6.9493799332303565
20
-36.677219894131291
30
0
10
-6.9225227832794207
20
-36.803245544433594
30
0
10
-6.8946199047806012
20
-36.934178216535599
30
0
10
-6.8642098594845802
20
-37.064545787022432
30
0
10
-6.8311738967895526
20
-37.194256782531738
30
0
10
-6.7964304722784341
20
-37.330671883321834
30
0
10
-6.7587826748909272
20
-37.466360785124571
30
0
10
-6.7180383205413827
20
-37.601113319396973
30
0
10
-6.6747030222559856
20
-37.744434801860798
30
0
10
-6.6278648236953517
20
-37.886697042683032
30
0
10
-6.5776705741882333
20
-38.027763366699226
30
0
10
-6.5237484490541222
20
-38.179306542471409
30
0
10
-6.4659532604456418
20
-38.329469565863981
30
0
10
-6.4046227931976336
20
-38.478169441223152
30
0
10
-6.3381858936578475
20
-38.639250207832454
30
0
10
-6.2676005063313553
20
-38.798614037146109
30
0
10
-6.1934483051300058
20
-38.956289291381836
30
0
10
-6.1130403991195434
20
-39.127266508745031
30
0
10
-6.028438479291701
20
-39.296258226596052
30
0
10
-5.9405374526977548
20
-39.463505744934082
30
0
10
-5.8471335195551646
20
-39.641223533069514
30
0
10
-5.7500044789605775
20
-39.816971900066363
30
0
10
-5.6496155261993417
20
-39.990835189819329
30
0
10
-5.545283088768258
20
-40.17152818741296
30
0
10
-5.4374295967470543
20
-40.350185099510128
30
0
10
-5.326249599456788
20
-40.526747703552239
30
0
10
-5.2129712254506551
20
-40.706642695310165
30
0
10
-5.096239594367332
20
-40.884363578348015
30
0
10
-4.9760016798973092
20
-41.059684753417969
30
0
10
-4.8557478606425954
20
-41.235029119555023
30
0
10
-4.7319868303342147
20
-41.407973142826918
30
0
10
-4.6044355630874634
20
-41.57808780670166
30
0
10
-4.4791623638618825
20
-41.745164219494548
30
0
10
-4.350233106092503
20
-41.909511435204081
30
0
10
-4.2171138525009164
20
-42.070412635803223
30
0
10
-4.0887686498260924
20
-42.225543442537443
30
0
10
-3.9565285936904293
20
-42.377470970688968
30
0
10
-3.8196021318435669
20
-42.525105476379395
30
0
10
-3.690124193870151
20
-42.664708962167985
30
0
10
-3.5564558445230428
20
-42.800473785395738
30
0
10
-3.4174627065658578
20
-42.930617332458503
30
0
10
-3.288142151542004
20
-43.051704142831198
30
0
10
-3.1542121288677771
20
-43.167924827516366
30
0
10
-3.0153053998947148
20
-43.277907371520996
30
0
10
-2.8858539633878526
20
-43.380403473886489
30
0
10
-2.7520802837702791
20
-43.477481784049473
30
0
10
-2.6139238476753235
20
-43.567914962768555
30
0
10
-2.4841360917830126
20
-43.65287024719764
30
0
10
-2.35048045988108
20
-43.7319610614867
30
0
10
-2.2131578624248514
20
-43.804116249084473
30
0
10
-2.0828729386648974
20
-43.872573540813576
30
0
10
-1.9492872762613198
20
-43.934787880243647
30
0
10
-1.8128468096256265
20
-43.989973068237305
30
0
10
-1.6819337450282326
20
-44.042922623884337
30
0
10
-1.5483924955118222
20
-44.089401014331727
30
0
10
-1.4128297567367563
20
-44.128952026367188
30
0
10
-1.2812159506431589
20
-44.167350920310149
30
0
10
-1.1476967116198304
20
-44.199220145650472
30
0
10
-1.0129466652870183
20
-44.224486351013184
30
0
10
-0.88061627201616521
20
-44.249298861161421
30
0
10
-0.74709887681083875
20
-44.267743357871311
30
0
10
-0.61303652822971433
20
-44.28006649017334
30
0
10
-0.48003718142174312
20
-44.292291910391206
30
0
10
-0.34650148902060141
20
-44.298492655893483
30
0
10
-0.21293904632330021
20
-44.299154281616211
30
0
10
-0.079294589645340779
20
-44.299816313610023
30
0
10
0.054376650190888415
20
-44.29493242114583
30
0
10
0.1875750347971909
20
-44.2840576171875
30
0
10
0.32207688819138003
20
-44.273076393263366
30
0
10
0.4560965864257493
20
-44.255986430964136
30
0
10
0.58900896459817798
20
-44.232583045959473
30
0
10
0.72468215853939755
20
-44.208693532911269
30
0
10
0.85920155281491262
20
-44.178225592128086
30
0
10
0.99193453788757269
20
-44.141340255737305
30
0
10
1.1290237746826537
20
-44.103244355068952
30
0
10
1.264207419386643
20
-44.058302912911181
30
0
10
1.3969241082668296
20
-44.007010459899902
30
0
10
1.5356231903468691
20
-43.953405926737375
30
0
10
1.6716279009626109
20
-43.892864916541889
30
0
10
1.8045492470264426
20
-43.826217651367188
30
0
10
1.9449861742162302
20
-43.755802045417468
30
0
10
2.0819812029720581
20
-43.678570148660576
30
0
10
2.2153821587562552
20
-43.59560489654541
30
0
10
2.3576438688175152
20
-43.507128928946941
30
0
10
2.4958181984814622
20
-43.412132669610571
30
0
10
2.6299947500228882
20
-43.311829566955566
30
0
10
2.7741416538930075
20
-43.20407317040052
30
0
10
2.913674573888128
20
-43.090191949318218
30
0
10
3.0489587783813472
20
-42.97152042388916
30
0
10
3.1944320876262871
20
-42.843910999108346
30
0
10
3.3349925853426772
20
-42.710762520839609
30
0
10
3.4716629981994624
20
-42.573776245117188
30
0
10
3.616149775468557
20
-42.428955540361095
30
0
10
3.7562887856429334
20
-42.279845507714327
30
0
10
3.8927638530731201
20
-42.127470970153816
30
0
10
4.0342053481358109
20
-41.96955141160096
30
0
10
4.1717113812299713
20
-41.808125429549946
30
0
10
4.3057334423065177
20
-41.643867492675781
30
0
10
4.4420399755310367
20
-41.476809698234447
30
0
10
4.5747427524303363
20
-41.306822582014668
30
0
10
4.7040450572967529
20
-41.13429069519043
30
0
10
4.8331532978210543
20
-40.962017754153308
30
0
10
4.9588712659009921
20
-40.787207675455846
30
0
10
5.0811707973480216
20
-40.610036849975586
30
0
10
5.2010174062122552
20
-40.436419483071091
30
0
10
5.3175813282878561
20
-40.26053511721139
30
0
10
5.4305851459503165
20
-40.082387924194336
30
0
10
5.5391162130484863
20
-39.91129189081574
30
0
10
5.6443634200215804
20
-39.73810861307301
30
0
10
5.745757818222045
20
-39.56268310546875
30
0
10
5.840975448550477
20
-39.397944210325676
30
0
10
5.9327953848393236
20
-39.231227949710942
30
0
10
6.0201656818389875
20
-39.062194824218743
30
0
10
6.1005492404132564
20
-38.906678766581379
30
0
10
6.1771663539080421
20
-38.74920157372599
30
0
10
6.2493515014648438
20
-38.589711189270027
30
0
10
6.315845116715268
20
-38.442796032633233
30
0
10
6.3785781019412848
20
-38.294172634352918
30
0
10
6.4371550083160392
20
-38.143925666809082
30
0
10
6.4915837437720212
20
-38.004318559578316
30
0
10
6.5424241903047307
20
-37.863309689817797
30
0
10
6.5894877910614005
20
-37.721052169799805
30
0
10
6.6336810237577009
20
-37.587470812150229
30
0
10
6.6745440551183854
20
-37.452788467856848
30
0
10
6.7122626304626456
20
-37.317242622375488
30
0
10
6.7480982453354112
20
-37.188463402271339
30
0
10
6.7810955184681054
20
-37.058904743227153
30
0
10
6.8113899230957022
20
-36.928696632385254
30
0
10
6.8405355444062934
20
-36.803426096891428
30
0
10
6.8671793995797579
20
-36.677554430964463
30
0
10
6.8927824497222892
20
-36.551594734191902
30
0
10
6.9173839328712381
20
-36.430562461070288
30
0
10
6.941024448852934
20
-36.309448909755538
30
0
10
6.9477427005767813
20
-36.18499755859375
30
0
10
6.9540422321699324
20
-36.068302732219294
30
0
10
6.9454631508597267
20
-35.948673202124553
30
0
10
6.9076526165008536
20
-35.83972692489624
30
0
10
6.8674815172401775
20
-35.723978978171111
30
0
10
6.7943151085094176
20
-35.620289865260624
30
0
10
6.7145121097564688
20
-35.524969100952148
30
0
10
6.6259269490292354
20
-35.419158475300733
30
0
10
6.5291641382359309
20
-35.323659384077281
30
0
10
6.4322316646575919
20
-35.227713584899902
30
0
10
6.3333699148093956
20
-35.129858147530989
30
0
10
6.2343316812664984
20
-35.031538043322229
30
0
10
6.1353421211242658
20
-34.933340549468994
30
0
10
6.0363517694551998
20
-34.835142270422331
30
0
10
5.9374100919651918
20
-34.737066603691993
30
0
10
5.8384549617767325
20
-34.638960361480713
30
0
10
5.7401756253368195
20
-34.541524115711795
30
0
10
5.6418830193159151
20
-34.444057710653865
30
0
10
5.5446016788482648
20
-34.34557914733886
30
0
10
5.4513081295266161
20
-34.251137452152641
30
0
10
5.3589446367505431
20
-34.155764879405005
30
0
10
5.2689611911773673
20
-34.05817985534668
30
0
10
5.1865835931994733
20
-33.968843202039679
30
0
10
5.1062006997862017
20
-33.877652305370162
30
0
10
5.0300407409667969
20
-33.782827854156494
30
0
10
4.9642220556245116
20
-33.700879008412144
30
0
10
4.9015573533744563
20
-33.616216369843826
30
0
10
4.8475471138954154
20
-33.526008129119866
30
0
10
4.8030310908180072
20
-33.451657188176561
30
0
10
4.7643943001165354
20
-33.37353895576755
30
0
10
4.7348141670227051
20
-33.292081356048584
30
0
10
4.7094529742458091
20
-33.222241849814353
30
0
10
4.6907492182686061
20
-33.149947616043754
30
0
10
4.6785074472427359
20
-33.076682090759277
30
0
10
4.667274593251987
20
-33.009454812423741
30
0
10
4.6614824754184232
20
-32.941409744988029
30
0
10
4.6589213609695426
20
-32.873334884643562
30
0
10
4.6564468889302315
20
-32.807562994372873
30
0
10
4.6569885085943366
20
-32.741763292882503
30
0
10
4.6575480699539185
20
-32.675962448120124
30
0
10
4.65810870932863
20
-32.610034835658468
30
0
10
4.6586873595960565
20
-32.544106075515451
30
0
10
4.6623536944389343
20
-32.478263378143311
30
0
10
4.6661926683652428
20
-32.409320303033709
30
0
10
4.6734169566320176
20
-32.340471586504236
30
0
10
4.6860218048095703
20
-32.2725510597229
30
0
10
4.7000379348895809
20
-32.197025918518477
30
0
10
4.7207069263137926
20
-32.122648449266016
30
0
10
4.7477257251739502
20
-32.050719261169434
30
0
10
4.7799159269526701
20
-31.965022813648126
30
0
10
4.8211192637427658
20
-31.882801540583099
30
0
10
4.8678746819496146
20
-31.80410623550415
30
0
10
4.925395293349407
20
-31.707291743493656
30
0
10
4.9913189929388651
20
-31.615813812264047
30
0
10
5.0602805614471436
20
-31.526839733123779
30
0
10
5.1405092819487717
20
-31.423328796791505
30
0
10
5.2248496369461952
20
-31.323206724461592
30
0
10
5.3111314773559535
20
-31.224799156188965
30
0
10
5.405572153689274
20
-31.117086139639394
30
0
10
5.5023388503657724
20
-31.011427205644534
30
0
10
5.6000173091888428
20
-30.906629562377933
30
0
10
5.7019430275691132
20
-30.797275102825541
30
0
10
5.8048615225273839
20
-30.688858463805705
30
0
10
5.9077668190002433
20
-30.58045864105225
30
0
10
6.0113906972399249
20
-30.471301868570968
30
0
10
6.1150011920220857
20
-30.362162148030087
30
0
10
6.2186586856842032
20
-30.252950191497803
30
0
10
6.3223161592104713
20
-30.143738256180338
30
0
10
6.4260206315984334
20
-30.034454084899529
30
0
10
6.5295529365539551
20
-29.92544412612915
30
0
10
6.6313478726105179
20
-29.818263456411358
30
0
10
6.7329763710133772
20
-29.711347873337456
30
0
10
6.8269836902618399
20
-29.595801830291748
30
0
10
6.9126740177793424
20
-29.490478347491766
30
0
10
6.9920320313307736
20
-29.377983955688613
30
0
10
7.0422613620758057
20
-29.253096580505371
30
0
10
7.0885415178458615
20
-29.138028211258479
30
0
10
7.1100932924086182
20
-29.012438994936026
30
0
10
7.1163618564605704
20
-28.887641429901123
30
0
10
7.1227775664412309
20
-28.759914413486982
30
0
10
7.1131841399539777
20
-28.633016650421684
30
0
10
7.1021187305450431
20
-28.506262302398682
30
0
10
7.0907728695822723
20
-28.376295379716691
30
0
10
7.0778794656676336
20
-28.246479233877704
30
0
10
7.0620298385620108
20
-28.117003440856934
30
0
10
7.0457407641967524
20
-27.983937797926579
30
0
10
7.0263292654203768
20
-27.851231642720713
30
0
10
7.0033657550811759
20
-27.719137668609619
30
0
10
6.979511693026855
20
-27.581920936110826
30
0
10
6.9518247749565898
20
-27.445364787608018
30
0
10
6.9199335575103751
20
-27.309789657592773
30
0
10
6.886433015786606
20
-27.167373009265027
30
0
10
6.8482931458765082
20
-27.026038887730365
30
0
10
6.8055427074432364
20
-26.886115074157715
30
0
10
6.76012499136844
20
-26.737461159254256
30
0
10
6.7095034355109942
20
-26.590399025633644
30
0
10
6.6540002822875985
20
-26.445205211639404
30
0
10
6.594418522126845
20
-26.289341940819266
30
0
10
6.5292113633719193
20
-26.135631662516072
30
0
10
6.4591169357299796
20
-25.984220504760739
30
0
10
6.3834221763432595
20
-25.820712055654056
30
0
10
6.3020279942071546
20
-25.659884789076301
30
0
10
6.2175738811492929
20
-25.500724315643311
30
0
10
6.127114768996039
20
-25.330246945206945
30
0
10
6.0331451109609731
20
-25.161681825066353
30
0
10
5.9375619888305646
20
-24.994046688079834
30
0
10
5.8363832794862187
20
-24.816597924919353
30
0
10
5.7333966670341594
20
-24.640191217444652
30
0
10
5.6301462650299081
20
-24.463942050933838
30
0
10
5.5220696619171363
20
-24.279454524995081
30
0
10
5.4137040324396448
20
-24.095139612003681
30
0
10
5.3063881397247306
20
-23.910207748413086
30
0
10
5.195167340111122
20
-23.718546763052597
30
0
10
5.0850740607403537
20
-23.526223112237084
30
0
10
4.9777162075042725
20
-23.332364559173584
30
0
10
4.867372820534511
20
-23.133114958950628
30
0
10
4.7599191150512166
20
-22.932243900720344
30
0
10
4.6569997072219858
20
-22.729048728942871
30
0
10
4.5518662659771225
20
-22.521482361200519
30
0
10
4.4514643071286111
20
-22.311490810293183
30
0
10
4.3574672937393206
20
-22.098627090454102
30
0
10
4.2617933348267387
20
-21.881965793977383
30
0
10
4.1727548936837735
20
-21.66232893305515
30
0
10
4.092351198196412
20
-21.439535617828369
30
0
10
4.0094647821268126
20
-21.209862848293596
30
0
10
3.9357545952530981
20
-20.976835683701907
30
0
10
3.871696889400484
20
-20.741217136383057
30
0
10
3.8013887491161666
20
-20.482608095394355
30
0
10
3.7427086728951187
20
-20.220877290757734
30
0
10
3.6928191781044024
20
-19.957563877105713
30
0
10
3.6347827036528519
20
-19.651251250203547
30
0
10
3.5886422423097661
20
-19.342796929063972
30
0
10
3.5498464107513445
20
-19.033486843109131
30
0
10
3.5031618230231807
20
-18.661281550351852
30
0
10
3.4671124640385447
20
-18.287837086277861
30
0
10
3.4369105100631709
20
-17.91395902633667
30
0
10
3.4000541785344436
20
-17.457704648234319
30
0
10
3.3719058246266509
20
-17.000804557529175
30
0
10
3.3485004305839547
20
-16.543681621551514
30
0
10
3.3198881941923641
20
-15.984865586224299
30
0
10
3.2983639159470779
20
-15.425716527213641
30
0
10
3.2805520296096802
20
-14.866460561752319
30
0
10
3.2588920184746071
20
-14.186381528583645
30
0
10
3.2427217418022036
20
-13.506144406495192
30
0
10
3.2293602824211129
20
-12.825857400894165
30
0
10
3.2132532342072921
20
-12.005781143808179
30
0
10
3.2012279474074523
20
-11.185632396212583
30
0
10
3.1912216544151302
20
-10.365461111068726
30
0
10
3.1793988225143854
20
-9.3963962194535995
30
0
10
3.1703945785315479
20
-8.427299864611097
30
0
10
3.1633481383323661
20
-7.4581897258758545
30
0
10
3.1554379627887186
20
-6.3702884449688284
30
0
10
3.1499949730941057
20
-5.2823697938710845
30
0
10
3.1466221809387216
20
-4.194445013999939
30
0
10
3.1430048315896264
20
-3.0276360874403574
30
0
10
3.1417687790837689
20
-1.8608201111048595
30
0
10
3.1428423523902889
20
-0.69400608539581299
30
0
10
3.1439517927509675
20
0.5117900774434524
30
0
10
3.1475277616101547
20
1.7175841571419337
30
0
10
3.1538075208663936
20
2.9233646392822266
30
0
10
3.1600825190502331
20
4.1282309449488297
30
0
10
3.1690572093651159
20
5.3330836736677245
30
0
10
3.1813165545463553
20
6.5379047393798828
30
0
10
3.1931607273344396
20
7.7019235894940463
30
0
10
3.2080708472769714
20
8.8659128848728219
30
0
10
3.227168321609498
20
10.02983570098877
30
0
10
3.2449423648969389
20
11.113100124161726
30
0
10
3.2663435147486086
20
12.196306962676662
30
0
10
3.2931619882583614
20
13.279390335083008
30
0
10
3.3169978849832487
20
14.242020195419096
30
0
10
3.3451131500007576
20
15.204552524763191
30
0
10
3.3810964226722717
20
16.166807413101196
30
0
10
3.4114910665127658
20
16.979612709656724
30
0
10
3.4474995185673132
20
17.792220052592043
30
0
10
3.4915816783905029
20
18.604402542114258
30
0
10
3.5283006102621286
20
19.280922785671049
30
0
10
3.5706213392422272
20
19.957148252318724
30
0
10
3.6204722523689279
20
20.632829666137695
30
0
10
3.6621171930435836
20
21.197286977520157
30
0
10
3.7090172684711211
20
21.761364607493505
30
0
10
3.7624368071556091
20
22.3248291015625
30
0
10
3.8076194702806583
20
22.801411772349184
30
0
10
3.8574660977966007
20
23.277555811317264
30
0
10
3.9121410250663748
20
23.753139972686764
30
0
10
3.9596034427620399
20
24.165986870589087
30
0
10
4.0107043196678296
20
24.578411861835043
30
0
10
4.064251184463501
20
24.990510940551765
30
0
10
4.1127460761339556
20
25.36372980698065
30
0
10
4.1632471861350053
20
25.736681357412998
30
0
10
4.2134347558021563
20
26.109676361083988
30
0
10
4.2615707258022404
20
26.467423835726883
30
0
10
4.3094182657284694
20
26.825211283602819
30
0
10
4.3543583154678327
20
27.183377742767327
30
0
10
4.4003529529204393
20
27.549949131372749
30
0
10
4.443302041592732
20
27.916917528151359
30
0
10
4.4816890358924857
20
28.284361362457275
30
0
10
4.5228836042285057
20
28.678679553242581
30
0
10
4.5588243432267292
20
29.07354527054208
30
0
10
4.5912638306617728
20
29.468686580657952
30
0
10
4.6256406687430118
20
29.887426514951365
30
0
10
4.6560855638915193
20
30.306475942923559
30
0
10
4.6836054325103769
20
30.725715160369866
30
0
10
4.7120915835224855
20
31.159674777829316
30
0
10
4.7374436937667541
20
31.593837746589397
30
0
10
4.7604072093963623
20
32.028124332427979
30
0
10
4.7836753883159009
20
32.46817271807754
30
0
10
4.8044911718929626
20
32.908348022688443
30
0
10
4.8233610391616821
20
33.348605632781982
30
0
10
4.8420914627083231
20
33.785609846391573
30
0
10
4.8589046233779722
20
34.222695153543441
30
0
10
4.8741617798805228
20
34.659833908081055
30
0
10
4.888989733109522
20
35.084675391864934
30
0
10
4.9023479955624234
20
35.509567358244858
30
0
10
4.9145013093948373
20
35.934493541717522
30
0
10
4.9260436605697215
20
36.338058141519383
30
0
10
4.9364991665978311
20
36.741653604613298
30
0
10
4.9460732936859131
20
37.145268917083747
30
0
10
4.95492535513345
20
37.518444196071037
30
0
10
4.9630239688437632
20
37.891636443319271
30
0
10
4.9705716967582712
20
38.264842033386238
30
0
10
4.9773673162160739
20
38.600858805366769
30
0
10
4.9837163680795289
20
38.936886393510129
30
0
10
4.9895179271698016
20
39.272916316986084
30
0
10
4.9947223671029164
20
39.574360726195266
30
0
10
4.9994862146863142
20
39.875807014752873
30
0
10
5.0037556886672974
20
40.177283287048347
30
0
10
5.0076053657460005
20
40.449116843219038
30
0
10
5.0110531084656253
20
40.720974776691456
30
0
10
5.013957619667055
20
40.992765426635756
30
0
10
5.0165981630212562
20
41.239855193096624
30
0
10
5.0187897279700886
20
41.486889350024249
30
0
10
5.0207960605621338
20
41.734161376953132
30
0
10
5.0226293352054308
20
41.96010474185816
30
0
10
5.0243079541030209
20
42.18624671117044
30
0
10
5.0152218341827393
20
42.411613464355462
30
0
10
5.0070614572130712
20
42.614018636040981
30
0
10
4.9902181360192257
20
42.815798510772382
30
0
10
4.9492943286895743
20
43.016481399536133
30
0
10
4.9123449166826241
20
43.19767457836101
30
0
10
4.8557651452779558
20
43.377973496634937
30
0
10
4.7540581226348868
20
43.529977798461914
30
0
10
4.6464211145813543
20
43.690844647522482
30
0
10
4.4882411976045509
20
43.82002128317869
30
0
10
4.3153989315032977
20
43.911542892456055
30
0
10
4.0784716071112124
20
44.036998144225556
30
0
10
3.8139934992831215
20
44.091699012216935
30
0
10
3.5498228669166569
20
44.132962226867669
30
0
10
3.2138030329017124
20
44.185448222050631
30
0
10
2.8782806738361661
20
44.216192983379386
30
0
10
2.5414958596229553
20
44.237270355224616
30
0
10
2.1637208788314544
20
44.26091305943195
30
0
10
1.78435743417269
20
44.272391926441763
30
0
10
1.4052066206932066
20
44.279842376708977
30
0
10
1.0068411545258278
20
44.287670401833381
30
0
10
0.6087104171319081
20
44.291051358921123
30
0
10
0.21058183163404437
20
44.294266700744622
30
0
10
-0.18752106728761042
20
44.297481835119761
30
0
10
-0.58562181459087359
20
44.3005313756004
30
0
10
-0.98404295742511771
20
44.299154281616218
30
0
10
-1.3630913399269651
20
44.297844147210334
30
0
10
-1.7424297177502917
20
44.292527392360142
30
0
10
-2.1203322708606716
20
44.274950027465827
30
0
10
-2.4568763004138874
20
44.259296369765522
30
0
10
-2.7922815874066087
20
44.233918907795122
30
0
10
-3.1286594271659851
20
44.186940193176262
30
0
10
-3.3924048661906898
20
44.150105359702032
30
0
10
-3.6567482049152984
20
44.099990647830545
30
0
10
-3.894235491752625
20
43.977870941162116
30
0
10
-4.0668383737384497
20
43.889115818313485
30
0
10
-4.2252553352356124
20
43.76232617217515
30
0
10
-4.3328952789306641
20
43.603358268737793
30
0
10
-4.4348746774556949
20
43.452750133682876
30
0
10
-4.4912771364535411
20
43.273259119118912
30
0
10
-4.5281305909156817
20
43.092970848083503
30
0
10
-4.569097673575059
20
42.892558577108701
30
0
10
-4.5859080166125139
20
42.691161134896312
30
0
10
-4.594058394432067
20
42.489109039306634
30
0
10
-4.6031480668329667
20
42.263771343620988
30
0
10
-4.6014667119180617
20
42.037619408012674
30
0
10
-4.5996326208114624
20
41.811676025390625
30
0
10
-4.5976247959886765
20
41.564330225315402
30
0
10
-4.5954339287302775
20
41.317234359758871
30
0
10
-4.5927938818931562
20
41.070079803466797
30
0
10
-4.5898897844958224
20
40.798205496702728
30
0
10
-4.5864421626360805
20
40.526260171904866
30
0
10
-4.5825925469398507
20
40.254340171813965
30
0
10
-4.5783228685271995
20
39.952748780368552
30
0
10
-4.5735586802346244
20
39.651188541932605
30
0
10
-4.5683541893959028
20
39.349629878997803
30
0
10
-4.5625522929488183
20
39.01345633401781
30
0
10
-4.5562032109184809
20
38.677284746990395
30
0
10
-4.5494079589843759
20
38.341124057769782
30
0
10
-4.5418602549533755
20
37.967739610261717
30
0
10
-4.5337620996630505
20
37.594368607657522
30
0
10
-4.5249119400978097
20
37.221014499664314
30
0
10
-4.5153395214374674
20
36.817191065304364
30
0
10
-4.5048873483176388
20
36.413387395605142
30
0
10
-4.4933518767356864
20
36.009614467620843
30
0
10
-4.481205494193901
20
35.584457991921397
30
0
10
-4.4678580333289837
20
35.159335600279753
30
0
10
-4.4530463218688965
20
34.73426342010498
30
0
10
-4.4378055203251945
20
34.296877048027056
30
0
10
-4.4210144016759365
20
33.85954383877263
30
0
10
-4.4023126363754281
20
33.422291278839118
30
0
10
-4.3834713530144978
20
32.981776747209551
30
0
10
-4.3626908092285612
20
32.541344072702138
30
0
10
-4.3394675850868234
20
32.101037502288825
30
0
10
-4.3165480524409165
20
31.666488847321546
30
0
10
-4.2912493078728842
20
31.232063019871745
30
0
10
-4.262828826904296
20
30.79783916473388
30
0
10
-4.2353722038471888
20
30.378341664811153
30
0
10
-4.2050019962455991
20
29.959032670044195
30
0
10
-4.1707152128219613
20
29.540030956268311
30
0
10
-4.1383605858840857
20
29.144641165162881
30
0
10
-4.102518365575917
20
28.74952499856926
30
0
10
-4.0614432096481332
20
28.354952335357659
30
0
10
-4.0231678675666558
20
27.987275005368328
30
0
10
-3.9803486637075212
20
27.620069610144313
30
0
10
-3.9345136284828195
20
27.253255844116218
30
0
10
-3.8897323433450874
20
26.894875147593986
30
0
10
-3.8420723011179381
20
26.536868280105111
30
0
10
-3.7941581010818464
20
26.178896427154541
30
0
10
-3.7442071744110006
20
25.805707982737395
30
0
10
-3.6939800233181348
20
25.432557592907852
30
0
10
-3.6457920074462891
20
25.059137344360352
30
0
10
-3.5925908752111022
20
24.646869280136549
30
0
10
-3.5418752196224714
20
24.234272288466236
30
0
10
-3.4948286414146423
20
23.821253776550293
30
0
10
-3.4406385262929899
20
23.345522670044989
30
0
10
-3.3913163031764082
20
22.86923231803442
30
0
10
-3.3466830849647526
20
22.39250659942627
30
0
10
-3.2939182647453711
20
21.828927546779198
30
0
10
-3.2477066412922384
20
21.264740040305096
30
0
10
-3.2067704200744629
20
20.700178146362308
30
0
10
-3.1577708899782255
20
20.024413097940446
30
0
10
-3.1163296560865792
20
19.348111648452402
30
0
10
-3.0805054306983948
20
18.67152214050293
30
0
10
-3.0374994298219455
20
17.859294976996178
30
0
10
-3.0025882934362365
20
17.046652682515486
30
0
10
-2.973302006721497
20
16.233819723129272
30
0
10
-2.9386319529757863
20
15.271561767291457
30
0
10
-2.9118448956654164
20
14.309036602397676
30
0
10
-2.8893622756004338
20
13.346419334411621
30
0
10
-2.8640668854013445
20
12.263370324300285
30
0
10
-2.8442203508675661
20
11.180204723696981
30
0
10
-2.8280407190322867
20
10.096986293792725
30
0
10
-2.8106566963072317
20
8.9331344834818118
30
0
10
-2.7975058140316307
20
7.7692216860465724
30
0
10
-2.7874785661697392
20
6.6052836179733276
30
0
10
-2.7770999518860995
20
5.4005598069176859
30
0
10
-2.7700677190361382
20
4.1958089231695839
30
0
10
-2.7658158540725712
20
2.9910486936569192
30
0
10
-2.7615608039316237
20
1.7853859484093437
30
0
10
-2.7600902889223091
20
0.57971384338967535
30
0
10
-2.7611953020095825
20
-0.62595576047897339
30
0
10
-2.7622645794514922
20
-1.7926345307666658
30
0
10
-2.7657454956702985
20
-2.9593109590597977
30
0
10
-2.7717572450637809
20
-4.1259747743606585
30
0
10
-2.7773625124825054
20
-5.2137550932810051
30
0
10
-2.7851679408705623
20
-6.3015244471904719
30
0
10
-2.7956435084342961
20
-7.3892688751220703
30
0
10
-2.8049751515891135
20
-8.3582323974650912
30
0
10
-2.8164256194092827
20
-9.3271761403984108
30
0
10
-2.830994725227356
20
-10.296076536178589
30
0
10
-2.8433253052559326
20
-11.116106537955767
30
0
10
-2.8578897979127449
20
-11.936105489719166
30
0
10
-2.8769001364707938
20
-12.756010293960571
30
0
10
-2.8926701303039244
20
-13.436160921849673
30
0
10
-2.9114995346148023
20
-14.11624676208719
30
0
10
-2.9362398386001591
20
-14.796136617660522
30
0
10
-2.9565858341322935
20
-15.355266205236568
30
0
10
-2.9809294487943627
20
-15.914263245808627
30
0
10
-3.0128398537635799
20
-16.472861766815186
30
0
10
-3.038947584538112
20
-16.929883224598619
30
0
10
-3.0701203837575255
20
-17.386637920810252
30
0
10
-3.1105279922485356
20
-17.842638492584229
30
0
10
-3.1436521221548586
20
-18.216444880560868
30
0
10
-3.1829819494401521
20
-18.58974450462842
30
0
10
-3.2335034012794486
20
-18.96162748336792
30
0
10
-3.2755214252668683
20
-19.270917643335881
30
0
10
-3.3252807285566326
20
-19.579227905604103
30
0
10
-3.3874559402465811
20
-19.885134696960449
30
0
10
-3.4409813851412565
20
-20.148483974889785
30
0
10
-3.5037084549512265
20
-20.410052002739533
30
0
10
-3.5784471035003653
20
-20.668179988861084
30
0
10
-3.6466827394168244
20
-20.903848249162294
30
0
10
-3.7249306348528162
20
-21.136649060372203
30
0
10
-3.8125389814376813
20
-21.365823745727539
30
0
10
-3.8977127651956427
20
-21.588629857863737
30
0
10
-3.9917339903468885
20
-21.808008577935944
30
0
10
-4.0925392508506766
20
-22.024176120758057
30
0
10
-4.191770303151209
20
-22.236967919918701
30
0
10
-4.2975751617571731
20
-22.446648052326815
30
0
10
-4.4082465767860404
20
-22.653696537017822
30
0
10
-4.5167671804921685
20
-22.856721198347458
30
0
10
-4.629967023321754
20
-23.057215505996389
30
0
10
-4.7462034225463858
20
-23.255910873413086
30
0
10
-4.859433284385112
20
-23.449466843407553
30
0
10
-4.9755446487870696
20
-23.641315731360429
30
0
10
-5.0929546356201181
20
-23.832356929779053
30
0
10
-5.20632704225266
20
-24.016828464227672
30
0
10
-5.320910291097972
20
-24.200546904813542
30
0
10
-5.4354166984558097
20
-24.384315013885502
30
0
10
-5.5448385691236499
20
-24.559923093186299
30
0
10
-5.654190270925838
20
-24.735576527951221
30
0
10
-5.7619953155517587
20
-24.912183284759521
30
0
10
-5.8638018421566018
20
-25.078963239704933
30
0
10
-5.9642290420875561
20
-25.246593378222649
30
0
10
-6.0614681243896475
20
-25.416097640991211
30
0
10
-6.1521338760548847
20
-25.574143470204504
30
0
10
-6.240027972746943
20
-25.733818607493877
30
0
10
-6.3226163387298584
20
-25.896232128143311
30
0
10
-6.3988917129124019
20
-26.046230882960696
30
0
10
-6.4706414872581188
20
-26.198565381517597
30
0
10
-6.5371179580688468
20
-26.353170871734619
30
0
10
-6.5988331456579727
20
-26.496702962332797
30
0
10
-6.6560033638096625
20
-26.642192381504888
30
0
10
-6.7082667350769052
20
-26.789426803588867
30
0
10
-6.7572745693658582
20
-26.9274898482062
30
0
10
-6.8019678220553548
20
-27.067087270730966
30
0
10
-6.842254400253295
20
-27.207937240600586
30
0
10
-6.8804551581387541
20
-27.341494763672593
30
0
10
-6.9146937363382701
20
-27.476178491472215
30
0
10
-6.9452762603759775
20
-27.611684799194336
30
0
10
-6.974609036363332
20
-27.741653671756517
30
0
10
-7.0005784605162367
20
-27.872379268800582
30
0
10
-7.0235216617584237
20
-28.003606796264648
30
0
10
-7.0457761972268953
20
-28.130895383134519
30
0
10
-7.0651834541687268
20
-28.258656220644518
30
0
10
-7.0831882953643808
20
-28.386647701263428
30
0
10
-7.1007028882961363
20
-28.511154141359889
30
0
10
-7.1168903976194127
20
-28.635878835344386
30
0
10
-7.1163618564605722
20
-28.762290477752682
30
0
0
SPLINE
5
101
100
AcDbEntity
8
0
100
AcDbSpline
70
0
71
3
72
63
73
59
74
0
42
0.000000001
43
0.0000000001
44
0.0000000001
40
0
40
0
40
0
40
0
40
0.016564671935096947
40
0.026340605008255705
40
0.036117253255466122
40
0.045893747136045382
40
0.055670051845028004
40
0.065446782654164787
40
0.07522279529655633
40
0.084998605869291158
40
0.094775515078983963
40
0.10455074403782952
40
0.1143277868534311
40
0.12410396813652774
40
0.13387953638701255
40
0.1436575821360585
40
0.15343133161422171
40
0.15968041782193118
40
0.16320873116555837
40
0.17151334605973023
40
0.17298616803138819
40
0.18275977756276371
40
0.19253782331180966
40
0.20231486897463158
40
0.21208967426226641
40
0.22186568396702208
40
0.23164310053098658
40
0.24141982963512254
40
0.24597529824342787
40
0.25119467969050602
40
0.26097154466685107
40
0.27074654930294806
40
0.28052442767116692
40
0.2889533789796791
40
0.29030035547569016
40
0.30007659800232372
40
0.30985312067193316
40
0.31962894898236927
40
0.32940489635877679
40
0.3391811573358679
40
0.34895789070468569
40
0.35682551006143198
40
0.35873413340535659
40
0.36851033619015261
40
0.37828567318848205
40
0.38806330405768386
40
0.39783760197257656
40
0.40761495145730675
40
0.41739215500913118
40
0.42002231494837666
40
0.42716776631821901
40
0.43694390937791766
40
0.44671976379886991
40
0.45649760320221733
40
0.46627276769777992
40
0.47604873407384857
40
0.47733726601664572
40
0.48283560547656579
40
0.48283560547656579
40
0.48283560547656579
40
0.48283560547656579
10
-3.2814404368400574
20
-28.471715450286865
30
0
10
-3.2264111361489078
20
-28.466522148393128
30
0
10
-3.1382493328136238
20
-28.46835400547906
30
0
10
-3.0189755724250817
20
-28.485909495379037
30
0
10
-2.9239950617467576
20
-28.509761123669257
30
0
10
-2.8317997905709675
20
-28.542745717857031
30
0
10
-2.7432764324493668
20
-28.584608906324782
30
0
10
-2.659282990500309
20
-28.634944660454863
30
0
10
-2.5806475075233895
20
-28.693292408511468
30
0
10
-2.5080764365158146
20
-28.759032337102724
30
0
10
-2.4423400289999337
20
-28.831603080683699
30
0
10
-2.3839837688552965
20
-28.910233439329541
30
0
10
-2.333649840531578
20
-28.994231046720923
30
0
10
-2.2918159379037721
20
-29.082750047276793
30
0
10
-2.2587081280143231
20
-29.174944790499765
30
0
10
-2.2353629088072102
20
-29.269943306245665
30
0
10
-2.2212563430622905
20
-29.355092783307299
30
0
10
-2.2200837909129771
20
-29.420302693367372
30
0
10
-2.2155796646602939
20
-29.480487927764504
30
0
10
-2.2206748711623896
20
-29.524779904537009
30
0
10
-2.2232394840699707
20
-29.589902430220793
30
0
10
-2.2356225450287104
20
-29.659217662943639
30
0
10
-2.258639068141266
20
-29.754245097281338
30
0
10
-2.2918277357165735
20
-29.84644051488695
30
0
10
-2.3336599460217813
20
-29.934933390450841
30
0
10
-2.3839367669855216
20
-30.019012529021442
30
0
10
-2.4426021075221538
20
-30.097292172923598
30
0
10
-2.4955899017471586
20
-30.158110587186059
30
0
10
-2.5448711149133145
20
-30.200820843552879
30
0
10
-2.5921207381316105
20
-30.245769631824796
30
0
10
-2.6594958345742361
20
-30.294048310096429
30
0
10
-2.7433063195330027
20
-30.344384122649956
30
0
10
-2.8274528602150473
20
-30.385347219611649
30
0
10
-2.8896164998492342
20
-30.405213359762548
30
0
10
-2.9508234859974554
20
-30.427632997340677
30
0
10
-3.0191760955781404
20
-30.442652149047348
30
0
10
-3.1157875959808035
20
-30.457753445929193
30
0
10
-3.2136461891286885
20
-30.462328845932525
30
0
10
-3.311461136708445
20
-30.457680538253868
30
0
10
-3.4082021495353079
20
-30.442944265717617
30
0
10
-3.4974289694687775
20
-30.421859009940292
30
0
10
-3.5581026284840749
20
-30.39782444960472
30
0
10
-3.6196988472665304
20
-30.376482133449585
30
0
10
-3.6837922143764694
20
-30.344025491968218
30
0
10
-3.7680664510203954
20
-30.294400638838873
30
0
10
-3.8465803575821482
20
-30.235833938668165
30
0
10
-3.9193241485306816
20
-30.170239589630967
30
0
10
-3.9845179223143075
20
-30.097326190689245
30
0
10
-4.0301924354452119
20
-30.038782685976734
30
0
10
-4.0629458698407426
20
-29.982410566120862
30
0
10
-4.0982123759085916
20
-29.927519760626701
30
0
10
-4.1352376698588671
20
-29.846274548887358
30
0
10
-4.1685097142901641
20
-29.754278920091281
30
0
10
-4.1924040338276276
20
-29.659228617964587
30
0
10
-4.2060358763994312
20
-29.562411974240639
30
0
10
-4.2114874908699509
20
-29.492842445914714
30
0
10
-4.2084007571556974
20
-29.437707393232756
30
0
10
-4.2077373919246899
20
-29.415102262527796
30
0
10
-4.2065125703811646
20
-29.396803379058838
30
0
0
SPLINE
5
102
100
AcDbEntity
8
0
100
AcDbSpline
70
0
71
3
72
64
73
60
74
0
42
0.000000001
43
0.0000000001
44
0.0000000001
40
0
40
0
40
0
40
0
40
0.012486101143074035
40
0.016562022691638988
40
0.026338950636401993
40
0.036116435593265252
40
0.045892392510778091
40
0.055668901082388915
40
0.065443111733568649
40
0.075221428914174215
40
0.077432414183760734
40
0.084999503034476884
40
0.094300908135568851
40
0.094776893497852968
40
0.10454994544867766
40
0.11432696760504714
40
0.12410393783879668
40
0.13387940067454804
40
0.14365544016064344
40
0.15343219866905214
40
0.15705532521004373
40
0.16320733419780051
40
0.17298413662610571
40
0.18276089513454349
40
0.19253624078174778
40
0.2023130505365574
40
0.2068571669331303
40
0.212089374227449
40
0.221867214399949
40
0.23163969174611612
40
0.24141814202407444
40
0.25119397481563732
40
0.2609732860018576
40
0.26545612716945433
40
0.27074749665480796
40
0.28052410716486009
40
0.2902995017843063
40
0.30007739212536277
40
0.30985127816924557
40
0.31962868942071632
40
0.32940610067218706
40
0.33917998671606986
40
0.34895787705712633
40
0.35873327167657254
40
0.36850988218662473
40
0.37828406727674874
40
0.38806342634013047
40
0.39783923704516611
40
0.40098646158591761
40
0.40580148358329665
40
0.40761564600548333
40
0.41738995168565451
40
0.42716937013632983
40
0.43694439419633785
40
0.44672117383843241
40
0.45649651224712223
40
0.46627327075553093
40
0.47313807007006425
40
0.48283610491460954
40
0.48283610491460954
40
0.48283610491460954
40
0.48283610491460954
10
-4.2065125703811646
20
-29.396803379058838
30
0
10
-4.2481133289130391
20
-29.403383940927966
30
0
10
-4.3031805019840581
20
-29.397929811183836
30
0
10
-4.390980019451538
20
-29.395328003635758
30
0
10
-4.4689331981710518
20
-29.382123577907933
30
0
10
-4.5639691664291062
20
-29.358910732012319
30
0
10
-4.6561183378739903
20
-29.325712525495895
30
0
10
-4.7447635999021953
20
-29.284040966740065
30
0
10
-4.8282720963768062
20
-29.233145545826819
30
0
10
-4.887944743288319
20
-29.191333563299327
30
0
10
-4.9356894994687028
20
-29.14693381923497
30
0
10
-4.9847734862457003
20
-29.106212915253643
30
0
10
-5.0213930294350728
20
-29.061166381649095
30
0
10
-5.065313329826453
20
-29.013020060122102
30
0
10
-5.1034223738395834
20
-28.95780746380003
30
0
10
-5.1544390554820829
20
-28.874413368271632
30
0
10
-5.1960981631211105
20
-28.785738612605037
30
0
10
-5.2292824674180372
20
-28.693591970865032
30
0
10
-5.2524768623168763
20
-28.59856299162324
30
0
10
-5.2655124069578889
20
-28.522115630032708
30
0
10
-5.2675456459653329
20
-28.456944729776946
30
0
10
-5.2725997747705584
20
-28.391904484066806
30
0
10
-5.2669247683831006
20
-28.306126978922901
30
0
10
-5.2531208868053767
20
-28.209229947666479
30
0
10
-5.2287565616667102
20
-28.114454906881285
30
0
10
-5.203114792648992
20
-28.03803415787516
30
0
10
-5.1739331752376945
20
-27.979707686018919
30
0
10
-5.1474962005793827
20
-27.920078248922835
30
0
10
-5.1036218252602659
20
-27.849734068985185
30
0
10
-5.045726803847673
20
-27.770893681846541
30
0
10
-4.9799178345465025
20
-27.698288450146947
30
0
10
-4.9070983863346935
20
-27.632967846819941
30
0
10
-4.8434409462711416
20
-27.583813754546384
30
0
10
-4.7867907518540491
20
-27.551502372564119
30
0
10
-4.731705743402987
20
-27.516587219130699
30
0
10
-4.6559607180564679
20
-27.482393994093307
30
0
10
-4.5640007771591122
20
-27.449009018647253
30
0
10
-4.4689560621273081
20
-27.425327236207128
30
0
10
-4.3721142992706081
20
-27.410915707819449
30
0
10
-4.2743076659822234
20
-27.406120549619008
30
0
10
-4.1765071249964461
20
-27.410921474041579
30
0
10
-4.0796470893265564
20
-27.425304177084708
30
0
10
-3.9846693903988495
20
-27.449095521633918
30
0
10
-3.8924596913381948
20
-27.482071128551631
30
0
10
-3.8039790050796625
20
-27.523962180720766
30
0
10
-3.7198812304959903
20
-27.574213280077799
30
0
10
-3.6416466772043417
20
-27.632927431549071
30
0
10
-3.5842589280723738
20
-27.682693867583158
30
0
10
-3.5451013072050248
20
-27.727033783844412
30
0
10
-3.5231939577022207
20
-27.751148440583322
30
0
10
-3.4861627982335874
20
-27.791398188773226
30
0
10
-3.445074871530327
20
-27.849941796432759
30
0
10
-3.3941765583449337
20
-27.933454369194877
30
0
10
-3.3525017156275716
20
-28.022118752176929
30
0
10
-3.319382322565128
20
-28.11427252293575
30
0
10
-3.2959794137348322
20
-28.209285697862946
30
0
10
-3.2818051036530225
20
-28.296475459797122
30
0
10
-3.2799259427072687
20
-28.384337554574039
30
0
10
-3.2752529820405787
20
-28.439392027052758
30
0
10
-3.2814404368400574
20
-28.471715450286865
30
0
0
SPLINE
5
103
100
AcDbEntity
8
0
100
AcDbSpline
70
0
71
3
72
62
73
58
74
0
42
0.000000001
43
0.0000000001
44
0.0000000001
40
0
40
0
40
0
40
0
40
0.016561165007881136
40
0.019346248214772269
40
0.026338006604770425
40
0.036114205348510328
40
0.045889899104303834
40
0.055666627209495237
40
0.065445188142695079
40
0.074379001592215999
40
0.075219671364210108
40
0.084996900771564979
40
0.094770972346044327
40
0.1045485314113852
40
0.11432447048451189
40
0.12410095580188647
40
0.13387640574856735
40
0.13709341335591474
40
0.14365397905748087
40
0.15342917513617643
40
0.16320632386011868
40
0.17298254982921554
40
0.18275848290237429
40
0.1925351311495847
40
0.20231049690877792
40
0.21208749408248551
40
0.21739847001939855
40
0.221863612105167
40
0.231640477081483
40
0.24141516705921795
40
0.25119207626891077
40
0.26096730522775635
40
0.26662055350689184
40
0.27074557511353886
40
0.28052197192834305
40
0.29029754017882786
40
0.3000739670226229
40
0.30985076707124148
40
0.31962507603446405
40
0.32940251290029327
40
0.33917942419330638
40
0.34895585103707233
40
0.34973782980206103
40
0.3587313253371488
40
0.36850785487179399
40
0.37828386457654967
40
0.38805994061674931
40
0.39783649304746665
40
0.40761246371794085
40
0.41738833431783384
40
0.42636236375865411
40
0.42716419672402522
40
0.43694146329822692
40
0.44671843548421236
40
0.45649392524095267
40
0.46627065788513622
40
0.48283476831038691
40
0.48283476831038691
40
0.48283476831038691
40
0.48283476831038691
10
-4.206508994102478
20
-35.896329879760742
30
0
10
-4.2104651889038811
20
-35.841495393992886
30
0
10
-4.2126633004749188
20
-35.776222090566073
30
0
10
-4.1985987568190222
20
-35.689542205665276
30
0
10
-4.1909835543952854
20
-35.624737887435963
30
0
10
-4.1681747389139243
20
-35.538962713412261
30
0
10
-4.1356199398647266
20
-35.446667533947775
30
0
10
-4.0934107488364866
20
-35.358338079874386
30
0
10
-4.0453953029200509
20
-35.276098583819973
30
0
10
-4.0046863021361778
20
-35.225070673453764
30
0
10
-3.9661022769793668
20
-35.17254042112625
30
0
10
-3.9186873236770841
20
-35.123385423747337
30
0
10
-3.8467668232039514
20
-35.057144241703966
30
0
10
-3.7679585955333068
20
-34.998957854732936
30
0
10
-3.6840352726702585
20
-34.948453698449747
30
0
10
-3.5953732855846527
20
-34.907147222392126
30
0
10
-3.5242198353376009
20
-34.879885700816111
30
0
10
-3.4607229139155327
20
-34.865070402636526
30
0
10
-3.3979348861448573
20
-34.847347858982985
30
0
10
-3.3113598227079812
20
-34.835868278659497
30
0
10
-3.2136611525415137
20
-34.830650913553114
30
0
10
-3.1158274576466702
20
-34.835577728489667
30
0
10
-3.0189882381018656
20
-34.849926830893729
30
0
10
-2.9239517354316567
20
-34.873665724855314
30
0
10
-2.8319798916549175
20
-34.907003279249857
30
0
10
-2.7561846915383974
20
-34.941249729753224
30
0
10
-2.701090613034637
20
-34.976162344937094
30
0
10
-2.6444272407555829
20
-35.008453812930696
30
0
10
-2.5808925416387969
20
-35.057629220263451
30
0
10
-2.5079309146899593
20
-35.122839435015479
30
0
10
-2.4426634902893274
20
-35.19576488382323
30
0
10
-2.3912454635159954
20
-35.262565799151339
30
0
10
-2.3592093858409595
20
-35.319392740258422
30
0
10
-2.3245562234596751
20
-35.374641527188359
30
0
10
-2.2921569971964022
20
-35.446935370880595
30
0
10
-2.2587066344348159
20
-35.538854449763932
30
0
10
-2.2350351937060537
20
-35.633910709743567
30
0
10
-2.2206222128572204
20
-35.730752168167086
30
0
10
-2.2158751904761598
20
-35.828539141349822
30
0
10
-2.2204833738418333
20
-35.926410497447094
30
0
10
-2.2356238854400505
20
-36.023009270647286
30
0
10
-2.2500826757454999
20
-36.089567036309589
30
0
10
-2.272316107164889
20
-36.150835912912747
30
0
10
-2.2921334846563921
20
-36.213025300731104
30
0
10
-2.3338638497710633
20
-36.298846240008316
30
0
10
-2.383941982289965
20
-36.382925289052558
30
0
10
-2.4423592831013829
20
-36.461527881620782
30
0
10
-2.5080443733643665
20
-36.534169372283642
30
0
10
-2.5807615834193021
20
-36.599660064970379
30
0
10
-2.6567175861545471
20
-36.657317956593999
30
0
10
-2.7138458565429997
20
-36.688886468684629
30
0
10
-2.7696164283515117
20
-36.722626375162129
30
0
10
-2.8321278935113217
20
-36.749833617732065
30
0
10
-2.9238963744566671
20
-36.783576681556298
30
0
10
-3.0190105412586812
20
-36.807149615426304
30
0
10
-3.1382343700033708
20
-36.824812663422925
30
0
10
-3.2264178724597237
20
-36.826625019481213
30
0
10
-3.2814398407936096
20
-36.821432113647461
30
0
0
SPLINE
5
104
100
AcDbEntity
8
0
100
AcDbSpline
70
0
71
3
72
62
73
58
74
0
42
0.000000001
43
0.0000000001
44
0.0000000001
40
0
40
0
40
0
40
0
40
0.016563069347386612
40
0.026338176986857829
40
0.036115134358960431
40
0.037958495692958755
40
0.043623375272490078
40
0.045892138492223136
40
0.05566543822573683
40
0.065444038792310422
40
0.075220259535301703
40
0.084995785091950701
40
0.094772716385598324
40
0.10455093946315898
40
0.11432261451688991
40
0.12410250963205327
40
0.13387798456433442
40
0.13567611112717193
40
0.14365581703214889
40
0.15343253507630217
40
0.16124672649565383
40
0.16320689845732314
40
0.17298126183363069
40
0.1827581897783937
40
0.19253567473525696
40
0.2023116316527698
40
0.21208814022440969
40
0.221862473465881
40
0.23164064866068898
40
0.23518897735405511
40
0.24141760204247148
40
0.25119516913502221
40
0.26096956190222859
40
0.27074658405859808
40
0.28052290773833849
40
0.2902981460898893
40
0.3000743584763661
40
0.30984992138547729
40
0.31962648568522722
40
0.32940352624210179
40
0.3391786338815439
40
0.3489555984909623
40
0.35873083684251311
40
0.36476212995624935
40
0.36787388926151854
40
0.36850845364595852
40
0.37828424882423034
40
0.38805749231406594
40
0.39783576594967462
40
0.40761271932731802
40
0.41739117849747265
40
0.4271662473705547
40
0.43694214441133195
40
0.44671810132884476
40
0.45649593374149117
40
0.46626957488574239
40
0.48283508443248341
40
0.48283508443248341
40
0.48283508443248341
40
0.48283508443248341
10
-3.2814398407936096
20
-36.821432113647461
30
0
10
-3.2762859440121557
20
-36.876422166943271
30
0
10
-3.2778419162037848
20
-36.964702995531866
30
0
10
-3.2961741894820866
20
-37.0836955599394
30
0
10
-3.3117837053438404
20
-37.153597571695812
30
0
10
-3.3315993899836025
20
-37.207716118831712
30
0
10
-3.3425926079485797
20
-37.238387494108231
30
0
10
-3.36196385080674
20
-37.294161830169045
30
0
10
-3.3947676414185306
20
-37.359409513267678
30
0
10
-3.4445484102125894
20
-37.443593026748502
30
0
10
-3.5030186849630769
20
-37.522204709680821
30
0
10
-3.5687329284154496
20
-37.594773772867967
30
0
10
-3.6413033485821353
20
-37.660543658456277
30
0
10
-3.7199831256176763
20
-37.718785574834349
30
0
10
-3.8038984887179712
20
-37.769358589217148
30
0
10
-3.8926014630046559
20
-37.810517218724165
30
0
10
-3.959231631971432
20
-37.83641596923129
30
0
10
-4.0226140942391106
20
-37.851677712673407
30
0
10
-4.0853718761194422
20
-37.869388442845604
30
0
10
-4.1700629290236852
20
-37.881972102348826
30
0
10
-4.235248501717443
20
-37.883239757630214
30
0
10
-4.3003140729576286
20
-37.887106524535035
30
0
10
-4.3721225399758836
20
-37.881658287717144
30
0
10
-4.4689493358676078
20
-37.867971620319082
30
0
10
-4.5639637412999337
20
-37.844033117951689
30
0
10
-4.6561239024191057
20
-37.811035219497313
30
0
10
-4.7447471377407959
20
-37.769287828379525
30
0
10
-4.8283341410410401
20
-37.718494709594211
30
0
10
-4.8914386488262664
20
-37.673842494141311
30
0
10
-4.938970941780001
20
-37.629193887324469
30
0
10
-4.9885339645355895
20
-37.586768394983061
30
0
10
-5.045443839393946
20
-37.521988836993494
30
0
10
-5.1040019979198483
20
-37.44361039646077
30
0
10
-5.1542740746373275
20
-37.359548301368811
30
0
10
-5.1961695453792878
20
-37.271057624102305
30
0
10
-5.229165201854693
20
-37.178861372186404
30
0
10
-5.2528766451217423
20
-37.083863714672027
30
0
10
-5.2673002127955248
20
-36.987017784239647
30
0
10
-5.2721437732171168
20
-36.889209816769124
30
0
10
-5.2672693289886592
20
-36.791422031443815
30
0
10
-5.2530015516298292
20
-36.694517447449485
30
0
10
-5.2288779543590804
20
-36.599697629310405
30
0
10
-5.201242923399569
20
-36.518735385614207
30
0
10
-5.1729498927852289
20
-36.46231085012748
30
0
10
-5.1591028921354676
20
-36.432812505991116
30
0
10
-5.1399386200397821
20
-36.392010992055383
30
0
10
-5.1033489501637721
20
-36.335171368095004
30
0
10
-5.0458171120950759
20
-36.256122684927703
30
0
10
-4.9798350255905275
20
-36.183687422925431
30
0
10
-4.9073248315983076
20
-36.117888711827227
30
0
10
-4.8286330085044407
20
-36.05959460500425
30
0
10
-4.7446740804847067
20
-36.009205161713268
30
0
10
-4.6561418305446285
20
-35.96737646300469
30
0
10
-4.5639548731728254
20
-35.934368808304107
30
0
10
-4.4689689663370737
20
-35.910554495152837
30
0
10
-4.3496972160314833
20
-35.893011057513803
30
0
10
-4.2615421194573724
20
-35.891130633488679
30
0
10
-4.206508994102478
20
-35.896329879760742
30
0
0
SPLINE
5
105
100
AcDbEntity
8
0
100
AcDbSpline
70
2
71
3
72
272
73
268
74
0
42
0.000000001
43
0.0000000001
44
0.0000000001
40
0
40
0
40
0
40
0
40
0.023369591052047223
40
0.023369591052047223
40
0.023369591052047223
40
0.025034120296478328
40
0.025034120296478328
40
0.025034120296478328
40
0.046730489904041064
40
0.046730489904041064
40
0.046730489904041064
40
0.070102178460953873
40
0.070102178460953873
40
0.070102178460953873
40
0.08524006876404569
40
0.08524006876404569
40
0.08524006876404569
40
0.093472670897404783
40
0.093472670897404783
40
0.093472670897404783
40
0.11683362627187562
40
0.11683362627187562
40
0.11683362627187562
40
0.12330695882921931
40
0.12330695882921931
40
0.12330695882921931
40
0.14020618557335432
40
0.14020618557335432
40
0.14020618557335432
40
0.16357399429935948
40
0.16357399429935948
40
0.16357399429935948
40
0.17442718379980152
40
0.17442718379980152
40
0.17442718379980152
40
0.18693864166886709
40
0.18693864166886709
40
0.18693864166886709
40
0.21030858025473659
40
0.21030858025473659
40
0.21030858025473659
40
0.23363192187418574
40
0.23363192187418574
40
0.23363192187418574
40
0.25704485641092689
40
0.25704485641092689
40
0.25704485641092689
40
0.25821903891551384
40
0.25821903891551384
40
0.25821903891551384
40
0.28040889582495376
40
0.28040889582495376
40
0.28040889582495376
40
0.30377815648159157
40
0.30377815648159157
40
0.30377815648159157
40
0.32714575357448233
40
0.32714575357448233
40
0.32714575357448233
40
0.35051346185148552
40
0.35051346185148552
40
0.35051346185148552
40
0.37388054443814528
40
0.37388054443814528
40
0.37388054443814528
40
0.37649565464322671
40
0.37649565464322671
40
0.37649565464322671
40
0.39724857958079268
40
0.39724857958079268
40
0.39724857958079268
40
0.42061629154273317
40
0.42061629154273317
40
0.42061629154273317
40
0.44398388863562394
40
0.44398388863562394
40
0.44398388863562394
40
0.46735314227764185
40
0.46735314227764185
40
0.46735314227764185
40
0.49071718161855615
40
0.49071718161855615
40
0.49071718161855615
40
0.49276100228172315
40
0.49276100228172315
40
0.49276100228172315
40
0.5140882441627046
40
0.5140882441627046
40
0.5140882441627046
40
0.51902864917430591
40
0.51902864917430591
40
0.51902864917430591
40
0.53745346401352179
40
0.53745346401352179
40
0.53745346401352179
40
0.56082340259939112
40
0.56082340259939112
40
0.56082340259939112
40
0.57650084035159865
40
0.57650084035159865
40
0.57650084035159865
40
0.58418746947596889
40
0.58418746947596889
40
0.58418746947596889
40
0.60755578415226097
40
0.60755578415226097
40
0.60755578415226097
40
0.62756896593848266
40
0.62756896593848266
40
0.62756896593848266
40
0.63092835111892709
40
0.63092835111892709
40
0.63092835111892709
40
0.65428930012055431
40
0.65428930012055431
40
0.65428930012055431
40
0.6654987321890613
40
0.6654987321890613
40
0.6654987321890613
40
0.67765979757663553
40
0.67765979757663553
40
0.67765979757663553
40
0.70103127617720917
40
0.70103127617720917
40
0.70103127617720917
40
0.71387402848364967
40
0.71387402848364967
40
0.71387402848364967
40
0.72439230186976133
40
0.72439230186976133
40
0.72439230186976133
40
0.72567773371536393
40
0.72567773371536393
40
0.72567773371536393
40
0.74776185051210065
40
0.74776185051210065
40
0.74776185051210065
40
0.75381686429624595
40
0.75381686429624595
40
0.75381686429624595
40
0.77113116102286017
40
0.77113116102286017
40
0.77113116102286017
40
0.78387282762807542
40
0.78387282762807542
40
0.78387282762807542
40
0.78891103149220099
40
0.78891103149220099
40
0.78891103149220099
40
0.79449973350413572
40
0.79449973350413572
40
0.79449973350413572
40
0.81786381129766272
40
0.81786381129766272
40
0.81786381129766272
40
0.84123453323848574
40
0.84123453323848574
40
0.84123453323848574
40
0.86197661299530615
40
0.86197661299530615
40
0.86197661299530615
40
0.86460216340155782
40
0.86460216340155782
40
0.86460216340155782
40
0.88796818631668528
40
0.88796818631668528
40
0.88796818631668528
40
0.91133650099297725
40
0.91133650099297725
40
0.91133650099297725
40
0.92645688912728463
40
0.92645688912728463
40
0.92645688912728463
40
0.93470622079422538
40
0.93470622079422538
40
0.93470622079422538
40
0.95807119583910261
40
0.95807119583910261
40
0.95807119583910261
40
0.98143996615118323
40
0.98143996615118323
40
0.98143996615118323
40
0.99262633387682253
40
0.99262633387682253
40
0.99262633387682253
40
1.0048078413154853
40
1.0048078413154853
40
1.0048078413154853
40
1.0281752437647338
40
1.0281752437647338
40
1.0281752437647338
40
1.0515418467251461
40
1.0515418467251461
40
1.0515418467251461
40
1.0749109503747061
40
1.0749109503747061
40
1.0749109503747061
40
1.0982777881485684
40
1.0982777881485684
40
1.0982777881485684
40
1.1216458115524153
40
1.1216458115524153
40
1.1216458115524153
40
1.1242787478952154
40
1.1242787478952154
40
1.1242787478952154
40
1.1450128824912191
40
1.1450128824912191
40
1.1450128824912191
40
1.1683797165800063
40
1.1683797165800063
40
1.1683797165800063
40
1.1917488202295661
40
1.1917488202295661
40
1.1917488202295661
40
1.2151154302053939
40
1.2151154302053939
40
1.2151154302053939
40
1.2384828326546424
40
1.2384828326546424
40
1.2384828326546424
40
1.2557026779384195
40
1.2557026779384195
40
1.2557026779384195
40
1.2618507014303582
40
1.2618507014303582
40
1.2618507014303582
40
1.2852194717424388
40
1.2852194717424388
40
1.2852194717424388
40
1.308584446787316
40
1.308584446787316
40
1.308584446787316
40
1.319548643512058
40
1.319548643512058
40
1.319548643512058
40
1.3319547469481634
40
1.3319547469481634
40
1.3319547469481634
40
1.3553225556741686
40
1.3553225556741686
40
1.3553225556741686
40
1.3786885709278085
40
1.3786885709278085
40
1.3786885709278085
40
1.3841421684275057
40
1.3841421684275057
40
1.3841421684275057
40
1.4020562074617957
40
1.4020562074617957
40
1.4020562074617957
40
1.4254269243823539
40
1.4254269243823539
40
1.4254269243823539
40
1.4487912121987254
40
1.4487912121987254
40
1.4487912121987254
40
1.4594518066482571
40
1.4594518066482571
40
1.4594518066482571
40
1.4623458062997399
40
1.4623458062997399
40
1.4623458062997399
40
1.4721596578792893
40
1.4721596578792893
40
1.4721596578792893
40
1.4955290108001913
40
1.4955290108001913
40
1.4955290108001913
40
1.4955290108001913
10
-2.4128279089927651
20
-32.646567821502693
30
0
10
-2.4131872109724712
20
-32.568446807798857
30
0
10
-2.4123643499202085
20
-32.490252436901635
30
0
10
-2.4013561010360722
20
-32.413153648376465
30
0
10
-2.400572024320446
20
-32.40766218778888
30
0
10
-2.3997362752558473
20
-32.402176285292512
30
0
10
-2.3989140987396245
20
-32.396688461303718
30
0
10
-2.3881974077362602
20
-32.325157211251764
30
0
10
-2.3797866815670501
20
-32.253299501212837
30
0
10
-2.3670753836631766
20
-32.182073593139648
30
0
10
-2.3533825631066936
20
-32.105347865712446
30
0
10
-2.3346993784207313
20
-32.029355278449231
30
0
10
-2.3102945089340201
20
-31.955358982086182
30
0
10
-2.2944874252373721
20
-31.907431430148666
30
0
10
-2.2762799921789649
20
-31.860341358036575
30
0
10
-2.2593006491661094
20
-31.812827587127686
30
0
10
-2.2500665899470302
20
-31.786987660696951
30
0
10
-2.2411957540766876
20
-31.761022419924331
30
0
10
-2.2315688431262988
20
-31.735312938690186
30
0
10
-2.2042513761258289
20
-31.662359328873677
30
0
10
-2.1708459480194717
20
-31.591465109934866
30
0
10
-2.1316599845886222
20
-31.524145603179932
30
0
10
-2.1208015342897522
20
-31.505491333787454
30
0
10
-2.109499227375164
20
-31.487111547563586
30
0
10
-2.0983871817588788
20
-31.468617916107178
30
0
10
-2.06937817028028
20
-31.42033859961359
30
0
10
-2.0416658252831836
20
-31.371283406478678
30
0
10
-2.0115227997303
20
-31.323659420013428
30
0
10
-1.9698418124160528
20
-31.257806217181169
30
0
10
-1.9235132095218961
20
-31.194689572388235
30
0
10
-1.8723282217979436
20
-31.135962009429932
30
0
10
-1.8485553307297438
20
-31.108685965828275
30
0
10
-1.8237348483506277
20
-31.082356709632073
30
0
10
-1.7994314432144165
20
-31.055555343627926
30
0
10
-1.7714146994337843
20
-31.024658973341516
30
0
10
-1.7440851134649904
20
-30.993135203673248
30
0
10
-1.7153944075107579
20
-30.962865352630615
30
0
10
-1.6618035276027134
20
-30.906324814567604
30
0
10
-1.6034637182486349
20
-30.85415918183838
30
0
10
-1.5422548353672016
20
-30.805900096893311
30
0
10
-1.4811679959498436
20
-30.757737235006442
30
0
10
-1.4172235128033712
20
-30.71346535802164
30
0
10
-1.3548998534679402
20
-30.666990280151367
30
0
10
-1.2923367876810405
20
-30.620336675640974
30
0
10
-1.2246048174781925
20
-30.580098218476294
30
0
10
-1.154129505157468
20
-30.54654598236084
30
0
10
-1.1505950964910774
20
-30.544863303558888
30
0
10
-1.1470538186337573
20
-30.543197402518253
30
0
10
-1.1435154080390908
20
-30.541524887084961
30
0
10
-1.076646054701111
20
-30.509917468307563
30
0
10
-1.0108007138943333
20
-30.47594778914856
30
0
10
-0.94289444386958987
20
-30.446708202362061
30
0
10
-0.87137891626142583
20
-30.415914514602164
30
0
10
-0.79757755817981846
20
-30.390367095948953
30
0
10
-0.72287604212760814
20
-30.367941856384277
30
0
10
-0.6481798437761066
20
-30.345518213182281
30
0
10
-0.57258361560669713
20
-30.326216304573883
30
0
10
-0.49619905650615603
20
-30.311179161071781
30
0
10
-0.41981413396433442
20
-30.296141946022249
30
0
10
-0.34264087298953316
20
-30.285369536663019
30
0
10
-0.26505321264267034
20
-30.276877880096436
30
0
10
-0.18746762977166739
20
-30.268386450901211
30
0
10
-0.10946766972009994
20
-30.26217565236206
30
0
10
-0.031664315611124691
20
-30.265402793884277
30
0
10
-0.02295700931538272
20
-30.265763957101662
30
0
10
-0.014252165470909029
20
-30.26624332868635
30
0
10
-0.0055445730686194518
20
-30.266683101654053
30
0
10
0.063556916864960136
20
-30.270173040766597
30
0
10
0.13283150139728186
20
-30.271169196893336
30
0
10
0.201734118163585
20
-30.276877880096432
30
0
10
0.27931819399206842
20
-30.283305834959336
30
0
10
0.3564306641076217
20
-30.295708648115294
30
0
10
0.43287999927997522
20
-30.311179161071774
30
0
10
0.50932895864906247
20
-30.326649597979593
30
0
10
0.58511478959450081
20
-30.345187704528122
30
0
10
0.65955698490142756
20
-30.367941856384277
30
0
10
0.73400445747983267
20
-30.3906976213019
30
0
10
0.80710810390999344
20
-30.417670029306528
30
0
10
0.87957531213760287
20
-30.446708202362057
30
0
10
0.95202635100654909
20
-30.475739896230017
30
0
10
1.0238412356537883
20
-30.506836433397638
30
0
10
1.0908103734254833
20
-30.54654598236084
30
0
10
1.0966686458575354
20
-30.550019662383022
30
0
10
1.1024898373749519
20
-30.553559251410224
30
0
10
1.1083380877971643
20
-30.557057857513428
30
0
10
1.1693645044406882
20
-30.593565766428334
30
0
10
1.233337336868582
20
-30.625611087700662
30
0
10
1.2912450730800624
20
-30.666739940643311
30
0
10
1.3046592628654186
20
-30.676267341904722
30
0
10
1.3177479958034795
20
-30.68628217114324
30
0
10
1.3309299945831294
20
-30.696165561676025
30
0
10
1.3800911233074928
20
-30.73302481514262
30
0
10
1.4305494425647418
20
-30.768055949741413
30
0
10
1.4789357781410213
20
-30.805900096893307
30
0
10
1.5403087526148873
20
-30.853901414816569
30
0
10
1.5983482673924923
20
-30.906428378408251
30
0
10
1.652075350284576
20
-30.962865352630615
30
0
10
1.6881175073725554
20
-31.000725407206417
30
0
10
1.7222189695075738
20
-31.040345057782432
30
0
10
1.7573715746402736
20
-31.079015731811523
30
0
10
1.7746068552187244
20
-31.097975917394734
30
0
10
1.7920948231382983
20
-31.116707975728872
30
0
10
1.8090005218982692
20
-31.135962009429932
30
0
10
1.8603959622211386
20
-31.194496681915656
30
0
10
1.9064098607417945
20
-31.257855639202397
30
0
10
1.948203593492509
20
-31.323659420013431
30
0
10
1.9839967425771281
20
-31.380015346653188
30
0
10
2.0166945613073115
20
-31.438164457939834
30
0
10
2.051071673631669
20
-31.495330333709717
30
0
10
2.0568421684446645
20
-31.50492611902461
30
0
10
2.0626599799039322
20
-31.514494200186213
30
0
10
2.0683409273624438
20
-31.524145603179932
30
0
10
2.1078458714908366
20
-31.591260840349804
30
0
10
2.1407324525255786
20
-31.662405289990019
30
0
10
2.1682496368885036
20
-31.735312938690186
30
0
10
2.1814533816854849
20
-31.77029667737829
30
0
10
2.193420860994677
20
-31.805686380140045
30
0
10
2.2060091793537118
20
-31.840856075286865
30
0
10
2.2196661926393286
20
-31.879011528634337
30
0
10
2.2340539327555979
20
-31.916908033278094
30
0
10
2.2469754517078395
20
-31.955358982086182
30
0
10
2.2718083914260805
20
-32.029255100444217
30
0
10
2.2912259551586884
20
-32.10519901601495
30
0
10
2.3037476837635067
20
-32.182073593139648
30
0
10
2.3106284405041695
20
-32.224316583818492
30
0
10
2.3154269576307263
20
-32.266840593448492
30
0
10
2.3225980997085589
20
-32.309110164642341
30
0
10
2.3284712981527482
20
-32.343729138451216
30
0
10
2.3359359788107734
20
-32.378177442957551
30
0
10
2.3380370438098907
20
-32.413153648376465
30
0
10
2.3382938136960121
20
-32.417428069342094
30
0
10
2.3384704772492788
20
-32.421710374579995
30
0
10
2.3386676609516139
20
-32.425992488861084
30
0
10
2.3420553379627891
20
-32.499560537018603
30
0
10
2.3514998043583195
20
-32.573072221784194
30
0
10
2.3495002090930965
20
-32.646567821502686
30
0
10
2.3489519609107004
20
-32.666718813886284
30
0
10
2.3475434118015537
20
-32.686868597085464
30
0
10
2.3465302586555508
20
-32.707045078277588
30
0
10
2.3436331497760747
20
-32.764739675633258
30
0
10
2.3439690853106776
20
-32.822652575159275
30
0
10
2.3380370438098916
20
-32.879979610443115
30
0
10
2.3336716285530814
20
-32.922166826163483
30
0
10
2.3259117574876913
20
-32.96403676403348
30
0
10
2.3193413019180307
20
-33.006017208099365
30
0
10
2.3167432670089569
20
-33.022616766231252
30
0
10
2.3143311976893131
20
-33.039233602051155
30
0
10
2.3119480907917032
20
-33.055853843688965
30
0
10
2.3093045942853072
20
-33.074290092079281
30
0
10
2.3066967351214913
20
-33.092730531220617
30
0
10
2.3037476837635049
20
-33.111135959625244
30
0
10
2.2914189059546421
20
-33.188081529482162
30
0
10
2.2731269955492595
20
-33.26441520472693
30
0
10
2.2469754517078426
20
-33.337774276733406
30
0
10
2.2208164710349436
20
-33.411154210187327
30
0
10
2.1982042857187962
20
-33.486019411944675
30
0
10
2.1682496368885067
20
-33.557822704315186
30
0
10
2.1416641631192896
20
-33.621549859211065
30
0
10
2.1090943167531591
20
-33.682786670775528
30
0
10
2.07956686615944
20
-33.7453293800354
30
0
10
2.0758292559096088
20
-33.753246090299299
30
0
10
2.0721403931016491
20
-33.761183724590424
30
0
10
2.0683409273624429
20
-33.769063949584961
30
0
10
2.0345276730763553
20
-33.839193823062274
30
0
10
1.9919545921256478
20
-33.904776841574737
30
0
10
1.948203593492509
20
-33.969473838806152
30
0
10
1.9044483037209106
20
-34.034177181578961
30
0
10
1.8595148651930353
20
-34.097994329258619
30
0
10
1.8090005218982708
20
-34.157171249389648
30
0
10
1.7763153887362555
20
-34.195461473283366
30
0
10
1.7412937021990307
20
-34.231808976454658
30
0
10
1.7074693739414211
20
-34.269216060638428
30
0
10
1.6890156080903049
20
-34.289624494693427
30
0
10
1.6709182406612104
20
-34.310348317222605
30
0
10
1.652075350284576
20
-34.330344200134277
30
0
10
1.5987057342721924
20
-34.386979491827532
30
0
10
1.5393553891912224
20
-34.437775111321642
30
0
10
1.4789357781410213
20
-34.487235546112061
30
0
10
1.4185063528895283
20
-34.536704014960542
30
0
10
1.3570073142702177
20
-34.584836865311217
30
0
10
1.2912450730800624
20
-34.626455307006836
30
0
10
1.2597654272711012
20
-34.646377587330441
30
0
10
1.2273088987309733
20
-34.664807136963184
30
0
10
1.1952975392341605
20
-34.683966636657715
30
0
10
1.1604384479369589
20
-34.704830566198936
30
0
10
1.1261072532125089
20
-34.726560095317865
30
0
10
1.0908103734254833
20
-34.74658727645874
30
0
10
1.023101479486104
20
-34.785004787920208
30
0
10
0.95183910190219212
20
-34.81715807729546
30
0
10
0.87957531213760309
20
-34.846503734588623
30
0
10
0.80731399479558263
20
-34.875848387853821
30
0
10
0.7340513337960477
20
-34.902385601153469
30
0
10
0.65955698490142756
20
-34.925191402435303
30
0
10
0.58505466363657588
20
-34.947999644389391
30
0
10
0.50932039083255021
20
-34.96707567561301
30
0
10
0.43287999927997345
20
-34.982016086578369
30
0
10
0.35644701941199286
20
-34.996955048916746
30
0
10
0.27930805771981815
20
-35.007759192940078
30
0
10
0.2017341181635833
20
-35.016257762908936
30
0
10
0.12415624251682325
20
-35.024756764094008
30
0
10
0.04614334486345488
20
-35.030949957249675
30
0
10
-0.03166431561112644
20
-35.027730464935296
30
0
10
-0.040431108312046736
20
-35.027367716311957
30
0
10
-0.049195295502653044
20
-35.026885472530779
30
0
10
-0.057962182909252633
20
-35.026443004608154
30
0
10
-0.12700062509320897
20
-35.022958609899078
30
0
10
-0.19620651899753416
20
-35.021940883027114
30
0
10
-0.26505321264267212
20
-35.016257762908928
30
0
10
-0.34264165794376328
20
-35.009853033341209
30
0
10
-0.41977389349303923
20
-34.997522924154332
30
0
10
-0.49619905650615942
20
-34.982016086578369
30
0
10
-0.57263164249970377
20
-34.966507742862973
30
0
10
-0.64835701859813188
20
-34.947822053633516
30
0
10
-0.72287604212760992
20
-34.92519140243531
30
0
10
-0.79738711387022043
20
-34.902563166111932
30
0
10
-0.87069209048543805
20
-34.875990809694024
30
0
10
-0.94289444386959165
20
-34.84650373458863
30
0
10
-1.0150992459806261
20
-34.817015659435583
30
0
10
-1.0862013500688814
20
-34.784612667887615
30
0
10
-1.1541295051574716
20
-34.74658727645874
30
0
10
-1.204186944086699
20
-34.718565704155942
30
0
10
-1.2525207787607884
20
-34.687490903096219
30
0
10
-1.3018321990966801
20
-34.658064842224121
30
0
10
-1.3194379188723127
20
-34.647558817893731
30
0
10
-1.3371682528008353
20
-34.637262960682037
30
0
10
-1.3545641303062443
20
-34.626455307006836
30
0
10
-1.4206862370831665
20
-34.585375181551953
30
0
10
-1.4819761958963134
20
-34.536900740819753
30
0
10
-1.5422548353672032
20
-34.487235546112061
30
0
10
-1.6025236851255666
20
-34.437578417412212
30
0
10
-1.6617815440070056
20
-34.386730921480591
30
0
10
-1.7153944075107563
20
-34.330344200134277
30
0
10
-1.7405526617482563
20
-34.303884291475406
30
0
10
-1.7644678717438826
20
-34.276204629425166
30
0
10
-1.7890182137489308
20
-34.249098300933838
30
0
10
-1.8167971828747842
20
-34.218427206326638
30
0
10
-1.8453893216448183
20
-34.188490159821534
30
0
10
-1.872328221797942
20
-34.157171249389648
30
0
10
-1.9230696225374453
20
-34.098179776986697
30
0
10
-1.9679455815585525
20
-34.0342856594106
30
0
10
-2.0115227997302982
20
-33.969473838806152
30
0
10
-2.0550966733635176
20
-33.904666992489645
30
0
10
-2.0973720054956728
20
-33.838942584006247
30
0
10
-2.1316599845886222
20
-33.769063949584961
30
0
10
-2.1396627542102777
20
-33.75275436740651
30
0
10
-2.1472304131627493
20
-33.736218483971697
30
0
10
-2.1549765765666953
20
-33.71976375579834
30
0
10
-2.1804212621328696
20
-33.6657130777253
30
0
10
-2.2077920081757183
20
-33.612538063761924
30
0
10
-2.2315688431262961
20
-33.557822704315186
30
0
10
-2.2625881837581394
20
-33.48644085824526
30
0
10
-2.2874907231770885
20
-33.412437359363409
30
0
10
-2.3102945089340174
20
-33.337774276733391
30
0
10
-2.3330920215451565
20
-33.263131733342249
30
0
10
-2.3537919350373806
20
-33.187829969045836
30
0
10
-2.3670753836631757
20
-33.111135959625237
30
0
10
-2.373136319900726
20
-33.07614222313444
30
0
10
-2.3776532298398556
20
-33.040858636543298
30
0
10
-2.3827147483825675
20
-33.00568342208863
30
0
10
-2.3840887836643638
20
-32.996134511954708
30
0
10
-2.3855029535150614
20
-32.986593588233333
30
0
10
-2.3869600892066938
20
-32.977056503295898
30
0
10
-2.3919013867640793
20
-32.944715263714329
30
0
10
-2.3973367734959226
20
-32.912418168540192
30
0
10
-2.4013561010360709
20
-32.879979610443122
30
0
10
-2.4109271734156605
20
-32.802734901139047
30
0
10
-2.4124686106742694
20
-32.724688039170069
30
0
10
-2.4128279089927651
20
-32.646567821502693
30
0
0
SPLINE
5
106
100
AcDbEntity
8
0
100
AcDbSpline
70
2
71
3
72
221
73
217
74
0
42
0.000000001
43
0.0000000001
44
0.0000000001
40
0
40
0
40
0
40
0
40
0.0048447640634841013
40
0.0048447640634841013
40
0.0048447640634841013
40
0.0092885037084523732
40
0.0092885037084523732
40
0.0092885037084523732
40
0.018575835902669129
40
0.018575835902669129
40
0.018575835902669129
40
0.027863411540387229
40
0.027863411540387229
40
0.027863411540387229
40
0.037149698272354897
40
0.037149698272354897
40
0.037149698272354897
40
0.046439436041868377
40
0.046439436041868377
40
0.046439436041868377
40
0.055726234567312759
40
0.055726234567312759
40
0.055726234567312759
40
0.065012447889857744
40
0.065012447889857744
40
0.065012447889857744
40
0.074301245007118447
40
0.074301245007118447
40
0.074301245007118447
40
0.083587980459146838
40
0.083587980459146838
40
0.083587980459146838
40
0.092875260939654522
40
0.092875260939654522
40
0.092875260939654522
40
0.10216340277195615
40
0.10216340277195615
40
0.10216340277195615
40
0.1079919924468839
40
0.1079919924468839
40
0.1079919924468839
40
0.11145019717731391
40
0.11145019717731391
40
0.11145019717731391
40
0.12073850617462925
40
0.12073850617462925
40
0.12073850617462925
40
0.13002670546616882
40
0.13002670546616882
40
0.13002670546616882
40
0.13931301757890918
40
0.13931301757890918
40
0.13931301757890918
40
0.1486014583614719
40
0.1486014583614719
40
0.1486014583614719
40
0.1499418917031955
40
0.1499418917031955
40
0.1499418917031955
40
0.15788871103676597
40
0.15788871103676597
40
0.15788871103676597
40
0.16717591750738536
40
0.16717591750738536
40
0.16717591750738536
40
0.17646319170848768
40
0.17646319170848768
40
0.17646319170848768
40
0.18575150070580301
40
0.18575150070580301
40
0.18575150070580301
40
0.190716988806789
40
0.190716988806789
40
0.190716988806789
40
0.19503898212783552
40
0.19503898212783552
40
0.19503898212783552
40
0.20432704727326853
40
0.20432704727326853
40
0.20432704727326853
40
0.21361371435789925
40
0.21361371435789925
40
0.21361371435789925
40
0.22290107916935686
40
0.22290107916935686
40
0.22290107916935686
40
0.23218956110580952
40
0.23218956110580952
40
0.23218956110580952
40
0.24147651125273525
40
0.24147651125273525
40
0.24147651125273525
40
0.25076291520993249
40
0.25076291520993249
40
0.25076291520993249
40
0.26005241092296227
40
0.26005241092296227
40
0.26005241092296227
40
0.26933853700093185
40
0.26933853700093185
40
0.26933853700093185
40
0.2786263443584025
40
0.2786263443584025
40
0.2786263443584025
40
0.28791364812138714
40
0.28791364812138714
40
0.28791364812138714
40
0.29387747855643415
40
0.29387747855643415
40
0.29387747855643415
40
0.29720217557508427
40
0.29720217557508427
40
0.29720217557508427
40
0.30649074034134111
40
0.30649074034134111
40
0.30649074034134111
40
0.31577718355872486
40
0.31577718355872486
40
0.31577718355872486
40
0.32506457364599084
40
0.32506457364599084
40
0.32506457364599084
40
0.3343522072550949
40
0.3343522072550949
40
0.3343522072550949
40
0.34363916964379632
40
0.34363916964379632
40
0.34363916964379632
40
0.35292739578399696
40
0.35292739578399696
40
0.35292739578399696
40
0.36221636429722176
40
0.36221636429722176
40
0.36221636429722176
40
0.37150129467581167
40
0.37150129467581167
40
0.37150129467581167
40
0.38078946003091219
40
0.38078946003091219
40
0.38078946003091219
40
0.39007555902310093
40
0.39007555902310093
40
0.39007555902310093
40
0.39936386527636586
40
0.39936386527636586
40
0.39936386527636586
40
0.40687858578970504
40
0.40687858578970504
40
0.40687858578970504
40
0.40865232289201497
40
0.40865232289201497
40
0.40865232289201497
40
0.41793966788336884
40
0.41793966788336884
40
0.41793966788336884
40
0.42722694208447098
40
0.42722694208447098
40
0.42722694208447098
40
0.4365144454522164
40
0.4365144454522164
40
0.4365144454522164
40
0.4444608334147066
40
0.4444608334147066
40
0.4444608334147066
40
0.44580166172089281
40
0.44580166172089281
40
0.44580166172089281
40
0.45508906680350325
40
0.45508906680350325
40
0.45508906680350325
40
0.46437624834464863
40
0.46437624834464863
40
0.46437624834464863
40
0.47366404225641506
40
0.47366404225641506
40
0.47366404225641506
40
0.48295088356574722
40
0.48295088356574722
40
0.48295088356574722
40
0.48616621914409547
40
0.48616621914409547
40
0.48616621914409547
40
0.49223847025731604
40
0.49223847025731604
40
0.49223847025731604
40
0.50152701614283968
40
0.50152701614283968
40
0.50152701614283968
40
0.51081403678971693
40
0.51081403678971693
40
0.51081403678971693
40
0.52010157283963632
40
0.52010157283963632
40
0.52010157283963632
40
0.52938720387296401
40
0.52938720387296401
40
0.52938720387296401
40
0.53867594163203736
40
0.53867594163203736
40
0.53867594163203736
40
0.54796383071482602
40
0.54796383071482602
40
0.54796383071482602
40
0.55725216593276816
40
0.55725216593276816
40
0.55725216593276816
40
0.56653864598034342
40
0.56653864598034342
40
0.56653864598034342
40
0.57582575725550378
40
0.57582575725550378
40
0.57582575725550378
40
0.58511328373519544
40
0.58511328373519544
40
0.58511328373519544
40
0.59440085829741052
40
0.59440085829741052
40
0.59440085829741052
40
0.59440085829741052
10
-0.74920505285263239
20
40.175123214721673
30
0
10
-0.74880140251721983
20
40.191258806646786
30
0
10
-0.74761932188602287
20
40.207376190642378
30
0
10
-0.74683092534542261
20
40.223512649536126
30
0
10
-0.74610778817764456
20
40.238313416131973
30
0
10
-0.74571585824295561
20
40.25313023047876
30
0
10
-0.74465319514274797
20
40.26789665222168
30
0
10
-0.74243224927042628
20
40.298758195652027
30
0
10
-0.73728152664309343
20
40.329399623115201
30
0
10
-0.731021389365198
20
40.359764099121087
30
0
10
-0.72476108799392203
20
40.390129371053519
30
0
10
-0.71739131381042376
20
40.42021767700934
30
0
10
-0.70845931768417569
20
40.449857711791992
30
0
10
-0.69952856111727191
20
40.479493633207213
30
0
10
-0.68903601617978105
20
40.508681407860465
30
0
10
-0.67717023193836423
20
40.53729057312011
30
0
10
-0.66530003804773985
20
40.565910370326243
30
0
10
-0.65205558399714147
20
40.593951128004775
30
0
10
-0.63745640218258104
20
40.621271133422859
30
0
10
-0.62286183950363294
20
40.648582494876386
30
0
10
-0.60691340618838729
20
40.675173560084858
30
0
10
-0.58970496058464061
20
40.700922012329094
30
0
10
-0.57249759936236688
20
40.726668842047673
30
0
10
-0.55403038464465937
20
40.751573164992337
30
0
10
-0.53438611328601859
20
40.775508880615227
30
0
10
-0.51473637610802081
20
40.799451256108327
30
0
10
-0.49390892718980994
20
40.822424485194318
30
0
10
-0.47201298177242307
20
40.844340324401848
30
0
10
-0.45012189619951626
20
40.866251299349436
30
0
10
-0.42716278838423749
20
40.887105353745604
30
0
10
-0.40320247411727933
20
40.906705856323235
30
0
10
-0.37924075364534027
20
40.926307509233197
30
0
10
-0.35427770919882134
20
40.944655463181078
30
0
10
-0.32860513776540778
20
40.962028503417962
30
0
10
-0.30293018532115834
20
40.979403154923013
30
0
10
-0.27654557427329718
20
40.99580271187132
30
0
10
-0.24893801659345652
20
41.009778976440423
30
0
10
-0.23161343988608116
20
41.018549504801456
30
0
10
-0.21380727391829793
20
41.02636575473845
30
0
10
-0.19624549895524995
20
41.034693717956543
30
0
10
-0.18582578910447675
20
41.03963484495327
30
0
10
-0.17549211118110089
20
41.04475610820294
30
0
10
-0.16498416662216209
20
41.049480438232422
30
0
10
-0.13676113079919461
20
41.062169402750072
30
0
10
-0.10728094771026322
20
41.071994918903563
30
0
10
-0.077537000179291021
20
41.080789566040032
30
0
10
-0.047793403959072965
20
41.089584109301455
30
0
10
-0.017786049527509399
20
41.097347807897222
30
0
10
0.012561380863189441
20
41.103358268737786
30
0
10
0.04290264525492056
20
41.109367508371328
30
0
10
0.073583847426378649
20
41.113624222623912
30
0
10
0.10442120023071741
20
41.116971969604499
30
0
10
0.13526562177682563
20
41.120320483977764
30
0
10
0.16626626555177915
20
41.122759614312336
30
0
10
0.19719367846846556
20
41.121530532836914
30
0
10
0.20165687486678957
20
41.121353161647505
30
0
10
0.20611854616295916
20
41.121099396464288
30
0
10
0.21058185026049589
20
41.120872497558594
30
0
10
0.23704274927715377
20
41.119527317194631
30
0
10
0.26356103741719661
20
41.119126423225637
30
0
10
0.2899547293782232
20
41.116981506347663
30
0
10
0.32080023579718542
20
41.114474807117212
30
0
10
0.35147557016006253
20
41.109586141067055
30
0
10
0.38182217627763726
20
41.103358268737793
30
0
10
0.41216900370937082
20
41.09713035098941
30
0
10
0.44218709810103307
20
41.089563207428512
30
0
10
0.47191102057695361
20
41.080789566040039
30
0
10
0.50163825491830938
20
41.07201494708476
30
0
10
0.53107125178648718
20
41.062033561428855
30
0
10
0.55935818701982465
20
41.049480438232415
30
0
10
0.57448025502543221
20
41.042769595184438
30
0
10
0.58927478739683803
20
41.035323769251818
30
0
10
0.60424633324146237
20
41.028251647949226
30
0
10
0.61727766466955702
20
41.022096027310575
30
0
10
0.63044310284073357
20
41.016223528119646
30
0
10
0.64331963658332803
20
41.009778976440444
30
0
10
0.67099160999110397
20
40.995929483536777
30
0
10
0.69732933551715892
20
40.979438079519291
30
0
10
0.72298586368560769
20
40.962028503417976
30
0
10
0.74863852997477442
20
40.944621547845863
30
0
10
0.77361020396166869
20
40.926296696579854
30
0
10
0.79757556319236711
20
40.906705856323249
30
0
10
0.82154272299090114
20
40.887113544165608
30
0
10
0.84450341681447116
20
40.86625505277739
30
0
10
0.86639456450939134
20
40.844340324401855
30
0
10
0.88828834536762091
20
40.822422960026621
30
0
10
0.90911232278232268
20
40.799449104551144
30
0
10
0.92876300215721086
20
40.775508880615227
30
0
10
0.94841044088361981
20
40.751572604728572
30
0
10
0.96688496852202666
20
40.726670279088239
30
0
10
0.98409421741962388
20
40.700922012329094
30
0
10
1.0013024541964675
20
40.67517525989259
30
0
10
1.0172455610568019
20
40.648582665838326
30
0
10
1.0318379849195476
20
40.621271133422844
30
0
10
1.0464352670903956
20
40.593950508080745
30
0
10
1.0596809667384526
20
40.565910465580266
30
0
10
1.0715461522340772
20
40.53729057312011
30
0
10
1.0834070337990818
20
40.508681062126939
30
0
10
1.0938884025545343
20
40.479492121762782
30
0
10
1.1028304696083067
20
40.449857711791985
30
0
10
1.1117741556487166
20
40.4202179364271
30
0
10
1.119177982547098
20
40.390132530133897
30
0
10
1.1254020780324918
20
40.359764099121101
30
0
10
1.1316258360410143
20
40.329397314715941
30
0
10
1.1366699905655864
20
40.298747536282143
30
0
10
1.1390319466590864
20
40.267896652221687
30
0
10
1.1405486737949859
20
40.248085795809175
30
0
10
1.1409593829758375
20
40.228192012484428
30
0
10
1.1419576406478862
20
40.208330154418952
30
0
10
1.1425141461257418
20
40.1972576296357
30
0
10
1.1432532501387822
20
40.186195026596216
30
0
10
1.143588647246359
20
40.175123214721687
30
0
10
1.1445256823321623
20
40.144190699337742
30
0
10
1.1423116386639736
20
40.113186305657742
30
0
10
1.1390243470668788
20
40.082349777221687
30
0
10
1.1357378063015819
20
40.051520291983778
30
0
10
1.1313785078204444
20
40.020858595316248
30
0
10
1.12540490925312
20
39.990489482879632
30
0
10
1.1194307016021627
20
39.960117273929392
30
0
10
1.1118418646517729
20
39.930037708878395
30
0
10
1.1028314381837843
20
39.900400638580329
30
0
10
1.0938207754561364
20
39.870762791177626
30
0
10
1.0833884486597776
20
39.841567461733199
30
0
10
1.0715423524379728
20
39.812953472137458
30
0
10
1.0596971123375236
20
39.784341550484356
30
0
10
1.0464383071514276
20
39.756310884655747
30
0
10
1.0318379849195494
20
39.728999137878411
30
0
10
1.017235675904659
20
39.701683674572521
30
0
10
1.001291484717165
20
39.675087325989381
30
0
10
0.98408661782741702
20
39.649331569671638
30
0
10
0.96688037581728847
20
39.623573754793043
30
0
10
0.9484132565747061
20
39.598656666555961
30
0
10
0.92876009643078006
20
39.574716091156006
30
0
10
0.90911547998108089
20
39.55078592329123
30
0
10
0.88828585360604051
20
39.527831419421602
30
0
10
0.86639456450939301
20
39.505929946899407
30
0
10
0.84449564823589829
20
39.484020843652353
30
0
10
0.8215343293209203
20
39.46316550565701
30
0
10
0.79757556319237066
20
39.443552494049079
30
0
10
0.77362212723440338
20
39.423943845800139
30
0
10
0.74867168782297877
20
39.405576971232776
30
0
10
0.72298586368561102
20
39.388239383697517
30
0
10
0.69729393415136165
20
39.370897675101062
30
0
10
0.67086627025479428
20
39.354585742908029
30
0
10
0.64332254230976427
20
39.340479373931885
30
0
10
0.62103824076344138
20
39.329066591297106
30
0
10
0.59802340303346235
20
39.319097492595603
30
0
10
0.57539239525795294
20
39.308345317840576
30
0
10
0.57005068519929791
20
39.305807428206549
30
0
10
0.56473035927623583
20
39.303225911428996
30
0
10
0.55935818701982809
20
39.300761222839348
30
0
10
0.53122931886159752
20
39.287856033452222
30
0
10
0.50167902978180134
20
39.278153809825575
30
0
10
0.471911020576957
20
39.269480705261223
30
0
10
0.44214323827063612
20
39.260807666805249
30
0
10
0.41215773915827875
20
39.253163731723276
30
0
10
0.38182217627764226
20
39.246912002563469
30
0
10
0.35148586485669492
20
39.240660119140138
30
0
10
0.32079947239137069
20
39.235800510346152
30
0
10
0.28994996100664627
20
39.233300685882575
30
0
10
0.26355511879666832
20
39.231161836049722
30
0
10
0.23704086515746592
20
39.230750469580485
30
0
10
0.21058186888695249
20
39.22940015792846
30
0
10
0.20611732835353738
20
39.229172314020801
30
0
10
0.20165436106747872
20
39.228917737153132
30
0
10
0.19718986004591471
20
39.228739738464355
30
0
10
0.16626596823389705
20
39.227506809595518
30
0
10
0.13526849080948475
20
39.229947951105622
30
0
10
0.10442786850035675
20
39.233300685882575
30
0
10
0.073587988503837382
20
39.236653339961492
30
0
10
0.042904956071903241
20
39.240917543424942
30
0
10
0.012561380863194541
20
39.246928691863999
30
0
10
-0.017784195115490811
20
39.252940236661267
30
0
10
-0.047790269103766422
20
39.260698956819027
30
0
10
-0.077537000179287621
20
39.269480705261238
30
0
10
-0.10728068028181101
20
39.278261553003553
30
0
10
-0.13676507066785526
20
39.288065219187338
30
0
10
-0.16497369855642002
20
39.300775527954109
30
0
10
-0.17474022754570576
20
39.305176153164368
30
0
10
-0.18435382875129522
20
39.309925202481082
30
0
10
-0.19404117017984074
20
39.314520359039314
30
0
10
-0.21233598524354613
20
39.323198440641136
30
0
10
-0.2308937976015496
20
39.33132765789906
30
0
10
-0.24893518537282616
20
39.340479373931878
30
0
10
-0.27653257142083965
20
39.354478487722979
30
0
10
-0.30292157914551926
20
39.370870139334642
30
0
10
-0.32860130071639693
20
39.38823938369751
30
0
10
-0.35427680551273849
20
39.405605775919341
30
0
10
-0.37924325707479956
20
39.423949439864778
30
0
10
-0.40320247411727766
20
39.443552494049079
30
0
10
-0.42716302082766766
20
39.463156636146728
30
0
10
-0.45011622121811146
20
39.484020308272235
30
0
10
-0.4720129817724214
20
39.505929946899421
30
0
10
-0.49390525096412063
20
39.527835091522505
30
0
10
-0.51474151365938026
20
39.550785773603614
30
0
10
-0.53438894450664387
20
39.574716091156006
30
0
10
-0.55404294886291616
20
39.598654415157654
30
0
10
-0.57250732573493535
20
39.623573030260303
30
0
10
-0.58971159160137188
20
39.649331569671638
30
0
10
-0.60691428558012961
20
39.675087755624176
30
0
10
-0.6228570988057891
20
39.701683712411111
30
0
10
-0.63745640218257948
20
39.728999137878425
30
0
10
-0.6520564068233915
20
39.756315875416909
30
0
10
-0.66531277254373122
20
39.784352150755467
30
0
10
-0.67716263234615348
20
39.812967777252204
30
0
10
-0.68901012536182205
20
39.841577688315432
30
0
10
-0.69945167424970245
20
39.870766719130948
30
0
10
-0.7084574550390248
20
39.900400638580329
30
0
10
-0.71746384797603158
20
39.930036572328696
30
0
10
-0.72503427762163553
20
39.960117455193604
30
0
10
-0.73101945221424114
20
39.990489482879632
30
0
10
-0.73700489438968719
20
40.020862868426377
30
0
10
-0.741404939763043
20
40.051527424827626
30
0
10
-0.74464842677116594
20
40.082359313964851
30
0
10
-0.74789193057116976
20
40.113191362722091
30
0
10
-0.74997886403065572
20
40.144190745947917
30
0
10
-0.74920505285263239
20
40.175123214721673
30
0
0
SPLINE
5
107
100
AcDbEntity
8
0
100
AcDbSpline
70
2
71
3
72
212
73
208
74
0
42
0.000000001
43
0.0000000001
44
0.0000000001
40
0
40
0
40
0
40
0
40
0.0092885084554793166
40
0.0092885084554793166
40
0.0092885084554793166
40
0.018576313416211424
40
0.018576313416211424
40
0.018576313416211424
40
0.027862037042212351
40
0.027862037042212351
40
0.027862037042212351
40
0.037151050179490767
40
0.037151050179490767
40
0.037151050179490767
40
0.046439887597839277
40
0.046439887597839277
40
0.046439887597839277
40
0.055725204947304187
40
0.055725204947304187
40
0.055725204947304187
40
0.065012678242808666
40
0.065012678242808666
40
0.065012678242808666
40
0.074301415324625558
40
0.074301415324625558
40
0.074301415324625558
40
0.076141911879544499
40
0.076141911879544499
40
0.076141911879544499
40
0.083587985146553856
40
0.083587985146553856
40
0.083587985146553856
40
0.09287555267035244
40
0.09287555267035244
40
0.09287555267035244
40
0.10216344617360368
40
0.10216344617360368
40
0.10216344617360368
40
0.11145034248530553
40
0.11145034248530553
40
0.11145034248530553
40
0.12073817113570956
40
0.12073817113570956
40
0.12073817113570956
40
0.1300262764724878
40
0.1300262764724878
40
0.1300262764724878
40
0.13931264852634034
40
0.13931264852634034
40
0.13931264852634034
40
0.14860100706290713
40
0.14860100706290713
40
0.14860100706290713
40
0.14993103358117824
40
0.14993103358117824
40
0.14993103358117824
40
0.15788834107453892
40
0.15788834107453892
40
0.15788834107453892
40
0.16717567833081723
40
0.16717567833081723
40
0.16717567833081723
40
0.17646286219136645
40
0.17646286219136645
40
0.17646286219136645
40
0.18575068558059238
40
0.18575068558059238
40
0.18575068558059238
40
0.19503835646471213
40
0.19503835646471213
40
0.19503835646471213
40
0.20432601031595876
40
0.20432601031595876
40
0.20432601031595876
40
0.2136130392634403
40
0.2136130392634403
40
0.2136130392634403
40
0.2226381227176385
40
0.2226381227176385
40
0.2226381227176385
40
0.23218865465982658
40
0.23218865465982658
40
0.23218865465982658
40
0.24147681144201869
40
0.24147681144201869
40
0.24147681144201869
40
0.25076178780366154
40
0.25076178780366154
40
0.25076178780366154
40
0.26005037677751347
40
0.26005037677751347
40
0.26005037677751347
40
0.26933919919067623
40
0.26933919919067623
40
0.26933919919067623
40
0.27862517812568782
40
0.27862517812568782
40
0.27862517812568782
40
0.28791296777749931
40
0.28791296777749931
40
0.28791296777749931
40
0.29720149048013061
40
0.29720149048013061
40
0.29720149048013061
40
0.3064900600063663
40
0.3064900600063663
40
0.3064900600063663
40
0.31577483813587148
40
0.31577483813587148
40
0.31577483813587148
40
0.32506361584364929
40
0.32506361584364929
40
0.32506361584364929
40
0.33435259635489628
40
0.33435259635489628
40
0.33435259635489628
40
0.34363675375024533
40
0.34363675375024533
40
0.34363675375024533
40
0.3529262107369105
40
0.3529262107369105
40
0.3529262107369105
40
0.36221402576432782
40
0.36221402576432782
40
0.36221402576432782
40
0.36649981409527643
40
0.36649981409527643
40
0.36649981409527643
40
0.37150131759832083
40
0.37150131759832083
40
0.37150131759832083
40
0.38078941670912103
40
0.38078941670912103
40
0.38078941670912103
40
0.39007559350138538
40
0.39007559350138538
40
0.39007559350138538
40
0.39936222333141719
40
0.39936222333141719
40
0.39936222333141719
40
0.40865139471551659
40
0.40865139471551659
40
0.40865139471551659
40
0.41793873619923644
40
0.41793873619923644
40
0.41793873619923644
40
0.42722626779076517
40
0.42722626779076517
40
0.42722626779076517
40
0.43651386697024958
40
0.43651386697024958
40
0.43651386697024958
40
0.44448292660815714
40
0.44448292660815714
40
0.44448292660815714
40
0.44580108136799068
40
0.44580108136799068
40
0.44580108136799068
40
0.45508848645060113
40
0.45508848645060113
40
0.45508848645060113
40
0.46437576380083223
40
0.46437576380083223
40
0.46437576380083223
40
0.47366381120835155
40
0.47366381120835155
40
0.47366381120835155
40
0.48295073110906617
40
0.48295073110906617
40
0.48295073110906617
40
0.49223892942447189
40
0.49223892942447189
40
0.49223892942447189
40
0.50152580212275544
40
0.50152580212275544
40
0.50152580212275544
40
0.51081290057395334
40
0.51081290057395334
40
0.51081290057395334
40
0.52010043110380688
40
0.52010043110380688
40
0.52010043110380688
40
0.52664308448291564
40
0.52664308448291564
40
0.52664308448291564
40
0.52938829833608914
40
0.52938829833608914
40
0.52938829833608914
40
0.53867588701903357
40
0.53867588701903357
40
0.53867588701903357
40
0.54796504911721977
40
0.54796504911721977
40
0.54796504911721977
40
0.55725187561226253
40
0.55725187561226253
40
0.55725187561226253
40
0.56653835565983779
40
0.56653835565983779
40
0.56653835565983779
40
0.5758268799344195
40
0.5758268799344195
40
0.5758268799344195
40
0.58511319879968438
40
0.58511319879968438
40
0.58511319879968438
40
0.59440030660545962
40
0.59440030660545962
40
0.59440030660545962
40
0.59440030660545962
10
-0.74920222163200245
20
31.388361454010003
30
0
10
-0.7492035484598496
20
31.419335728694662
30
0
10
-0.74768512599288972
20
31.450309932985903
30
0
10
-0.7446493953466421
20
31.481134891510003
30
0
10
-0.74161389462111549
20
31.511957515407758
30
0
10
-0.73706131554392473
20
31.542630916144738
30
0
10
-0.73101751506328594
20
31.573007106781006
30
0
10
-0.72497506895775543
20
31.60337649031689
30
0
10
-0.71744206971929947
20
31.633448796942723
30
0
10
-0.7084555178880696
20
31.663081645965576
30
0
10
-0.69946578252857772
20
31.692724992564607
30
0
10
-0.68902146453820867
20
31.721928570145678
30
0
10
-0.67716546356678053
20
31.7505431175232
30
0
10
-0.66530968687362313
20
31.779157123603436
30
0
10
-0.65204228060811076
20
31.807182121765123
30
0
10
-0.63745252788066875
20
31.834514141082771
30
0
10
-0.62286830404045801
20
31.861835802743535
30
0
10
-0.60696273577300719
20
31.888465010678946
30
0
10
-0.58970205485820781
20
31.914148330688477
30
0
10
-0.57243736620783459
20
31.939837614075451
30
0
10
-0.55381693555328837
20
31.964580570236521
30
0
10
-0.53438134491443678
20
31.988749504089355
30
0
10
-0.51494310959143452
20
32.012921726712648
30
0
10
-0.49468949242440508
20
32.036519770797732
30
0
10
-0.4720091074705125
20
32.057580947875969
30
0
10
-0.4675151520485652
20
32.061754068884085
30
0
10
-0.46292592032326302
20
32.065827591029958
30
0
10
-0.45837156474590329
20
32.069940567016602
30
0
10
-0.4399460668972931
20
32.086580381125536
30
0
10
-0.42209140734850203
20
32.103865959308699
30
0
10
-0.40319867432117484
20
32.119944095611565
30
0
10
-0.37963356457697872
20
32.139998528493841
30
0
10
-0.35445343651115935
20
32.158174442370189
30
0
10
-0.32860130071640026
20
32.175271511077888
30
0
10
-0.30274825755111029
20
32.192369179866624
30
0
10
-0.27622315948316023
20
32.208387927753733
30
0
10
-0.24893421679735211
20
32.223017215728767
30
0
10
-0.22164820397965981
20
32.237644933035234
30
0
10
-0.1935985105551434
20
32.250883488771393
30
0
10
-0.16498036682605771
20
32.26272106170655
30
0
10
-0.13635935003776176
20
32.274559823050296
30
0
10
-0.10716976880238754
20
32.284997320281377
30
0
10
-0.077533181756735153
20
32.294015884399414
30
0
10
-0.047895711830904644
20
32.303034717182378
30
0
10
-0.017811209461604551
20
32.310634532310388
30
0
10
0.01256423071026771
20
32.316584587097161
30
0
10
0.042934002424483524
20
32.322533531525252
30
0
10
0.073594603365742944
20
32.326833331288718
30
0
10
0.10442500934004753
20
32.330195903778083
30
0
10
0.13526201036225519
20
32.333559195567943
30
0
10
0.16626888907254256
20
32.335984859069228
30
0
10
0.19719654694199534
20
32.334756851196303
30
0
10
0.20162516637485292
20
32.334581009250797
30
0
10
0.20605216144838681
20
32.334330251726257
30
0
10
0.21048087626695605
20
32.334105968475349
30
0
10
0.23697707399507922
20
32.332764122453064
30
0
10
0.26353482848218263
20
32.332369899739703
30
0
10
0.28995852917432757
20
32.330210208892815
30
0
10
0.320798837920931
20
32.327689534998896
30
0
10
0.35145653468783211
20
32.322763889048318
30
0
10
0.38182694464921924
20
32.316584587097168
30
0
10
0.41219685299307596
20
32.310405387207418
30
0
10
0.44227948402137346
20
32.302972572729168
30
0
10
0.47191485762596103
20
32.294015884399407
30
0
10
0.5015522719644836
20
32.28505857929936
30
0
10
0.53074236727961177
20
32.274577190468328
30
0
10
0.55936198681592908
20
32.262721061706536
30
0
10
0.58798113642103289
20
32.250865127621168
30
0
10
0.61602982898147929
20
32.237634498750836
30
0
10
0.64332440495491006
20
32.223017215728767
30
0
10
0.67061893087219049
20
32.208399959513663
30
0
10
0.69715934296843618
20
32.192396054232873
30
0
10
0.72298869490623463
20
32.175271511077888
30
0
10
0.74881630896065199
20
32.158148120118248
30
0
10
0.77393295853831523
20
32.139904242079723
30
0
10
0.79757936298847154
20
32.119944095611572
30
0
10
0.82055880827298933
20
32.100546935480835
30
0
10
0.84214977683505543
20
32.079528958032313
30
0
10
0.86445547640323617
20
32.059340476989732
30
0
10
0.88805983389199294
20
32.037976604396505
30
0
10
0.90883892557133483
20
32.013664268193295
30
0
10
0.92876583337783769
20
31.988749504089348
30
0
10
0.94814530302533506
20
31.96451920607144
30
0
10
0.96681551545436206
20
31.939822589355469
30
0
10
0.98409801721572832
20
31.914148330688469
30
0
10
1.0013746011588416
20
31.888482863317932
30
0
10
1.0172644246223668
20
31.86184042340372
30
0
10
1.031841859221458
20
31.834514141082771
30
0
10
1.0464249656301652
20
31.807177226611849
30
0
10
1.059694661723398
20
31.779155937489847
30
0
10
1.0715489834547038
20
31.750543117523193
30
0
10
1.0834036031069001
20
31.72192957846379
30
0
10
1.093842777254358
20
31.69272447882685
30
0
10
1.1028333753347395
20
31.663081645965583
30
0
10
1.1118212212288836
20
31.633447887316713
30
0
10
1.1193613777913765
20
31.603376663398759
30
0
10
1.1254058778285976
20
31.573007106780999
30
0
10
1.1314515565113705
20
31.542631628260267
30
0
10
1.1360009953217716
20
31.511957700681783
30
0
10
1.1390367150306699
20
31.481134891510017
30
0
10
1.1420726743376757
20
31.45030964960813
30
0
10
1.1435946755892703
20
31.419335502610686
30
0
10
1.143592447042465
20
31.38836145401001
30
0
10
1.1435902184844253
20
31.357387249268616
30
0
10
1.1420637447606088
20
31.326413142924984
30
0
10
1.1390271782875059
20
31.29558801651001
30
0
10
1.135991851276321
20
31.264775472256723
30
0
10
1.131447664039805
20
31.23411178633603
30
0
10
1.1254087090492246
20
31.203744411468513
30
0
10
1.1193671526746549
20
31.173363955330657
30
0
10
1.1118295404746839
20
31.143280065583141
30
0
10
1.1028352379798902
20
31.113641262054436
30
0
10
1.0938407391109553
20
31.084001811416677
30
0
10
1.0833894863381679
20
31.054807466433214
30
0
10
1.071546152234079
20
31.026179790496833
30
0
10
1.0597089675425044
20
30.997566978904139
30
0
10
1.0464811467646673
20
30.969520248048347
30
0
10
1.0318418592214598
20
30.942256450653069
30
0
10
1.0171942152665896
20
30.914977090511737
30
0
10
1.0011334926969113
20
30.88848155791565
30
0
10
0.98409041762352123
20
30.862574577331543
30
0
10
0.96705035500121095
20
30.836672175939359
30
0
10
0.94902828711620191
20
30.811358118518363
30
0
10
0.92876397073269046
20
30.787973403930671
30
0
10
0.91941316320317668
20
30.777182713482311
30
0
10
0.90958491648569639
20
30.766802835607237
30
0
10
0.89998431503772858
20
30.756216049194329
30
0
10
0.88878043886246372
20
30.743861297806411
30
0
10
0.87788658885253867
20
30.731224761250271
30
0
10
0.86639747023582581
20
30.719156265258789
30
0
10
0.84506147150208255
20
30.696744327164787
30
0
10
0.82167258358357853
20
30.676291377531424
30
0
10
0.79757936298847321
20
30.65677881240844
30
0
10
0.77349112886519478
20
30.637270285718429
30
0
10
0.74869885358064725
20
30.618701754324292
30
0
10
0.72298869490623463
20
30.601465702056885
30
0
10
0.69727728192952421
20
30.584228808907071
30
0
10
0.67064789600058217
20
30.568324524900508
30
0
10
0.64332634210586526
20
30.553736686706543
30
0
10
0.61599731088000609
20
30.539144856129958
30
0
10
0.5879757327730788
20
30.525870192031299
30
0
10
0.55936198681592919
20
30.514001846313477
30
0
10
0.53075387756225101
20
30.502135838574944
30
0
10
0.50155383374104034
20
30.491675595202477
30
0
10
0.47191485762596103
20
30.482721328735359
30
0
10
0.4422752748140335
20
30.473766878978338
30
0
10
0.41219674173855014
20
30.466318467780667
30
0
10
0.38182694464921924
20
30.460138320922852
30
0
10
0.35145692655041139
20
30.453958129090381
30
0
10
0.32079564019852169
20
30.449046220056843
30
0
10
0.28995376080274549
20
30.446527004241936
30
0
10
0.26349043357464941
20
30.444365435823471
30
0
10
0.23689415025404437
20
30.443965414439571
30
0
10
0.21035926416516273
20
30.442614555358887
30
0
10
0.20597015328019455
20
30.442391111011879
30
0
10
0.20158272223337853
20
30.442141651592287
30
0
10
0.1971936784684655
20
30.44196605682373
30
0
10
0.16626951947578339
20
30.440728857827342
30
0
10
0.13526530069587478
20
30.443158504423007
30
0
10
0.1044316869229075
20
30.446527004241936
30
0
10
0.073598497213585135
20
30.449895457732914
30
0
10
0.042935907818475935
20
30.454202738622691
30
0
10
0.0125642307102677
20
30.460155010223389
30
0
10
-0.01780996467433419
20
30.466107775358413
30
0
10
-0.047893199527882263
20
30.473705804005434
30
0
10
-0.077533181756735153
20
30.482721328735352
30
0
10
-0.1071695658900802
20
30.491735759040893
30
0
10
-0.13636280500800332
20
30.502167341301131
30
0
10
-0.16496986150741605
20
30.514018535614021
30
0
10
-0.19358085598429486
20
30.525871361333348
30
0
10
-0.22160550644662269
20
30.53914418997288
30
0
10
-0.24893134832382227
20
30.553736686706536
30
0
10
-0.27625329024080997
20
30.568327100790491
30
0
10
-0.3028766230271791
20
30.584236806307821
30
0
10
-0.32859653234481839
20
30.601465702056878
30
0
10
-0.35431706688309689
20
30.618695016620052
30
0
10
-0.37913413402979512
20
30.637243585551637
30
0
10
-0.40319867432117323
20
30.656778812408447
30
0
10
-0.42726433420596066
20
30.676314948134113
30
0
10
-0.4505773972117586
20
30.696837833594888
30
0
10
-0.472009107470511
20
30.719156265258789
30
0
10
-0.48710679690407849
20
30.734878610598358
30
0
10
-0.50127085042581898
20
30.751492009685943
30
0
10
-0.51594711840152607
20
30.767633914947517
30
0
10
-0.52210509312909537
20
30.774406852374121
30
0
10
-0.52835324497809166
20
30.781096781686308
30
0
10
-0.53438417613506184
20
30.787973403930671
30
0
10
-0.55478798106863414
20
30.811238345151828
30
0
10
-0.57270547886492651
20
30.836640172897958
30
0
10
-0.5897068232297884
20
30.862574577331543
30
0
10
-0.60671104780126428
20
30.888513375326099
30
0
10
-0.62279880850295477
20
30.914984930471576
30
0
10
-0.63745252788066731
20
30.942256450653083
30
0
10
-0.65210256282778412
20
30.969521113870783
30
0
10
-0.66531927749127484
20
30.997585339899647
30
0
10
-0.67715875804424164
20
31.026208400726311
30
0
10
-0.68899779692231999
20
31.054830393762288
30
0
10
-0.69945970444410777
20
31.0840111799019
30
0
10
-0.7084535807371124
20
31.113641262054443
30
0
10
-0.71744943684644347
20
31.143277866658316
30
0
10
-0.72497661534227453
20
31.173363965103398
30
0
10
-0.73101662099361286
20
31.203744411468506
30
0
10
-0.73705519254365093
20
31.23411764448975
30
0
10
-0.74160729737546105
20
31.264785085671349
30
0
10
-0.74464365839958069
20
31.295602321624756
30
0
10
-0.74768027738471243
20
31.326422175727096
30
0
10
-0.7492008950042327
20
31.357391850054654
30
0
10
-0.74920222163200245
20
31.388361454010003
30
0
0
SPLINE
5
108
100
AcDbEntity
8
0
100
AcDbSpline
70
0
71
3
72
61
73
57
74
0
42
0.000000001
43
0.0000000001
44
0.0000000001
40
0
40
0
40
0
40
0
40
0.01656114601187314
40
0.026337904520281848
40
0.036113988945049531
40
0.045890768587144089
40
0.055665792647152122
40
0.065444393213725721
40
0.067353191127688228
40
0.075217654450636107
40
0.08499610472856535
40
0.094050321382068522
40
0.09476966292676825
40
0.10454814603757329
40
0.11432306673553702
40
0.12410173896503367
40
0.13387480585439598
40
0.14365567386926045
40
0.15342955991314325
40
0.163206971164614
40
0.1729813164783591
40
0.1827582389050382
40
0.19253318053783908
40
0.20231143739933896
40
0.21208804790939112
40
0.22186223299951513
40
0.2306011652060305
40
0.2316415681277324
40
0.24141514830452124
40
0.25119153722029697
40
0.26096843771348527
40
0.27074545986985477
40
0.28052178354959517
40
0.28620339656891569
40
0.29029857323076563
40
0.30007318098993746
40
0.30985037716595293
40
0.31962537201468688
40
0.32940203378699628
40
0.33698906358049935
40
0.33917879229551218
40
0.34895551114869694
40
0.35873028045448196
40
0.36850725068823148
40
0.37828427284463001
40
0.38806098187042393
40
0.39195504546340737
40
0.39783631075591414
40
0.40761213277776015
40
0.41738962204294167
40
0.42716454274090537
40
0.4369410513125162
40
0.44671987030752819
40
0.45649440643381356
40
0.46627136385801521
40
0.4828322851554665
40
0.4828322851554665
40
0.4828322851554665
40
0.4828322851554665
10
3.2180917263031006
20
-28.471701145172119
30
0
10
3.2128858015488997
20
-28.416681829788448
30
0
10
3.2147616852302447
20
-28.328535730623756
30
0
10
3.2322895329608037
20
-28.209261916214228
30
0
10
3.2561888912338155
20
-28.114310552932121
30
0
10
3.2890009665857693
20
-28.022004660827754
30
0
10
3.3314110331473419
20
-27.933877502137001
30
0
10
3.3667271223245194
20
-27.871307869778899
30
0
10
3.4060617268046118
20
-27.819322866852907
30
0
10
3.4432878236307429
20
-27.765783850783276
30
0
10
3.5034652290614954
20
-27.699702893807046
30
0
10
3.5531097028460614
20
-27.657426175916818
30
0
10
3.6012570120033383
20
-27.613491877208489
30
0
10
3.6570581999125329
20
-27.574811482327593
30
0
10
3.7404768631629897
20
-27.523788850232698
30
0
10
3.8291656890234766
20
-27.482154990595244
30
0
10
3.9213135455605967
20
-27.449064803464047
30
0
10
4.0163153861930665
20
-27.425314542517071
30
0
10
4.1131788451181643
20
-27.41091997492709
30
0
10
4.2109724900084782
20
-27.406118140390294
30
0
10
4.3087721248001039
20
-27.410927839736765
30
0
10
4.4056275825735636
20
-27.425291654353362
30
0
10
4.5005988612206815
20
-27.449119685837591
30
0
10
4.5928559144662522
20
-27.482018271762222
30
0
10
4.6811911450385484
20
-27.524130349672578
30
0
10
4.7628547655201183
20
-27.571834929520946
30
0
10
4.813900447912081
20
-27.612514126414261
30
0
10
4.8664843235697628
20
-27.65103430023688
30
0
10
4.9161560275014686
20
-27.698870889422324
30
0
10
4.9823392572338552
20
-27.770814490617937
30
0
10
5.0406932106533384
20
-27.849571868693204
30
0
10
5.0906304393881978
20
-27.933680111927085
30
0
10
5.128024225565051
20
-28.009361773471703
30
0
10
5.1483639543869231
20
-28.071338926822573
30
0
10
5.1715675379768946
20
-28.13227975140871
30
0
10
5.1891272942513353
20
-28.209419515356046
30
0
10
5.2041664751157848
20
-28.306095393842114
30
0
10
5.2084572008843875
20
-28.403894225513525
30
0
10
5.2052689855030927
20
-28.494570071725907
30
0
10
5.1936082191320647
20
-28.558780078558353
30
0
10
5.1847887876931367
20
-28.623374701853336
30
0
10
5.1653003092406742
20
-28.693501499270777
30
0
10
5.1329607556815402
20
-28.785777637776992
30
0
10
5.0910081377027545
20
-28.874358392171359
30
0
10
5.040317927362878
20
-28.958000830540342
30
0
10
4.9948678555096508
20
-29.021959514798755
30
0
10
4.9501649063673856
20
-29.069429161469181
30
0
10
4.9076783565340385
20
-29.118919120455246
30
0
10
4.8437396403822612
20
-29.175039097137471
30
0
10
4.7653715787386446
20
-29.233601533824856
30
0
10
4.6813246476734776
20
-29.283908567848094
30
0
10
4.5928162658564062
20
-29.325785018522765
30
0
10
4.5006151594124244
20
-29.3587711835095
30
0
10
4.4056201282370555
20
-29.382575597327431
30
0
10
4.2863678213174836
20
-29.400156858205037
30
0
10
4.1982134923384438
20
-29.401987960925421
30
0
10
4.1431966423988342
20
-29.396803379058838
30
0
0
SPLINE
5
109
100
AcDbEntity
8
0
100
AcDbSpline
70
0
71
3
72
64
73
60
74
0
42
0.000000001
43
0.0000000001
44
0.0000000001
40
0
40
0
40
0
40
0
40
0.0099745801224576398
40
0.015190090461244376
40
0.016564326538525465
40
0.026337901097438304
40
0.036115993917506417
40
0.045891687673299923
40
0.055666473847333281
40
0.065445142016250776
40
0.068043195639755846
40
0.075221218063764264
40
0.084996807112447809
40
0.094772639769046318
40
0.10454865241143786
40
0.11432434111637475
40
0.12410232723851397
40
0.13387842337793429
40
0.13452976417568763
40
0.14365405818398447
40
0.15343063981328198
40
0.1632065681195799
40
0.17298267502355455
40
0.18275866705632318
40
0.18753848161858461
40
0.19253540047091305
40
0.20231096839312029
40
0.21208810026686731
40
0.22186396792178437
40
0.23164089014497208
40
0.24141610446805947
40
0.25119243404941022
40
0.26096823491275239
40
0.27074650479405404
40
0.28052290160885823
40
0.29029721987115042
40
0.30007503393858459
40
0.30948863132628884
40
0.30985018313071089
40
0.31688150866561426
40
0.31962614950688156
40
0.3294035161825194
40
0.33917895807199006
40
0.34895515319577852
40
0.35873085197204613
40
0.36850886687538159
40
0.37828477697692636
40
0.38806040031428546
40
0.39783759970254073
40
0.39981810331493545
40
0.40761281402884103
40
0.41738940113787909
40
0.42716539661493058
40
0.43694180111339875
40
0.44554732925583945
40
0.44671845951230105
40
0.45649513498070959
40
0.46627033105940519
40
0.4828323270628897
40
0.4828323270628897
40
0.4828323270628897
40
0.4828323270628897
10
4.1431966423988342
20
-29.396803379058838
30
0
10
4.1489115343022895
20
-29.430006691081296
30
0
10
4.1456377998251259
20
-29.480591292223512
30
0
10
4.1429462423711456
20
-29.535725615803145
30
0
10
4.1405810200775237
20
-29.590229556197386
30
0
10
4.1283829329415198
20
-29.659222846827184
30
0
10
4.1052850365635631
20
-29.75422070351831
30
0
10
4.0722393833706585
20
-29.846506078684513
30
0
10
4.0298953984496313
20
-29.934642091986081
30
0
10
3.9933559020307214
20
-29.999165934343171
30
0
10
3.9538049422290866
20
-30.051002727070252
30
0
10
3.9165936150885914
20
-30.104596195772469
30
0
10
3.8556404988182797
20
-30.169972464259693
30
0
10
3.7833812969816458
20
-30.2359468986973
30
0
10
3.7046549154328217
20
-30.294180517259658
30
0
10
3.620725808964842
20
-30.344728795524162
30
0
10
3.5319981401564275
20
-30.385804159869561
30
0
10
3.4690407011104845
20
-30.410641933228931
30
0
10
3.4057547176731724
20
-30.426226635630886
30
0
10
3.3430362699515164
20
-30.444325448315659
30
0
10
3.2480718338316885
20
-30.457329781530689
30
0
10
3.1503118444851266
20
-30.46256022718374
30
0
10
3.0526138063918342
20
-30.457178738056108
30
0
10
2.9718883140914789
20
-30.446772257120308
30
0
10
2.9089990547271638
20
-30.429494772747262
30
0
10
2.8453751133790517
20
-30.415157503244142
30
0
10
2.76857420551499
20
-30.386061033506433
30
0
10
2.6799455602738771
20
-30.344654663270532
30
0
10
2.5959716640321577
20
-30.294208093959352
30
0
10
2.5173222616958162
20
-30.235902496133086
30
0
10
2.4447672765234327
20
-30.170140615168336
30
0
10
2.3790072157934237
20
-30.097597052014486
30
0
10
2.3206673057003986
20
-30.018942925005973
30
0
10
2.2703590964208575
20
-29.934937045488965
30
0
10
2.2284271253755636
20
-29.846425352447508
30
0
10
2.1956871364530328
20
-29.754203434374947
30
0
10
2.1711969352170484
20
-29.660520949086155
30
0
10
2.1639911402291934
20
-29.595643262008245
30
0
10
2.1555635126066317
20
-29.540250527357234
30
0
10
2.15672810159302
20
-29.506236568436599
30
0
10
2.1522029887248122
20
-29.441211150942372
30
0
10
2.1578789209463078
20
-29.366755316659887
30
0
10
2.171546033360269
20
-29.269931889521921
30
0
10
2.1955178217864217
20
-29.174941102991269
30
0
10
2.2284572509769758
20
-29.082738079635835
30
0
10
2.2703621349259766
20
-28.994248606694217
30
0
10
2.320585349931144
20
-28.910126613416853
30
0
10
2.3793904403539292
20
-28.83199198493579
30
0
10
2.4263518349287181
20
-28.777296440747918
30
0
10
2.475117179113246
20
-28.734033664897996
30
0
10
2.5220086167580078
20
-28.688664875552902
30
0
10
2.5961246932895148
20
-28.635067647008242
30
0
10
2.6799951974983394
20
-28.584790328038672
30
0
10
2.7646738009457525
20
-28.543602996168307
30
0
10
2.8268363615215182
20
-28.523730621294341
30
0
10
2.8880684996905281
20
-28.501373936699718
30
0
10
2.9558647748662583
20
-28.486521899171859
30
0
10
3.0748108381106514
20
-28.468057169337424
30
0
10
3.1631094233847219
20
-28.466601638099498
30
0
10
3.2180917263031006
20
-28.471701145172119
30
0
0
SPLINE
5
110
100
AcDbEntity
8
0
100
AcDbSpline
70
0
71
3
72
64
73
60
74
0
42
0.000000001
43
0.0000000001
44
0.0000000001
40
0
40
0
40
0
40
0
40
0.016561646262214933
40
0.02633860368644567
40
0.036113487373303589
40
0.045892306368315594
40
0.05566820340909287
40
0.056616452543719761
40
0.065442511129307462
40
0.075221846254121413
40
0.084996547275233869
40
0.094772759511443178
40
0.1045496600046024
40
0.11432545518287424
40
0.11748365914028241
40
0.12410307199091458
40
0.1280806318331375
40
0.13387918821300179
40
0.14365448986343915
40
0.15343003524440021
40
0.16320693514873391
40
0.17298335878906204
40
0.18275846642853327
40
0.18732889674331038
40
0.19253541656381909
40
0.20231243073268415
40
0.21208703031519471
40
0.22186405247156418
40
0.23164210181226294
40
0.24141760735645182
40
0.25119230837756429
40
0.26097050751371798
40
0.26359265317039887
40
0.2707448152102398
40
0.280521935483794
40
0.29030027263462027
40
0.30007515632147819
40
0.30985176402619519
40
0.31962614448629262
40
0.32940359087309479
40
0.3325913927265608
40
0.33489798022969386
40
0.33917737192686465
40
0.34895783468095565
40
0.35873090157034704
40
0.36850741014195787
40
0.37828435070458066
40
0.38806254984073435
40
0.39783722878203048
40
0.40761479587458121
40
0.41738920638613447
40
0.42716780695270806
40
0.43394597930542894
40
0.43694283101606718
40
0.44652765291017965
40
0.44671803927315112
40
0.45649574253780839
40
0.46627226520741782
40
0.48283364935131312
40
0.48283364935131312
40
0.48283364935131312
40
0.48283364935131312
10
4.1431900858879089
20
-35.896344184875488
30
0
10
4.1982040770636155
20
-35.89114625611942
30
0
10
4.2863778339571041
20
-35.892958019520826
30
0
10
4.4055987670484758
20
-35.910593200223147
30
0
10
4.5007015833339175
20
-35.934229222489783
30
0
10
4.5924832583663804
20
-35.967927378752719
30
0
10
4.6554497780648187
20
-35.995326986014675
30
0
10
4.7111600087268313
20
-36.029150362798639
30
0
10
4.7682839059844264
20
-36.060730900559037
30
0
10
4.84386803008291
20
-36.118088914737029
30
0
10
4.916525411353307
20
-36.183623901958974
30
0
10
4.9823783047695169
20
-36.256186842500725
30
0
10
5.0401648236340435
20
-36.33507226178196
30
0
10
5.0808386462039836
20
-36.399312428381435
30
0
10
5.1075534352186729
20
-36.458777332875542
30
0
10
5.1295049739984915
20
-36.499239103764964
30
0
10
5.1463140040686923
20
-36.551344393820202
30
0
10
5.1701463112992521
20
-36.61204792675268
30
0
10
5.1892016682998428
20
-36.694695371213015
30
0
10
5.204053645325752
20
-36.791366122698051
30
0
10
5.2088408732195832
20
-36.889249005229054
30
0
10
5.203590527885094
20
-36.986913974617131
30
0
10
5.1932787238958609
20
-37.066959278795089
30
0
10
5.1760514717829214
20
-37.129855699569099
30
0
10
5.1617702313759928
20
-37.1935005336125
30
0
10
5.1324909556901108
20
-37.270975263913186
30
0
10
5.0910482426925805
20
-37.359588195724648
30
0
10
5.0406055701099985
20
-37.443568600242337
30
0
10
4.9822581743150103
20
-37.522176662516706
30
0
10
4.9165912201824122
20
-37.594880656173558
30
0
10
4.8437201854444885
20
-37.660108020384598
30
0
10
4.7851806648526303
20
-37.705737603786197
30
0
10
4.7288192651219578
20
-37.738505827404346
30
0
10
4.6739265323675463
20
-37.773768961551674
30
0
10
4.5926670371228431
20
-37.810827489558626
30
0
10
4.500649265482755
20
-37.844117961586136
30
0
10
4.4056200452419665
20
-37.867809960258846
30
0
10
4.3087570338889183
20
-37.882312332780337
30
1.3234889800848443e-22
10
4.2110331011534772
20
-37.886576926464237
30
0
10
4.1349781944306212
20
-37.884469831253526
30
0
10
4.0847022018339922
20
-37.876318002175616
30
0
10
4.0524820860762008
20
-37.871530311283166
30
0
10
3.9983496666893465
20
-37.864458213755597
30
0
10
3.921379778719646
20
-37.843695565284705
30
0
10
3.8291206303635681
20
-37.811144594052031
30
0
10
3.7406236938120201
20
-37.769164965907727
30
0
10
3.6566272646170717
20
-37.718848356287189
30
0
10
3.5779413161983831
20
-37.660544391258142
30
0
10
3.5054383545906962
20
-37.594741946931521
30
0
10
3.4395423290502363
20
-37.522274938399264
30
0
10
3.381649844324881
20
-37.443397986010581
30
0
10
3.3351513261550569
20
-37.368602624427936
30
0
10
3.30918082338715
20
-37.308755412319378
30
0
10
3.2803834526554847
20
-37.250935292352423
30
0
10
3.2688883640048054
20
-37.209665550794504
30
0
10
3.2468822694523336
20
-37.148316687682389
30
0
10
3.2329736541987257
20
-37.083641046845266
30
0
10
3.2143867680435179
20
-36.964727948492971
30
0
10
3.2130161226082117
20
-36.876407270048432
30
0
10
3.2180917263031006
20
-36.821432113647461
30
0
0
SPLINE
5
111
100
AcDbEntity
8
0
100
AcDbSpline
70
0
71
3
72
62
73
58
74
0
42
0.000000001
43
0.0000000001
44
0.0000000001
40
0
40
0
40
0
40
0
40
0.016561163545876313
40
0.026337395043790825
40
0.036113752135901657
40
0.045889798417813182
40
0.055666876411494585
40
0.057583461431554912
40
0.065442233686407697
40
0.075219770371805855
40
0.084995188967317628
40
0.09477237179655168
40
0.10454819928929686
40
0.11432375697138515
40
0.12410041391183606
40
0.13324090085855095
40
0.13387604387156143
40
0.14365226433545877
40
0.15342930022202886
40
0.16320669538725055
40
0.17298097145726679
40
0.18275781305411759
40
0.19253400817793515
40
0.2023097370774703
40
0.21208646518266169
40
0.21406625100826371
40
0.22186492654365927
40
0.23163949853795193
40
0.2414166579009544
40
0.25119079573138925
40
0.25951252702778926
40
0.26096828299345964
40
0.27074432432277201
40
0.28052070188164768
40
0.29029629214101393
40
0.30007366308172539
40
0.309848977079482
40
0.3196261853359712
40
0.32940223270741514
40
0.33917834265942698
40
0.34895478855308787
40
0.35036194250547642
40
0.35873026656238288
40
0.36850737149608881
40
0.3782834895177925
40
0.38806035449410853
40
0.3978349782128448
40
0.40761188742253762
40
0.41158295651858118
40
0.41738716966185924
40
0.42716539358980815
40
0.43694179040461234
40
0.44671734359533488
40
0.45649375957527139
40
0.46627057930363153
40
0.46639351236264981
40
0.48283322574832149
40
0.48283322574832149
40
0.48283322574832149
40
0.48283322574832149
10
3.2180917263031006
20
-36.821432113647461
30
0
10
3.1630790917433016
20
-36.826626456488569
30
0
10
3.0749091447088848
20
-36.824809091663091
30
0
10
2.9556897218980867
20
-36.807153187747822
30
0
10
2.8605907848887813
20
-36.783558911979128
30
0
10
2.7687694107501679
20
-36.749911441304718
30
0
10
2.7029901373619141
20
-36.720939432219609
30
0
10
2.6474187760869987
20
-36.686860038387429
30
0
10
2.5903505649751022
20
-36.655204585543366
30
0
10
2.5174663318140733
20
-36.599627481957313
30
0
10
2.4447224157617677
20
-36.534173939642073
30
0
10
2.3790347313485678
20
-36.461529838237588
30
0
10
2.3206210265247309
20
-36.382926376456986
30
0
10
2.2705487598476113
20
-36.29884457863011
30
0
10
2.2286195721164539
20
-36.212578099499346
30
0
10
2.2088173035040453
20
-36.150380382919707
30
0
10
2.186621802565742
20
-36.089098947664645
30
0
10
2.1723364171343138
20
-36.023001563983662
30
0
10
2.1571510042042261
20
-35.926413158495706
30
0
10
2.1525726441507107
20
-35.828538944402666
30
0
10
2.1572960563018722
20
-35.730750397439067
30
0
10
2.1717334268917106
20
-35.633917135325134
30
0
10
2.1953469835417714
20
-35.538835261228243
30
0
10
2.2289508054737794
20
-35.446997295547853
30
0
10
2.2580266661087416
20
-35.3810370649785
30
0
10
2.2921241250890634
20
-35.325464903497554
30
0
10
2.3238180657023797
20
-35.268427136156859
30
0
10
2.3792148706110114
20
-35.195633332827768
30
0
10
2.4448399617046905
20
-35.123155413556901
30
0
10
2.5132294069998751
20
-35.059813669947808
30
0
10
2.5669096915734286
20
-35.0227172616232
30
0
10
2.6189553525145133
20
-34.983462888169008
30
0
10
2.6803185209086862
20
-34.949070033067493
30
0
10
2.7683735580595621
20
-34.906554809803531
30
0
10
2.8607093846193292
20
-34.873782439949927
30
0
10
2.9556474792372334
20
-34.849905258482551
30
0
10
3.0525277705584406
20
-34.83555224118416
30
0
10
3.1503076635147225
20
-34.830771784680472
30
0
10
3.2481770766189895
20
-34.835410366812702
30
0
10
3.3447922541840338
20
-34.8504760214595
30
0
10
3.4133250096593248
20
-34.865597625338324
30
0
10
3.4745334563907306
20
-34.888009969338739
30
0
10
3.536703095127796
20
-34.907868876180594
30
0
10
3.6206011463127723
20
-34.948815263196991
30
0
10
3.7046863537295454
20
-34.998847944161717
30
0
10
3.7833902190304074
20
-35.057212685123027
30
0
10
3.8555471990571153
20
-35.123236361687148
30
0
10
3.9095787253829068
20
-35.180471749938896
30
0
10
3.9474028955194065
20
-35.233587263817135
30
0
10
3.9876573581709667
20
-35.284918417094666
30
0
10
4.0300364375568556
20
-35.358403401119126
30
0
10
4.0721936329192001
20
-35.446664433395426
30
0
10
4.1053303854809782
20
-35.538915062411
30
0
10
4.1282317288352877
20
-35.633939362937717
30
0
10
4.1401768416595788
20
-35.698775004778902
30
0
10
4.144414870415261
20
-35.786471659604956
30
0
10
4.1503408987601489
20
-35.841609669028031
30
0
10
4.1431900858879089
20
-35.896344184875488
30
0
0
ENDSEC
0
SECTION
2
OBJECTS
0
DICTIONARY
5
C
100
AcDbDictionary
3
ACAD_GROUP
350
D
3
ACAD_MLINESTYLE
350
17
0
DICTIONARY
5
D
100
AcDbDictionary
0
DICTIONARY
5
1A
330
C
100
AcDbDictionary
0
DICTIONARY
5
17
100
AcDbDictionary
0
ENDSEC
0
EOF
