0
SECTION
2
HEADER
9
$INSUNITS
70
4
9
$ACADVER
1
AC1014
9
$HANDSEED
5
FFFF
0
ENDSEC
0
SECTION
2
TABLES
0
TABLE
2
VPORT
5
8
100
AcDbSymbolTable
0
ENDTAB
0
TABLE
2
LTYPE
5
5
100
AcDbSymbolTable
0
LTYPE
5
14
100
AcDbSymbolTableRecord
100
AcDbLinetypeTableRecord
2
BYBLOCK
70
0
0
LTYPE
5
15
100
AcDbSymbolTableRecord
100
AcDbLinetypeTableRecord
2
BYLAYER
70
0
0
LTYPE
5
16
100
AcDbSymbolTableRecord
100
AcDbLinetypeTableRecord
2
DASHED
70
0
3
Dashed __ __ __ __ __ __ __ __ __ __ __ __ __ _
72
65
73
2
40
0.75
49
0.5
74
0
49
-0.25
74
0
0
ENDTAB
0
TABLE
2
LAYER
5
2
100
AcDbSymbolTable
70
2
0
LAYER
5
50
100
AcDbSymbolTableRecord
100
AcDbLayerTableRecord
2
0
70
0
62
7
6
CONTINUOUS
0
ENDTAB
0
TABLE
2
STYLE
5
3
100
AcDbSymbolTable
70
1
0
STYLE
5
11
100
AcDbSymbolTableRecord
100
AcDbTextStyleTableRecord
2
STANDARD
70
0
0
ENDTAB
0
TABLE
2
VIEW
5
6
100
AcDbSymbolTable
70
0
0
ENDTAB
0
TABLE
2
UCS
5
7
100
AcDbSymbolTable
70
0
0
ENDTAB
0
TABLE
2
APPID
5
9
100
AcDbSymbolTable
70
2
0
APPID
5
12
100
AcDbSymbolTableRecord
100
AcDbRegAppTableRecord
2
ACAD
70
0
0
ENDTAB
0
TABLE
2
DIMSTYLE
5
A
100
AcDbSymbolTable
70
1
0
ENDTAB
0
TABLE
2
BLOCK_RECORD
5
1
100
AcDbSymbolTable
70
1
0
BLOCK_RECORD
5
1F
100
AcDbSymbolTableRecord
100
AcDbBlockTableRecord
2
*MODEL_SPACE
0
BLOCK_RECORD
5
1B
100
AcDbSymbolTableRecord
100
AcDbBlockTableRecord
2
*PAPER_SPACE
0
ENDTAB
0
ENDSEC
0
SECTION
2
BLOCKS
0
BLOCK
5
20
100
AcDbEntity
100
AcDbBlockBegin
2
*MODEL_SPACE
0
ENDBLK
5
21
100
AcDbEntity
100
AcDbBlockEnd
0
BLOCK
5
1C
100
AcDbEntity
100
AcDbBlockBegin
2
*PAPER_SPACE
0
ENDBLK
5
1D
100
AcDbEntity
100
AcDbBlockEnd
0
ENDSEC
0
SECTION
2
ENTITIES
0
SPLINE
5
100
100
AcDbEntity
8
0
100
AcDbSpline
70
0
71
3
72
16
73
12
74
0
42
0.000000001
43
0.0000000001
44
0.0000000001
40
0
40
0
40
0
40
0
40
0.18211126544557532
40
0.27237015284125182
40
0.36167648386776663
40
0.44975343003180529
40
0.53646216870574992
40
0.61914639199635624
40
0.68500075954455586
40
0.72418243066829457
40
0.73542323462502834
40
0.73542323462502834
40
0.73542323462502834
40
0.73542323462502834
10
-9.3031102418899536
20
27.161908149719238
30
0
10
-8.7133728141778288
20
27.018021676749893
30
0
10
-7.8313383541439965
20
26.802834511012961
30
0
10
-6.6620051101134869
20
26.50936260769879
30
0
10
-5.7981773284671227
20
26.28639212072645
30
0
10
-4.9478302503524114
20
26.058489743190623
30
0
10
-4.1206900046239436
20
25.830084399388443
30
0
10
-3.3657428490415064
20
25.616285542102514
30
0
10
-2.7690680264259884
20
25.431419943544057
30
0
10
-2.4079342746046266
20
25.281510532933716
30
0
10
-2.2695189736977479
20
25.186041241116762
30
0
10
-2.2394972146604304
20
25.163550886363382
30
0
0
SPLINE
5
101
100
AcDbEntity
8
0
100
AcDbSpline
70
0
71
3
72
8
73
4
74
0
42
0.000000001
43
0.0000000001
44
0.0000000001
40
0.025664265548383088
40
0.025664265548383088
40
0.025664265548383088
40
0.025664265548383088
40
0.11593261039909712
40
0.11593261039909712
40
0.11593261039909712
40
0.11593261039909712
10
-2.2394972146616965
20
25.163550886365176
30
0
10
-2.0639326896861965
20
24.914769474687894
30
0
10
-1.9550780839097501
20
24.639966155100339
30
0
10
-1.9129333973323575
20
24.339140927602507
30
0
0
SPLINE
5
102
100
AcDbEntity
8
0
100
AcDbSpline
70
0
71
3
72
44
73
40
74
0
42
0.000000001
43
0.0000000001
44
0.0000000001
40
0.024899826969783382
40
0.024899826969783382
40
0.024899826969783382
40
0.024899826969783382
40
0.03834945882246802
40
0.03834945882246802
40
0.03834945882246802
40
0.07669891764493604
40
0.07669891764493604
40
0.07669891764493604
40
0.15339783528987208
40
0.15339783528987208
40
0.15339783528987208
40
0.30679567057974416
40
0.30679567057974416
40
0.30679567057974416
40
0.46019350586961627
40
0.46019350586961627
40
0.46019350586961627
40
0.61359134115948832
40
0.61359134115948832
40
0.61359134115948832
40
0.69029025880442441
40
0.69029025880442441
40
0.69029025880442441
40
0.76698917644936038
40
0.76698917644936038
40
0.76698917644936038
40
0.80533863527182836
40
0.80533863527182836
40
0.80533863527182836
40
0.84368809409429646
40
0.84368809409429646
40
0.84368809409429646
40
0.92038701173923254
40
0.92038701173923254
40
0.92038701173923254
40
1.0737848470291045
40
1.0737848470291045
40
1.0737848470291045
40
1.2271826823189766
40
1.2271826823189766
40
1.2271826823189766
40
1.2271826823189766
10
-1.9129333973319751
20
24.339140927599693
30
0
10
-1.9214681326366652
20
24.292985130134248
30
0
10
-1.9315728284834022
20
24.247887942084255
30
0
10
-1.9440262931726258
20
24.20547409406657
30
0
10
-1.9795353417865547
20
24.084537838273675
30
0
10
-2.0341401950326143
20
23.985417495605844
30
0
10
-2.0947989218095051
20
23.880003623499768
30
0
10
-2.2161163753632875
20
23.669175879287607
30
0
10
-2.3616493230403965
20
23.433174017322457
30
0
10
-2.5061162228068841
20
23.209681911587879
30
0
10
-2.7950500223398582
20
22.762697700118729
30
0
10
-3.0797196302303464
20
22.365752513571884
30
0
10
-3.3723773718753036
20
21.955673974972328
30
0
10
-3.6650351135202603
20
21.545595436372768
30
0
10
-3.965680988919686
20
21.122383545720496
30
0
10
-4.2676778463205176
20
20.706474974337084
30
0
10
-4.5696747037213488
20
20.290566402953679
30
0
10
-4.8730225431235867
20
19.881961150839139
30
0
10
-5.1914866955690284
20
19.482599971388336
30
0
10
-5.3507187717917502
20
19.282919381662932
30
0
10
-5.5137299262752713
20
19.085549810103466
30
0
10
-5.6838186647159663
20
18.894253456719596
30
0
10
-5.8539074031566587
20
18.702957103335734
30
0
10
-6.0310737255545233
20
18.517733968127466
30
0
10
-6.2303329113716757
20
18.356449698855517
30
0
10
-6.3299625042802496
20
18.275807564219541
30
0
10
-6.4351153130436458
20
18.201150146067647
30
0
10
-6.5492833944481728
20
18.144142662999538
30
0
10
-6.6634514758527006
20
18.087135179931423
30
0
10
-6.7866348298983583
20
18.047777631947103
30
0
10
-6.9109284858946349
20
18.015604544226743
30
0
10
-7.1595157978871882
20
17.951258368786036
30
0
10
-7.4125443176822179
20
17.915650034401178
30
0
10
-7.6656651824112556
20
17.880082995501596
30
0
10
-8.1719069118693319
20
17.808948917702434
30
0
10
-8.6785180210634465
20
17.737980021844351
30
0
10
-9.1869739733059568
20
17.684418892500435
30
0
10
-9.6954299255484688
20
17.63085776315652
30
0
10
-10.205730720839375
20
17.594704400326773
30
0
10
-10.715579986572266
20
17.555869817733765
30
0
0
SPLINE
5
103
100
AcDbEntity
8
0
100
AcDbSpline
70
0
71
3
72
83
73
79
74
0
42
0.000000001
43
0.0000000001
44
0.0000000001
40
0
40
0
40
0
40
0
40
0.071069401569929955
40
0.071069401569929955
40
0.071069401569929955
40
0.10660410235489493
40
0.10660410235489493
40
0.10660410235489493
40
0.14213880313985991
40
0.14213880313985991
40
0.14213880313985991
40
0.17767350392482489
40
0.17767350392482489
40
0.17767350392482489
40
0.21320820470978985
40
0.21320820470978985
40
0.21320820470978985
40
0.28427760627971982
40
0.28427760627971982
40
0.28427760627971982
40
0.4264164094195797
40
0.4264164094195797
40
0.4264164094195797
40
0.56855521255943964
40
0.56855521255943964
40
0.56855521255943964
40
0.8528328188391594
40
0.8528328188391594
40
0.8528328188391594
40
1.1371104251188793
40
1.1371104251188793
40
1.1371104251188793
40
1.4213880313985991
40
1.4213880313985991
40
1.4213880313985991
40
1.7056656376783188
40
1.7056656376783188
40
1.7056656376783188
40
2.2742208502377586
40
2.2742208502377586
40
2.2742208502377586
40
2.5584984565174782
40
2.5584984565174782
40
2.5584984565174782
40
2.8427760627971983
40
2.8427760627971983
40
2.8427760627971983
40
3.127053669076918
40
3.127053669076918
40
3.127053669076918
40
3.4113312753566376
40
3.4113312753566376
40
3.4113312753566376
40
3.5534700784964977
40
3.5534700784964977
40
3.5534700784964977
40
3.6956088816363577
40
3.6956088816363577
40
3.6956088816363577
40
3.8377476847762173
40
3.8377476847762173
40
3.8377476847762173
40
3.9798864879160774
40
3.9798864879160774
40
3.9798864879160774
40
4.1220252910559374
40
4.1220252910559374
40
4.1220252910559374
40
4.264164094195797
40
4.264164094195797
40
4.264164094195797
40
4.3352334957657268
40
4.3352334957657268
40
4.3352334957657268
40
4.4063028973356566
40
4.4063028973356566
40
4.4063028973356566
40
4.5484417004755171
40
4.5484417004755171
40
4.5484417004755171
40
4.5484417004755171
10
-10.715579986572266
20
17.555869817733765
30
0
10
-10.701955527251242
20
17.31936392141904
30
0
10
-10.699018779501756
20
17.085656294475548
30
0
10
-10.665055940234625
20
16.84852080947865
30
0
10
-10.648074520601057
20
16.729953066980201
30
0
10
-10.623336578088075
20
16.610528359968406
30
0
10
-10.573976310583493
20
16.503393624897637
30
0
10
-10.524616043078908
20
16.396258889826871
30
0
10
-10.450633450582721
20
16.301414126697139
30
0
10
-10.366655844700398
20
16.215552198207664
30
0
10
-10.282678238818075
20
16.129690269718182
30
0
10
-10.188705619549616
20
16.05281117586896
30
0
10
-10.094404002368906
20
15.978523483298051
30
0
10
-10.0001023851882
20
15.904235790727142
30
0
10
-9.9054717700952395
20
15.832539499434544
30
0
10
-9.8100419635323437
20
15.762616587424922
30
0
10
-9.6191823504065574
20
15.622770763405677
30
0
10
-9.4251259714010374
20
15.490018456518332
30
0
10
-9.2332649248754297
20
15.352503969289959
30
0
10
-8.8495428318242073
20
15.07747499483321
30
0
10
-8.4746020686926222
20
14.783397299012355
30
0
10
-8.130158158346795
20
14.455786662454511
30
0
10
-7.7857142480009687
20
14.128176025896666
30
0
10
-7.471767190440902
20
13.767032448601828
30
0
10
-7.2036622353636703
20
13.376528961055257
30
0
10
-6.6674523252092053
20
12.595521985962106
30
0
10
-6.3146108249860848
20
11.697075369862006
30
0
10
-6.0766480199008379
20
10.776537476305339
30
0
10
-5.838685214815591
20
9.8559995827486695
30
0
10
-5.7156011048682203
20
8.913370411735432
30
0
10
-5.6270830004658992
20
7.969105020479299
30
0
10
-5.538564896063578
20
7.0248396292231652
30
0
10
-5.4846127972063083
20
6.0789380177241359
30
0
10
-5.4522478041457054
20
5.1320531296890337
30
0
10
-5.4198828110851043
20
4.1851682416539315
30
0
10
-5.4091049238211681
20
3.237300077082756
30
0
10
-5.4007602946607589
20
2.2895699072669555
30
0
10
-5.3840710363399378
20
0.39410956763535371
30
0
10
-5.377114810433218
20
-1.5007987929747495
30
0
10
-5.4082989221291964
20
-3.3959414052141179
30
0
10
-5.4238909779771873
20
-4.3435127113338012
30
0
10
-5.449018118225851
20
-5.2911425803608001
30
0
10
-5.5011358695238712
20
-6.2371582680901261
30
0
10
-5.5532536208218906
20
-7.1831739558194556
30
0
10
-5.6323619831692646
20
-8.1275754622511069
30
0
10
-5.7721446660988187
20
-9.0672586282109418
30
0
10
-5.911927349028371
20
-10.006941794170775
30
0
10
-6.1123843525401025
20
-10.941906619658784
30
0
10
-6.4710696586710581
20
-11.819829029060124
30
0
10
-6.8297549648020137
20
-12.697751438461463
30
0
10
-7.3466685735521935
20
-13.518631431776125
30
0
10
-8.0107269606742033
20
-14.194226970034169
30
0
10
-8.3427561542352109
20
-14.532024739163194
30
0
10
-8.7115715423891746
20
-14.833501394528064
30
0
10
-9.0948980064716451
20
-15.11262367881354
30
0
10
-9.4782244705541139
20
-15.391745963099016
30
0
10
-9.8760620105650876
20
-15.648513876305099
30
0
10
-10.274833181673275
20
-15.905301768130368
30
0
10
-10.67360435278146
20
-16.16208965995564
30
0
10
-11.073309154986861
20
-16.418897530400095
30
0
10
-11.494207159076726
20
-16.634649891298821
30
0
10
-11.91510516316659
20
-16.850402252197554
30
0
10
-12.357196369140919
20
-17.025099103550559
30
0
10
-12.802610701378306
20
-17.188080535970954
30
0
10
-13.248025033615692
20
-17.351061968391353
30
0
10
-13.696762492116139
20
-17.502327981879144
30
0
10
-14.146638997060547
20
-17.650497563177431
30
0
10
-14.596515502004952
20
-17.798667144475715
30
0
10
-15.047531053393326
20
-17.943740293584501
30
0
10
-15.485669114505802
20
-18.126656766035779
30
0
10
-15.704738145062038
20
-18.21811500226142
30
0
10
-15.920587803049301
20
-18.319034069322683
30
0
10
-16.113733510051095
20
-18.45835541883217
30
0
10
-16.306879217052888
20
-18.597676768341657
30
0
10
-16.477320973069208
20
-18.775400400299368
30
0
10
-16.587696518645096
20
-18.979461697438097
30
0
10
-16.808447609796872
20
-19.387584291715555
30
0
10
-16.788933859186908
20
-19.90105754671708
30
0
10
-16.797949075698853
20
-20.374767780303955
30
0
0
SPLINE
5
104
100
AcDbEntity
8
0
100
AcDbSpline
70
0
71
3
72
41
73
37
74
0
42
0.000000001
43
0.0000000001
44
0.0000000001
40
0
40
0
40
0
40
0
40
0.17378002215114635
40
0.26066976945712017
40
0.33911969506757389
40
0.36716846420554949
40
0.38699020068721618
40
0.40681191521531035
40
0.42685495878129975
40
0.44884577310460572
40
0.47125322997229097
40
0.49568526376663752
40
0.54532722133997713
40
0.66793000955337578
40
0.81559414811866637
40
0.95874134410518153
40
1.0693488498408079
40
1.1269080592023157
40
1.1522241193665113
40
1.1709410366183548
40
1.1874156115402701
40
1.20007725211864
40
1.2116588601660025
40
1.2231577085501129
40
1.2347722955216887
40
1.2508007016895504
40
1.2679735435341064
40
1.2851464493023255
40
1.3037362620423181
40
1.3329059354798563
40
1.3716594599300471
40
1.4264082895252916
40
1.5052213078389696
40
1.6134873703948569
40
1.7458648070048399
40
2.0508156889401263
40
2.0508156889401263
40
2.0508156889401263
40
2.0508156889401263
10
-16.797949075698853
20
-20.374767780303955
30
0
10
-16.230093390340134
20
-20.261111860141
30
0
10
-15.38024199812288
20
-20.077735968044692
30
0
10
-14.270860151440974
20
-19.864303579790445
30
0
10
-13.643647319821618
20
-19.706301491892837
30
0
10
-13.222652161509549
20
-19.674649209380274
30
0
10
-12.996892879477851
20
-19.681885870376124
30
0
10
-12.798465876229457
20
-19.684608683314039
30
0
10
-12.590309770555294
20
-19.684167577230379
30
0
10
-12.385599532046532
20
-19.756425838282926
30
0
10
-12.166817236087226
20
-19.822876237790375
30
0
10
-11.859668001652494
20
-19.922521619771704
30
0
10
-11.30092482115545
20
-20.275097084555927
30
0
10
-10.441574482216396
20
-20.90189810052367
30
0
10
-9.3218653185312199
20
-21.706850626758619
30
0
10
-8.2371058729016902
20
-22.490350764895549
30
0
10
-7.403769762113928
20
-23.107498407468089
30
0
10
-6.8892146660076845
20
-23.498617922312121
30
0
10
-6.6526441151491111
20
-23.74246017812094
30
0
10
-6.5272675754100584
20
-23.899831733341401
30
0
10
-6.426159138354711
20
-24.025218037737961
30
0
10
-6.3777542552744748
20
-24.153269653793593
30
0
10
-6.347290687475807
20
-24.268854128374468
30
0
10
-6.3165902988000067
20
-24.378284905371149
30
0
10
-6.2822087563527438
20
-24.513116737514103
30
0
10
-6.3864873694160647
20
-24.63849961890368
30
0
10
-6.4691369052292869
20
-24.780414046267424
30
0
10
-6.5650155987251102
20
-24.929457763953128
30
0
10
-6.6845013992743416
20
-25.111356363704896
30
0
10
-6.9145463113981673
20
-25.290906397515819
30
0
10
-7.2278514202792437
20
-25.55154038969599
30
0
10
-7.6917142497374611
20
-25.891820972167512
30
0
10
-8.3506753454196527
20
-26.355521024375385
30
0
10
-9.2327678046934629
20
-26.952378634795728
30
0
10
-10.745265424381591
20
-27.96209525340619
30
0
10
-11.962650931500654
20
-28.764124714845209
30
0
10
-12.810980081558228
20
-29.324092864990234
30
0
0
SPLINE
5
105
100
AcDbEntity
8
0
100
AcDbSpline
70
0
71
3
72
45
73
41
74
0
42
0.000000001
43
0.0000000001
44
0.0000000001
40
0
40
0
40
0
40
0
40
0.071372530400464942
40
0.11076948588284014
40
0.15652724343900082
40
0.21186682110222652
40
0.27655396750662631
40
0.34934566417762336
40
0.42889131258585428
40
0.52138329244499737
40
0.61246858092468914
40
0.70552984893225612
40
0.79096660733754687
40
0.88150647183717434
40
0.96868501850768729
40
1.0508786339667737
40
1.126336462450608
40
1.1938675272596555
40
1.2550210606638035
40
1.3119538847197998
40
1.3667131300638149
40
1.42147237540783
40
1.4784051994638263
40
1.5395587328679743
40
1.6070897976770218
40
1.6825476261608561
40
1.7647412703495597
40
1.8519197041990838
40
1.9424595412011123
40
2.0278964066793921
40
2.1209575692832225
40
2.2120429632219296
40
2.3045349430810727
40
2.3840805914893037
40
2.4568722881603007
40
2.5215594345647006
40
2.5768990122279263
40
2.622656885276863
40
2.6620537333609149
40
2.7334262637613795
40
2.7334262637613795
40
2.7334262637613795
40
2.7334262637613795
10
-12.810980081558228
20
-29.324092864990234
30
0
10
-12.634509372155083
20
-29.482207298033561
30
0
10
-12.351581698055389
20
-29.725644375876588
30
0
10
-11.878581464463913
20
-29.954375082943979
30
0
10
-11.420616921208801
20
-30.066762406563061
30
0
10
-10.866650648986358
20
-30.097670452466904
30
0
10
-10.223739417389094
20
-30.046737948381871
30
0
10
-9.516526258200054
20
-29.892847577587617
30
0
10
-8.7293729004837246
20
-29.656966985346859
30
0
10
-7.9814665826792641
20
-29.18844516565386
30
0
10
-7.1569830082281829
20
-28.776834244219241
30
0
10
-6.3677556961450579
20
-28.34654340050313
30
0
10
-5.5633608051260151
20
-27.94934577983495
30
0
10
-4.7537493361180356
20
-27.609836377938052
30
0
10
-3.9329004221182782
20
-27.330763572543933
30
0
10
-3.1455980051477184
20
-27.114349364777716
30
0
10
-2.4124723565296367
20
-26.952059345233312
30
0
10
-1.7420675889564867
20
-26.834146625254441
30
0
10
-1.128528041110709
20
-26.753147725149962
30
0
10
-0.55489755589590417
20
-26.697605770999218
30
0
10
1.2370798276925878e-11
20
-26.676001383154851
30
0
10
0.55489755584543887
20
-26.69760577114868
30
0
10
1.1285280413007321
20
-26.753147724504949
30
0
10
1.7420675881594918
20
-26.834146627986843
30
0
10
2.4124723600074085
20
-26.95205933330157
30
0
10
3.1455980834931703
20
-27.114349437598783
30
0
10
3.9329003071514643
20
-27.33076330765741
30
0
10
4.7537487037360604
20
-27.609836530448977
30
0
10
5.5633598995067768
20
-27.949346203832619
30
0
10
6.3677552695739958
20
-28.34654267957378
30
0
10
7.1569822226658353
20
-28.776834982462702
30
0
10
7.9814664090311895
20
-29.18844473975604
30
0
10
8.7293728708343785
20
-29.656967037380653
30
0
10
9.5165262673330506
20
-29.892847573117635
30
0
10
10.22373940759053
20
-30.046737925324859
30
0
10
10.866650674925841
20
-30.097670531720212
30
0
10
11.420617232201815
20
-30.066762151784026
30
0
10
11.878582077766582
20
-29.954375623952551
30
0
10
12.351581807437668
20
-29.72564377135096
30
0
10
12.634509448705719
20
-29.48220746906302
30
0
10
12.810980081558228
20
-29.324092864990234
30
0
0
SPLINE
5
106
100
AcDbEntity
8
0
100
AcDbSpline
70
0
71
3
72
41
73
37
74
0
42
0.000000001
43
0.0000000001
44
0.0000000001
40
0
40
0
40
0
40
0
40
0.30495088193528636
40
0.43732831854526932
40
0.54559438110115666
40
0.62440739941483459
40
0.67915632447978014
40
0.71790975619550623
40
0.74707947393092577
40
0.76566928667091849
40
0.78284216047723232
40
0.80001506624545138
40
0.81604344385831029
40
0.827658038529131
40
0.83915688691324131
40
0.85073847866470453
40
0.86340014184658109
40
0.87987471676849627
40
0.89859159618934248
40
0.92390761499127816
40
0.98146691679378917
40
1.0920738541837323
40
1.235221610016517
40
1.3828857485818076
40
1.5054885367952062
40
1.5551304943685458
40
1.5795625281628924
40
1.6019699850305777
40
1.6239607993538838
40
1.6440038429198731
40
1.6638255574479672
40
1.6836472939296339
40
1.7116960630676095
40
1.7901459886780633
40
1.8770357359840371
40
2.0508157581353834
40
2.0508157581353834
40
2.0508157581353834
40
2.0508157581353834
10
12.810980081558228
20
-29.324092864990234
30
0
10
11.962650959933008
20
-28.764124677638463
30
0
10
10.745265373359443
20
-27.962095320174054
30
0
10
9.232767865903611
20
-26.952378554695816
30
0
10
8.3506751820627017
20
-26.355521238145137
30
0
10
7.6917143666480357
20
-25.891820295686774
30
0
10
7.2278503226402737
20
-25.551541285804774
30
0
10
6.9145461817930141
20
-25.290905813251076
30
0
10
6.6845009339547783
20
-25.11135649264158
30
0
10
6.565014809776903
20
-24.929458009690855
30
0
10
6.4691372265890461
20
-24.780413452306004
30
0
10
6.3864859326233114
20
-24.638500202278301
30
0
10
6.282208057396228
20
-24.513116485846563
30
0
10
6.3165903963521899
20
-24.378284959467749
30
0
10
6.3472908650189499
20
-24.268854238888288
30
0
10
6.3777533329026177
20
-24.153269407724771
30
0
10
6.4261594061726734
20
-24.025218210361714
30
0
10
6.5272674777279267
20
-23.899831865147817
30
0
10
6.6526434512688981
20
-23.74246012650973
30
0
10
6.8892136290931658
20
-23.498617464894743
30
0
10
7.4037675348957155
20
-23.107499007324456
30
0
10
8.2371123640427122
20
-22.490362822577229
30
0
10
9.3218613340871883
20
-21.706848320552453
30
0
10
10.441575045258878
20
-20.901898875298844
30
0
10
11.300924768570898
20
-20.275097012196717
30
0
10
11.859668005528398
20
-19.92252162510535
30
0
10
12.166817235431633
20
-19.8228762368879
30
0
10
12.385599532212566
20
-19.756425838512595
30
0
10
12.590309770516111
20
-19.684167577172232
30
0
10
12.798465876237312
20
-19.684608683339054
30
0
10
12.996892879483577
20
-19.68188587033147
30
0
10
13.222652161473739
20
-19.674649209561615
30
0
10
13.643647320181707
20
-19.706301490127608
30
0
10
14.270860147115718
20
-19.864303600924281
30
0
10
15.380242023124804
20
-20.077735845897323
30
0
10
16.230093280500128
20
-20.261112396781051
30
0
10
16.797949075698853
20
-20.374767780303955
30
0
0
SPLINE
5
107
100
AcDbEntity
8
0
100
AcDbSpline
70
0
71
3
72
83
73
79
74
0
42
0.000000001
43
0.0000000001
44
0.0000000001
40
0
40
0
40
0
40
0
40
0.14213881153401439
40
0.14213881153401439
40
0.14213881153401439
40
0.21320821730102157
40
0.21320821730102157
40
0.21320821730102157
40
0.28427762306802878
40
0.28427762306802878
40
0.28427762306802878
40
0.42641643460204315
40
0.42641643460204315
40
0.42641643460204315
40
0.56855524613605757
40
0.56855524613605757
40
0.56855524613605757
40
0.71069405767007199
40
0.71069405767007199
40
0.71069405767007199
40
0.8528328692040863
40
0.8528328692040863
40
0.8528328692040863
40
0.99497168073810072
40
0.99497168073810072
40
0.99497168073810072
40
1.1371104922721151
40
1.1371104922721151
40
1.1371104922721151
40
1.421388115340144
40
1.421388115340144
40
1.421388115340144
40
1.7056657384081726
40
1.7056657384081726
40
1.7056657384081726
40
1.9899433614762014
40
1.9899433614762014
40
1.9899433614762014
40
2.2742209845442303
40
2.2742209845442303
40
2.2742209845442303
40
2.842776230680288
40
2.842776230680288
40
2.842776230680288
40
3.1270538537483166
40
3.1270538537483166
40
3.1270538537483166
40
3.4113314768163452
40
3.4113314768163452
40
3.4113314768163452
40
3.6956090998843738
40
3.6956090998843738
40
3.6956090998843738
40
3.9798867229524029
40
3.9798867229524029
40
3.9798867229524029
40
4.1220255344864176
40
4.1220255344864176
40
4.1220255344864176
40
4.2641643460204319
40
4.2641643460204319
40
4.2641643460204319
40
4.3352337517874391
40
4.3352337517874391
40
4.3352337517874391
40
4.3707684546709427
40
4.3707684546709427
40
4.3707684546709427
40
4.4063031575544462
40
4.4063031575544462
40
4.4063031575544462
40
4.4418378604379498
40
4.4418378604379498
40
4.4418378604379498
40
4.4773725633214534
40
4.4773725633214534
40
4.4773725633214534
40
4.5484419690884605
40
4.5484419690884605
40
4.5484419690884605
40
4.5484419690884605
10
16.797949075698853
20
-20.374767780303955
30
0
10
16.788933858654509
20
-19.901057518741631
30
0
10
16.808448155069215
20
-19.387583247411445
30
0
10
16.587696520673958
20
-18.979461541229384
30
0
10
16.477320703476327
20
-18.775400688138355
30
0
10
16.30687840357621
20
-18.597677976334353
30
0
10
16.113733234687182
20
-18.45835568838352
30
0
10
15.920588065798151
20
-18.319033400432687
30
0
10
15.704740027920209
20
-18.218111536335016
30
0
10
15.485671792956978
20
-18.126651900874684
30
0
10
15.04753532303052
20
-17.943732629954017
30
0
10
14.596518064762892
20
-17.798662273582689
30
0
10
14.146640917309041
20
-17.650493647398626
30
0
10
13.696763769855192
20
-17.502325021214563
30
0
10
13.248026733215116
20
-17.351058125217762
30
0
10
12.802612235103922
20
-17.188077253034692
30
0
10
12.357197736992729
20
-17.025096380851618
30
0
10
11.915105777410416
20
-16.850401532482273
30
0
10
11.494207390348629
20
-16.634649987390834
30
0
10
11.073309003286841
20
-16.418898442299398
30
0
10
10.67360418874558
20
-16.162090200485864
30
0
10
10.274833308559959
20
-15.905301874055692
30
0
10
9.8760624283743343
20
-15.648513547625516
30
0
10
9.4782254825443495
20
-15.391745136578699
30
0
10
9.0948981285897563
20
-15.112623783501274
30
0
10
8.7115707746351632
20
-14.833502430423849
30
0
10
8.3427530125559617
20
-14.532028135315812
30
0
10
8.0107231579023619
20
-14.194231221581894
30
0
10
7.3466634485951658
20
-13.518637394114055
30
0
10
6.8297553689903792
20
-12.697753092142676
30
0
10
6.4710710537598191
20
-11.819829408061459
30
0
10
6.1123867385292598
20
-10.941905723980243
30
0
10
5.9119261876729272
20
-10.006942657789185
30
0
10
5.7721427014044604
20
-9.0672600516487485
30
0
10
5.6323592151359927
20
-8.1275774455083116
30
0
10
5.5532527934553908
20
-7.1831752994184921
30
0
10
5.5011356084788856
20
-6.2371593399137337
30
0
10
5.4490184235023804
20
-5.2911433804089754
30
0
10
5.4238904752299719
20
-4.3435136074892799
30
0
10
5.4082979494502723
20
-3.3959423245249032
30
0
10
5.3771128978908713
20
-1.5007997585961486
30
0
10
5.3840695363023015
20
0.3941088475113344
30
0
10
5.4007594296129753
20
2.2895693189933604
30
0
10
5.4091043762683135
20
3.2372995547343724
30
0
10
5.4198826366484614
20
4.1851677568190215
30
0
10
5.4522477110006795
20
5.1320526827608131
30
0
10
5.4846127853528994
20
6.0789376087026037
30
0
10
5.5385646736771879
20
7.0248392585015367
30
0
10
5.6270823888983115
20
7.9691047828407235
30
0
10
5.7156001041194333
20
8.9133703071799104
30
0
10
5.8386836462373903
20
9.8559997060593556
30
0
10
6.0766466225191049
20
10.776537551122471
30
0
10
6.3146095988008213
20
11.697075396185589
30
0
10
6.6674520092462943
20
12.595521687432377
30
0
10
7.2036620916254437
20
13.376528660890173
30
0
10
7.4717671328150184
20
13.767032147619069
30
0
10
7.7857140919880132
20
14.128175804900717
30
0
10
8.1301579751228932
20
14.455786488572119
30
0
10
8.4746018582577705
20
14.78339717224352
30
0
10
8.8495426653545319
20
15.077474882304671
30
0
10
9.233264788312777
20
15.352503871981945
30
0
10
9.4251258497918986
20
15.490018366820578
30
0
10
9.6191822402363929
20
15.622770681563248
30
0
10
9.8100418641966129
20
15.762616512113057
30
0
10
9.9054716761767221
20
15.83253942738796
30
0
10
10.000102296535761
20
15.904235721614647
30
0
10
10.094403919691494
20
15.978523416975312
30
0
10
10.188705542847227
20
16.052811112335977
30
0
10
10.28267816879965
20
16.129690208830617
30
0
10
10.366655784723562
20
16.215552137934523
30
0
10
10.450633400647471
20
16.301414067038429
30
0
10
10.524616006542871
20
16.396258828751598
30
0
10
10.573976284145489
20
16.503393567048192
30
0
10
10.623336561748109
20
16.610528305344786
30
0
10
10.648074511057953
20
16.729953020224801
30
0
10
10.665055934683291
20
16.848520769863381
30
0
10
10.699018781933969
20
17.085656269140536
30
0
10
10.701955526446636
20
17.319363907451937
30
0
10
10.715579986572266
20
17.555869817733765
30
0
0
SPLINE
5
108
100
AcDbEntity
8
0
100
AcDbSpline
70
0
71
3
72
44
73
40
74
0
42
0.000000001
43
0.0000000001
44
0.0000000001
40
0
40
0
40
0
40
0
40
0.15339783825955586
40
0.15339783825955586
40
0.15339783825955586
40
0.30679567651911172
40
0.30679567651911172
40
0.30679567651911172
40
0.38349459564888966
40
0.38349459564888966
40
0.38349459564888966
40
0.4218440552137786
40
0.4218440552137786
40
0.4218440552137786
40
0.46019351477866755
40
0.46019351477866755
40
0.46019351477866755
40
0.53689243390844554
40
0.53689243390844554
40
0.53689243390844554
40
0.61359135303822343
40
0.61359135303822343
40
0.61359135303822343
40
0.76698919129777932
40
0.76698919129777932
40
0.76698919129777932
40
0.92038702955733509
40
0.92038702955733509
40
0.92038702955733509
40
1.0737848678168911
40
1.0737848678168911
40
1.0737848678168911
40
1.1504837869466691
40
1.1504837869466691
40
1.1504837869466691
40
1.1888332465115581
40
1.1888332465115581
40
1.1888332465115581
40
1.2022831468401816
40
1.2022831468401816
40
1.2022831468401816
40
1.2022831468401816
10
10.715579986572266
20
17.555869817733765
30
0
10
10.205730710969018
20
17.594704401078584
30
0
10
9.6954299707590721
20
17.630858367856241
30
0
10
9.1869739420189553
20
17.684418881087822
30
0
10
8.6785179132788386
20
17.737979394319407
30
0
10
8.1719065960085473
20
17.808946454004921
30
0
10
7.665664926490134
20
17.880081288599186
30
0
10
7.4125440917309291
20
17.91564870589632
30
0
10
7.1595156689096919
20
17.951258066920644
30
0
10
6.9109284505312543
20
18.015604568170577
30
0
10
6.7866348413420354
20
18.047777818795545
30
0
10
6.6634515332635145
20
18.087135354476914
30
0
10
6.5492833740505496
20
18.144142700299174
30
0
10
6.4351152148375848
20
18.20115004612143
30
0
10
6.3299622044901751
20
18.275807202084575
30
0
10
6.2303324853215125
20
18.356449180065336
30
0
10
6.0310730469841882
20
18.517733136026862
30
0
10
5.8539067733618557
20
18.702956380058854
30
0
10
5.6838182029432547
20
18.894252901409612
30
0
10
5.5137296325246528
20
19.085549422760355
30
0
10
5.3507187653097859
20
19.282919221429864
30
0
10
5.19148682996879
20
19.482599925598379
30
0
10
4.8730229592867991
20
19.881961333935418
30
0
10
4.5696748161002994
20
20.290566364268486
30
0
10
4.2676778586941388
20
20.706474871083465
30
0
10
3.9656809012879783
20
21.122383377898444
30
0
10
3.6650351296621562
20
21.545595361195335
30
0
10
3.3723774169830079
20
21.955673934780819
30
0
10
3.0797197043038587
20
22.365752508366295
30
0
10
2.7950500505713833
20
22.76269767224036
30
0
10
2.5061162378245978
20
23.209681885622597
30
0
10
2.3616493314512041
20
23.433173992313719
30
0
10
2.2161163853242343
20
23.669175861381881
30
0
10
2.0947989290983293
20
23.880003610534537
30
0
10
2.0341402009853766
20
23.985417485110865
30
0
10
1.9795353453476898
20
24.084537829708314
30
0
10
1.9440262953199667
20
24.205474087510765
30
0
10
1.9315725817851286
20
24.247888782059654
30
0
10
1.9214677308933319
20
24.292986923675276
30
0
10
1.9129328877134879
20
24.339143684549018
30
0
0
SPLINE
5
109
100
AcDbEntity
8
0
100
AcDbSpline
70
0
71
3
72
8
73
4
74
0
42
0.000000001
43
0.0000000001
44
0.0000000001
40
0.026105045599007802
40
0.026105045599007802
40
0.026105045599007802
40
0.026105045599007802
40
0.11637291990545721
40
0.11637291990545721
40
0.11637291990545721
40
0.11637291990545721
10
1.9129328877131364
20
24.339143684546613
30
0
10
1.9550767389248758
20
24.639967425615229
30
0
10
2.0639306409467202
20
24.914769177524892
30
0
10
2.239494593778669
20
25.163548940275597
30
0
0
SPLINE
5
110
100
AcDbEntity
8
0
100
AcDbSpline
70
0
71
3
72
16
73
12
74
0
42
0.000000001
43
0.0000000001
44
0.0000000001
40
0.032594608523871943
40
0.032594608523871943
40
0.032594608523871943
40
0.032594608523871943
40
0.043835738723335127
40
0.083017409847073842
40
0.14887177739527346
40
0.23155586916749199
40
0.31826461979132253
40
0.40634168110894842
40
0.49564801213546328
40
0.58590678391915763
40
0.76801816510401422
40
0.76801816510401422
40
0.76801816510401422
40
0.76801816510401422
10
2.2394945937804085
20
25.163548940278034
30
0
10
2.2695171764101376
20
25.186040017488303
30
0
10
2.4079332678322389
20
25.281510105999434
30
0
10
2.7690680859827332
20
25.431419723469002
30
0
10
3.3657419677272262
20
25.616287044229402
30
0
10
4.1206914331430884
20
25.830076320043226
30
0
10
4.9478287329238357
20
26.058492198285229
30
0
10
5.7981771513118137
20
26.286391324829065
30
0
10
6.6620047125319015
20
26.50936258818156
30
0
10
7.83133785246513
20
26.802834943468554
30
0
10
8.713372520405704
20
27.018021251109786
30
0
10
9.3031102418899536
20
27.161908149719238
30
0
0
SPLINE
5
111
100
AcDbEntity
8
0
100
AcDbSpline
70
0
71
3
72
21
73
17
74
0
42
0.000000001
43
0.0000000001
44
0.0000000001
40
0
40
0
40
0
40
0
40
0.13729341324038086
40
0.20837272219878147
40
0.30303621958229654
40
0.45671128633649943
40
0.65072146793335872
40
0.85304577302407769
40
1.0561885001863818
40
1.2593312273486859
40
1.4616555919490297
40
1.6556657735458891
40
1.8093407817716942
40
1.9040042791552092
40
1.9750835881136097
40
2.1123770013539906
40
2.1123770013539906
40
2.1123770013539906
40
2.1123770013539906
10
9.3031102418899536
20
27.161908149719238
30
0
10
9.1021717219159939
20
27.577708116789587
30
0
10
8.8206484439123294
20
28.199016416390918
30
0
10
8.3150014544703961
20
29.102531872509193
30
0
10
7.3143455412986826
20
29.60068622084199
30
0
10
5.8517605547073419
20
29.784892820509373
30
0
10
4.0236522913740016
20
29.933128275159994
30
0
10
2.0287355487576884
20
30.048281186966289
30
0
10
5.0302279658180221e-11
20
30.102542649515279
30
0
10
-2.0287357473274632
20
30.048281173332612
30
0
10
-4.0236526865937501
20
29.933128281954854
30
0
10
-5.8517609678541307
20
29.78489289726334
30
0
10
-7.3143457220770367
20
29.600686119178647
30
0
10
-8.3150014548636015
20
29.102531874093998
30
0
10
-8.820648443690061
20
28.199016415495066
30
0
10
-9.1021717220249432
20
27.57770811722871
30
0
10
-9.3031102418899536
20
27.161908149719238
30
0
0
SPLINE
5
112
100
AcDbEntity
8
0
100
AcDbSpline
70
2
71
3
72
419
73
415
74
0
42
0.000000001
43
0.0000000001
44
0.0000000001
40
0
40
0
40
0
40
0
40
0.011044613057588172
40
0.011044613057588172
40
0.011044613057588172
40
0.0220860043055408
40
0.0220860043055408
40
0.0220860043055408
40
0.033130219494432615
40
0.033130219494432615
40
0.033130219494432615
40
0.044173880834877041
40
0.044173880834877041
40
0.044173880834877041
40
0.055215668650494147
40
0.055215668650494147
40
0.055215668650494147
40
0.066258648908251672
40
0.066258648908251672
40
0.066258648908251672
40
0.077302372154210985
40
0.077302372154210985
40
0.077302372154210985
40
0.08834537362539932
40
0.08834537362539932
40
0.08834537362539932
40
0.099388635012508622
40
0.099388635012508622
40
0.099388635012508622
40
0.11043112675799359
40
0.11043112675799359
40
0.11043112675799359
40
0.12147458195522257
40
0.12147458195522257
40
0.12147458195522257
40
0.13251807371599825
40
0.13251807371599825
40
0.13251807371599825
40
0.14356114072687781
40
0.14356114072687781
40
0.14356114072687781
40
0.14485845500556016
40
0.14485845500556016
40
0.14485845500556016
40
0.15460388323687627
40
0.15460388323687627
40
0.15460388323687627
40
0.16564719694235833
40
0.16564719694235833
40
0.16564719694235833
40
0.17669049909310652
40
0.17669049909310652
40
0.17669049909310652
40
0.18479387703618816
40
0.18479387703618816
40
0.18479387703618816
40
0.18773335979827238
40
0.18773335979827238
40
0.18773335979827238
40
0.19877638082601484
40
0.19877638082601484
40
0.19877638082601484
40
0.20981952560061107
40
0.20981952560061107
40
0.20981952560061107
40
0.22086313277287356
40
0.22086313277287356
40
0.22086313277287356
40
0.23190582220687408
40
0.23190582220687408
40
0.23190582220687408
40
0.24294881458411632
40
0.24294881458411632
40
0.24294881458411632
40
0.25399205285808746
40
0.25399205285808746
40
0.25399205285808746
40
0.26503548740120464
40
0.26503548740120464
40
0.26503548740120464
40
0.27607816379160521
40
0.27607816379160521
40
0.27607816379160521
40
0.28712129278287218
40
0.28712129278287218
40
0.28712129278287218
40
0.29816412242097701
40
0.29816412242097701
40
0.29816412242097701
40
0.30920759098971212
40
0.30920759098971212
40
0.30920759098971212
40
0.32025066691988924
40
0.32025066691988924
40
0.32025066691988924
40
0.33129373749805202
40
0.33129373749805202
40
0.33129373749805202
40
0.34233688650423461
40
0.34233688650423461
40
0.34233688650423461
40
0.35338485712520051
40
0.35338485712520051
40
0.35338485712520051
40
0.36443283016688377
40
0.36443283016688377
40
0.36443283016688377
40
0.37547597824426815
40
0.37547597824426815
40
0.37547597824426815
40
0.38651904882243093
40
0.38651904882243093
40
0.38651904882243093
40
0.39756212108211236
40
0.39756212108211236
40
0.39756212108211236
40
0.40860559328556151
40
0.40860559328556151
40
0.40860559328556151
40
0.41964842292366633
40
0.41964842292366633
40
0.41964842292366633
40
0.4306915519149333
40
0.4306915519149333
40
0.4306915519149333
40
0.44173422830533388
40
0.44173422830533388
40
0.44173422830533388
40
0.45277766284845106
40
0.45277766284845106
40
0.45277766284845106
40
0.46382090112242219
40
0.46382090112242219
40
0.46382090112242219
40
0.4748638934996644
40
0.4748638934996644
40
0.4748638934996644
40
0.48590658293366495
40
0.48590658293366495
40
0.48590658293366495
40
0.49695019010592745
40
0.49695019010592745
40
0.49695019010592745
40
0.50799333488052367
40
0.50799333488052367
40
0.50799333488052367
40
0.51903635590826613
40
0.51903635590826613
40
0.51903635590826613
40
0.52197583867035036
40
0.52197583867035036
40
0.52197583867035036
40
0.53007921661343205
40
0.53007921661343205
40
0.53007921661343205
40
0.54112251876418027
40
0.54112251876418027
40
0.54112251876418027
40
0.55216583246966233
40
0.55216583246966233
40
0.55216583246966233
40
0.56191126070097841
40
0.56191126070097841
40
0.56191126070097841
40
0.5632085749796607
40
0.5632085749796607
40
0.5632085749796607
40
0.57425164199054024
40
0.57425164199054024
40
0.57425164199054024
40
0.58529513375131592
40
0.58529513375131592
40
0.58529513375131592
40
0.59633858894854486
40
0.59633858894854486
40
0.59633858894854486
40
0.60738108069402985
40
0.60738108069402985
40
0.60738108069402985
40
0.61842434208113917
40
0.61842434208113917
40
0.61842434208113917
40
0.62946734355232747
40
0.62946734355232747
40
0.62946734355232747
40
0.64051106679828673
40
0.64051106679828673
40
0.64051106679828673
40
0.65155404705604425
40
0.65155404705604425
40
0.65155404705604425
40
0.6625958348716614
40
0.6625958348716614
40
0.6625958348716614
40
0.67363949621210584
40
0.67363949621210584
40
0.67363949621210584
40
0.68468371140099771
40
0.68468371140099771
40
0.68468371140099771
40
0.69572510264895038
40
0.69572510264895038
40
0.69572510264895038
40
0.70676971570653857
40
0.70676971570653857
40
0.70676971570653857
40
0.71781158777720477
40
0.71781158777720477
40
0.71781158777720477
40
0.72044561327329359
40
0.72044561327329359
40
0.72044561327329359
40
0.72885571341359146
40
0.72885571341359146
40
0.72885571341359146
40
0.73989720740931508
40
0.73989720740931508
40
0.73989720740931508
40
0.75094169092994023
40
0.75094169092994023
40
0.75094169092994023
40
0.76198568868360816
40
0.76198568868360816
40
0.76198568868360816
40
0.77302866894136568
40
0.77302866894136568
40
0.77302866894136568
40
0.78407126027663332
40
0.78407126027663332
40
0.78407126027663332
40
0.79511392808114467
40
0.79511392808114467
40
0.79511392808114467
40
0.80615577270270766
40
0.80615577270270766
40
0.80615577270270766
40
0.81719964869532702
40
0.81719964869532702
40
0.81719964869532702
40
0.82824279272343038
40
0.82824279272343038
40
0.82824279272343038
40
0.8392859823343124
40
0.8392859823343124
40
0.8392859823343124
40
0.85033002395526269
40
0.85033002395526269
40
0.85033002395526269
40
0.86137248453167037
40
0.86137248453167037
40
0.86137248453167037
40
0.87241552743807216
40
0.87241552743807216
40
0.87241552743807216
40
0.8770328875949901
40
0.8770328875949901
40
0.8770328875949901
40
0.88345787988741775
40
0.88345787988741775
40
0.88345787988741775
40
0.8945015626180437
40
0.8945015626180437
40
0.8945015626180437
40
0.90554559592622219
40
0.90554559592622219
40
0.90554559592622219
40
0.91658822733991052
40
0.91658822733991052
40
0.91658822733991052
40
0.92763121672729698
40
0.92763121672729698
40
0.92763121672729698
40
0.9386742888122851
40
0.9386742888122851
40
0.9386742888122851
40
0.94971728118952736
40
0.94971728118952736
40
0.94971728118952736
40
0.96076035866231302
40
0.96076035866231302
40
0.96076035866231302
40
0.96718133852100352
40
0.96718133852100352
40
0.96718133852100352
40
0.97180364827999921
40
0.97180364827999921
40
0.97180364827999921
40
0.98284671072493612
40
0.98284671072493612
40
0.98284671072493612
40
0.99388987711522891
40
0.99388987711522891
40
0.99388987711522891
40
1.0049328021207715
40
1.0049328021207715
40
1.0049328021207715
40
1.0159761698244285
40
1.0159761698244285
40
1.0159761698244285
40
1.0270193235778886
40
1.0270193235778886
40
1.0270193235778886
40
1.038062146018244
40
1.038062146018244
40
1.038062146018244
40
1.0491052940956285
40
1.0491052940956285
40
1.0491052940956285
40
1.0601533138065851
40
1.0601533138065851
40
1.0601533138065851
40
1.0712013370554974
40
1.0712013370554974
40
1.0712013370554974
40
1.08224448606168
40
1.08224448606168
40
1.08224448606168
40
1.0932873085020354
40
1.0932873085020354
40
1.0932873085020354
40
1.1043304659259641
40
1.1043304659259641
40
1.1043304659259641
40
1.1153738299948726
40
1.1153738299948726
40
1.1153738299948726
40
1.1264167550004152
40
1.1264167550004152
40
1.1264167550004152
40
1.137459921390708
40
1.137459921390708
40
1.137459921390708
40
1.1485029838356449
40
1.1485029838356449
40
1.1485029838356449
40
1.1531252935946406
40
1.1531252935946406
40
1.1531252935946406
40
1.1595462734533311
40
1.1595462734533311
40
1.1595462734533311
40
1.1705893509261167
40
1.1705893509261167
40
1.1705893509261167
40
1.1816323433033589
40
1.1816323433033589
40
1.1816323433033589
40
1.192675415388347
40
1.192675415388347
40
1.192675415388347
40
1.2037184047757334
40
1.2037184047757334
40
1.2037184047757334
40
1.2147610361894219
40
1.2147610361894219
40
1.2147610361894219
40
1.2258050694976004
40
1.2258050694976004
40
1.2258050694976004
40
1.2368487522282263
40
1.2368487522282263
40
1.2368487522282263
40
1.2432737547960702
40
1.2432737547960702
40
1.2432737547960702
40
1.2478911046774703
40
1.2478911046774703
40
1.2478911046774703
40
1.2589341475838722
40
1.2589341475838722
40
1.2589341475838722
40
1.2699766081602799
40
1.2699766081602799
40
1.2699766081602799
40
1.2810206497812302
40
1.2810206497812302
40
1.2810206497812302
40
1.2920638393921122
40
1.2920638393921122
40
1.2920638393921122
40
1.3031069834202156
40
1.3031069834202156
40
1.3031069834202156
40
1.3141508594128348
40
1.3141508594128348
40
1.3141508594128348
40
1.3251927040343978
40
1.3251927040343978
40
1.3251927040343978
40
1.3362353718389093
40
1.3362353718389093
40
1.3362353718389093
40
1.3472779631741769
40
1.3472779631741769
40
1.3472779631741769
40
1.3583209434319345
40
1.3583209434319345
40
1.3583209434319345
40
1.3693649411856024
40
1.3693649411856024
40
1.3693649411856024
40
1.3804094247062275
40
1.3804094247062275
40
1.3804094247062275
40
1.3914509187019513
40
1.3914509187019513
40
1.3914509187019513
40
1.3998614943882963
40
1.3998614943882963
40
1.3998614943882963
40
1.402495044338129
40
1.402495044338129
40
1.402495044338129
40
1.4135369164087952
40
1.4135369164087952
40
1.4135369164087952
40
1.4135369164087952
10
-2.2499580681324005
20
16.217323541641235
30
0
10
-2.249785668051941
20
16.254154589189383
30
0
10
-2.2490070825929203
20
16.290964869736271
30
0
10
-2.247246354818345
20
16.327736377716064
30
0
10
-2.2454861406633664
20
16.364497159127332
30
0
10
-2.2427443571081613
20
16.401219190588797
30
0
10
-2.2391247749328609
20
16.437851190567017
30
0
10
-2.2355042670149565
20
16.474492559528009
30
0
10
-2.2310055114088283
20
16.511043850947054
30
0
10
-2.225606888532639
20
16.547462940216068
30
0
10
-2.2202085363881263
20
16.583880203130224
30
0
10
-2.2139104072248901
20
16.62016527715344
30
0
10
-2.20672607421875
20
16.656273603439331
30
0
10
-2.1995429600136793
20
16.692375804053338
30
0
10
-2.1914739426239773
20
16.728301316894413
30
0
10
-2.1825300157070164
20
16.764007806777954
30
0
10
-2.1735851229034129
20
16.799718152732993
30
0
10
-2.1637651315931326
20
16.835209428421791
30
0
10
-2.1530786156654358
20
16.870437860488892
30
0
10
-2.1423913807329891
20
16.905668662777504
30
0
10
-2.1308375045770629
20
16.940636586074199
30
0
10
-2.1184340119361877
20
16.975300312042236
30
0
10
-2.1060313299393196
20
17.009961772524051
30
0
10
-2.0927791425091273
20
17.04431907543821
30
0
10
-2.0786933600902557
20
17.078331708908081
30
0
10
-2.0646072461384115
20
17.112345142923438
30
0
10
-2.049687497957259
20
17.14601389126954
30
0
10
-2.0339436829090114
20
17.17929124832153
30
0
10
-2.0182009650996107
20
17.212566286163803
30
0
10
-2.001634295283035
20
17.245449987264777
30
0
10
-1.9842921197414398
20
17.277923822402954
30
0
10
-1.9669484311039187
20
17.310400490866602
30
0
10
-1.9488291014105206
20
17.342467221843137
30
0
10
-1.9298608601093294
20
17.374012470245361
30
0
10
-1.9108925560065815
20
17.405557823090092
30
0
10
-1.8910753346747442
20
17.436581689907374
30
0
10
-1.8707825243473053
20
17.467316389083859
30
0
10
-1.850490494512963
20
17.498049906155941
30
0
10
-1.8297229122661027
20
17.528494277830472
30
0
10
-1.8071892857551575
20
17.557598352432251
30
0
10
-1.8045420868026976
20
17.56101743261274
30
0
10
-1.8018705146494822
20
17.564418015335214
30
0
10
-1.7992073297500608
20
17.567825317382809
30
0
10
-1.77920147786782
20
17.593420979215026
30
0
10
-1.7596689202522475
20
17.619395813793513
30
0
10
-1.7392507195472717
20
17.6446533203125
30
0
10
-1.7161132452019199
20
17.673274593927864
30
0
10
-1.6918385214950504
20
17.700974750574751
30
0
10
-1.6671197116374969
20
17.728275060653687
30
0
10
-1.6424009276434914
20
17.755575342168029
30
0
10
-1.6172380584281054
20
17.782475777951149
30
0
10
-1.5909744799137118
20
17.808258533477783
30
0
10
-1.5717027349288559
20
17.82717745913919
30
0
10
-1.5518383281713166
20
17.845494585249433
30
0
10
-1.5322868525981903
20
17.864135503768917
30
0
10
-1.5251945972666241
20
17.870897456505457
30
0
10
-1.5181435192941199
20
17.87770201578606
30
0
10
-1.5109968185424805
20
17.884403467178345
30
0
10
-1.4841481607795146
20
17.909579416360963
30
0
10
-1.4559499332996633
20
17.933300154924328
30
0
10
-1.4273770153522491
20
17.95653223991394
30
0
10
-1.3988037772199247
20
17.979764585239689
30
0
10
-1.3698558402225105
20
18.002508266040024
30
0
10
-1.3403178751468658
20
18.024471998214722
30
0
10
-1.3107786732599327
20
18.046436650053042
30
0
10
-1.2806493938825183
20
18.067621287948462
30
0
10
-1.2500302493572235
20
18.088066577911377
30
0
10
-1.2194136493230574
20
18.108510168843843
30
0
10
-1.1883072655545019
20
18.128214534720261
30
0
10
-1.1567331850528715
20
18.147140741348267
30
0
10
-1.12515823835335
20
18.166067467194573
30
0
10
-1.0931155692589778
20
18.184215991096096
30
0
10
-1.0606483370065691
20
18.201569318771362
30
0
10
-1.0281803817991917
20
18.218923032856974
30
0
10
-0.99528784452588526
20
18.235481515302308
30
0
10
-0.96200935542583466
20
18.251224756240845
30
0
10
-0.928730274874212
20
18.266968276980684
30
0
10
-0.8950652287768418
20
18.28189652723524
30
0
10
-0.86105175316333771
20
18.295983076095581
30
0
10
-0.82704061263941431
20
18.310068657887637
30
0
10
-0.79268109043840873
20
18.323312653850312
30
0
10
-0.75801976025104523
20
18.335713148117065
30
0
10
-0.72335700941641101
20
18.34811415063691
30
0
10
-0.68839242585479443
20
18.359671582315027
30
0
10
-0.65316356718540192
20
18.37035775184631
30
0
10
-0.61793566348721829
20
18.381043631700756
30
0
10
-0.58244349900881354
20
18.390858296643444
30
0
10
-0.54673355072736729
20
18.399803638458252
30
0
10
-0.51102153629254299
20
18.408749497844468
30
0
10
-0.4750917128523019
20
18.416825933502995
30
0
10
-0.43898396193981165
20
18.424007892608639
30
0
10
-0.40287749479927804
20
18.431189596367513
30
0
10
-0.36659311283830731
20
18.437476887176658
30
0
10
-0.33017750829458237
20
18.442878723144531
30
0
10
-0.29376192139963919
20
18.448280556494417
30
0
10
-0.25721511204913561
20
18.452796935861304
30
0
10
-0.22057896479964259
20
18.45641016960144
30
0
10
-0.18394255735979198
20
18.46002342900281
30
0
10
-0.14721681075198986
20
18.46273352994908
30
0
10
-0.1104468014091253
20
18.464535474777222
30
0
10
-0.073660737694402553
20
18.466338206363176
30
0
10
-0.036830372584548861
20
18.467231988627027
30
0
10
-7.4505807043729171e-09
20
18.46723198890686
30
0
10
0.036830365753277111
20
18.467231989186701
30
0
10
0.073660738981249377
20
18.466338207090843
30
0
10
0.11044681072235107
20
18.464535474777222
30
0
10
0.14721681693883781
20
18.462733529768116
30
0
10
0.18394256035544496
20
18.460023428296726
30
0
10
0.22057896479964256
20
18.45641016960144
30
0
10
0.25721511213483406
20
18.452796936263475
30
0
10
0.29376192175154781
20
18.448280558378016
30
0
10
0.33017750829458237
20
18.442878723144531
30
0
10
0.3665931003825863
20
18.437476887088515
30
0
10
0.40287746935694868
20
18.43118959341481
30
0
10
0.43898392468690878
20
18.424007892608646
30
0
10
0.47509168767396326
20
18.416825931704892
30
0
10
0.51102152412948754
20
18.408749498882532
30
0
10
0.54673355072736751
20
18.399803638458252
30
0
10
0.58244349941802365
20
18.390858298549603
30
0
10
0.61793566359686691
20
18.381043632211515
30
0
10
0.65316356718540192
20
18.370357751846313
30
0
10
0.68839242574514259
20
18.359671581804264
30
0
10
0.72335700938703051
20
18.348114150500056
30
0
10
0.75801976025104523
20
18.335713148117065
30
0
10
0.79268109046778834
20
18.323312653987163
30
0
10
0.82704061264728679
20
18.310068657924312
30
0
10
0.86105175316333771
20
18.295983076095581
30
0
10
0.89506522876896866
20
18.281896527198565
30
0
10
0.92873027487210225
20
18.266968276970857
30
0
10
0.96200935542583466
20
18.251224756240845
30
0
10
0.99528784452799468
20
18.235481515312131
30
0
10
1.0281803817997566
20
18.218923032859603
30
0
10
1.0606483370065691
20
18.201569318771362
30
0
10
1.0931155692584127
20
18.184215991093463
30
0
10
1.1251582383531986
20
18.166067467193862
30
0
10
1.1567331850528717
20
18.147140741348267
30
0
10
1.1883072655546536
20
18.128214534720964
30
0
10
1.2194136493230978
20
18.108510168844028
30
0
10
1.2500302493572233
20
18.088066577911377
30
0
10
1.2806493938824777
20
18.06762128794827
30
0
10
1.310778673259922
20
18.046436650052993
30
0
10
1.3403178751468658
20
18.024471998214722
30
0
10
1.3698558402225212
20
18.002508266040071
30
0
10
1.3988037772199275
20
17.9797645852397
30
0
10
1.4273770153522494
20
17.95653223991394
30
0
10
1.4559499332996608
20
17.933300154924314
30
0
10
1.4841481607795139
20
17.909579416360959
30
0
10
1.5109968185424805
20
17.884403467178345
30
0
10
1.5181435192941199
20
17.87770201578606
30
0
10
1.5251945972666241
20
17.870897456505457
30
0
10
1.5322868525981903
20
17.864135503768917
30
0
10
1.5518383281713164
20
17.845494585249433
30
0
10
1.5717027349288553
20
17.827177459139179
30
0
10
1.5909744799137111
20
17.808258533477776
30
0
10
1.6172380584281043
20
17.782475777951134
30
0
10
1.6424009276434908
20
17.755575342168022
30
0
10
1.6671197116374969
20
17.728275060653687
30
0
10
1.6918385214950502
20
17.700974750574755
30
0
10
1.7161132452019201
20
17.673274593927868
30
0
10
1.7392507195472717
20
17.6446533203125
30
0
10
1.7596689202522475
20
17.61939581379351
30
0
10
1.7792014778678191
20
17.593420979215018
30
0
10
1.799207329750061
20
17.567825317382809
30
0
10
1.8018705146494827
20
17.564418015335221
30
0
10
1.804542086802698
20
17.56101743261274
30
0
10
1.8071892857551577
20
17.557598352432251
30
0
10
1.8297229122661052
20
17.528494277830479
30
0
10
1.8504904945129801
20
17.498049906155941
30
0
10
1.8707825243473053
20
17.467316389083862
30
0
10
1.8910753346747267
20
17.436581689907374
30
0
10
1.910892556006514
20
17.405557823090099
30
0
10
1.9298608601093294
20
17.374012470245361
30
0
10
1.9488291014105878
20
17.342467221843133
30
0
10
1.9669484311041714
20
17.310400490866584
30
0
10
1.9842921197414398
20
17.277923822402954
30
0
10
2.0016342952827824
20
17.245449987264792
30
0
10
2.0182009650986679
20
17.21256628616387
30
0
10
2.0339436829090123
20
17.179291248321533
30
0
10
2.0496874979582032
20
17.146013891269476
30
0
10
2.0646072461419323
20
17.112345142923182
30
0
10
2.0786933600902562
20
17.078331708908081
30
0
10
2.0927791425056066
20
17.044319075438466
30
0
10
2.1060313299261804
20
17.009961772525006
30
0
10
2.1184340119361877
20
16.97530031204224
30
0
10
2.130837504590203
20
16.94063658607325
30
0
10
2.1423913807820312
20
16.905668662773948
30
0
10
2.1530786156654358
20
16.870437860488892
30
0
10
2.1637651315440944
20
16.835209428425348
30
0
10
2.1735851227204046
20
16.799718152746259
30
0
10
2.1825300157070164
20
16.764007806777954
30
0
10
2.1914739428069661
20
16.728301316881144
30
0
10
2.1995429606965686
20
16.692375804003827
30
0
10
2.20672607421875
20
16.656273603439331
30
0
10
2.2139104065418853
20
16.620165277202958
30
0
10
2.2202085338389264
20
16.583880203315058
30
0
10
2.2256068885326385
20
16.547462940216068
30
0
10
2.2310055139581557
20
16.511043850762206
30
0
10
2.2355042765294502
20
16.474492558838143
30
0
10
2.2391247749328609
20
16.437851190567017
30
0
10
2.2427443475961004
20
16.401219191278493
30
0
10
2.2454861051680122
20
16.364497161700996
30
0
10
2.2472463548183441
20
16.327736377716064
30
0
10
2.2490071180986302
20
16.290964867161865
30
0
10
2.2497858005778943
20
16.254154579580341
30
0
10
2.2499580681324005
20
16.217323541641235
30
0
10
2.2501302929345615
20
16.180501644211876
30
0
10
2.2496964037675746
20
16.143659006723063
30
0
10
2.2472463548183441
20
16.106938123703003
30
0
10
2.2466618985452018
20
16.098178400578636
30
0
10
2.2459627116168472
20
16.0894256059577
30
0
10
2.2453096508979793
20
16.080669164657589
30
0
10
2.2432245131301305
20
16.05271098873412
30
0
10
2.2416096051666119
20
16.024715637043229
30
0
10
2.2391247749328613
20
15.996795892715454
30
0
10
2.2358624786880297
20
15.960140480269164
30
0
10
2.2311007262020373
20
15.923615389733666
30
0
10
2.2256068885326385
20
15.887211561203003
30
0
10
2.2201115633865887
20
15.850797876202559
30
0
10
2.2138837565739804
20
15.814505518880107
30
0
10
2.2067260742187504
20
15.778392553329468
30
0
10
2.1995687066782028
20
15.742281176127015
30
0
10
2.1914815453902348
20
15.706349174916436
30
0
10
2.182530015707016
20
15.67063570022583
30
0
10
2.1735793107382753
20
15.634925515857736
30
0
10
2.1637643966374078
20
15.59943381774529
30
0
10
2.1530786156654358
20
15.564205646514893
30
0
10
2.1423932110357602
20
15.528978715984721
30
0
10
2.1308370008759843
20
15.494015293774632
30
0
10
2.1184340119361877
20
15.459355115890499
30
0
10
2.1060309371064805
20
15.424694697986837
30
0
10
2.0927810717689339
20
15.390337528609038
30
0
10
2.0786933600902557
20
15.356327295303345
30
0
10
2.0646066985893285
20
15.322319597312905
30
0
10
2.0496823156582296
20
15.28865878367135
30
0
10
2.0339436829090114
20
15.255383253097534
30
0
10
2.0182021547193911
20
15.222101600815616
30
0
10
2.0016460770885867
20
15.189205373375733
30
0
10
1.9842921197414398
20
15.156735181808472
30
0
10
1.9669393125775259
20
15.124267142296164
30
0
10
1.948788731457292
20
15.092225082184854
30
0
10
1.9298608601093292
20
15.060650110244751
30
0
10
1.9109329106328037
20
15.029075007972654
30
0
10
1.8912276645116954
20
14.997966997727774
30
0
10
1.8707825243473053
20
14.967349767684937
30
0
10
1.8503358067885314
20
14.936730175445199
30
0
10
1.8291490810126707
20
14.906601439140301
30
0
10
1.8071892857551572
20
14.877055883407591
30
0
10
1.7852326342212588
20
14.847514557361913
30
0
10
1.7625031345322548
20
14.818556244926278
30
0
10
1.7392507195472717
20
14.790004491806028
30
0
10
1.7159970783338963
20
14.76145123299399
30
0
10
1.6922204666706588
20
14.733304576378714
30
0
10
1.6671197116374967
20
14.70638632774353
30
0
10
1.6566244860750303
20
14.695131164669771
30
0
10
1.6458977637118708
20
14.684090761208747
30
0
10
1.6352793574333191
20
14.672946929931641
30
0
10
1.6205039931171212
20
14.657440444054366
30
0
10
1.6059383540276793
20
14.641733697779387
30
0
10
1.5909744799137115
20
14.626415967941286
30
0
10
1.5652536275586895
20
14.600086886008409
30
0
10
1.5383561935444487
20
14.574907149503682
30
0
10
1.5109968185424805
20
14.550259113311768
30
0
10
1.4836365750274483
20
14.525610294677218
30
0
10
1.4558143611959375
20
14.501493210113273
30
0
10
1.4273770153522491
20
14.47811484336853
30
0
10
1.3989432792548682
20
14.454739444199367
30
0
10
1.3698945673012033
20
14.432102575320325
30
0
10
1.3403178751468658
20
14.410183429718018
30
0
10
1.3107402241922683
20
14.388263573553413
30
0
10
1.2806345588049246
20
14.367061487199779
30
0
10
1.2500302493572235
20
14.346599578857425
30
0
10
1.2194257107231219
20
14.32613751728204
30
0
10
1.188322520560247
20
14.306415644803913
30
0
10
1.1567331850528719
20
14.287518262863161
30
0
10
1.1251440775540353
20
14.268621017321749
30
0
10
1.0930688317285662
20
14.25054825041558
30
0
10
1.0606483370065687
20
14.23308968544006
30
0
10
1.0282275924573938
20
14.215630985931615
30
0
10
0.995461593690804
20
14.198786497819732
30
0
10
0.96200935542583466
20
14.183437824249271
30
0
10
0.94255860461322627
20
14.174513362377439
30
0
10
0.92287584840307968
20
14.166094608859826
30
0
10
0.90330995619297028
20
14.157413244247437
30
0
10
0.88922493856379303
20
14.151163737590768
30
0
10
0.87520048237890891
20
14.144778140203149
30
0
10
0.86105175316333793
20
14.138683080673221
30
0
10
0.82724932355766778
20
14.124121502911454
30
0
10
0.79273758105910974
20
14.111218227415229
30
0
10
0.75801976025104534
20
14.098942279815676
30
0
10
0.72330161265353654
20
14.086666216665954
30
0
10
0.68837738286698491
20
14.07501749322269
30
0
10
0.65316356718540192
20
14.06429648399353
30
0
10
0.61795052121766747
20
14.053575709107315
30
0
10
0.58244790201446928
20
14.043782607879145
30
0
10
0.54673355072736729
20
14.034847021102903
30
0
10
0.51101776769315455
20
14.025911076109303
30
0
10
0.47509023559850821
20
14.017832714322536
30
0
10
0.43898392468690878
20
14.0106475353241
30
0
10
0.40287831328586954
20
14.003462495528712
30
0
10
0.36659392999500195
20
13.997170603913586
30
0
10
0.33017750829458237
20
13.991771936416622
30
0
10
0.29376217914779423
20
13.986373430888722
30
0
10
0.25721481951408209
20
13.98186809588335
30
0
10
0.22057896479964254
20
13.978260755538942
30
0
10
0.18394202974628129
20
13.974653308819232
30
0
10
0.14721659439292917
20
13.97194390972242
30
0
10
0.11044681072235107
20
13.970135450363161
30
0
10
0.073660806232192066
20
13.968326193210441
30
0
10
0.036830414288067437
20
13.967418670861385
30
0
10
2.2351742682523119e-08
20
13.967418670654299
30
0
10
-0.036830381378939681
20
13.967418670447213
30
0
10
-0.07366078510182214
20
13.968326192963341
30
0
10
-0.11044680140912533
20
13.970135450363163
30
0
10
-0.14721658820925793
20
13.971943909542386
30
0
10
-0.18394202675146076
20
13.974653308113648
30
0
10
-0.22057896479964259
20
13.978260755538944
30
0
10
-0.25721481942750873
20
13.981868096285513
30
0
10
-0.29376217879551475
20
13.986373432773052
30
0
10
-0.33017750829458237
20
13.991771936416624
30
0
10
-0.36659394245120153
20
13.997170603823585
30
0
10
-0.40287833872851919
20
14.003462492575785
30
0
10
-0.43898396193981176
20
14.010647535324097
30
0
10
-0.47509026077724026
20
14.017832712522457
30
0
10
-0.51101777985800245
20
14.025911077143519
30
0
10
-0.54673355072736729
20
14.034847021102905
30
0
10
-0.58244790160491866
20
14.043782609785982
30
0
10
-0.6179505211081584
20
14.053575709617261
30
0
10
-0.65316356718540203
20
14.064296483993532
30
0
10
-0.68837738297649653
20
14.075017492712739
30
0
10
-0.72330161268201898
20
14.086666216533025
30
0
10
-0.75801976025104512
20
14.098942279815672
30
0
10
-0.79273758103062719
20
14.111218227548148
30
0
10
-0.82724932355324909
20
14.124121502933196
30
0
10
-0.86105175316333771
20
14.138683080673216
30
0
10
-0.8752004823807582
20
14.144778140194044
30
0
10
-0.88922493856405005
20
14.151163737588227
30
0
10
-0.90330995619297028
20
14.15741324424744
30
0
10
-0.92287584840272285
20
14.16609460886335
30
0
10
-0.94255860461508967
20
14.174513362376722
30
0
10
-0.96200935542583477
20
14.183437824249268
30
0
10
-0.99546159368759934
20
14.198786497820958
30
0
10
-1.0282275924389062
20
14.215630985948735
30
0
10
-1.0606483370065687
20
14.233089685440063
30
0
10
-1.0930688317470536
20
14.25054825039847
30
0
10
-1.1251440776247803
20
14.268621017254507
30
0
10
-1.1567331850528717
20
14.287518262863159
30
0
10
-1.1883225204895012
20
14.306415644871148
30
0
10
-1.2194257104586259
20
14.326137517533883
30
0
10
-1.2500302493572235
20
14.34659957885742
30
0
10
-1.2806345590694184
20
14.367061486947927
30
0
10
-1.310740225179496
20
14.38826357261326
30
0
10
-1.3403178751468658
20
14.410183429718018
30
0
10
-1.3698945663140085
20
14.432102576260444
30
0
10
-1.3989432755706286
20
14.454739447707951
30
0
10
-1.4273770153522491
20
14.47811484336853
30
0
10
-1.4558143648806445
20
14.501493206604239
30
0
10
-1.4836365887797669
20
14.525610281580557
30
0
10
-1.5109968185424805
20
14.550259113311768
30
0
10
-1.5383561797925664
20
14.574907162599926
30
0
10
-1.5652535762365072
20
14.600086934883747
30
0
10
-1.5909744799137115
20
14.626415967941281
30
0
10
-1.6059384078174912
20
14.641733693842117
30
0
10
-1.6205041295102993
20
14.657440408771238
30
0
10
-1.635279506444931
20
14.672946929931641
30
0
10
-1.6458978811796294
20
14.684090743943365
30
0
10
-1.6566245350257789
20
14.695131165341548
30
0
10
-1.6671197116374969
20
14.70638632774353
30
0
10
-1.6922204054576335
20
14.733304634676315
30
0
10
-1.7159970619322706
20
14.761451248614474
30
0
10
-1.739250719547272
20
14.79000449180603
30
0
10
-1.7625031509330156
20
14.818556229306621
30
0
10
-1.7852326386160029
20
14.847514553176381
30
0
10
-1.8071892857551577
20
14.877055883407593
30
0
10
-1.8291490766172984
20
14.906601443326437
30
0
10
-1.8503358056112402
20
14.936730176566805
30
0
10
-1.8707825243473053
20
14.967349767684938
30
0
10
-1.8912276656888967
20
14.997966996606262
30
0
10
-1.9109329109467317
20
15.029075007672256
30
0
10
-1.929860860109329
20
15.060650110244749
30
0
10
-1.9487887311433651
20
15.092225082485252
30
0
10
-1.9669393124990124
20
15.124267142376247
30
0
10
-1.9842921197414396
20
15.156735181808468
30
0
10
-2.0016460771671043
20
15.189205373295639
30
0
10
-2.0182021547195044
20
15.222101600795682
30
0
10
-2.0339436829090118
20
15.255383253097531
30
0
10
-2.0496823156581168
20
15.288658783691272
30
0
10
-2.0646066986673643
20
15.322319597312541
30
0
10
-2.0786933600902557
20
15.356327295303343
30
0
10
-2.0927810716908923
20
15.390337528609397
30
0
10
-2.1060309367941903
20
15.42469469800821
30
0
10
-2.1184340119361877
20
15.459355115890505
30
0
10
-2.1308370011882722
20
15.494015293753268
30
0
10
-2.1423932122068683
20
15.528978715899605
30
0
10
-2.1530786156654358
20
15.564205646514896
30
0
10
-2.1637643954662584
20
15.599433817830414
30
0
10
-2.1735793063659061
20
15.634925516176864
30
0
10
-2.1825300157070155
20
15.67063570022583
30
0
10
-2.1914815497630058
20
15.706349174597278
30
0
10
-2.1995687229987295
20
15.742281174935471
30
0
10
-2.2067260742187496
20
15.778392553329468
30
0
10
-2.2138837402527352
20
15.814505520071705
30
0
10
-2.2201115024733293
20
15.850797880649869
30
0
10
-2.225606888532639
20
15.887211561203003
30
0
10
-2.2311007870988089
20
15.923615385287558
30
0
10
-2.2358627059297382
20
15.960140463678101
30
0
10
-2.2391247749328618
20
15.996795892715458
30
0
10
-2.2416095725748733
20
16.024717228392817
30
0
10
-2.2432241211965378
20
16.052714196657245
30
0
10
-2.2453096508979797
20
16.080673933029171
30
0
10
-2.2459626795187821
20
16.089428787044596
30
0
10
-2.2466618861411503
20
16.098179990606823
30
0
10
-2.2472463548183441
20
16.106938123703003
30
0
10
-2.2496968981859751
20
16.143658970874334
30
0
10
-2.2501304254276246
20
16.180501634605221
30
0
10
-2.2499580681324005
20
16.217323541641235
30
0
0
SPLINE
5
113
100
AcDbEntity
8
0
100
AcDbSpline
70
2
71
3
72
413
73
409
74
0
42
0.000000001
43
0.0000000001
44
0.0000000001
40
0
40
0
40
0
40
0
40
0.002520844466944323
40
0.002520844466944323
40
0.002520844466944323
40
0.01104461305759985
40
0.01104461305759985
40
0.01104461305759985
40
0.022086123191920139
40
0.022086123191920139
40
0.022086123191920139
40
0.033130220067853412
40
0.033130220067853412
40
0.033130220067853412
40
0.044173881408297838
40
0.044173881408297838
40
0.044173881408297838
40
0.055215785535887844
40
0.055215785535887844
40
0.055215785535887844
40
0.066258765793645369
40
0.066258765793645369
40
0.066258765793645369
40
0.077302036273808189
40
0.077302036273808189
40
0.077302036273808189
40
0.088345371413173404
40
0.088345371413173404
40
0.088345371413173404
40
0.099388632800282706
40
0.099388632800282706
40
0.099388632800282706
40
0.11043123102475556
40
0.11043123102475556
40
0.11043123102475556
40
0.12147427139300447
40
0.12147427139300447
40
0.12147427139300447
40
0.1325180653069882
40
0.1325180653069882
40
0.1325180653069882
40
0.14356083994316765
40
0.14356083994316765
40
0.14356083994316765
40
0.1546039583680609
40
0.1546039583680609
40
0.1546039583680609
40
0.16564754287756414
40
0.16564754287756414
40
0.16564754287756414
40
0.1766904996737178
40
0.1766904996737178
40
0.1766904996737178
40
0.18773368917860611
40
0.18773368917860611
40
0.18773368917860611
40
0.19877616518391572
40
0.19877616518391572
40
0.19877616518391572
40
0.20981930995851195
40
0.20981930995851195
40
0.20981930995851195
40
0.22086312307454864
40
0.22086312307454864
40
0.22086312307454864
40
0.23190587628141732
40
0.23190587628141732
40
0.23190587628141732
40
0.24294880990340526
40
0.24294880990340526
40
0.24294880990340526
40
0.24740309814802391
40
0.24740309814802391
40
0.24740309814802391
40
0.25399188737628575
40
0.25399188737628575
40
0.25399188737628575
40
0.26503546686848478
40
0.26503546686848478
40
0.26503546686848478
40
0.27607827193364842
40
0.27607827193364842
40
0.27607827193364842
40
0.28712143832394116
40
0.28712143832394116
40
0.28712143832394116
40
0.29816414082219772
40
0.29816414082219772
40
0.29816414082219772
40
0.30920753101422543
40
0.30920753101422543
40
0.30920753101422543
40
0.32025068843815413
40
0.32025068843815413
40
0.32025068843815413
40
0.33129370059799362
40
0.33129370059799362
40
0.33129370059799362
40
0.34233684960417621
40
0.34233684960417621
40
0.34233684960417621
40
0.35338483261858122
40
0.35338483261858122
40
0.35338483261858122
40
0.36443281656403037
40
0.36443281656403037
40
0.36443281656403037
40
0.37547596464141475
40
0.37547596464141475
40
0.37547596464141475
40
0.38651897680125424
40
0.38651897680125424
40
0.38651897680125424
40
0.39756213055471434
40
0.39756213055471434
40
0.39756213055471434
40
0.40860552438148184
40
0.40860552438148184
40
0.40860552438148184
40
0.41964822687973841
40
0.41964822687973841
40
0.41964822687973841
40
0.43069139327003114
40
0.43069139327003114
40
0.43069139327003114
40
0.44173419833519478
40
0.44173419833519478
40
0.44173419833519478
40
0.45277777782739381
40
0.45277777782739381
40
0.45277777782739381
40
0.45936656705565565
40
0.45936656705565565
40
0.45936656705565565
40
0.46382085530027434
40
0.46382085530027434
40
0.46382085530027434
40
0.47486378892226228
40
0.47486378892226228
40
0.47486378892226228
40
0.48590654212913098
40
0.48590654212913098
40
0.48590654212913098
40
0.49695035524516767
40
0.49695035524516767
40
0.49695035524516767
40
0.50799350001976384
40
0.50799350001976384
40
0.50799350001976384
40
0.51903597602507345
40
0.51903597602507345
40
0.51903597602507345
40
0.53007916552996182
40
0.53007916552996182
40
0.53007916552996182
40
0.54112212232611545
40
0.54112212232611545
40
0.54112212232611545
40
0.55216570683561872
40
0.55216570683561872
40
0.55216570683561872
40
0.56320882526051197
40
0.56320882526051197
40
0.56320882526051197
40
0.57425159989669139
40
0.57425159989669139
40
0.57425159989669139
40
0.58529539381067508
40
0.58529539381067508
40
0.58529539381067508
40
0.59602118112345759
40
0.59602118112345759
40
0.59602118112345759
40
0.60738103235856422
40
0.60738103235856422
40
0.60738103235856422
40
0.61842429374567354
40
0.61842429374567354
40
0.61842429374567354
40
0.62946762888503871
40
0.62946762888503871
40
0.62946762888503871
40
0.64051089936520156
40
0.64051089936520156
40
0.64051089936520156
40
0.65155387962295908
40
0.65155387962295908
40
0.65155387962295908
40
0.66259578375054906
40
0.66259578375054906
40
0.66259578375054906
40
0.67363944509099349
40
0.67363944509099349
40
0.67363944509099349
40
0.68468354196692682
40
0.68468354196692682
40
0.68468354196692682
40
0.69572505210124713
40
0.69572505210124713
40
0.69572505210124713
40
0.70424882069190264
40
0.70424882069190264
40
0.70424882069190264
40
0.70676966515884698
40
0.70676966515884698
40
0.70676966515884698
40
0.71781201392286142
40
0.71781201392286142
40
0.71781201392286142
40
0.72885566401299007
40
0.72885566401299007
40
0.72885566401299007
40
0.73989763125896668
40
0.73989763125896668
40
0.73989763125896668
40
0.75094117514525005
40
0.75094117514525005
40
0.75094117514525005
40
0.76198528921206476
40
0.76198528921206476
40
0.76198528921206476
40
0.77302826946982228
40
0.77302826946982228
40
0.77302826946982228
40
0.78407074761471729
40
0.78407074761471729
40
0.78407074761471729
40
0.79511408275408246
40
0.79511408275408246
40
0.79511408275408246
40
0.80615614533725077
40
0.80615614533725077
40
0.80615614533725077
40
0.81720002132987013
40
0.81720002132987013
40
0.81720002132987013
40
0.82824295791345293
40
0.82824295791345293
40
0.82824295791345293
40
0.83928554323449167
40
0.83928554323449167
40
0.83928554323449167
40
0.85032958485544197
40
0.85032958485544197
40
0.85032958485544197
40
0.86137260930051884
40
0.86137260930051884
40
0.86137260930051884
40
0.86564971409753966
40
0.86564971409753966
40
0.86564971409753966
40
0.87241565220781858
40
0.87241565220781858
40
0.87241565220781858
40
0.88345817732449594
40
0.88345817732449594
40
0.88345817732449594
40
0.89450128462745693
40
0.89450128462745693
40
0.89450128462745693
40
0.90554524006348325
40
0.90554524006348325
40
0.90554524006348325
40
0.91658794481204464
40
0.91658794481204464
40
0.91658794481204464
40
0.9276309341994311
40
0.9276309341994311
40
0.9276309341994311
40
0.93867394250695824
40
0.93867394250695824
40
0.93867394250695824
40
0.94971728743618489
40
0.94971728743618489
40
0.94971728743618489
40
0.96076041850833893
40
0.96076041850833893
40
0.96076041850833893
40
0.97180336995775574
40
0.97180336995775574
40
0.97180336995775574
40
0.97717934454024136
40
0.97717934454024136
40
0.97717934454024136
40
0.98284673274258549
40
0.98284673274258549
40
0.98284673274258549
40
0.99388963736406233
40
0.99388963736406233
40
0.99388963736406233
40
1.0049327531367547
40
1.0049327531367547
40
1.0049327531367547
40
1.0159759641274746
40
1.0159759641274746
40
1.0159759641274746
40
1.0270192401590801
40
1.0270192401590801
40
1.0270192401590801
40
1.0380619751088505
40
1.0380619751088505
40
1.0380619751088505
40
1.0491051231862349
40
1.0491051231862349
40
1.0491051231862349
40
1.0601531656832168
40
1.0601531656832168
40
1.0601531656832168
40
1.0712012072491595
40
1.0712012072491595
40
1.0712012072491595
40
1.0822443562553421
40
1.0822443562553421
40
1.0822443562553421
40
1.0932870912051125
40
1.0932870912051125
40
1.0932870912051125
40
1.1043303709071459
40
1.1043303709071459
40
1.1043303709071459
40
1.1153735782630658
40
1.1153735782630658
40
1.1153735782630658
40
1.1264166940357583
40
1.1264166940357583
40
1.1264166940357583
40
1.1374595986572351
40
1.1374595986572351
40
1.1374595986572351
40
1.1431269103976316
40
1.1431269103976316
40
1.1431269103976316
40
1.1485029614450331
40
1.1485029614450331
40
1.1485029614450331
40
1.1595459128944499
40
1.1595459128944499
40
1.1595459128944499
40
1.170589043966604
40
1.170589043966604
40
1.170589043966604
40
1.1816323888958307
40
1.1816323888958307
40
1.1816323888958307
40
1.1926753972033577
40
1.1926753972033577
40
1.1926753972033577
40
1.2037183865907441
40
1.2037183865907441
40
1.2037183865907441
40
1.2147610913393054
40
1.2147610913393054
40
1.2147610913393054
40
1.2258050467753316
40
1.2258050467753316
40
1.2258050467753316
40
1.2368481540782925
40
1.2368481540782925
40
1.2368481540782925
40
1.24789067919497
40
1.24789067919497
40
1.24789067919497
40
1.2546567049053778
40
1.2546567049053778
40
1.2546567049053778
40
1.2589337221068955
40
1.2589337221068955
40
1.2589337221068955
40
1.2699767465519725
40
1.2699767465519725
40
1.2699767465519725
40
1.2810207881729228
40
1.2810207881729228
40
1.2810207881729228
40
1.2920633734939615
40
1.2920633734939615
40
1.2920633734939615
40
1.3031063100775444
40
1.3031063100775444
40
1.3031063100775444
40
1.3141501860701637
40
1.3141501860701637
40
1.3141501860701637
40
1.3251922486533321
40
1.3251922486533321
40
1.3251922486533321
40
1.3362355837926974
40
1.3362355837926974
40
1.3362355837926974
40
1.3472780619375924
40
1.3472780619375924
40
1.3472780619375924
40
1.35832104219535
40
1.35832104219535
40
1.35832104219535
40
1.3693651562621647
40
1.3693651562621647
40
1.3693651562621647
40
1.380408700148448
40
1.380408700148448
40
1.380408700148448
40
1.3914506673944245
40
1.3914506673944245
40
1.3914506673944245
40
1.402494317484553
40
1.402494317484553
40
1.402494317484553
40
1.4135366662485676
40
1.4135366662485676
40
1.4135366662485676
40
1.4135366662485676
10
-2.2499580681324005
20
-19.850659370422367
30
0
10
-2.2498085493940891
20
-19.84225872081084
30
0
10
-2.2495527144234129
20
-19.833859256691113
30
0
10
-2.2493390738964076
20
-19.825458526611328
30
0
10
-2.2486166880302196
20
-19.797053014041381
30
0
10
-2.248376723452592
20
-19.768633027383654
30
0
10
-2.2472463548183441
20
-19.740246534347534
30
0
10
-2.2457820991199613
20
-19.703475269712342
30
0
10
-2.2428237395902393
20
-19.666760207593306
30
0
10
-2.2391247749328609
20
-19.630130529403687
30
0
10
-2.2354249437032756
20
-19.593492269823322
30
0
10
-2.2309841602959497
20
-19.556939434183573
30
0
10
-2.2256068885326385
20
-19.520519971847534
30
0
10
-2.2202298288276525
20
-19.484101945751007
30
0
10
-2.2139163546280169
20
-19.447817282438965
30
0
10
-2.20672607421875
20
-19.411709308624268
30
0
10
-2.1995369378913932
20
-19.375607080132045
30
0
10
-2.1914712743583555
20
-19.339681484913719
30
0
10
-2.182530015707016
20
-19.303973913192749
30
0
10
-2.1735878856517901
20
-19.268262861456492
30
0
10
-2.163769989801136
20
-19.232769875716262
30
0
10
-2.1530786156654362
20
-19.197543859481812
30
0
10
-2.1423869605479502
20
-19.162316917466558
30
0
10
-2.1308217812327577
20
-19.127356958989811
30
0
10
-2.1184340119361877
20
-19.092686176300049
30
0
10
-2.1060461701082702
20
-19.05801519061017
30
0
10
-2.0928357286662904
20
-19.023633384093571
30
0
10
-2.0786933600902553
20
-18.989651203155518
30
0
10
-2.0645510859631866
20
-18.955669249165435
30
0
10
-2.0494768971496615
20
-18.922086915416166
30
0
10
-2.0339436829090118
20
-18.888691663742065
30
0
10
-2.0184114014586809
20
-18.855298417497554
30
0
10
-2.0024201497097547
20
-18.82209223085983
30
0
10
-1.9842921197414403
20
-18.790057897567749
30
0
10
-1.966163363929857
20
-18.758022281626324
30
0
10
-1.9485568008905902
20
-18.725678548252247
30
0
10
-1.9298608601093292
20
-18.693974018096924
30
0
10
-1.9111636435701282
20
-18.662267324514442
30
0
10
-1.8912984027192015
20
-18.631243612905944
30
0
10
-1.8707825243473053
20
-18.60066652297974
30
0
10
-1.8502685394713967
20
-18.5700922551407
30
0
10
-1.8291040371690777
20
-18.539964526546605
30
0
10
-1.8071892857551572
20
-18.510388135910034
30
0
10
-1.7852738520811664
20
-18.480810824487737
30
0
10
-1.7626081225806498
20
-18.451784885352509
30
0
10
-1.7392507195472715
20
-18.423328399658203
30
0
10
-1.7158923306939766
20
-18.394870712932672
30
0
10
-1.6918422099211976
20
-18.366982527717649
30
0
10
-1.6671197116374969
20
-18.33970308303833
30
0
10
-1.6423986185716584
20
-18.312425188912783
30
0
10
-1.6170052244281139
20
-18.285755966123716
30
0
10
-1.5909744799137115
20
-18.259724378585815
30
0
10
-1.5649431868522372
20
-18.23369224248308
30
0
10
-1.5382745165577947
20
-18.20829776850562
30
0
10
-1.5109968185424805
20
-18.183574676513675
30
0
10
-1.4837208829370241
20
-18.158853181878698
30
0
10
-1.4558359983066171
20
-18.13480298247616
30
0
10
-1.4273770153522487
20
-18.111454248428345
30
0
10
-1.3989163088266707
20
-18.088104100303088
30
0
10
-1.3698814344363952
20
-18.065455502501305
30
0
10
-1.3403178751468658
20
-18.043514490127563
30
0
10
-1.3107525266431042
20
-18.02157214986325
30
0
10
-1.2806584292451439
20
-18.000337480677036
30
0
10
-1.2500302493572233
20
-17.979916334152222
30
0
10
-1.2194050089511936
20
-17.959497147508493
30
0
10
-1.188245788565407
20
-17.939891327381044
30
0
10
-1.1567331850528719
20
-17.92084097862244
30
0
10
-1.1252200666913663
20
-17.901790318621618
30
0
10
-1.09335355365596
20
-17.883295148140231
30
0
10
-1.0606483370065689
20
-17.866413593292233
30
0
10
-1.0474563296065584
20
-17.859604233217787
30
0
10
-1.034127865078653
20
-17.853057408502899
30
0
10
-1.0208616405725477
20
-17.846386432647705
30
0
10
-1.0012382232440604
20
-17.836518716091692
30
0
10
-0.98175098936516325
20
-17.826379352288978
30
0
10
-0.96200935542583466
20
-17.81676173210144
30
0
10
-0.92892007359242801
20
-17.800641478533265
30
0
10
-0.89511608859709257
20
-17.785986994316133
30
0
10
-0.86105175316333771
20
-17.771999835968018
30
0
10
-0.82698980647883991
20
-17.758013658464346
30
0
10
-0.79266754586860388
20
-17.744694713240996
30
0
10
-0.75801976025104545
20
-17.732266187667847
30
0
10
-0.72337084094367388
20
-17.719837255428224
30
0
10
-0.6883963753260065
20
-17.708298801109549
30
0
10
-0.65316356718540192
20
-17.697620391845703
30
0
10
-0.61793223907493822
20
-17.686942431151483
30
0
10
-0.58244259014555178
20
-17.677124443257512
30
0
10
-0.5467335507273674
20
-17.668179273605347
30
0
10
-0.51102228749811995
20
-17.659233546885069
30
0
10
-0.47509160645376203
20
-17.651160747120993
30
0
10
-0.43898396193981165
20
-17.643978595733643
30
0
10
-0.4028770784881463
20
-17.636796595728764
30
0
10
-0.36659323902673818
20
-17.630505206555554
30
0
10
-0.33017750829458237
20
-17.625102996826172
30
0
10
-0.29376225658285116
20
-17.61970085815863
30
0
10
-0.25721511707020217
20
-17.615187875542155
30
0
10
-0.22057896479964259
20
-17.611576318740845
30
0
10
-0.18394235852945043
20
-17.607964717184686
30
0
10
-0.14721673729522031
20
-17.605254563784989
30
0
10
-0.11044680140912533
20
-17.60345101356506
30
0
10
-0.073660769917301222
20
-17.601646673862298
30
0
10
-0.036830384968688588
20
-17.600749731222717
30
0
10
-7.268808273779103e-18
20
-17.600749731063843
30
0
10
0.036830388072487147
20
-17.600749730904969
30
0
10
0.073660776165050276
20
-17.601646673377971
30
0
10
0.11044681072235107
20
-17.603451013565063
30
0
10
0.14721674348129449
20
-17.605254563965428
30
0
10
0.18394236152489118
20
-17.607964717890585
30
0
10
0.22057896479964254
20
-17.611576318740841
30
0
10
0.25721511715612899
20
-17.615187875140013
30
0
10
0.29376225693491964
20
-17.619700856274648
30
0
10
0.33017750829458237
20
-17.625102996826172
30
0
10
0.36659322657098936
20
-17.630505206644003
30
0
10
0.40287705304609739
20
-17.63679659868049
30
0
10
0.43898392468690878
20
-17.643978595733643
30
0
10
0.47509158127523493
20
-17.651160748920255
30
0
10
0.51102227533534028
20
-17.659233545846675
30
0
10
0.54673355072736729
20
-17.668179273605347
30
0
10
0.58244259055456471
20
-17.677124441351694
30
0
10
0.61793223918452012
20
-17.686942430640865
30
0
10
0.65316356718540203
20
-17.697620391845707
30
0
10
0.68839637521642016
20
-17.708298801620195
30
0
10
0.72337084091436599
20
-17.719837255564869
30
0
10
0.75801976025104523
20
-17.732266187667847
30
0
10
0.79266754589791033
20
-17.744694713104355
30
0
10
0.82698980648648535
20
-17.758013658428414
30
0
10
0.86105175316333793
20
-17.771999835968018
30
0
10
0.89511608858944658
20
-17.785986994352069
30
0
10
0.92892007359115381
20
-17.800641478540346
30
0
10
0.96200935542583454
20
-17.81676173210144
30
0
10
0.98175098936592353
20
-17.826379352284754
30
0
10
1.0012382232437664
20
-17.836518716091
30
0
10
1.0208616405725479
20
-17.846386432647705
30
0
10
1.0341278650788519
20
-17.853057408503364
30
0
10
1.0474563296075727
20
-17.859604233217429
30
0
10
1.0606483370065687
20
-17.866413593292233
30
0
10
1.0933535536534449
20
-17.88329514814113
30
0
10
1.12522006667509
20
-17.901790318630695
30
0
10
1.1567331850528715
20
-17.920840978622437
30
0
10
1.1882457885816822
20
-17.93989132737196
30
0
10
1.2194050090137809
20
-17.959497147473062
30
0
10
1.2500302493572235
20
-17.979916334152222
30
0
10
1.2806584291825511
20
-18.000337480712467
30
0
10
1.3107525264089985
20
-18.021572149995901
30
0
10
1.3403178751468658
20
-18.043514490127563
30
0
10
1.3698814346704862
20
-18.06545550236866
30
0
10
1.3989163097004218
20
-18.088104099807964
30
0
10
1.4273770153522491
20
-18.111454248428345
30
0
10
1.4558359974329196
20
-18.134802982971252
30
0
10
1.483720879676401
20
-18.158853183726386
30
0
10
1.5109968185424805
20
-18.183574676513672
30
0
10
1.5382745198186281
20
-18.208297766657807
30
0
10
1.5649431990221836
20
-18.233692235586755
30
0
10
1.5909744799137118
20
-18.259724378585815
30
0
10
1.6170052122584242
20
-18.285755973019889
30
0
10
1.6423985731541086
20
-18.312425214649451
30
0
10
1.6671197116374969
20
-18.33970308303833
30
0
10
1.6918422553413288
20
-18.366982501979514
30
0
10
1.7158925002085916
20
-18.394870616874165
30
0
10
1.7392507195472717
20
-18.423328399658203
30
0
10
1.7626079530731895
20
-18.451784981406966
30
0
10
1.7852732194819292
20
-18.480811182961482
30
0
10
1.8071892857551575
20
-18.510388135910034
30
0
10
1.8291046697486213
20
-18.539964168084012
30
0
10
1.8502709002532787
20
-18.570090917361139
30
0
10
1.8707825243473053
20
-18.600666522979736
30
0
10
1.8912960417194125
20
-18.631244950808984
30
0
10
1.9111548318314473
20
-18.662272317844831
30
0
10
1.9298608601093294
20
-18.693974018096924
30
0
10
1.9480282473621298
20
-18.724762866295819
30
0
10
1.9651083046326148
20
-18.756187771919922
30
0
10
1.9827292859554293
20
-18.787297010421753
30
0
10
2.0013919463836478
20
-18.820245297676841
30
0
10
2.0179568914417727
20
-18.854343717412434
30
0
10
2.0339436829090118
20
-18.888691663742065
30
0
10
2.0494849354536164
20
-18.922082360642769
30
0
10
2.0645532398263251
20
-18.955668028714133
30
0
10
2.0786933600902557
20
-18.989651203155514
30
0
10
2.0928335747887679
20
-19.02363460455302
30
0
10
2.1060455929807316
20
-19.058015517630047
30
0
10
2.1184340119361877
20
-19.092686176300049
30
0
10
2.1308223583569177
20
-19.127356631971853
30
0
10
2.1423871151855285
20
-19.162316829843707
30
0
10
2.1530786156654358
20
-19.197543859481815
30
0
10
2.1637698351676211
20
-19.232769963336807
30
0
10
2.1735878442196848
20
-19.268262884933318
30
0
10
2.182530015707016
20
-19.303973913192749
30
0
10
2.1914713157864227
20
-19.339681461439184
30
0
10
2.1995369489922112
20
-19.375607073841952
30
0
10
2.20672607421875
20
-19.411709308624271
30
0
10
2.2139163435254328
20
-19.447817288730068
30
0
10
2.2202298258550361
20
-19.484101947435395
30
0
10
2.225606888532639
20
-19.520519971847534
30
0
10
2.2309841632686838
20
-19.556939432499124
30
0
10
2.2354249444909859
20
-19.593492269376981
30
0
10
2.2391247749328609
20
-19.630130529403687
30
0
10
2.2428237388027132
20
-19.666760208039548
30
0
10
2.2457820989415676
20
-19.703475269813424
30
0
10
2.2472463548183446
20
-19.740246534347534
30
0
10
2.248376723590308
20
-19.768633027305622
30
0
10
2.2486166880489544
20
-19.797053014030777
30
0
10
2.2493390738964081
20
-19.825458526611328
30
0
10
2.2495527144178729
20
-19.833859256694254
30
0
10
2.2498085493917768
20
-19.842258720812151
30
0
10
2.2499580681324005
20
-19.850659370422363
30
0
10
2.2506130224948651
20
-19.887457714809187
30
0
10
2.2492279757693328
20
-19.924278806480523
30
0
10
2.2472463548183441
20
-19.961049556732178
30
0
10
2.2452645003359621
20
-19.997824640367838
30
0
10
2.2426859310088805
20
-20.034549370717784
30
0
10
2.2391247749328613
20
-20.071187019348148
30
0
10
2.2355641615099171
20
-20.107819085091311
30
0
10
2.2310212607706266
20
-20.144364095652101
30
0
10
2.2256068885326385
20
-20.180776119232178
30
0
10
2.2201917431971294
20
-20.217193341945958
30
0
10
2.2139048774769861
20
-20.253477539698899
30
0
10
2.2067260742187504
20
-20.289585590362552
30
0
10
2.199546900317368
20
-20.325695505292579
30
0
10
2.1914756967736633
20
-20.361629254943811
30
0
10
2.1825300157070155
20
-20.397343635559078
30
0
10
2.1735852530204354
20
-20.433054349670368
30
0
10
2.163766192352635
20
-20.468545739785021
30
0
10
2.1530786156654353
20
-20.50377368927002
30
0
10
2.1423915249312659
20
-20.539000036976674
30
0
10
2.1308359971569466
20
-20.573962968009877
30
0
10
2.1184340119361873
20
-20.608623027801514
30
0
10
2.1060310642111228
20
-20.643285777521911
30
0
10
2.0927815276492741
20
-20.677645608987927
30
0
10
2.0786933600902553
20
-20.711658000946045
30
0
10
2.064606815952486
20
-20.745666473555563
30
0
10
2.0496818340822744
20
-20.779327586725532
30
0
10
2.0339436829090118
20
-20.81260442733765
30
0
10
2.018202947099784
20
-20.845886732919446
30
0
10
2.0016487748761795
20
-20.878784639716848
30
0
10
1.9842921197414398
20
-20.911252498626709
30
0
10
1.9669369409904158
20
-20.943717595770671
30
0
10
1.9487794158433056
20
-20.975752718185046
30
0
10
1.929860860109329
20
-21.007335186004635
30
0
10
1.9109429061518783
20
-21.038916649223872
30
0
10
1.8912639700217286
20
-21.070045486644666
30
0
10
1.8707825243473053
20
-21.10062837600708
30
0
10
1.8502983775728532
20
-21.131215298651355
30
0
10
1.8290115095697064
20
-21.161256129228132
30
0
10
1.8071892857551577
20
-21.190922260284427
30
0
10
1.7853690718062298
20
-21.220585659037297
30
0
10
1.7630136006558041
20
-21.249874427287502
30
0
10
1.7392507195472717
20
-21.277980804443359
30
0
10
1.7300470513596449
20
-21.288866764277831
30
0
10
1.7206322559004388
20
-21.299575352192875
30
0
10
1.7113140225410461
20
-21.310367584228516
30
0
10
1.6965735396212209
20
-21.327439780840521
30
0
10
1.6820746934370965
20
-21.344721288272197
30
0
10
1.6671197116374972
20
-21.361598968505859
30
0
10
1.6427120449621779
20
-21.389144625124906
30
0
10
1.6170893826078241
20
-21.415614618533247
30
0
10
1.5909744799137115
20
-21.4415717124939
30
0
10
1.5648582003843203
20
-21.467530174969802
30
0
10
1.5382496286098091
20
-21.492975683914217
30
0
10
1.5109968185424805
20
-21.517720222473145
30
0
10
1.4837419154039981
20
-21.542466661462882
30
0
10
1.4558426750112807
20
-21.566512022391088
30
0
10
1.4273770153522489
20
-21.58986330032349
30
0
10
1.3989145793248157
20
-21.613211933809275
30
0
10
1.3698858523136144
20
-21.635866641495056
30
0
10
1.3403178751468658
20
-21.657795906066895
30
0
10
1.3107491358304026
20
-21.679725735891566
30
0
10
1.2806411185584079
20
-21.700930085203495
30
0
10
1.2500302493572235
20
-21.72137975692749
30
0
10
1.2194193277099188
20
-21.741829463688262
30
0
10
1.1883055524103334
20
-21.76152449027509
30
0
10
1.1567331850528717
20
-21.780459880828857
30
0
10
1.1251598552815767
20
-21.799395848586155
30
0
10
1.0931279054936491
20
-21.817572133998027
30
0
10
1.0606483370065689
20
-21.834895610809326
30
0
10
1.0281693974942678
20
-21.852218752147273
30
0
10
0.99524285661913736
20
-21.868689117914005
30
0
10
0.96200935542583477
20
-21.884548664093018
30
0
10
0.92877639479411866
20
-21.900407952307589
30
0
10
0.89523648382991405
20
-21.915656440804927
30
0
10
0.8610517531633376
20
-21.929295063018795
30
0
10
0.84440980340792726
20
-21.935934672610284
30
0
10
0.82761503288143301
20
-21.942192747633467
30
0
10
0.81089422106742859
20
-21.948642730712887
30
0
10
0.79326702991272424
20
-21.955442345824302
30
0
10
0.77572203289735464
20
-21.96245523827632
30
0
10
0.75801976025104523
20
-21.969044208526611
30
0
10
0.72352688603153814
20
-21.981882815558613
30
0
10
0.688436891073547
20
-21.993111937785869
30
0
10
0.65316356718540192
20
-22.003681659698483
30
0
10
0.61788956883655366
20
-22.014251583714596
30
0
10
0.5824322345466254
20
-22.024162082199052
30
0
10
0.54673355072736751
20
-22.033138275146484
30
0
10
0.51103455910021089
20
-22.042114545490136
30
0
10
0.4750942137816882
20
-22.050156494184808
30
0
10
0.43898392468690872
20
-22.057330608367923
30
0
10
0.40287342291438699
20
-22.064504764804216
30
0
10
0.3665929753637765
20
-22.070811076506416
30
0
10
0.33017750829458237
20
-22.076213359832764
30
0
10
0.29376382545569202
20
-22.081615378466157
30
0
10
0.25721513632886062
20
-22.086113457309978
30
0
10
0.22057896479964259
20
-22.089717388153073
30
0
10
0.18394142264854479
20
-22.093321453825389
30
0
10
0.14721639154920513
20
-22.096031304592508
30
0
10
0.11044681072235106
20
-22.097842693328857
30
0
10
0.073660933296399916
20
-22.099654884888498
30
0
10
0.036830466644527285
20
-22.100567817828448
30
0
10
3.5732134510759413e-18
20
-22.100567817687988
30
0
10
-0.036830463540754824
20
-22.100567817547528
30
0
10
-0.073660927074164301
20
-22.099654884480518
30
0
10
-0.11044680140912533
20
-22.097842693328861
30
0
10
-0.14721638533755294
20
-22.096031304695323
30
0
10
-0.18394141955091245
20
-22.093321454263005
30
0
10
-0.22057896479964254
20
-22.089717388153076
30
0
10
-0.25721513634504473
20
-22.086113457175497
30
0
10
-0.29376382548638952
20
-22.081615377575226
30
0
10
-0.33017750829458242
20
-22.076213359832764
30
0
10
-0.36659298743640162
20
-22.070811075601856
30
0
10
-0.40287344692466942
20
-22.064504764041697
30
0
10
-0.43898396193981165
20
-22.05733060836792
30
0
10
-0.47509424038977682
20
-22.050156499693067
30
0
10
-0.51103457659327034
20
-22.042114558275294
30
0
10
-0.54673355072736729
20
-22.033138275146484
30
0
10
-0.58243222880370127
20
-22.024162066459546
30
0
10
-0.61788954881393676
20
-22.01425153155882
30
0
10
-0.65316356718540192
20
-22.003681659698486
30
0
10
-0.68843691109578087
20
-21.993111989940655
30
0
10
-0.72352696037700392
20
-21.981883008436824
30
0
10
-0.75801976025104523
20
-21.969044208526611
30
0
10
-0.77572175591123749
20
-21.962455228185135
30
0
10
-0.79326644629511722
20
-21.955442249215636
30
0
10
-0.81089340150356293
20
-21.948642730712894
30
0
10
-0.8276144529211853
20
-21.942192660513307
30
0
10
-0.84440953075740677
20
-21.935934673794716
30
0
10
-0.86105175316333771
20
-21.929295063018799
30
0
10
-0.89523655766364496
20
-21.915656632357518
30
0
10
-0.92877641456566051
20
-21.900408003623753
30
0
10
-0.96200935542583477
20
-21.884548664093018
30
0
10
-0.99524283684727433
20
-21.86868906659701
30
0
10
-1.028169392242305
20
-21.852218738436441
30
0
10
-1.0606483370065689
20
-21.834895610809326
30
0
10
-1.0931279107457135
20
-21.817572147709118
30
0
10
-1.1251598565174099
20
-21.79939585211207
30
0
10
-1.1567331850528717
20
-21.780459880828857
30
0
10
-1.1883055511745375
20
-21.761524486749281
30
0
10
-1.2194193280185559
20
-21.741829463295481
30
0
10
-1.2500302493572235
20
-21.721379756927487
30
0
10
-1.2806411182497719
20
-21.700930085596262
30
0
10
-1.3107491333600669
20
-21.679725733936863
30
0
10
-1.3403178751468661
20
-21.657795906066898
30
0
10
-1.3698858547838859
20
-21.635866643449717
30
0
10
-1.3989145888971559
20
-21.613211942020541
30
0
10
-1.4273770153522491
20
-21.58986330032349
30
0
10
-1.4558426654378565
20
-21.56651201417889
30
0
10
-1.4837418795789632
20
-21.54246663056734
30
0
10
-1.5109968185424805
20
-21.517720222473145
30
0
10
-1.5382496644320931
20
-21.492975714807379
30
0
10
-1.5648583340960003
20
-21.467530290326778
30
0
10
-1.5909744799137115
20
-21.441571712493896
30
0
10
-1.6170892489031941
20
-21.415614503182354
30
0
10
-1.6427115459762609
20
-21.389144194623405
30
0
10
-1.6671197116374969
20
-21.361598968505863
30
0
10
-1.6820751928035209
20
-21.344721333531883
30
0
10
-1.6965748510155862
20
-21.327440140844097
30
0
10
-1.7113153636455536
20
-21.310367584228516
30
0
10
-1.7206333043061366
20
-21.299575485374035
30
0
10
-1.7300474880046619
20
-21.288866755425907
30
0
10
-1.7392507195472717
20
-21.277980804443359
30
0
10
-1.7630129599382347
20
-21.249873874509682
30
0
10
-1.7853689001198747
20
-21.220585510915232
30
0
10
-1.8071892857551575
20
-21.190922260284424
30
0
10
-1.8290116812718749
20
-21.161256277363837
30
0
10
-1.8502984235775519
20
-21.131215338341821
30
0
10
-1.8707825243473053
20
-21.100628376007084
30
0
10
-1.8912639240230966
20
-21.07004544695944
30
0
10
-1.9109428938263702
20
-21.038916638590067
30
0
10
-1.9298608601093292
20
-21.007335186004639
30
0
10
-1.9487794281692068
20
-20.975752728819192
30
0
10
-1.9669369442932445
20
-20.943717598620182
30
0
10
-1.9842921197414398
20
-20.911252498626713
30
0
10
-2.0016487715730702
20
-20.878784636867106
30
0
10
-2.0182029462147835
20
-20.845886732155918
30
0
10
-2.0339436829090123
20
-20.81260442733765
30
0
10
-2.0496818349671306
20
-20.779327587488936
30
0
10
-2.0646068161895941
20
-20.745666473760124
30
0
10
-2.0786933600902557
20
-20.711658000946045
30
0
10
-2.0927815274121393
20
-20.67764560878334
30
0
10
-2.1060310641475861
20
-20.643285777467099
30
0
10
-2.1184340119361877
20
-20.608623027801514
30
0
10
-2.1308359972204798
20
-20.573962968064691
30
0
10
-2.1423915249482866
20
-20.539000036991368
30
0
10
-2.1530786156654358
20
-20.50377368927002
30
0
10
-2.1637661923356148
20
-20.468545739770331
30
0
10
-2.1735852530158879
20
-20.433054349666424
30
0
10
-2.1825300157070164
20
-20.397343635559082
30
0
10
-2.1914756967782125
20
-20.361629254947758
30
0
10
-2.1995469003185377
20
-20.325695505293663
30
0
10
-2.2067260742187496
20
-20.289585590362549
30
0
10
-2.2139048774758159
20
-20.253477539697812
30
0
10
-2.2201917431969971
20
-20.21719334194556
30
0
10
-2.2256068885326385
20
-20.180776119232178
30
0
10
-2.2310212607707589
20
-20.144364095652495
30
0
10
-2.2355641615092772
20
-20.107819085091798
30
0
10
-2.2391247749328613
20
-20.071187019348145
30
0
10
-2.2426859310095204
20
-20.034549370717293
30
0
10
-2.2452645003386547
20
-19.997824640366275
30
0
10
-2.2472463548183446
20
-19.961049556732174
30
0
10
-2.2492279757666411
20
-19.924278806482082
30
0
10
-2.2506130224847376
20
-19.887457714814939
30
0
10
-2.2499580681324005
20
-19.850659370422367
30
0
0
ENDSEC
0
SECTION
2
OBJECTS
0
DICTIONARY
5
C
100
AcDbDictionary
3
ACAD_GROUP
350
D
3
ACAD_MLINESTYLE
350
17
0
DICTIONARY
5
D
100
AcDbDictionary
0
DICTIONARY
5
1A
330
C
100
AcDbDictionary
0
DICTIONARY
5
17
100
AcDbDictionary
0
ENDSEC
0
EOF
