0
SECTION
2
HEADER
9
$INSUNITS
70
4
9
$ACADVER
1
AC1014
9
$HANDSEED
5
FFFF
0
ENDSEC
0
SECTION
2
TABLES
0
TABLE
2
VPORT
5
8
100
AcDbSymbolTable
0
ENDTAB
0
TABLE
2
LTYPE
5
5
100
AcDbSymbolTable
0
LTYPE
5
14
100
AcDbSymbolTableRecord
100
AcDbLinetypeTableRecord
2
BYBLOCK
70
0
0
LTYPE
5
15
100
AcDbSymbolTableRecord
100
AcDbLinetypeTableRecord
2
BYLAYER
70
0
0
LTYPE
5
16
100
AcDbSymbolTableRecord
100
AcDbLinetypeTableRecord
2
DASHED
70
0
3
Dashed __ __ __ __ __ __ __ __ __ __ __ __ __ _
72
65
73
2
40
0.75
49
0.5
74
0
49
-0.25
74
0
0
ENDTAB
0
TABLE
2
LAYER
5
2
100
AcDbSymbolTable
70
2
0
LAYER
5
50
100
AcDbSymbolTableRecord
100
AcDbLayerTableRecord
2
0
70
0
62
7
6
CONTINUOUS
0
ENDTAB
0
TABLE
2
STYLE
5
3
100
AcDbSymbolTable
70
1
0
STYLE
5
11
100
AcDbSymbolTableRecord
100
AcDbTextStyleTableRecord
2
STANDARD
70
0
0
ENDTAB
0
TABLE
2
VIEW
5
6
100
AcDbSymbolTable
70
0
0
ENDTAB
0
TABLE
2
UCS
5
7
100
AcDbSymbolTable
70
0
0
ENDTAB
0
TABLE
2
APPID
5
9
100
AcDbSymbolTable
70
2
0
APPID
5
12
100
AcDbSymbolTableRecord
100
AcDbRegAppTableRecord
2
ACAD
70
0
0
ENDTAB
0
TABLE
2
DIMSTYLE
5
A
100
AcDbSymbolTable
70
1
0
ENDTAB
0
TABLE
2
BLOCK_RECORD
5
1
100
AcDbSymbolTable
70
1
0
BLOCK_RECORD
5
1F
100
AcDbSymbolTableRecord
100
AcDbBlockTableRecord
2
*MODEL_SPACE
0
BLOCK_RECORD
5
1B
100
AcDbSymbolTableRecord
100
AcDbBlockTableRecord
2
*PAPER_SPACE
0
ENDTAB
0
ENDSEC
0
SECTION
2
BLOCKS
0
BLOCK
5
20
100
AcDbEntity
100
AcDbBlockBegin
2
*MODEL_SPACE
0
ENDBLK
5
21
100
AcDbEntity
100
AcDbBlockEnd
0
BLOCK
5
1C
100
AcDbEntity
100
AcDbBlockBegin
2
*PAPER_SPACE
0
ENDBLK
5
1D
100
AcDbEntity
100
AcDbBlockEnd
0
ENDSEC
0
SECTION
2
ENTITIES
0
SPLINE
5
100
100
AcDbEntity
8
0
100
AcDbSpline
70
0
71
3
72
61
73
57
74
0
42
0.000000001
43
0.0000000001
44
0.0000000001
40
0
40
0
40
0
40
0
40
0.090972512669086195
40
0.13632383081183067
40
0.18151313768223795
40
0.22616273627215014
40
0.26860689123631754
40
0.30689110106090034
40
0.33916223620181501
40
0.36445559275496975
40
0.38453258722366895
40
0.40162600497641732
40
0.41749525533000548
40
0.43342373835226689
40
0.45085886639779243
40
0.47186174646655271
40
0.49897396273030026
40
0.53410379230184857
40
0.57590283679525878
40
0.62202401150371589
40
0.67002239751778658
40
0.71779365992141009
40
0.76469636319695822
40
0.81046050311660633
40
0.85481765406901766
40
0.89757490414579377
40
0.93884089650017011
40
0.97879935161524778
40
1.01763201646318
40
1.0553453042052168
40
1.0912545193745373
40
1.1245073554400136
40
1.1542598867908829
40
1.1800021366258755
40
1.20249089755074
40
1.2227800689685755
40
1.2418944595803589
40
1.2605828141480293
40
1.2785830702968863
40
1.2954536821344333
40
1.3109352723317498
40
1.3252145398040278
40
1.3390064856974115
40
1.3528095529177251
40
1.3668183464334362
40
1.3813934735362698
40
1.3983083774244429
40
1.4199525137752891
40
1.4488986909274262
40
1.4869421016665882
40
1.5325666425656483
40
1.5833605523073824
40
1.6368776280247002
40
1.6910591857137338
40
1.7454403686689424
40
1.8545353858868314
40
1.8545353858868314
40
1.8545353858868314
40
1.8545353858868314
10
10.715579986572266
20
15.612822771072388
30
0
10
10.423326723842955
20
15.531930770325948
30
0
10
9.9853878843038828
20
15.410684035179273
30
0
10
9.402098722506345
20
15.249900008586582
30
0
10
8.9675373734620738
20
15.130617422452273
30
0
10
8.5421525786371966
20
15.014528679259115
30
0
10
8.137309690556112
20
14.910572396838326
30
0
10
7.7694261334466592
20
14.829361074640822
30
0
10
7.4533983016083214
20
14.779426902808018
30
0
10
7.1936030173119914
20
14.772485612065436
30
0
10
6.9865541405873799
20
14.804632919834555
30
0
10
6.8195368276167585
20
14.865319990907045
30
0
10
6.6753634655621461
20
14.941550047196948
30
0
10
6.5324666635982123
20
15.022565391068207
30
0
10
6.3889742925445328
20
15.13492434062286
30
0
10
6.2462611246769288
20
15.302208704804293
30
0
10
6.1053026230455618
20
15.542421154434425
30
0
10
5.9669936971445328
20
15.860903953928061
30
0
10
5.8249411893162604
20
16.245768598591532
30
0
10
5.6821188817918493
20
16.675787332550609
30
0
10
5.5404939943728371
20
17.127056865405734
30
0
10
5.4005066121935261
20
17.58156444251372
30
0
10
5.265483247116225
20
18.029799712680322
30
0
10
5.1368956819474114
20
18.468076830187204
30
0
10
5.0157814650682315
20
18.894131678264273
30
0
10
4.9028789502767944
20
19.306911506480276
30
0
10
4.7976601843923126
20
19.70657112216222
30
0
10
4.699214619267237
20
20.094469004605166
30
0
10
4.60672140367301
20
20.471644999934711
30
0
10
4.5199622058869204
20
20.836321109660247
30
0
10
4.4412616761603214
20
21.183782225937975
30
0
10
4.3737015029702011
20
21.506519550160302
30
0
10
4.3200497374286666
20
21.797491099515398
30
0
10
4.2829095882873265
20
22.054847285991414
30
0
10
4.2598129995766545
20
22.282140463625254
30
0
10
4.2466909987056516
20
22.488066656003536
30
0
10
4.2392904677496404
20
22.681570746913756
30
0
10
4.2332565340438846
20
22.867484667259902
30
0
10
4.2341535284533629
20
23.046114000078809
30
0
10
4.2478956939379202
20
23.213608377494968
30
0
10
4.2806737246367517
20
23.366412151927506
30
0
10
4.3408148763672214
20
23.499753109193321
30
0
10
4.4215768955632635
20
23.614339174679522
30
0
10
4.5161077803630381
20
23.716141458053045
30
0
10
4.6196399312932526
20
23.812298901065883
30
0
10
4.7329240251305906
20
23.913300796290336
30
0
10
4.8780793936758906
20
24.015670010832551
30
0
10
5.07783153039823
20
24.120447369395453
30
0
10
5.3526852801072833
20
24.22980920573805
30
0
10
5.7104609751147155
20
24.343910751339976
30
0
10
6.141611601945999
20
24.46646274670892
30
0
10
6.6247158800361952
20
24.594572058089639
30
0
10
7.136422172161244
20
24.725970363522059
30
0
10
7.6598143506904846
20
24.859941930118502
30
0
10
8.3627786969202784
20
25.03946572981793
30
0
10
8.8908318231074386
20
25.173996489288189
30
0
10
9.2432254552841187
20
25.263774394989014
30
0
0
SPLINE
5
101
100
AcDbEntity
8
0
100
AcDbSpline
70
0
71
3
72
37
73
33
74
0
42
0.000000001
43
0.0000000001
44
0.0000000001
40
0
40
0
40
0
40
0
40
0.066890102631263923
40
0.10039945987550769
40
0.13399081195768744
40
0.16789190287818995
40
0.20362834255841586
40
0.24493737451207748
40
0.29770730760417441
40
0.36703869163332609
40
0.45104286220979689
40
0.54529011216740497
40
0.64497645467923859
40
0.74596335797466806
40
0.84729312636882304
40
0.94882597877368635
40
1.0504459257808876
40
1.1520658727880888
40
1.2535987251929521
40
1.3549284935871071
40
1.4559153968825367
40
1.5556017393949177
40
1.6498489893523329
40
1.7338531599288036
40
1.8031845439579552
40
1.8559544770500522
40
1.8972635090037138
40
1.9329999486839398
40
1.9669010396044422
40
2.0004923916871635
40
2.0340017489319502
40
2.1008918515299699
40
2.1008918515299699
40
2.1008918515299699
40
2.1008918515299699
10
9.2432254552841187
20
25.263774394989014
30
0
10
9.1504774744880226
20
25.466539848782634
30
0
10
9.011269732651936
20
25.770867164681491
30
0
10
8.8203990109045858
20
26.174706049397763
30
0
10
8.6728090373800466
20
26.477222105214583
30
0
10
8.5166194432593159
20
26.784218903717584
30
0
10
8.2935359552032182
20
27.083277477776939
30
0
10
7.946582668699711
20
27.351196857283998
30
0
10
7.43974886319962
20
27.563002562345673
30
0
10
6.7674343874093736
20
27.712168170413527
30
0
10
5.9498187841180741
20
27.826544871881719
30
0
10
5.027166836965117
20
27.912762026492306
30
0
10
4.0465418263583084
20
27.982090426391458
30
0
10
3.0418643213676528
20
28.045738806062019
30
0
10
2.0303232474249113
20
28.09754427450887
30
0
10
1.0159263943281782
20
28.132537448975803
30
0
10
-1.3164931587187242e-14
20
28.145809358996093
30
0
10
-1.0159263943281256
20
28.13253744897581
30
0
10
-2.0303232474250961
20
28.09754427450887
30
0
10
-3.0418643213669698
20
28.04573880606203
30
0
10
-4.046541826362656
20
27.982090426391292
30
0
10
-5.0271668369590348
20
27.91276202649227
30
0
10
-5.949818784123039
20
27.826544871883058
30
0
10
-6.7674343873991818
20
27.712168170408951
30
0
10
-7.4397488632268409
20
27.5630025623582
30
0
10
-7.9465826686311249
20
27.351196857252372
30
0
10
-8.293535955388796
20
27.083277477862559
30
0
10
-8.5166194426778556
20
26.784218903449307
30
0
10
-8.6728090394301027
20
26.477222106158422
30
0
10
-8.8203990033284647
20
26.174706045896468
30
0
10
-9.0112697726862461
20
25.770867183311378
30
0
10
-9.1504772969466117
20
25.46653976697408
30
0
10
-9.2432254552841187
20
25.263774394989014
30
0
0
SPLINE
5
102
100
AcDbEntity
8
0
100
AcDbSpline
70
0
71
3
72
61
73
57
74
0
42
0.000000001
43
0.0000000001
44
0.0000000001
40
0
40
0
40
0
40
0
40
0.10909501741455313
40
0.1634760221268719
40
0.21765775860097519
40
0.27117483431829303
40
0.32196874406002701
40
0.36759328495908705
40
0.40563669569824917
40
0.43458287285038616
40
0.45622700920123233
40
0.47314191308940529
40
0.487716571800976
40
0.50172585682686877
40
0.51552892404718242
40
0.52932086994056604
40
0.54360013741284408
40
0.55908172761016062
40
0.57595233944770763
40
0.59395259559656477
40
0.61264095016423525
40
0.63175558145534216
40
0.6520445110766715
40
0.67453327200153601
40
0.70027552183652864
40
0.73002805318739805
40
0.7632808892528743
40
0.79919010442219485
40
0.83690338528673602
40
0.87573605723763981
40
0.91569451235271748
40
0.95696051229637535
40
0.99971775451019929
40
1.0440749054626106
40
1.0898390453822586
40
1.1367420911067512
40
1.1845130117102405
40
1.2325113977243112
40
1.2786325724327683
40
1.3204316169261785
40
1.3555614464977268
40
1.3826736627614744
40
1.4036765428302347
40
1.4211116708757603
40
1.4370402051880182
40
1.4529094023757911
40
1.4700028201285396
40
1.4900798145972387
40
1.5153731711503935
40
1.5476443062913081
40
1.5859285161158909
40
1.6283726710800583
40
1.6730222696699706
40
1.7182116340204683
40
1.7635628946995767
40
1.8545354076664238
40
1.8545354076664238
40
1.8545354076664238
40
1.8545354076664238
10
-9.2432254552841187
20
25.263774394989014
30
0
10
-8.8908253284909105
20
25.174021953895323
30
0
10
-8.362783114827625
20
25.039450832998988
30
0
10
-7.6598107012724572
20
24.859958606979184
30
0
10
-7.1364238664732635
20
24.725966142322612
30
0
10
-6.6247156016597533
20
24.594573157328846
30
0
10
-6.1416116545102426
20
24.466462503620576
30
0
10
-5.710461002995685
20
24.343910758529805
30
0
10
-5.3526851674138616
20
24.229809326123636
30
0
10
-5.0778318159758467
20
24.12044704747796
30
0
10
-4.8780786848668534
20
24.015670812668844
30
0
10
-4.7329272177634651
20
23.913299534024233
30
0
10
-4.619634989656209
20
23.812306739773128
30
0
10
-4.5161105147132732
20
23.716140920216276
30
0
10
-4.421576465788891
20
23.61433963707838
30
0
10
-4.340814995853254
20
23.499752980827928
30
0
10
-4.280673688515793
20
23.366412189967136
30
0
10
-4.2478957078234503
20
23.213608366059226
30
0
10
-4.2341535120848617
20
23.046114002927819
30
0
10
-4.2332565884505824
20
22.867484668711203
30
0
10
-4.2392902838828439
20
22.681569935774885
30
0
10
-4.2466918537461842
20
22.488065895522865
30
0
10
-4.2598128305587171
20
22.282139646565213
30
0
10
-4.2829096695491362
20
22.054847290905077
30
0
10
-4.3200497091154775
20
21.797491097551791
30
0
10
-4.3737015185066159
20
21.506519552335497
30
0
10
-4.441261643365042
20
21.18378221856133
30
0
10
-4.5199623263587796
20
20.836321161918946
30
0
10
-4.6067209016848869
20
20.471644902665005
30
0
10
-4.6992147810173526
20
20.094469069022036
30
0
10
-4.7976600313211568
20
19.70657105627463
30
0
10
-4.9028794419777153
20
19.306911611232803
30
0
10
-5.0157813621705944
20
18.894131624189573
30
0
10
-5.1368956062902518
20
18.468076806059482
30
0
10
-5.2654840054317456
20
18.029798749843803
30
0
10
-5.4005052197860568
20
17.581562826440923
30
0
10
-5.5404948043762303
20
17.12705592205992
30
0
10
-5.6821187608072163
20
16.675787295305266
30
0
10
-5.8249412184514444
20
16.245768608108534
30
0
10
-5.9669936897283353
20
15.860903949814457
30
0
10
-6.1053026277734386
20
15.542421161024668
30
0
10
-6.2462611153425796
20
15.302208688826875
30
0
10
-6.3889743166157844
20
15.134924382535077
30
0
10
-6.5324667281008857
20
15.022565161513588
30
0
10
-6.6753638557226243
20
14.941550395167436
30
0
10
-6.8195369277074391
20
14.865319801640295
30
0
10
-6.9865541626544161
20
14.804632961967446
30
0
10
-7.1936030092581058
20
14.772485596514137
30
0
10
-7.4533983045161527
20
14.779426909362774
30
0
10
-7.7694261333048145
20
14.829361069089
30
0
10
-8.137309686440128
20
14.910572413701548
30
0
10
-8.5421525975251651
20
15.014528610238859
30
0
10
-8.9675374832556436
20
15.130617745000293
30
0
10
-9.402099191105858
20
15.249899030942453
30
0
10
-9.9853868916512116
20
15.41068834967944
30
0
10
-10.4233317747351
20
15.531912504981095
30
0
10
-10.715579986572266
20
15.612822771072388
30
0
0
SPLINE
5
103
100
AcDbEntity
8
0
100
AcDbSpline
70
0
71
3
72
197
73
193
74
0
42
0.000000001
43
0.0000000001
44
0.0000000001
40
0
40
0
40
0
40
0
40
0.03407864073204192
40
0.051216963400801466
40
0.068481502214796514
40
0.086193835316086098
40
0.106236237788399
40
0.13218688790507979
40
0.16857110748363216
40
0.21876560220998481
40
0.28088247066318678
40
0.35150641646174113
40
0.42745298742509219
40
0.5067378082745756
40
0.59041585947673292
40
0.6806760078760159
40
0.78013179367300289
40
0.89112388131158038
40
1.0136706488380549
40
1.1467062435891346
40
1.2888034319646706
40
1.4383198052096997
40
1.5934723583698458
40
1.7523984552182881
40
1.9131937928156182
40
2.0739390637871402
40
2.2327651589957505
40
2.3878300396696828
40
2.5373323802668795
40
2.6795339074745299
40
2.8128052484470163
40
2.9356945398475145
40
3.0470656066955852
40
3.1467992664732267
40
3.237104833943532
40
3.3205288096700012
40
3.399272751894951
40
3.4748585635034046
40
3.5474343109966111
40
3.6164628125289062
40
3.6810804182797563
40
3.7406490880988668
40
3.796097596993941
40
3.8487497838766282
40
3.8999333249257897
40
3.9507594224931455
40
4.0014772915829191
40
4.0509302068172639
40
4.0886358778726812
40
4.1042428835253926
40
4.1231568408663346
40
4.1428166538392786
40
4.1624763699781111
40
4.1822299341010796
40
4.2025466276090908
40
4.2245822757801177
40
4.2519549472181923
40
4.2877313126482681
40
4.329145676193745
40
4.3724522382474413
40
4.4163952842980487
40
4.4604593776755301
40
4.5045877934441432
40
4.5488456345542341
40
4.5933081603767336
40
4.6380400544053373
40
4.6830139586800197
40
4.728158244073156
40
4.7733973771167326
40
4.8185314411469387
40
4.8629050328213772
40
4.9049824608788066
40
4.940205575167961
40
4.9652355131292634
40
4.9838766339466973
40
5.0005089270496379
40
5.0164916246255951
40
5.032369071337838
40
5.0482455800852515
40
5.0636188612102657
40
5.0808956511894134
40
5.1291007820624994
40
5.1908712221643025
40
5.2539452346434041
40
5.3169178044728138
40
5.3795504199741808
40
5.4407928410012962
40
5.4994047780273725
40
5.5541754491689916
40
5.6043549401372088
40
5.6508287170023603
40
5.6948366315714196
40
5.7375646344201687
40
5.7799695476759618
40
5.8222286116668123
40
5.8643466489004386
40
5.9063677071938425
40
5.9483887654872465
40
5.9905068027208728
40
6.0327658667117232
40
6.0751707799675163
40
6.1178987828162654
40
6.1619066973853247
40
6.2083804742504762
40
6.2585599652186934
40
6.3133306363603126
40
6.3719425733863888
40
6.4331849944135042
40
6.4958176099148712
40
6.5587901797442809
40
6.6218641922233825
40
6.6836346323251856
40
6.7318397631982716
40
6.7491165531774193
40
6.7644898343024336
40
6.7803663430498471
40
6.79624378976209
40
6.8122264873380471
40
6.8288587804409877
40
6.8474999012584217
40
6.872529839219724
40
6.9077529535088784
40
6.9498303815663078
40
6.9942039732407464
40
7.0393379758116543
40
7.0845771705382905
40
7.1297214559314268
40
7.1746953602061092
40
7.2194272542347129
40
7.2638897800572124
40
7.3081476211673033
40
7.3522760369359164
40
7.3963401303133978
40
7.4402831763640052
40
7.4835897384177015
40
7.5250041019631784
40
7.5607804673932542
40
7.5881531388313288
40
7.6101887870023557
40
7.6305054805103669
40
7.6502585292264431
40
7.669918759369196
40
7.6895785723421399
40
7.708492529683082
40
7.7240995353357933
40
7.7618052063912106
40
7.8112581216255554
40
7.8619759907153295
40
7.9128020882826853
40
7.9639856293318463
40
8.0166378162145335
40
8.0720863251096073
40
8.1316549949287182
40
8.196272131642953
40
8.2653007029703307
40
8.3378763754402598
40
8.4134622692121344
40
8.4922062114370842
40
8.5756307808092362
40
8.6659363482795424
40
8.7656700080571834
40
8.8770410749052537
40
8.9999296607014063
40
9.1332017191864523
40
9.2754040154795927
40
9.4249055817885612
40
9.5799704624624926
40
9.7387965576711029
40
9.8995418286426258
40
10.060337166239956
40
10.219263263088399
40
10.374415816248545
40
10.523932189493575
40
10.666029382322579
40
10.799064970039765
40
10.92161173756624
40
11.032603825204816
40
11.132059611001804
40
11.222319759401087
40
11.305997810603245
40
11.385282631452728
40
11.46122920241608
40
11.531853148214633
40
11.593969919673558
40
11.644164509355162
40
11.680548728933715
40
11.706499379050396
40
11.726541781522709
40
11.744254114623999
40
11.761517832860029
40
11.77865697927008
40
11.81273562080443
40
11.81273562080443
40
11.81273562080443
40
11.81273562080443
10
-10.715579986572266
20
15.612822771072388
30
0
10
-10.709477347015842
20
15.499385773527592
30
0
10
-10.700332841979288
20
15.328922750991721
30
0
10
-10.684096791467343
20
15.101182472910155
30
0
10
-10.668924293600625
20
14.928232555936912
30
0
10
-10.648228906557636
20
14.74551662816625
30
0
10
-10.576915924214955
20
14.542782991246469
30
0
10
-10.41614591442718
20
14.316563680954452
30
0
10
-10.139986721106249
20
14.060498904643747
30
0
10
-9.7387631068867559
20
13.76893454343946
30
0
10
-9.2401904133332895
20
13.418038938124536
30
0
10
-8.6824672249754222
20
13.001886717092091
30
0
10
-8.1095518877005297
20
12.51200417854464
30
0
10
-7.5608898843471959
20
11.932290387881919
30
0
10
-7.0592991764050863
20
11.250535571410738
30
0
10
-6.6184885882472972
20
10.449942937592846
30
0
10
-6.2515350667614955
20
9.5142842159511289
30
0
10
-5.9702875792876045
20
8.4385607317193969
30
0
10
-5.7586448652608428
20
7.2342094457787347
30
0
10
-5.6066313273546022
20
5.9167886955476598
30
0
10
-5.5042160218102705
20
4.5047092845545986
30
0
10
-5.4415977460472051
20
3.0166484083101657
30
0
10
-5.4089382055199842
20
1.4716067185951407
30
0
10
-5.3963736459358724
20
-0.11127985860789852
30
0
10
-5.3940195701085125
20
-1.712834807305246
30
0
10
-5.3919304341500105
20
-3.314056608980569
30
0
10
-5.3994841855143747
20
-4.8961798274371366
30
0
10
-5.4259967038636674
20
-6.4406584151185973
30
0
10
-5.4807758097227586
20
-7.9290181047763078
30
0
10
-5.5730865017626225
20
-9.3428470363788794
30
0
10
-5.7121538314487292
20
-10.663912675725598
30
0
10
-5.9074121016837742
20
-11.874144602320706
30
0
10
-6.1681375269295184
20
-12.958187881204875
30
0
10
-6.5093914472279639
20
-13.905641422743315
30
0
10
-6.920851083266129
20
-14.721634310467147
30
0
10
-7.3911243475097663
20
-15.4221043550567
30
0
10
-7.9088210958957141
20
-16.024365236961163
30
0
10
-8.4593404831743797
20
-16.54457534652397
30
0
10
-9.0240004299847083
20
-16.998528055050137
30
0
10
-9.5830058851623416
20
-17.398921123869219
30
0
10
-10.117516390458583
20
-17.758252310576484
30
0
10
-10.61394576207417
20
-18.093032261789393
30
0
10
-11.076741085046493
20
-18.406472699837195
30
0
10
-11.5156210954072
20
-18.704975716522977
30
0
10
-11.942809982430818
20
-18.994694146988312
30
0
10
-12.359847158638766
20
-19.282660666406372
30
0
10
-12.789761309517509
20
-19.560661219007713
30
0
10
-13.12302696283113
20
-19.837128275078818
30
0
10
-13.50864395085347
20
-19.999440266510341
30
0
10
-13.463270454640915
20
-20.276760925245632
30
0
10
-13.292160497084353
20
-20.363665052800066
30
0
10
-13.141685969246881
20
-20.482319021615943
30
0
10
-12.979771857251848
20
-20.595672531045828
30
0
10
-12.818601634779492
20
-20.712252235491086
30
0
10
-12.652213502343939
20
-20.835487896346805
30
0
10
-12.470418257421487
20
-20.980641053028258
30
0
10
-12.269486257893982
20
-21.182207536454541
30
0
10
-12.048127466768619
20
-21.45172438808698
30
0
10
-11.802469882431275
20
-21.769465373402049
30
0
10
-11.542766604806967
20
-22.110789904289415
30
0
10
-11.279003005036527
20
-22.46010136711466
30
0
10
-11.013843828620757
20
-22.811796589024219
30
0
10
-10.750511976037007
20
-23.166177683896837
30
0
10
-10.49111826634681
20
-23.525104890453523
30
0
10
-10.23758539703743
20
-23.890674811359567
30
0
10
-9.9920634154494721
20
-24.264530565872686
30
0
10
-9.7524660244099195
20
-24.644870799726874
30
0
10
-9.5168136718623977
20
-25.029640197201267
30
0
10
-9.2834656755652532
20
-25.416427961009997
30
0
10
-9.051698831888956
20
-25.801167465822864
30
0
10
-8.8267895072884386
20
-26.177737869036733
30
0
10
-8.6217787072110799
20
-26.527687340949772
30
0
10
-8.4584186529889323
20
-26.827305815171137
30
0
10
-8.358780599917317
20
-27.071928332161036
30
0
10
-8.3151885540480954
20
-27.268634708153115
30
0
10
-8.2887328661224675
20
-27.437507072552659
30
0
10
-8.2673852037850502
20
-27.597407132551375
30
0
10
-8.2481020790652266
20
-27.756616718289141
30
0
10
-8.2231407460520902
20
-27.907139555276327
30
0
10
-8.219714960414187
20
-28.087306887844697
30
0
10
-7.9243019149929079
20
-28.196655988184503
30
0
10
-7.5311219925097115
20
-27.9934384571145
30
0
10
-6.9739967017039124
20
-27.858994925605028
30
0
10
-6.3781377110584323
20
-27.661912898873027
30
0
10
-5.7770190707370315
20
-27.478256520639626
30
0
10
-5.1822204796122326
20
-27.293175275701667
30
0
10
-4.5996148858725974
20
-27.118309586917
30
0
10
-4.0393197789022031
20
-26.960380923639718
30
0
10
-3.5104738440955656
20
-26.827280998273476
30
0
10
-3.0158045147185559
20
-26.726046296706535
30
0
10
-2.5528150121978408
20
-26.651327223373933
30
0
10
-2.1123256872932386
20
-26.594943399410877
30
0
10
-1.6843490092374553
20
-26.548630908178712
30
0
10
-1.2620288187759401
20
-26.504287059049702
30
0
10
-0.84110073950370723
20
-26.46632608872261
30
0
10
-0.42055511216637631
20
-26.439585734772564
30
0
10
-6.9537346516347423e-17
20
-26.429053992058058
30
0
10
0.42055511216637642
20
-26.439585734772571
30
0
10
0.84110073950370712
20
-26.46632608872261
30
0
10
1.2620288187759401
20
-26.504287059049698
30
0
10
1.6843490092374556
20
-26.548630908178712
30
0
10
2.1123256872932381
20
-26.59494339941088
30
0
10
2.5528150121978408
20
-26.651327223373933
30
0
10
3.0158045147185559
20
-26.726046296706532
30
0
10
3.5104738440955652
20
-26.827280998273469
30
0
10
4.0393197789022048
20
-26.960380923639725
30
0
10
4.5996148858725956
20
-27.118309586916993
30
0
10
5.1822204796122326
20
-27.293175275701671
30
0
10
5.7770190707370297
20
-27.478256520639626
30
0
10
6.3781377110584376
20
-27.661912898873027
30
0
10
6.9739967017038929
20
-27.858994925605025
30
0
10
7.5311219925097816
20
-27.99343845711455
30
0
10
7.9243019149927632
20
-28.196655988184418
30
0
10
8.2197149604143522
20
-28.087306887844797
30
0
10
8.2231407460515307
20
-27.907139555276
30
0
10
8.2481020790673973
20
-27.756616718290438
30
0
10
8.2673852037769322
20
-27.597407132546486
30
0
10
8.2887328661535165
20
-27.437507072571364
30
0
10
8.3151885539207786
20
-27.26863470807643
30
0
10
8.358780600534919
20
-27.071928332533034
30
0
10
8.4584186492400377
20
-26.827305812913124
30
0
10
8.6217787291414076
20
-26.527687354158729
30
0
10
8.8267894065384453
20
-26.17773780835352
30
0
10
9.0516991258688826
20
-25.801167882047629
30
0
10
9.2834640542331197
20
-25.416427222741046
30
0
10
9.5168139700107872
20
-25.029640617503183
30
0
10
9.7524659162783394
20
-24.64487073441115
30
0
10
9.9920634442092027
20
-24.264530583244227
30
0
10
10.237585389401364
20
-23.890674806748926
30
0
10
10.491118268369275
20
-23.525104891668317
30
0
10
10.750511975528052
20
-23.166177683614841
30
0
10
11.013843828644553
20
-22.81179658894402
30
0
10
11.279003005447848
20
-22.460101367715101
30
0
10
11.54276660315314
20
-22.110789901988785
30
0
10
11.802469888426739
20
-21.769465381715424
30
0
10
12.048127446680519
20
-21.451724360238956
30
0
10
12.269486315447324
20
-21.182207616239182
30
0
10
12.470418110118155
20
-20.98064084882585
30
0
10
12.652213923652276
20
-20.835488480394506
30
0
10
12.818598823589497
20
-20.712251275334385
30
0
10
12.97977563781801
20
-20.595680712326928
30
0
10
13.141683241326437
20
-20.482318132913122
30
0
10
13.292160857948289
20
-20.36366555191815
30
0
10
13.463270380344651
20
-20.276760822488662
30
0
10
13.508643999400993
20
-19.999440333638823
30
0
10
13.123026939602319
20
-19.837128243164926
30
0
10
12.789761316980005
20
-19.560661228269403
30
0
10
12.359847155300672
20
-19.282660665816703
30
0
10
11.942809988247234
20
-18.994694139946951
30
0
10
11.515621075102198
20
-18.704975745859834
30
0
10
11.076741164465709
20
-18.406472583606966
30
0
10
10.613945438665453
20
-18.093032735542025
30
0
10
10.117519038482804
20
-17.758251204328563
30
0
10
9.583002618960295
20
-17.398931042533338
30
0
10
9.0240017530060364
20
-16.998534220021536
30
0
10
8.4593393971040491
20
-16.544584164162202
30
0
10
7.9088218961922063
20
-16.024372013388444
30
0
10
7.3911218845029012
20
-15.422110836238863
30
0
10
6.9208533979306166
20
-14.72163511366241
30
0
10
6.5093910245821771
20
-13.905641718370109
30
0
10
6.1681375937517711
20
-12.958187799430688
30
0
10
5.9074129219943554
20
-11.874146868890136
30
0
10
5.712152770246842
20
-10.663915197102781
30
0
10
5.5730856761182412
20
-9.3428468639108733
30
0
10
5.4807765402261612
20
-7.9290154700926223
30
0
10
5.425996417677343
20
-6.4406558453901734
30
0
10
5.3994842529637612
20
-4.8961798243676711
30
0
10
5.391930416079866
20
-3.3140566098591635
30
0
10
5.3940195733480421
20
-1.7128348069300003
30
0
10
5.3963736511338958
20
-0.11127985922135258
30
0
10
5.4089381820849596
20
1.4716067206294476
30
0
10
5.4415978310698909
20
3.0166484010806016
30
0
10
5.5042157237651974
20
4.5047093247468597
30
0
10
5.6066323543802969
20
5.916788614628822
30
0
10
5.7586446250512218
20
7.2342094957911627
30
0
10
5.9702876360241843
20
8.4385607255359059
30
0
10
6.2515350539969177
20
9.5142842171328432
30
0
10
6.6184885906601023
20
10.449942938044519
30
0
10
7.0592991775311154
20
11.250535568947344
30
0
10
7.5608898783611442
20
11.932290396416001
30
0
10
8.1095519089747974
20
12.512004148941539
30
0
10
8.6824671512414771
20
13.001886819515311
30
0
10
9.2401903954818643
20
13.418038409461852
30
0
10
9.738762114981828
20
13.768935356366105
30
0
10
10.139986594934369
20
14.060498522497484
30
0
10
10.41614593866932
20
14.31656370386818
30
0
10
10.576915823656954
20
14.542782995657968
30
0
10
10.648229185941423
20
14.745516604849225
30
0
10
10.668923075885184
20
14.928229909397373
30
0
10
10.684099890900667
20
15.101179474987294
30
0
10
10.700329887094766
20
15.328920213483975
30
0
10
10.709481520098002
20
15.499385512494159
30
0
10
10.715579986572266
20
15.612822771072388
30
0
0
SPLINE
5
104
100
AcDbEntity
8
0
100
AcDbSpline
70
2
71
3
72
419
73
415
74
0
42
0.000000001
43
0.0000000001
44
0.0000000001
40
0
40
0
40
0
40
0
40
0.00904284300699606
40
0.00904284300699606
40
0.00904284300699606
40
0.011044613057623441
40
0.011044613057623441
40
0.011044613057623441
40
0.022086004305576071
40
0.022086004305576071
40
0.022086004305576071
40
0.033130219494467886
40
0.033130219494467886
40
0.033130219494467886
40
0.044173880834912312
40
0.044173880834912312
40
0.044173880834912312
40
0.055215668650529418
40
0.055215668650529418
40
0.055215668650529418
40
0.066258648908286935
40
0.066258648908286935
40
0.066258648908286935
40
0.077302372154246235
40
0.077302372154246235
40
0.077302372154246235
40
0.08834537362543457
40
0.08834537362543457
40
0.08834537362543457
40
0.099388635012543872
40
0.099388635012543872
40
0.099388635012543872
40
0.11043112675802884
40
0.11043112675802884
40
0.11043112675802884
40
0.12147458195525782
40
0.12147458195525782
40
0.12147458195525782
40
0.1325180737160335
40
0.1325180737160335
40
0.1325180737160335
40
0.14356114072691306
40
0.14356114072691306
40
0.14356114072691306
40
0.1546038832354634
40
0.1546038832354634
40
0.1546038832354634
40
0.16564719694094546
40
0.16564719694094546
40
0.16564719694094546
40
0.17669049909340601
40
0.17669049909340601
40
0.17669049909340601
40
0.18773335979463474
40
0.18773335979463474
40
0.18773335979463474
40
0.19081365992635194
40
0.19081365992635194
40
0.19081365992635194
40
0.19877638082296156
40
0.19877638082296156
40
0.19877638082296156
40
0.20981952559755779
40
0.20981952559755779
40
0.20981952559755779
40
0.2208631327698217
40
0.2208631327698217
40
0.2208631327698217
40
0.23190582220382225
40
0.23190582220382225
40
0.23190582220382225
40
0.24294881458106449
40
0.24294881458106449
40
0.24294881458106449
40
0.25399205285503562
40
0.25399205285503562
40
0.25399205285503562
40
0.2650354873981528
40
0.2650354873981528
40
0.2650354873981528
40
0.26778847677346479
40
0.26778847677346479
40
0.26778847677346479
40
0.27607816379403616
40
0.27607816379403616
40
0.27607816379403616
40
0.28712129278530313
40
0.28712129278530313
40
0.28712129278530313
40
0.29816412242340795
40
0.29816412242340795
40
0.29816412242340795
40
0.30920759099214307
40
0.30920759099214307
40
0.30920759099214307
40
0.32025066692232018
40
0.32025066692232018
40
0.32025066692232018
40
0.33129373750048247
40
0.33129373750048247
40
0.33129373750048247
40
0.34233688650666505
40
0.34233688650666505
40
0.34233688650666505
40
0.35338485787246682
40
0.35338485787246682
40
0.35338485787246682
40
0.36443282923826897
40
0.36443282923826897
40
0.36443282923826897
40
0.37547597824445156
40
0.37547597824445156
40
0.37547597824445156
40
0.38651904882261423
40
0.38651904882261423
40
0.38651904882261423
40
0.39756212475279135
40
0.39756212475279135
40
0.39756212475279135
40
0.40860559332152646
40
0.40860559332152646
40
0.40860559332152646
40
0.4196484229596309
40
0.4196484229596309
40
0.4196484229596309
40
0.43069155195089787
40
0.43069155195089787
40
0.43069155195089787
40
0.4389812320197724
40
0.4389812320197724
40
0.4389812320197724
40
0.44173422834658771
40
0.44173422834658771
40
0.44173422834658771
40
0.45277766288970489
40
0.45277766288970489
40
0.45277766288970489
40
0.46382090116367602
40
0.46382090116367602
40
0.46382090116367602
40
0.47486389354091829
40
0.47486389354091829
40
0.47486389354091829
40
0.48590658297491879
40
0.48590658297491879
40
0.48590658297491879
40
0.49695019014718128
40
0.49695019014718128
40
0.49695019014718128
40
0.50799333492177745
40
0.50799333492177745
40
0.50799333492177745
40
0.51595630405547921
40
0.51595630405547921
40
0.51595630405547921
40
0.51903635595551401
40
0.51903635595551401
40
0.51903635595551401
40
0.53007921665674274
40
0.53007921665674274
40
0.53007921665674274
40
0.54050029770076868
40
0.54050029770076868
40
0.54050029770076868
40
0.55216583251673046
40
0.55216583251673046
40
0.55216583251673046
40
0.56320857502528077
40
0.56320857502528077
40
0.56320857502528077
40
0.57425164203616208
40
0.57425164203616208
40
0.57425164203616208
40
0.58529513379693776
40
0.58529513379693776
40
0.58529513379693776
40
0.5963385889941667
40
0.5963385889941667
40
0.5963385889941667
40
0.60738108073965169
40
0.60738108073965169
40
0.60738108073965169
40
0.61842434212676101
40
0.61842434212676101
40
0.61842434212676101
40
0.62946734359794931
40
0.62946734359794931
40
0.62946734359794931
40
0.64051106684391068
40
0.64051106684391068
40
0.64051106684391068
40
0.6515540471016682
40
0.6515540471016682
40
0.6515540471016682
40
0.66259583491728535
40
0.66259583491728535
40
0.66259583491728535
40
0.67363949625772979
40
0.67363949625772979
40
0.67363949625772979
40
0.68468371144662166
40
0.68468371144662166
40
0.68468371144662166
40
0.69572510269457433
40
0.69572510269457433
40
0.69572510269457433
40
0.6977273494385865
40
0.6977273494385865
40
0.6977273494385865
40
0.70676971575216285
40
0.70676971575216285
40
0.70676971575216285
40
0.71781158782282906
40
0.71781158782282906
40
0.71781158782282906
40
0.72885571345899913
40
0.72885571345899913
40
0.72885571345899913
40
0.73989720745472276
40
0.73989720745472276
40
0.73989720745472276
40
0.75094169097534791
40
0.75094169097534791
40
0.75094169097534791
40
0.76198568872901584
40
0.76198568872901584
40
0.76198568872901584
40
0.77302866898677336
40
0.77302866898677336
40
0.77302866898677336
40
0.784071260322041
40
0.784071260322041
40
0.784071260322041
40
0.79511392812655024
40
0.79511392812655024
40
0.79511392812655024
40
0.80615577274811323
40
0.80615577274811323
40
0.80615577274811323
40
0.81719964874073259
40
0.81719964874073259
40
0.81719964874073259
40
0.82824279276883594
40
0.82824279276883594
40
0.82824279276883594
40
0.83928598237971797
40
0.83928598237971797
40
0.83928598237971797
40
0.85033002400066826
40
0.85033002400066826
40
0.85033002400066826
40
0.86137248457707416
40
0.86137248457707416
40
0.86137248457707416
40
0.86937245370661509
40
0.86937245370661509
40
0.86937245370661509
40
0.8724155274946559
40
0.8724155274946559
40
0.8724155274946559
40
0.88345787994382619
40
0.88345787994382619
40
0.88345787994382619
40
0.88996575814912193
40
0.88996575814912193
40
0.88996575814912193
40
0.8945015626855789
40
0.8945015626855789
40
0.8945015626855789
40
0.90554559599375739
40
0.90554559599375739
40
0.90554559599375739
40
0.91658822740744728
40
0.91658822740744728
40
0.91658822740744728
40
0.92763121679483374
40
0.92763121679483374
40
0.92763121679483374
40
0.93867428887982185
40
0.93867428887982185
40
0.93867428887982185
40
0.94971728125706412
40
0.94971728125706412
40
0.94971728125706412
40
0.96076035872984977
40
0.96076035872984977
40
0.96076035872984977
40
0.97180364833356514
40
0.97180364833356514
40
0.97180364833356514
40
0.98211071875955913
40
0.98211071875955913
40
0.98211071875955913
40
0.9938898771769068
40
0.9938898771769068
40
0.9938898771769068
40
1.0049328021824493
40
1.0049328021824493
40
1.0049328021824493
40
1.0159761662513578
40
1.0159761662513578
40
1.0159761662513578
40
1.0270193236752858
40
1.0270193236752858
40
1.0270193236752858
40
1.0380621461156412
40
1.0380621461156412
40
1.0380621461156412
40
1.0491052951218238
40
1.0491052951218238
40
1.0491052951218238
40
1.0601533161362378
40
1.0601533161362378
40
1.0601533161362378
40
1.0712013371506517
40
1.0712013371506517
40
1.0712013371506517
40
1.0822444861568343
40
1.0822444861568343
40
1.0822444861568343
40
1.0932873085971897
40
1.0932873085971897
40
1.0932873085971897
40
1.1043304660211184
40
1.1043304660211184
40
1.1043304660211184
40
1.1153738300900269
40
1.1153738300900269
40
1.1153738300900269
40
1.1264167550955695
40
1.1264167550955695
40
1.1264167550955695
40
1.1374599214858616
40
1.1374599214858616
40
1.1374599214858616
40
1.1485029839393284
40
1.1485029839393284
40
1.1485029839393284
40
1.1595462735430426
40
1.1595462735430426
40
1.1595462735430426
40
1.1705893510158283
40
1.1705893510158283
40
1.1705893510158283
40
1.1816323433930704
40
1.1816323433930704
40
1.1816323433930704
40
1.1926754154780586
40
1.1926754154780586
40
1.1926754154780586
40
1.2037184048654461
40
1.2037184048654461
40
1.2037184048654461
40
1.2147610362791346
40
1.2147610362791346
40
1.2147610362791346
40
1.2258050695873131
40
1.2258050695873131
40
1.2258050695873131
40
1.2303408849145572
40
1.2303408849145572
40
1.2303408849145572
40
1.2368487523281479
40
1.2368487523281479
40
1.2368487523281479
40
1.2478911047773182
40
1.2478911047773182
40
1.2478911047773182
40
1.2509341785653589
40
1.2509341785653589
40
1.2509341785653589
40
1.2589341476948999
40
1.2589341476948999
40
1.2589341476948999
40
1.2699766082713075
40
1.2699766082713075
40
1.2699766082713075
40
1.2810206498922578
40
1.2810206498922578
40
1.2810206498922578
40
1.2920638395031399
40
1.2920638395031399
40
1.2920638395031399
40
1.3031069835312432
40
1.3031069835312432
40
1.3031069835312432
40
1.3141508595238625
40
1.3141508595238625
40
1.3141508595238625
40
1.3251927041454254
40
1.3251927041454254
40
1.3251927041454254
40
1.3362353719499369
40
1.3362353719499369
40
1.3362353719499369
40
1.3472779632852026
40
1.3472779632852026
40
1.3472779632852026
40
1.3583209435429602
40
1.3583209435429602
40
1.3583209435429602
40
1.369364941296628
40
1.369364941296628
40
1.369364941296628
40
1.3804094248172532
40
1.3804094248172532
40
1.3804094248172532
40
1.3914509188129769
40
1.3914509188129769
40
1.3914509188129769
40
1.4024950444491469
40
1.4024950444491469
40
1.4024950444491469
40
1.4135369165198131
40
1.4135369165198131
40
1.4135369165198131
40
1.4135369165198131
10
-2.249958068132401
20
14.274276494979857
30
0
10
-2.249695218058724
20
14.304414472362545
30
0
10
-2.2484520152105394
20
14.334541368153616
30
0
10
-2.2477379441261296
20
14.364677667617794
30
0
10
-2.247579873693005
20
14.371348793242495
30
0
10
-2.2474477320483901
20
14.378020379670852
30
0
10
-2.2472463548183446
20
14.384689331054686
30
0
10
-2.2461355954758013
20
14.421474026389394
30
0
10
-2.242918398560779
20
14.458178552592004
30
0
10
-2.2391247749328618
20
14.494804143905638
30
0
10
-2.2353301810495823
20
14.531439102562967
30
0
10
-2.2309588655624615
20
14.567995085949452
30
0
10
-2.2256068885326394
20
14.604415893554686
30
0
10
-2.2202551798952852
20
14.640834874718893
30
0
10
-2.2139229080697511
20
14.677118693659173
30
0
10
-2.2067260742187509
20
14.713226556777952
30
0
10
-2.1995304612895521
20
14.749328294303425
30
0
10
-2.1914705796508391
20
14.785254135703113
30
0
10
-2.1825300157070164
20
14.820960760116575
30
0
10
-2.1735884862397308
20
14.856671240616059
30
0
10
-2.1637660842410029
20
14.892162456778708
30
0
10
-2.1530786156654362
20
14.927390813827513
30
0
10
-2.1423904280210242
20
14.962621541092782
30
0
10
-2.1308370573899151
20
14.997589373871907
30
0
10
-2.1184340119361886
20
15.032253265380858
30
0
10
-2.1060317770972419
20
15.066914891392768
30
0
10
-2.0927799784949266
20
15.101272615862039
30
0
10
-2.0786933600902566
20
15.135284662246702
30
0
10
-2.0646064101329369
20
15.169297509163028
30
0
10
-2.0496846010749761
20
15.202964661722305
30
0
10
-2.0339436829090123
20
15.236244201660154
30
0
10
-2.0182038617800018
20
15.269521422236149
30
0
10
-2.0016450457118866
20
15.302411084216867
30
0
10
-1.9842921197414409
20
15.334876775741579
30
0
10
-1.9669376797370999
20
15.367345299881229
30
0
10
-1.948788991253019
20
15.399389779579241
30
0
10
-1.9298608601093301
20
15.430965423583986
30
0
10
-1.9109326662968842
20
15.462541172131875
30
0
10
-1.8912250246635407
20
15.493648081881972
30
0
10
-1.8707825243473055
20
15.524269342422484
30
0
10
-1.8503408102814767
20
15.55488942522161
30
0
10
-1.8291642940592887
20
15.585023896168078
30
0
10
-1.8071892857551584
20
15.614551305770872
30
0
10
-1.785214923190239
20
15.64407784770591
30
0
10
-1.7624421154703287
20
15.672997363973948
30
0
10
-1.7392507195472726
20
15.701606273651125
30
0
10
-1.7160581240260018
20
15.730216663152847
30
0
10
-1.6924468969966757
20
15.758516413930003
30
0
10
-1.6671197116374972
20
15.785228013992308
30
0
10
-1.6417925527744925
20
15.811939586110151
30
0
10
-1.6167186776925848
20
15.838888600350067
30
0
10
-1.5909744799137118
20
15.865211486816403
30
0
10
-1.5652313112480212
20
15.891533321036723
30
0
10
-1.5387003078480808
20
15.917120087910908
30
0
10
-1.5109968185424814
20
15.941356420516968
30
0
10
-1.5032691957764375
20
15.948116913159103
30
0
10
-1.4954503445150567
20
15.954772331543426
30
0
10
-1.4876718819141392
20
15.961475372314451
30
0
10
-1.4675641897908751
20
15.978803048364163
30
0
10
-1.4477263936175235
20
15.996448959511271
30
0
10
-1.4273770153522496
20
16.01348519325256
30
0
10
-1.3991553643394505
20
16.037111990934122
30
0
10
-1.3699497523426276
20
16.059566154175119
30
0
10
-1.3403178751468661
20
16.081424951553345
30
0
10
-1.310684757207532
20
16.103284664201375
30
0
10
-1.2806253383714281
20
16.124548961127367
30
0
10
-1.2500302493572222
20
16.145019531250025
30
0
10
-1.219437702835104
20
16.165488400241411
30
0
10
-1.1883095751609756
20
16.185163674343453
30
0
10
-1.1567331850528701
20
16.204093694686911
30
0
10
-1.1251559286835122
20
16.223024234353282
30
0
10
-1.0931303852847309
20
16.241209479370184
30
0
10
-1.0606483370065671
20
16.258522272110007
30
0
10
-1.0281655654435236
20
16.275835450357576
30
0
10
-0.99522626867068265
20
16.292276137473472
30
0
10
-0.96200935542583299
20
16.308177709579489
30
0
10
-0.92879185182378599
20
16.324079564300792
30
0
10
-0.89529672188160436
20
16.339442284848893
30
0
10
-0.86105175316333593
20
16.352936029434225
30
0
10
-0.85251491304614224
20
16.35629985029372
30
0
10
-0.84393147478238129
20
16.359547525098058
30
0
10
-0.83536595106124523
20
16.362842321395917
30
0
10
-0.80957380255088207
20
16.37276347487029
30
0
10
-0.78394408653804581
20
16.383111882449889
30
0
10
-0.75801976025104367
20
16.392666101455713
30
0
10
-0.72348459885247418
20
16.405393780152178
30
0
10
-0.68842661297839725
20
16.416712067320415
30
0
10
-0.65316356718540025
20
16.427310705184954
30
0
10
-0.61790147729034439
20
16.437909055745436
30
0
10
-0.58243433859359883
20
16.447787796017678
30
0
10
-0.54673355072736585
20
16.456756591796896
30
0
10
-0.51103069723776995
20
16.465725906504549
30
0
10
-0.47509416754033973
20
16.473785171418594
30
0
10
-0.43898396193981015
20
16.480960845947287
30
0
10
-0.40287504019851095
20
16.488136265352654
30
0
10
-0.36659245490361014
20
16.494428157201749
30
0
10
-0.33017750829458081
20
16.499831676483176
30
0
10
-0.29376257933401606
20
16.505235193145793
30
0
10
-0.25721528918762038
20
16.509750338101835
30
0
10
-0.22057896479964295
20
16.513363122940056
30
0
10
-0.18394238022004827
20
16.516975933436317
30
0
10
-0.14721676013422288
20
16.519686370997565
30
0
10
-0.11044680140912576
20
16.521488428115841
30
0
10
-0.073660785854218966
20
16.523291272162513
30
0
10
-0.036830392927691802
20
16.524184942243714
30
0
10
-2.3820796496879975e-15
20
16.524184942245459
30
0
10
0.036830392927688319
20
16.524184942247203
30
0
10
0.073660785856541289
20
16.523291272169487
30
0
10
0.11044680140912491
20
16.521488428115845
30
0
10
0.14721676013189861
20
16.519686370990595
30
0
10
0.18394238021075568
20
16.516975933411931
30
0
10
0.22057896479964212
20
16.51336312294006
30
0
10
0.25721528919691256
20
16.509750338126231
30
0
10
0.29376257936886102
20
16.505235193236377
30
0
10
0.33017750829458392
20
16.499831676483172
30
0
10
0.36659245486877001
20
16.494428157111159
30
0
10
0.40287504006843289
20
16.488136265014695
30
0
10
0.43898396193981315
20
16.480960845947287
30
0
10
0.47509416767042834
20
16.473785171756553
30
0
10
0.51103069772327925
20
16.465725907765833
30
0
10
0.54673355072736896
20
16.456756591796889
30
0
10
0.58243433810812262
20
16.447787794756465
30
0
10
0.61790147547855934
20
16.437909051038648
30
0
10
0.65316356718540547
20
16.427310705184979
30
0
10
0.68842661479024303
20
16.41671207202738
30
0
10
0.72348460561443018
20
16.405393797718904
30
0
10
0.75801976025104878
20
16.392666101455731
30
0
10
0.78394405972206604
20
16.38311187727534
30
0
10
0.80957374281332972
20
16.372763448707964
30
0
10
0.83536587655544636
20
16.362842321395917
30
0
10
0.84393142418368161
20
16.359547522703931
30
0
10
0.85251488847718759
20
16.356299851022644
30
0
10
0.86105175316334126
20
16.35293602943425
30
0
10
0.89529673396723786
20
16.339442315997609
30
0
10
0.92879185627558236
20
16.324079574052931
30
0
10
0.96200935542583821
20
16.30817770957951
30
0
10
0.99522626421897586
20
16.292276127721557
30
0
10
1.028165559722038
20
16.275835442497769
30
0
10
1.0606483370065725
20
16.258522272110024
30
0
10
1.0931303910060992
20
16.241209487229852
30
0
10
1.1251559471172017
20
16.223024256040055
30
0
10
1.1567331850528753
20
16.204093694686932
30
0
10
1.1883095567278019
20
16.185163652657327
30
0
10
1.2194376348244549
20
16.16548832135723
30
0
10
1.2500302493572266
20
16.145019531250043
30
0
10
1.2806254063877351
20
16.124549040018145
30
0
10
1.3106850108478165
20
16.103284958087784
30
0
10
1.340317875146869
20
16.081424951553387
30
0
10
1.3699494987129723
20
16.059565860301099
30
0
10
1.3991544178526611
20
16.037110894346661
30
0
10
1.4273770153522523
20
16.013485193252603
30
0
10
1.4477277104983597
20
15.996449219133453
30
0
10
1.4675676440376637
20
15.978804517142855
30
0
10
1.4876751601696045
20
15.961475372314498
30
0
10
1.4954526853900716
20
15.954772512544684
30
0
10
1.5032702441383017
20
15.948116863866931
30
0
10
1.5109968185424836
20
15.941356420517007
30
0
10
1.5386987818899509
20
15.917118311350436
30
0
10
1.5652312087194451
20
15.891533144101773
30
0
10
1.5909744799137147
20
15.865211486816449
30
0
10
1.6152682496815405
20
15.840371897582751
30
0
10
1.6388592303428315
20
15.814876421028817
30
0
10
1.6628289222717316
20
15.789734125137368
30
0
10
1.6896610018365208
20
15.76158941281474
30
0
10
1.7147516233997644
20
15.731828922332339
30
0
10
1.7392507195472753
20
15.701606273651167
30
0
10
1.7624418732078004
20
15.672997132914993
30
0
10
1.7852148582752481
20
15.644077785792964
30
0
10
1.807189285755161
20
15.614551305770917
30
0
10
1.8291643589761963
20
15.585023958082928
30
0
10
1.8503408276761368
20
15.554889441811952
30
0
10
1.8707825243473066
20
15.524269342422505
30
0
10
1.8912250072682104
20
15.49364806529104
30
0
10
1.9109326616361286
20
15.462541167686387
30
0
10
1.9298608601093312
20
15.430965423584009
30
0
10
1.9487889959137612
20
15.399389784024756
30
0
10
1.966937680984818
20
15.367345301072351
30
0
10
1.9842921197414412
20
15.334876775741597
30
0
10
2.0016450444642784
20
15.302411083025891
30
0
10
2.0182038614497131
20
15.269521421917116
30
0
10
2.0339436829090127
20
15.236244201660174
30
0
10
2.0496846014052892
20
15.202964662041403
30
0
10
2.0646064102064505
20
15.16929750924824
30
0
10
2.0786933600902571
20
15.135284662246722
30
0
10
2.0927799784214156
20
15.101272615776871
30
0
10
2.1060317771334951
20
15.066914891371095
30
0
10
2.1184340119361891
20
15.032253265380879
30
0
10
2.1308370573536632
20
14.997589373893614
30
0
10
2.1423904278024812
20
14.962621541094368
30
0
10
2.1530786156654353
20
14.927390813827513
30
0
10
2.1637660844595272
20
14.892162456777127
30
0
10
2.1735884870775593
20
14.856671240631432
30
0
10
2.1825300157070155
20
14.820960760116575
30
0
10
2.1914705788130999
20
14.785254135687742
30
0
10
2.1995304581572563
20
14.749328294240362
30
0
10
2.2067260742187491
20
14.713226556777952
30
0
10
2.2139229112025753
20
14.677118693722242
30
0
10
2.2202551915896267
20
14.64083487495582
30
0
10
2.2256068885326381
20
14.604415893554686
30
0
10
2.2309588538675307
20
14.567995085712511
30
0
10
2.2353301374018293
20
14.531439101678254
30
0
10
2.2391247749328609
20
14.494804143905638
30
0
10
2.2429184421973689
20
14.45817855347649
30
0
10
2.2461357583108992
20
14.42147402969006
30
0
10
2.2472463548183432
20
14.384689331054688
30
0
10
2.2474477504750143
20
14.378018790955331
30
0
10
2.2475798682929109
20
14.371345614368307
30
0
10
2.2477379441261283
20
14.364672899246214
30
0
10
2.2484518319591604
20
14.33453818452109
30
0
10
2.2496951399651519
20
14.304412881487865
30
0
10
2.2499580681324001
20
14.274276494979857
30
0
10
2.2502791366542727
20
14.237476158325283
30
0
10
2.2491383121292383
20
14.200659294551244
30
0
10
2.2472463548183437
20
14.163891077041626
30
0
10
2.2453540113727706
20
14.127115355407158
30
0
10
2.24271022850861
20
14.090388299895833
30
0
10
2.2391247749328604
20
14.053748846054075
30
0
10
2.235540175713985
20
14.017118122814615
30
0
10
2.2310143545005245
20
13.98057495950151
30
0
10
2.2256068885326381
20
13.944164514541624
30
0
10
2.2201979584735545
20
13.907744211320534
30
0
10
2.2139069061783263
20
13.871456698330354
30
0
10
2.2067260742187496
20
13.835345506668091
30
0
10
2.1995455580920389
20
13.79923590327599
30
0
10
2.1914753405692027
20
13.76330260570195
30
0
10
2.1825300157070151
20
13.727588653564451
30
0
10
2.1735855149876491
20
13.691877991793453
30
0
10
2.1637660681707471
20
13.656386635043775
30
0
10
2.1530786156654353
20
13.621158599853517
30
0
10
2.1423915395612894
20
13.585931805358687
30
0
10
2.1308365189082052
20
13.550968313875771
30
0
10
2.1184340119361869
20
13.516308069229124
30
0
10
2.1060314190775977
20
13.481647584562491
30
0
10
2.0927813281624554
20
13.447290350932072
30
0
10
2.0786933600902566
20
13.413280248641987
30
0
10
2.0646064422149193
20
13.379272681657387
30
0
10
2.0496817720980784
20
13.345612194260783
30
0
10
2.0339436829090127
20
13.312336206436177
30
0
10
2.018202698379544
20
13.279054096819348
30
0
10
2.0016479954604791
20
13.246156628260508
30
0
10
1.9842921197414416
20
13.213688135147114
30
0
10
1.9669373943327819
20
13.181221793976107
30
0
10
1.9487816023206748
20
13.149184371389284
30
0
10
1.9298608601093306
20
13.117603063583395
30
0
10
1.9109400397988507
20
13.086021625419363
30
0
10
1.8912542629741522
20
13.054896305801689
30
0
10
1.8707825243473071
20
13.024302721023584
30
0
10
1.8503092062739395
20
12.993706775872869
30
0
10
1.8290498051158577
20
12.963642647614277
30
0
10
1.8071892857551586
20
12.934008836746235
30
0
10
1.7853318959059248
20
12.904379268199675
30
0
10
1.7628735599516916
20
12.875179893845605
30
0
10
1.7392507195472753
20
12.846957445144696
30
0
10
1.7221365996751883
20
12.826511031339988
30
0
10
1.7044112759830234
20
12.806577368423484
30
0
10
1.6869981586933172
20
12.786380052566571
30
0
10
1.6803744580346838
20
12.77869728261112
30
0
10
1.6737959315426412
20
12.770976363848476
30
0
10
1.6671197116375003
20
12.763339281082192
30
0
10
1.6428938208587571
20
12.735626722839212
30
0
10
1.6173815671211569
20
12.709018062156128
30
0
10
1.5909744799137151
20
12.683368921279953
30
0
10
1.5754113009540027
20
12.668252442643631
30
0
10
1.5595373099475229
20
12.653469244248996
30
0
10
1.5438431501388581
20
12.638492584228558
30
0
10
1.5329047706839236
20
12.628054281556205
30
0
10
1.5220537476567038
20
12.617522001216265
30
0
10
1.510996818542484
20
12.607212066650433
30
0
10
1.4840747824533815
20
12.582108855117617
30
0
10
1.4559320267046618
20
12.558323826362408
30
0
10
1.4273770153522525
20
12.5350677967072
30
0
10
1.3988256286822325
20
12.511814719098481
30
0
10
1.3698620910627128
20
12.489090506299361
30
0
10
1.3403178751468676
20
12.46713638305666
30
0
10
1.3107727014835622
20
12.445181548117773
30
0
10
1.2806468118751289
20
12.423996852664757
30
0
10
1.2500302493572253
20
12.403552532196064
30
0
10
1.2194134575611613
20
12.38310805862605
30
0
10
1.1883059855065978
20
12.36340397112928
30
0
10
1.1567331850528733
20
12.344471216201802
30
0
10
1.1251606124883389
20
12.325538597928977
30
0
10
1.0931227182420029
20
12.307377301090687
30
0
10
1.0606483370065705
20
12.290042638778704
30
0
10
1.0281737055287197
20
12.27270784288857
30
0
10
0.99526258033474824
20
12.256199694264623
30
0
10
0.96200935542583621
20
12.240390777587908
30
0
10
0.92875549174231331
20
12.224581557231337
30
0
10
0.89515951520066073
20
12.209471595685919
30
0
10
0.86105175316333726
20
12.195636034011839
30
0
10
0.82921784152948275
20
12.182722842954171
30
0
10
0.79693810785266728
20
12.170919795812251
30
0
10
0.76488696038722948
20
12.158542871475218
30
0
10
0.72825816793219267
20
12.144398236146277
30
0
10
0.69082209177134124
20
12.13243210372881
30
0
10
0.65316356718540147
20
12.121249437332153
30
0
10
0.61785881551405508
20
12.110765721772438
30
0
10
0.58242332868497149
20
12.100799083859329
30
0
10
0.54673355072736718
20
12.091799974441528
30
0
10
0.51104235375496065
20
12.082800507221851
30
0
10
0.47509684543255415
20
12.074768645436295
30
0
10
0.43898396193981121
20
12.067600488662716
30
0
10
0.40287175419641946
20
12.060432466020695
30
0
10
0.36659217754652795
20
12.054128116067414
30
0
10
0.33017750829458398
20
12.048724889755269
30
0
10
0.29376394364665265
20
12.043321827344807
30
0
10
0.25721529459235309
20
12.038819833906869
30
0
10
0.22057896479964417
20
12.035213708877583
30
0
10
0.18394155157256761
20
12.031607477205526
30
0
10
0.14721645242109657
20
12.028897166929362
30
0
10
0.11044680140912692
20
12.027088403701802
30
0
10
0.073660928389984157
20
12.025278842485434
30
0
10
0.036830464190958166
20
12.024371623980851
30
0
10
1.6050490598375754e-15
20
12.024371623992939
30
0
10
-0.036830464190954953
20
12.024371624005028
30
0
10
-0.073660928373842097
20
12.025278842533787
30
0
10
-0.11044680140912372
20
12.027088403701802
30
0
10
-0.14721645243722514
20
12.028897166881032
30
0
10
-0.18394155163707723
20
12.031607477036401
30
0
10
-0.22057896479964298
20
12.035213708877563
30
0
10
-0.25721529452784297
20
12.038819834075946
30
0
10
-0.29376394340474843
20
12.043321827972866
30
0
10
-0.33017750829458264
20
12.048724889755247
30
0
10
-0.36659217778843911
20
12.054128115439287
30
0
10
-0.40287175509956541
20
12.060432463677333
30
0
10
-0.43898396193981204
20
12.067600488662718
30
0
10
-0.47509684452939077
20
12.074768647779701
30
0
10
-0.51104235038419443
20
12.082800515967413
30
0
10
-0.54673355072736762
20
12.091799974441527
30
0
10
-0.58242333205560515
20
12.100799075114111
30
0
10
-0.61785882809322723
20
12.110765689135491
30
0
10
-0.65316356718540247
20
12.121249437332152
30
0
10
-0.68846907799572299
20
12.131733414690647
30
0
10
-0.72364382614416234
20
12.1427345488325
30
0
10
-0.75801976025104767
20
12.15589523315427
30
0
10
-0.79239537081617439
20
12.169055793609427
30
0
10
-0.82694470814540455
20
12.181800716847082
30
0
10
-0.86105175316333815
20
12.195636034011839
30
0
10
-0.89515949974605491
20
12.209471635762121
30
0
10
-0.9287554875816586
20
12.224581567990246
30
0
10
-0.96200935542583521
20
12.240390777587889
30
0
10
-0.99526258449532434
20
12.256199683505884
30
0
10
-1.0281737067168493
20
12.272707839928771
30
0
10
-1.0606483370065694
20
12.290042638778683
30
0
10
-1.09312271705388
20
12.307377304050419
30
0
10
-1.1251606118963828
20
12.325538599009381
30
0
10
-1.1567331850528721
20
12.34447121620178
30
0
10
-1.1883059860985561
20
12.363403970048827
30
0
10
-1.2194134587408665
20
12.383108057264089
30
0
10
-1.2500302493572237
20
12.403552532196043
30
0
10
-1.2806468106954327
20
12.423996854026669
30
0
10
-1.3107726973567437
20
12.445181552485035
30
0
10
-1.3403178751468641
20
12.46713638305666
30
0
10
-1.3698620951893843
20
12.489090501932234
30
0
10
-1.3988256440090581
20
12.511814702992091
30
0
10
-1.4273770153522474
20
12.535067796707173
30
0
10
-1.4559320113758842
20
12.558323842470799
30
0
10
-1.4840747252621109
20
12.582108915187128
30
0
10
-1.5109968185424787
20
12.60721206665041
30
0
10
-1.5220537974500088
20
12.617522001073098
30
0
10
-1.5329048859988972
20
12.628054264780271
30
0
10
-1.5438432991504656
20
12.638492584228535
30
0
10
-1.5595374439446577
20
12.65346920785384
30
0
10
-1.5754113529704006
20
12.668252440189722
30
0
10
-1.5909744799137104
20
12.683368921279927
30
0
10
-1.6173815226509844
20
12.7090181088526
30
0
10
-1.6428938152188333
20
12.735626728761464
30
0
10
-1.6671197116374956
20
12.763339281082175
30
0
10
-1.6737959330968968
20
12.770976362216386
30
0
10
-1.6803744586225449
20
12.778697281993805
30
0
10
-1.6869981586933123
20
12.786380052566548
30
0
10
-1.7044112744375721
20
12.806577370046279
30
0
10
-1.7221365992003652
20
12.826511031838558
30
0
10
-1.7392507195472704
20
12.846957445144673
30
0
10
-1.7628735606070889
20
12.87517989315738
30
0
10
-1.7853318960815492
20
12.904379268015251
30
0
10
-1.8071892857551557
20
12.934008836746235
30
0
10
-1.8290498049401989
20
12.963642647798721
30
0
10
-1.8503092062268576
20
12.99370677592229
30
0
10
-1.870782524347304
20
13.024302721023579
30
0
10
-1.891254263021225
20
13.054896305752271
30
0
10
-1.9109400398115153
20
13.086021625406124
30
0
10
-1.9298608601093279
20
13.117603063583394
30
0
10
-1.9487816023080049
20
13.149184371402519
30
0
10
-1.9669373943291855
20
13.181221793979647
30
0
10
-1.9842921197414378
20
13.213688135147111
30
0
10
-2.0016479954640691
20
13.246156628256962
30
0
10
-2.0182026983812458
20
13.279054096818417
30
0
10
-2.0339436829090105
20
13.312336206436177
30
0
10
-2.0496817720963718
20
13.345612194261715
30
0
10
-2.0646064422116921
20
13.379272681657568
30
0
10
-2.0786933600902544
20
13.413280248641986
30
0
10
-2.09278132816568
20
13.44729035093189
30
0
10
-2.106031419088795
20
13.481647584562701
30
0
10
-2.1184340119361864
20
13.516308069229147
30
0
10
-2.1308365188970022
20
13.550968313875595
30
0
10
-2.1423915395197137
20
13.585931805357738
30
0
10
-2.1530786156654367
20
13.621158599853514
30
0
10
-2.1637660682123281
20
13.656386635044726
30
0
10
-2.1735855151427637
20
13.691877991797076
30
0
10
-2.1825300157070169
20
13.727588653564453
30
0
10
-2.1914753404140757
20
13.763302605698327
30
0
10
-2.1995455575130878
20
13.799235903262444
30
0
10
-2.2067260742187504
20
13.835345506668087
30
0
10
-2.2139069067573054
20
13.871456698343898
30
0
10
-2.2201979606343762
20
13.907744211371092
30
0
10
-2.2256068885326394
20
13.944164514541624
30
0
10
-2.2310143523402899
20
13.980574959450969
30
0
10
-2.2355401676528772
20
14.017118122626007
30
0
10
-2.2391247749328618
20
14.053748846054074
30
0
10
-2.2427102365716411
20
14.090388300084483
30
0
10
-2.2453540414674715
20
14.127115356111286
30
0
10
-2.2472463548183446
20
14.163891077041622
30
0
10
-2.2491382820406796
20
14.200659293847252
30
0
10
-2.2502790243720558
20
14.237476155698195
30
0
10
-2.249958068132401
20
14.274276494979857
30
0
0
SPLINE
5
105
100
AcDbEntity
8
0
100
AcDbSpline
70
2
71
3
72
443
73
439
74
0
42
0.000000001
43
0.0000000001
44
0.0000000001
40
0
40
0
40
0
40
0
40
0.011044732230941913
40
0.011044732230941913
40
0.011044732230941913
40
0.022086004592533851
40
0.022086004592533851
40
0.022086004592533851
40
0.033130338094403487
40
0.033130338094403487
40
0.033130338094403487
40
0.044173881980686822
40
0.044173881980686822
40
0.044173881980686822
40
0.050673291449181729
40
0.050673291449181729
40
0.050673291449181729
40
0.055215669797084699
40
0.055215669797084699
40
0.055215669797084699
40
0.066258650054844409
40
0.066258650054844409
40
0.066258650054844409
40
0.077302033726266386
40
0.077302033726266386
40
0.077302033726266386
40
0.088345368865631602
40
0.088345368865631602
40
0.088345368865631602
40
0.099388739236185311
40
0.099388739236185311
40
0.099388739236185311
40
0.11043112450294258
40
0.11043112450294258
40
0.11043112450294258
40
0.12147426853104598
40
0.12147426853104598
40
0.12147426853104598
40
0.13135932519546309
40
0.13135932519546309
40
0.13135932519546309
40
0.13251806245002837
40
0.13251806245002837
40
0.13251806245002837
40
0.14356093454401442
40
0.14356093454401442
40
0.14356093454401442
40
0.15460395898909318
40
0.15460395898909318
40
0.15460395898909318
40
0.1642892499800154
40
0.1642892499800154
40
0.1642892499800154
40
0.16564754349860322
40
0.16564754349860322
40
0.16564754349860322
40
0.17669058663248777
40
0.17669058663248777
40
0.17669058663248777
40
0.18773369393544873
40
0.18773369393544873
40
0.18773369393544873
40
0.19877609208336255
40
0.19877609208336255
40
0.19877609208336255
40
0.20981923685795725
40
0.20981923685795725
40
0.20981923685795725
40
0.22086318727414364
40
0.22086318727414364
40
0.22086318727414364
40
0.23190581293619464
40
0.23190581293619464
40
0.23190581293619464
40
0.23630214241863592
40
0.23630214241863592
40
0.23630214241863592
40
0.24294880531645224
40
0.24294880531645224
40
0.24294880531645224
40
0.25399193638860634
40
0.25399193638860634
40
0.25399193638860634
40
0.26503546756336932
40
0.26503546756336932
40
0.26503546756336932
40
0.27607831552236123
40
0.27607831552236123
40
0.27607831552236123
40
0.2871214445136282
40
0.2871214445136282
40
0.2871214445136282
40
0.2969398554285152
40
0.2969398554285152
40
0.2969398554285152
40
0.29816417881531931
40
0.29816417881531931
40
0.29816417881531931
40
0.30920754288422792
40
0.30920754288422792
40
0.30920754288422792
40
0.32025070030815661
40
0.32025070030815661
40
0.32025070030815661
40
0.33129369786658414
40
0.33129369786658414
40
0.33129369786658414
40
0.34233684687276672
40
0.34233684687276672
40
0.34233684687276672
40
0.35338482988717174
40
0.35338482988717174
40
0.35338482988717174
40
0.36443281290157675
40
0.36443281290157675
40
0.36443281290157675
40
0.37547596190775939
40
0.37547596190775939
40
0.37547596190775939
40
0.38651895946618703
40
0.38651895946618703
40
0.38651895946618703
40
0.39756211689011572
40
0.39756211689011572
40
0.39756211689011572
40
0.40860548095902433
40
0.40860548095902433
40
0.40860548095902433
40
0.40982981511663957
40
0.40982981511663957
40
0.40982981511663957
40
0.4196482152601444
40
0.4196482152601444
40
0.4196482152601444
40
0.43069134425141137
40
0.43069134425141137
40
0.43069134425141137
40
0.44173419221040328
40
0.44173419221040328
40
0.44173419221040328
40
0.45277772338516625
40
0.45277772338516625
40
0.45277772338516625
40
0.46382085445732035
40
0.46382085445732035
40
0.46382085445732035
40
0.47046753032047062
40
0.47046753032047062
40
0.47046753032047062
40
0.47486384683723748
40
0.47486384683723748
40
0.47486384683723748
40
0.48590647249928848
40
0.48590647249928848
40
0.48590647249928848
40
0.49695042291547487
40
0.49695042291547487
40
0.49695042291547487
40
0.50799356769007109
40
0.50799356769007109
40
0.50799356769007109
40
0.51903596583798495
40
0.51903596583798495
40
0.51903596583798495
40
0.53007907314094593
40
0.53007907314094593
40
0.53007907314094593
40
0.54112211627483053
40
0.54112211627483053
40
0.54112211627483053
40
0.54248040979341838
40
0.54248040979341838
40
0.54248040979341838
40
0.55216570078434057
40
0.55216570078434057
40
0.55216570078434057
40
0.56320872522941745
40
0.56320872522941745
40
0.56320872522941745
40
0.57425159732340347
40
0.57425159732340347
40
0.57425159732340347
40
0.57541033457796875
40
0.57541033457796875
40
0.57541033457796875
40
0.58529539124238583
40
0.58529539124238583
40
0.58529539124238583
40
0.59633853527048919
40
0.59633853527048919
40
0.59633853527048919
40
0.60738092053724646
40
0.60738092053724646
40
0.60738092053724646
40
0.61842429090780215
40
0.61842429090780215
40
0.61842429090780215
40
0.62946762604716733
40
0.62946762604716733
40
0.62946762604716733
40
0.64051100971858932
40
0.64051100971858932
40
0.64051100971858932
40
0.65155398997634684
40
0.65155398997634684
40
0.65155398997634684
40
0.65609636179329478
40
0.65609636179329478
40
0.65609636179329478
40
0.66259577779219925
40
0.66259577779219925
40
0.66259577779219925
40
0.67363932167848262
40
0.67363932167848262
40
0.67363932167848262
40
0.68468365518035224
40
0.68468365518035224
40
0.68468365518035224
40
0.69572492754194415
40
0.69572492754194415
40
0.69572492754194415
40
0.70676965977288608
40
0.70676965977288608
40
0.70676965977288608
40
0.71781200853690053
40
0.71781200853690053
40
0.71781200853690053
40
0.72885565862702917
40
0.72885565862702917
40
0.72885565862702917
40
0.73750378382434534
40
0.73750378382434534
40
0.73750378382434534
40
0.73989762587354024
40
0.73989762587354024
40
0.73989762587354024
40
0.75094116975982361
40
0.75094116975982361
40
0.75094116975982361
40
0.76198528382663833
40
0.76198528382663833
40
0.76198528382663833
40
0.77302826408439584
40
0.77302826408439584
40
0.77302826408439584
40
0.78407074222929085
40
0.78407074222929085
40
0.78407074222929085
40
0.79511407736865602
40
0.79511407736865602
40
0.79511407736865602
40
0.7981643869092776
40
0.7981643869092776
40
0.7981643869092776
40
0.80615613995477364
40
0.80615613995477364
40
0.80615613995477364
40
0.817200015947393
40
0.817200015947393
40
0.817200015947393
40
0.8282429525309758
40
0.8282429525309758
40
0.8282429525309758
40
0.83928553785201454
40
0.83928553785201454
40
0.83928553785201454
40
0.85032957947296484
40
0.85032957947296484
40
0.85032957947296484
40
0.86137260391804171
40
0.86137260391804171
40
0.86137260391804171
40
0.8724156468244435
40
0.8724156468244435
40
0.8724156468244435
40
0.88345817194112086
40
0.88345817194112086
40
0.88345817194112086
40
0.89450127924408185
40
0.89450127924408185
40
0.89450127924408185
40
0.89964342569295752
40
0.89964342569295752
40
0.89964342569295752
40
0.90554523468074732
40
0.90554523468074732
40
0.90554523468074732
40
0.91658793949357475
40
0.91658793949357475
40
0.91658793949357475
40
0.92763092888096121
40
0.92763092888096121
40
0.92763092888096121
40
0.93867393718848835
40
0.93867393718848835
40
0.93867393718848835
40
0.949717282117715
40
0.949717282117715
40
0.949717282117715
40
0.96076041318986904
40
0.96076041318986904
40
0.96076041318986904
40
0.97180336475252993
40
0.97180336475252993
40
0.97180336475252993
40
0.98284672752483704
40
0.98284672752483704
40
0.98284672752483704
40
0.99388963214631387
40
0.99388963214631387
40
0.99388963214631387
40
1.0049327479190062
40
1.0049327479190062
40
1.0049327479190062
40
1.0125291049129133
40
1.0125291049129133
40
1.0125291049129133
40
1.0159759552846213
40
1.0159759552846213
40
1.0159759552846213
40
1.0270192349866547
40
1.0270192349866547
40
1.0270192349866547
40
1.0380619699364251
40
1.0380619699364251
40
1.0380619699364251
40
1.0491051189426077
40
1.0491051189426077
40
1.0491051189426077
40
1.0601531605085504
40
1.0601531605085504
40
1.0601531605085504
40
1.071201202074493
40
1.071201202074493
40
1.071201202074493
40
1.0822443510806756
40
1.0822443510806756
40
1.0822443510806756
40
1.093287086030446
40
1.093287086030446
40
1.093287086030446
40
1.1043303657324792
40
1.1043303657324792
40
1.1043303657324792
40
1.1077772197389364
40
1.1077772197389364
40
1.1077772197389364
40
1.1153735730980205
40
1.1153735730980205
40
1.1153735730980205
40
1.126416688870713
40
1.126416688870713
40
1.126416688870713
40
1.1374595934921898
40
1.1374595934921898
40
1.1374595934921898
40
1.1485029562644979
40
1.1485029562644979
40
1.1485029562644979
40
1.1590306468258575
40
1.1590306468258575
40
1.1590306468258575
40
1.1705890389013738
40
1.1705890389013738
40
1.1705890389013738
40
1.1816323838306004
40
1.1816323838306004
40
1.1816323838306004
40
1.1926753921381275
40
1.1926753921381275
40
1.1926753921381275
40
1.2037183815255139
40
1.2037183815255139
40
1.2037183815255139
40
1.2138336066291178
40
1.2138336066291178
40
1.2138336066291178
40
1.2206628501719978
40
1.2206628501719978
40
1.2206628501719978
40
1.2258050417504958
40
1.2258050417504958
40
1.2258050417504958
40
1.2368481490534566
40
1.2368481490534566
40
1.2368481490534566
40
1.2478906741701354
40
1.2478906741701354
40
1.2478906741701354
40
1.2589337170765373
40
1.2589337170765373
40
1.2589337170765373
40
1.2699767415216143
40
1.2699767415216143
40
1.2699767415216143
40
1.2810207831425646
40
1.2810207831425646
40
1.2810207831425646
40
1.2920633684636034
40
1.2920633684636034
40
1.2920633684636034
40
1.3031063050471863
40
1.3031063050471863
40
1.3031063050471863
40
1.3141501810398037
40
1.3141501810398037
40
1.3141501810398037
40
1.3221419522016031
40
1.3221419522016031
40
1.3221419522016031
40
1.3251922436241872
40
1.3251922436241872
40
1.3251922436241872
40
1.3362355787635525
40
1.3362355787635525
40
1.3362355787635525
40
1.3472780569084475
40
1.3472780569084475
40
1.3472780569084475
40
1.3583210371662051
40
1.3583210371662051
40
1.3583210371662051
40
1.3693651512330198
40
1.3693651512330198
40
1.3693651512330198
40
1.3804086951193031
40
1.3804086951193031
40
1.3804086951193031
40
1.3828018218197431
40
1.3828018218197431
40
1.3828018218197431
40
1.3914506623652803
40
1.3914506623652803
40
1.3914506623652803
40
1.4024943124554088
40
1.4024943124554088
40
1.4024943124554088
40
1.4135366612194233
40
1.4135366612194233
40
1.4135366612194233
40
1.4135366612194233
10
-2.249958068132401
20
-21.793706417083744
30
0
10
-2.2499802992079223
20
-21.756890534696115
30
0
10
-2.2490518492816598
20
-21.720070138333178
30
0
10
-2.2472463548183437
20
-21.683292388916012
30
0
10
-2.2454414259436564
20
-21.646526160485074
30
0
10
-2.2427600019312428
20
-21.609802552284961
30
0
10
-2.2391247749328618
20
-21.573178768157966
30
0
10
-2.235488540085075
20
-21.536544830260915
30
0
10
-2.2308979733033194
20
-21.500010771796155
30
0
10
-2.2256068885326385
20
-21.463565826416016
30
0
10
-2.2203161820485242
20
-21.427123486670428
30
0
10
-2.2143250577390923
20
-21.3907702472676
30
0
10
-2.2067260742187496
20
-21.354756355285648
30
0
10
-2.2022538770733755
20
-21.33356125406134
30
0
10
-2.197224777780372
20
-21.31248369006056
30
0
10
-2.1924844384193438
20
-21.291341781616232
30
0
10
-2.1891714582202009
20
-21.276565893496496
30
0
10
-2.1859995223871849
20
-21.261758576427482
30
0
10
-2.1825300157070178
20
-21.24702215194705
30
0
10
-2.1740952947659631
20
-21.211196416584745
30
0
10
-2.1639018552000682
20
-21.175789674269264
30
0
10
-2.1530786156654353
20
-21.14059209823608
30
0
10
-2.1422549807445397
20
-21.105393236392121
30
0
10
-2.1308014998393294
20
-21.070403556112936
30
0
10
-2.1184340119361873
20
-21.035733222961429
30
0
10
-2.1060665783841075
20
-21.001063042174689
30
0
10
-2.0927851458676008
20
-20.966712205708777
30
0
10
-2.0786933600902557
20
-20.932698249816898
30
0
10
-2.0646015293563504
20
-20.898684185411419
30
0
10
-2.0496993401911121
20
-20.865007003729449
30
0
10
-2.0339436829090123
20
-20.831737518310561
30
0
10
-2.0181894310817041
20
-20.798471000635686
30
0
10
-2.0015818633948896
20
-20.765612106491535
30
0
10
-1.9842921197414396
20
-20.733106136322025
30
0
10
-1.967001188048553
20
-20.700597932552331
30
0
10
-1.9490279866363629
20
-20.668442701260261
30
0
10
-1.929860860109329
20
-20.637021064758304
30
0
10
-1.9127037777302882
20
-20.608894594930504
30
0
10
-1.8945900522555672
20
-20.581355924439748
30
0
10
-1.8769820034503937
20
-20.553503036499027
30
0
10
-1.8749179685314841
20
-20.550238090227111
30
0
10
-1.872860882008085
20
-20.546968826360082
30
0
10
-1.8707825243473051
20
-20.543713569641117
30
0
10
-1.8509755856102226
20
-20.512690675159213
30
0
10
-1.8292367459235883
20
-20.482939946907116
30
0
10
-1.8071892857551575
20
-20.453433990478519
30
0
10
-1.78514152141272
20
-20.423927626976045
30
0
10
-1.7627851280727682
20
-20.394666042051025
30
0
10
-1.7392507195472697
20
-20.366375446319562
30
0
10
-1.7186098529076714
20
-20.341563162933927
30
0
10
-1.6970628361137361
20
-20.317497781641233
30
0
10
-1.675991415977476
20
-20.293035507202127
30
0
10
-1.6730362984259903
20
-20.289604846331777
30
0
10
-1.6700905349464021
20
-20.286166379336279
30
0
10
-1.6671197116374949
20
-20.282750129699689
30
0
10
-1.642966662613514
20
-20.254975726320204
30
0
10
-1.6171572015098428
20
-20.228669852562451
30
0
10
-1.5909744799137095
20
-20.202770233154283
30
0
10
-1.564791606174635
20
-20.176870463248221
30
0
10
-1.538235467605191
20
-20.151376952413106
30
0
10
-1.5109968185424785
20
-20.126621723175035
30
0
10
-1.4837599186636627
20
-20.101868083643129
30
0
10
-1.4558405959462952
20
-20.077852630890881
30
0
10
-1.4273770153522471
20
-20.054502487182599
30
0
10
-1.3989115102062657
20
-20.031150764665075
30
0
10
-1.3699016735816227
20
-20.008464441163689
30
0
10
-1.3403178751468656
20
-19.986562728881839
30
0
10
-1.3107319184556567
20
-19.964659418782457
30
0
10
-1.2805719162056586
20
-19.943540834387846
30
0
10
-1.2500302493572235
20
-19.922962188720707
30
0
10
-1.2194922460710045
20
-19.902386011522267
30
0
10
-1.1885726697444252
20
-19.882349643524602
30
0
10
-1.1567331850528717
20
-19.863889217376713
30
0
10
-1.1440571359374645
20
-19.856539686729185
30
0
10
-1.1312352791641271
20
-19.849439946603084
30
0
10
-1.1184801906347275
20
-19.842221736907963
30
0
10
-1.099196200655058
20
-19.831308768086846
30
0
10
-1.0800648255252643
20
-19.820125008625972
30
0
10
-1.0606483370065689
20
-19.809460639953617
30
0
10
-1.0283887157546212
20
-19.791742271674508
30
0
10
-0.99534205820906108
20
-19.775457646660509
30
0
10
-0.96200935542583454
20
-19.759807586669925
30
0
10
-0.92867544496869203
20
-19.744156959663528
30
0
10
-0.89505546854615359
20
-19.729140943663118
30
0
10
-0.8610517531633376
20
-19.715046882629398
30
0
10
-0.82705014144412847
20
-19.700953693534601
30
0
10
-0.79266483824373091
20
-19.687782345335258
30
0
10
-0.75801976025104523
20
-19.675312042236332
30
0
10
-0.72337380056686795
20
-19.662841421777454
30
0
10
-0.68846805286808332
20
-19.651071882101604
30
0
10
-0.65316356718540192
20
-19.640667438507084
30
0
10
-0.62177446108644807
20
-19.631416880750074
30
0
10
-0.59007015533750506
20
-19.623245422111825
30
0
10
-0.55853303521871556
20
-19.614491462707523
30
0
10
-0.55460046058432733
20
-19.613399872905596
30
0
10
-0.55067048556371223
20
-19.612299225644524
30
0
10
-0.54673355072736729
20
-19.611225128173832
30
0
10
-0.51122250423268645
20
-19.601536797833809
30
0
10
-0.47514520771817065
20
-19.594008556195799
30
0
10
-0.43898396193981176
20
-19.587025642395023
30
0
10
-0.40282339281576401
20
-19.580042859259514
30
0
10
-0.36657887756958468
20
-19.57360538355293
30
0
10
-0.33017750829458231
20
-19.568150043487552
30
0
10
-0.29377666598147306
20
-19.562694782396022
30
0
10
-0.25721897418088085
20
-19.558221628510267
30
0
10
-0.22057896479964256
20
-19.554624557495121
30
0
10
-0.18393845292375668
20
-19.551027437148417
30
0
10
-0.1472156212093417
20
-19.548306423702332
30
0
10
-0.11044680140912533
20
-19.546499252319339
30
0
10
-0.073661886491733219
20
-19.544691289868389
30
0
10
-0.03683094321824347
20
-19.543797969702801
30
0
10
1.246875131760239e-17
20
-19.543797969818119
30
0
10
0.036830943218243505
20
-19.543797969933429
30
0
10
0.073661886381240743
20
-19.544691290329641
30
0
10
0.11044680140912534
20
-19.546499252319339
30
0
10
0.14721562131978608
20
-19.548306423241286
30
0
10
0.18393845336543704
20
-19.551027435535044
30
0
10
0.22057896479964453
20
-19.554624557495092
30
0
10
0.25721897373921071
20
-19.558221630123562
30
0
10
0.29377666432523758
20
-19.562694788388232
30
0
10
0.33017750829458242
20
-19.568150043487552
30
0
10
0.36657887922584403
20
-19.573605377560636
30
0
10
0.40282339899916664
20
-19.580042836903491
30
0
10
0.43898396193981176
20
-19.587025642395023
30
0
10
0.47514520153465239
20
-19.594008578552241
30
0
10
0.51122248115470303
20
-19.601536881267883
30
0
10
0.54673355072736751
20
-19.611225128173835
30
0
10
0.55067052275690243
20
-19.612299225843739
30
0
10
0.55460053533956377
20
-19.613399871994929
30
0
10
0.55853314697742484
20
-19.614491462707523
30
0
10
0.59007025180241113
20
-19.623245342800232
30
0
10
0.62177450302709325
20
-19.631416863596122
30
0
10
0.65316356718540192
20
-19.640667438507084
30
0
10
0.68846804442700904
20
-19.651071912809613
30
0
10
0.72337379872856467
20
-19.66284142925738
30
0
10
0.75801976025104523
20
-19.675312042236332
30
0
10
0.79266484008198757
20
-19.68778233785552
30
0
10
0.82705014035641677
20
-19.700953694322482
30
0
10
0.8610517531633376
20
-19.715046882629391
30
0
10
0.89505546963393279
20
-19.729140942875187
30
0
10
0.9286754511584272
20
-19.744156949031066
30
0
10
0.96200935542583454
20
-19.759807586669925
30
0
10
0.99534205201955017
20
-19.775457657292591
30
0
10
1.0283886920847269
20
-19.791742313414197
30
0
10
1.0606483370065689
20
-19.809460639953617
30
0
10
1.0800648776466124
20
-19.820125004306036
30
0
10
1.099196318692681
20
-19.831308735083361
30
0
10
1.1184803396463396
20
-19.842221736907966
30
0
10
1.1312353861648961
20
-19.849439933064478
30
0
10
1.1440571849861549
20
-19.856539687800446
30
0
10
1.1567331850528717
20
-19.863889217376713
30
0
10
1.1885726404458217
20
-19.882349695277554
30
0
10
1.2194922382200608
20
-19.90238602539015
30
0
10
1.2500302493572237
20
-19.922962188720714
30
0
10
1.2805719240575448
20
-19.943540820518308
30
0
10
1.3107319205594503
20
-19.964659415066325
30
0
10
1.3403178751468656
20
-19.986562728881839
30
0
10
1.3699016714779868
20
-20.008464444879547
30
0
10
1.3989115096427609
20
-20.031150765660463
30
0
10
1.4273770153522489
20
-20.054502487182621
30
0
10
1.4558405965097614
20
-20.077852629895602
30
0
10
1.4837599188141009
20
-20.101868083377418
30
0
10
1.5109968185424807
20
-20.126621723175052
30
0
10
1.5382354674547469
20
-20.151376952678866
30
0
10
1.5647916061363705
20
-20.176870463315829
30
0
10
1.5909744799137113
20
-20.202770233154297
30
0
10
1.6171572015481108
20
-20.228669852494882
30
0
10
1.6429666626161363
20
-20.25497572631561
30
0
10
1.6671197116374967
20
-20.282750129699711
30
0
10
1.6700905349460815
20
-20.286166379336873
30
0
10
1.6730362984258471
20
-20.289604846332058
30
0
10
1.6759914159774778
20
-20.293035507202156
30
0
10
1.697062836114771
20
-20.31749778163945
30
0
10
1.7186098529080875
20
-20.341563162933411
30
0
10
1.739250719547272
20
-20.366375446319584
30
0
10
1.7627851280722948
20
-20.394666042051664
30
0
10
1.7851415214120372
20
-20.423927626976347
30
0
10
1.8071892857551577
20
-20.45343399047853
30
0
10
1.8292367459242755
20
-20.482939946906843
30
0
10
1.8509755856124888
20
-20.512690675158701
30
0
10
1.8707825243473055
20
-20.543713569641117
30
0
10
1.8728608820078474
20
-20.546968826360136
30
0
10
1.874917968530966
20
-20.550238090227232
30
0
10
1.8769820034503937
20
-20.553503036499027
30
0
10
1.8945900522599852
20
-20.581355924438753
30
0
10
1.9127037777971991
20
-20.608894594915469
30
0
10
1.929860860109329
20
-20.637021064758304
30
0
10
1.9490279865616129
20
-20.668442701277051
30
0
10
1.9670011877375519
20
-20.700597932622195
30
0
10
1.9842921197414396
20
-20.733106136322025
30
0
10
2.0015818637058698
20
-20.765612106421685
30
0
10
2.0181894322508414
20
-20.798471000373077
30
0
10
2.0339436829090114
20
-20.83173751831055
30
0
10
2.0496993390218723
20
-20.865007003992069
30
0
10
2.0646015249902141
20
-20.898684186392114
30
0
10
2.078693360090254
20
-20.932698249816916
30
0
10
2.0927851502337163
20
-20.966712204728118
30
0
10
2.1060665946793229
20
-21.001063038514602
30
0
10
2.118434011936186
20
-21.035733222961458
30
0
10
2.130801483544039
20
-21.070403559773091
30
0
10
2.1422549199293952
20
-21.105393250051989
30
0
10
2.153078615665434
20
-21.140592098236112
30
0
10
2.1639019160129855
20
-21.175789660609944
30
0
10
2.174095521719102
20
-21.211196365608238
30
0
10
2.1825300157070142
20
-21.247022151947043
30
0
10
2.1859994240448577
20
-21.261758576208155
30
0
10
2.1891711958809994
20
-21.276565907793021
30
0
10
2.1924841403961164
20
-21.291341781616239
30
0
10
2.1972244402774894
20
-21.312483721244799
30
0
10
2.202253764197462
20
-21.33356125712767
30
0
10
2.20672607421875
20
-21.354756355285648
30
0
10
2.2143252418980439
20
-21.390770205871789
30
0
10
2.2203162309562332
20
-21.427123475524375
30
0
10
2.2256068885326385
20
-21.463565826416019
30
0
10
2.2308979243921141
20
-21.500010782943008
30
0
10
2.2354885286185446
20
-21.536544833448165
30
0
10
2.2391247749328618
20
-21.573178768157963
30
0
10
2.2427600133945949
20
-21.609802549098585
30
0
10
2.2454414229066151
20
-21.646526158882029
30
0
10
2.2472463548183437
20
-21.683292388916019
30
0
10
2.2490518523196532
20
-21.720070139936748
30
0
10
2.2499803228323372
20
-21.756890537922992
30
0
10
2.249958068132401
20
-21.793706417083744
30
0
10
2.2499358182350564
20
-21.83051435133207
30
0
10
2.2489632534161785
20
-21.867317768705028
30
0
10
2.2472463548183441
20
-21.904096603393555
30
0
10
2.2455292538862932
20
-21.940879772418832
30
0
10
2.2430676437274575
20
-21.977638352965254
30
0
10
2.2391247749328613
20
-22.014234066009525
30
0
10
2.2360371705000901
20
-22.042891648014486
30
0
10
2.2320412237320122
20
-22.07144935586939
30
0
10
2.2285370528697963
20
-22.100064754486088
30
0
10
2.2275670817643669
20
-22.107985632468331
30
0
10
2.2266347909538591
20
-22.115910930766603
30
0
10
2.225606888532639
20
-22.123823165893558
30
0
10
2.2208648523973058
20
-22.160324787164893
30
0
10
2.2140879467044012
20
-22.196548389381402
30
0
10
2.20672607421875
20
-22.232632637023929
30
0
10
2.1993638216380487
20
-22.268718747703879
30
0
10
2.19141654185912
20
-22.304665489419659
30
0
10
2.1825300157070155
20
-22.340390682220463
30
0
10
2.1736444018620262
20
-22.376112207407282
30
0
10
2.1638197344834817
20
-22.411612229166021
30
0
10
2.1530786156654362
20
-22.446820735931393
30
0
10
2.142337985234926
20
-22.482027641802475
30
0
10
2.1306809867032142
20
-22.516943059189359
30
0
10
2.1184340119361873
20
-22.551670074462894
30
0
10
2.106186086695045
20
-22.586399784861534
30
0
10
2.093348093640234
20
-22.620941063902333
30
0
10
2.0786933600902557
20
-22.654705047607422
30
0
10
2.07464553640306
20
-22.664031089090845
30
0
10
2.0704591072941443
20
-22.6732978280222
30
0
10
2.0663304626941676
20
-22.682590484619144
30
0
10
2.0555134922797782
20
-22.706937068357735
30
0
10
2.0450931720960304
20
-22.731461558739849
30
0
10
2.0339436829090123
20
-22.755651473999027
30
0
10
2.0185361027120892
20
-22.789079737219062
30
0
10
2.0017360483987536
20
-22.82186907147118
30
0
10
1.9842921197414398
20
-22.854299545288089
30
0
10
1.9668496748914619
20
-22.886727260519134
30
0
10
1.9487634652307255
20
-22.918796176362811
30
0
10
1.929860860109329
20
-22.950382232666019
30
0
10
1.9109588562570889
20
-22.981967284254733
30
0
10
1.8912405088804793
20
-23.013069507020848
30
0
10
1.8707825243473051
20
-23.043675422668461
30
0
10
1.8503218418081659
20
-23.074285374634648
30
0
10
1.8291213270123983
20
-23.104398888567381
30
0
10
1.8071892857551577
20
-23.133969306945804
30
0
10
1.7852592644779195
20
-23.163537001836104
30
0
10
1.7625978514827789
20
-23.192561701207612
30
0
10
1.739250719547272
20
-23.22102785110474
30
0
10
1.7159035485808825
20
-23.249494048590535
30
0
10
1.6918706563814041
20
-23.277401694734415
30
0
10
1.6671197116374972
20
-23.30464601516724
30
0
10
1.642369927423796
20
-23.331889058159664
30
0
10
1.6169021580006415
20
-23.358468837644036
30
0
10
1.5909744799137113
20
-23.384618759155273
30
0
10
1.5650454348623968
20
-23.41077005934806
30
0
10
1.5386564326512295
20
-23.4364914562404
30
0
10
1.5109968185424802
20
-23.460767269134525
30
0
10
1.4981173107586123
20
-23.472071133313555
30
0
10
1.4849623044891749
20
-23.483061560948322
30
0
10
1.472063213586807
20
-23.494358062744144
30
0
10
1.4572585067627617
20
-23.507323425845339
30
0
10
1.4427909147092512
20
-23.520691977398055
30
0
10
1.4273770153522494
20
-23.532910346984867
30
0
10
1.3985365122173357
20
-23.555771786404613
30
0
10
1.3697046767390515
20
-23.578686913116456
30
0
10
1.3403178751468656
20
-23.600842952728279
30
0
10
1.3109303162460093
20
-23.622999563309385
30
0
10
1.2806827992000633
20
-23.644022420301823
30
0
10
1.2500302493572237
20
-23.664426803588871
30
0
10
1.2193776469968514
20
-23.684831221835097
30
0
10
1.1883200104516856
20
-23.704617164256657
30
0
10
1.1567331850528717
20
-23.723506927490238
30
0
10
1.1251453967995031
20
-23.7423972665365
30
0
10
1.09302838742969
20
-23.76039137175788
30
0
10
1.0606483370065689
20
-23.777942657470707
30
0
10
1.028268913631035
20
-23.795493603298596
30
0
10
0.99562645938980343
20
-23.812601746768387
30
0
10
0.96200935542583477
20
-23.827595710754398
30
0
10
0.92839279791823559
20
-23.842589431008893
30
0
10
0.89495607214231354
20
-23.858014291601609
30
0
10
0.86105175316333771
20
-23.872342109680179
30
0
10
0.82714617167923055
20
-23.886670461287935
30
0
10
0.79271645447575201
20
-23.899777104423315
30
0
10
0.75801976025104745
20
-23.912091255187971
30
0
10
0.72332450547188065
20
-23.924404895081203
30
0
10
0.68836229582293029
20
-23.935926108357883
30
0
10
0.65316356718540403
20
-23.946728706359842
30
0
10
0.6179641655135093
20
-23.95753151091812
30
0
10
0.58252823580799995
20
-23.967615672720161
30
0
10
0.54673355072736951
20
-23.976185321807847
30
0
10
0.5221110427365242
20
-23.982080226391162
30
0
10
0.49731877844635514
20
-23.987258492029117
30
0
10
0.47261472791433534
20
-23.992824554443342
30
0
10
0.4614052539747503
20
-23.99535015774461
30
0
10
0.45021394231881057
20
-23.997955604317433
30
0
10
0.43898396193981365
20
-24.000377655029276
30
0
10
0.40300450214325823
20
-24.008137604136131
30
0
10
0.36662811491620456
20
-24.014015027984613
30
0
10
0.33017750829458437
20
-24.019260406494126
30
0
10
0.29372869973938853
20
-24.024505526255155
30
0
10
0.25720567911176012
20
-24.029118663031813
30
0
10
0.22057896479964462
20
-24.032764434814432
30
0
10
0.18395087713880792
20
-24.036410343298261
30
0
10
0.14721908801717876
20
-24.039088814242398
30
0
10
0.11044680140912738
20
-24.04088973999022
30
0
10
0.073658223197146641
20
-24.042691463620681
30
0
10
0.036829111606759682
20
-24.043614864306846
30
0
10
2.0350231669330176e-15
20
-24.043614864349351
30
0
10
-0.036829111606755595
20
-24.043614864391852
30
0
10
-0.07365822322988394
20
-24.042691463790685
30
0
10
-0.1104468014091233
20
-24.040889739990217
30
0
10
-0.1472190879844478
20
-24.039088814072457
30
0
10
-0.18395087700792534
20
-24.036410342703604
30
0
10
-0.22057896479964051
20
-24.032764434814439
30
0
10
-0.25720567924262966
20
-24.029118663626456
30
0
10
-0.2937287002301448
20
-24.024505528463745
30
0
10
-0.33017750829458037
20
-24.019260406494123
30
0
10
-0.36662811442541543
20
-24.014015025775915
30
0
10
-0.40300450031095325
20
-24.008137595895818
30
0
10
-0.4389839619398116
20
-24.0003776550293
30
0
10
-0.45021395473287373
20
-23.997955604335367
30
0
10
-0.46140527903051987
20
-23.995350158784042
30
0
10
-0.47261476516723633
20
-23.992824554443363
30
0
10
-0.49731880470843381
20
-23.987258498271252
30
0
10
-0.5221110555780335
20
-23.982080227676676
30
0
10
-0.54673355072736729
20
-23.976185321807865
30
0
10
-0.58252823426739608
20
-23.96761566675087
30
0
10
-0.61796416331273429
20
-23.957531505288546
30
0
10
-0.65316356718540192
20
-23.946728706359877
30
0
10
-0.68836229802365878
20
-23.935926113987399
30
0
10
-0.72332451273417431
20
-23.924404911629914
30
0
10
-0.75801976025104523
20
-23.912091255187992
30
0
10
-0.79271644721315593
20
-23.899777087873964
30
0
10
-0.82714614482915705
20
-23.886670400719069
30
0
10
-0.86105175316333771
20
-23.872342109680179
30
0
10
-0.89337413178988934
20
-23.858682881287461
30
0
10
-0.92522022331223108
20
-23.843913471487511
30
0
10
-0.95730006694793701
20
-23.829686641693119
30
0
10
-0.99252065101636311
20
-23.814066950384991
30
0
10
-1.0267580892022703
20
-23.796312445083927
30
0
10
-1.0606483370065689
20
-23.777942657470707
30
0
10
-1.0930284201353133
20
-23.760391435850607
30
0
10
-1.1251454420810592
20
-23.742397330488881
30
0
10
-1.1567331850528717
20
-23.723506927490238
30
0
10
-1.1883199651715091
20
-23.70461710030623
30
0
10
-1.2193774985825367
20
-23.684831030126112
30
0
10
-1.2500302493572237
20
-23.664426803588871
30
0
10
-1.2806829476141242
20
-23.644022612010481
30
0
10
-1.3109308646217219
20
-23.623000266193163
30
0
10
-1.3403178751468658
20
-23.600842952728279
30
0
10
-1.3672359691661664
20
-23.580547160934401
30
0
10
-1.3934317363125377
20
-23.559299096566843
30
0
10
-1.4200665056705475
20
-23.538618087768558
30
0
10
-1.4380488367399249
20
-23.524655408307716
30
0
10
-1.4549317086407145
20
-23.50936120019988
30
0
10
-1.4720626175403593
20
-23.494358062744144
30
0
10
-1.4849616179820126
20
-23.483061202910175
30
0
10
-1.4981170353852267
20
-23.472071036209513
30
0
10
-1.5109968185424805
20
-23.460767269134521
30
0
10
-1.5386567812788301
20
-23.436491877828839
30
0
10
-1.5650455282978655
20
-23.410770172320014
30
0
10
-1.5909744799137115
20
-23.384618759155277
30
0
10
-1.6169020645701029
20
-23.358468724678044
30
0
10
-1.6423699023023264
20
-23.331889027851584
30
0
10
-1.6671197116374949
20
-23.304646015167215
30
0
10
-1.6918706815040445
20
-23.277401725043873
30
0
10
-1.7159035556345135
20
-23.249494056854711
30
0
10
-1.7392507195472697
20
-23.221027851104719
30
0
10
-1.7625978444291557
20
-23.192561692943411
30
0
10
-1.7852592613860141
20
-23.163536999088748
30
0
10
-1.8071892857551555
20
-23.133969306945787
30
0
10
-1.8291213301045843
20
-23.104398891314958
30
0
10
-1.8503218471225655
20
-23.074285377359793
30
0
10
-1.8707825243473033
20
-23.043675422668439
30
0
10
-1.891240503566777
20
-23.013069504296023
30
0
10
-1.9109588380950586
20
-22.981967276103074
30
0
10
-1.9298608601093272
20
-22.950382232665998
30
0
10
-1.9487634833933296
20
-22.918796184514683
30
0
10
-1.9668497422290008
20
-22.886727290402238
30
0
10
-1.9842921197414378
20
-22.854299545288072
30
0
10
-2.0017359810554796
20
-22.821869041585504
30
0
10
-2.0185358514932434
20
-22.789079625824591
30
0
10
-2.0339436829090123
20
-22.755651473999027
30
0
10
-2.0450933791620955
20
-22.731461584513632
30
0
10
-2.0555141309442377
20
-22.706937219402658
30
0
10
-2.0663309097290044
20
-22.682590484619148
30
0
10
-2.0704594473058648
20
-22.673297846632579
30
0
10
-2.0746456776520814
20
-22.6640310856328
30
0
10
-2.0786933600902562
20
-22.654705047607429
30
0
10
-2.0933476693052806
20
-22.62094087587155
30
0
10
-2.1061859703000199
20
-22.586399734152806
30
0
10
-2.1184340119361882
20
-22.551670074462894
30
0
10
-2.1306811030892074
20
-22.516943109894157
30
0
10
-2.1423380264917387
20
-22.482027656612193
30
0
10
-2.1530786156654353
20
-22.4468207359314
30
0
10
-2.1638196932247924
20
-22.411612214355635
30
0
10
-2.1736443532200971
20
-22.376112198873791
30
0
10
-2.1825300157070164
20
-22.340390682220466
30
0
10
-2.1914165905060448
20
-22.304665497954034
30
0
10
-2.1993639749685738
20
-22.268718767029686
30
0
10
-2.2067260742187496
20
-22.232632637023922
30
0
10
-2.214087793381792
20
-22.196548370056583
30
0
10
-2.2208642877646025
20
-22.160324718401128
30
0
10
-2.2256068885326381
20
-22.123823165893562
30
0
10
-2.2266346061425271
20
-22.115913310070749
30
0
10
-2.2275668151049919
20
-22.10799040443338
30
0
10
-2.2285366058349605
20
-22.100071907043461
30
0
10
-2.2320414622157352
20
-22.07145419061704
30
0
10
-2.2360371830660934
20
-22.042894051366687
30
0
10
-2.2391247749328618
20
-22.014234066009525
30
0
10
-2.2430673015661347
20
-21.977638310982446
30
0
10
-2.2455291624451306
20
-21.940879761117063
30
0
10
-2.2472463548183446
20
-21.904096603393558
30
0
10
-2.2489633448465676
20
-21.867317780005472
30
0
10
-2.2499358418543727
20
-21.830514354558247
30
0
10
-2.249958068132401
20
-21.793706417083744
30
0
0
ENDSEC
0
SECTION
2
OBJECTS
0
DICTIONARY
5
C
100
AcDbDictionary
3
ACAD_GROUP
350
D
3
ACAD_MLINESTYLE
350
17
0
DICTIONARY
5
D
100
AcDbDictionary
0
DICTIONARY
5
1A
330
C
100
AcDbDictionary
0
DICTIONARY
5
17
100
AcDbDictionary
0
ENDSEC
0
EOF
