0
SECTION
2
HEADER
9
$INSUNITS
70
4
9
$ACADVER
1
AC1014
9
$HANDSEED
5
FFFF
0
ENDSEC
0
SECTION
2
TABLES
0
TABLE
2
VPORT
5
8
100
AcDbSymbolTable
0
ENDTAB
0
TABLE
2
LTYPE
5
5
100
AcDbSymbolTable
0
LTYPE
5
14
100
AcDbSymbolTableRecord
100
AcDbLinetypeTableRecord
2
BYBLOCK
70
0
0
LTYPE
5
15
100
AcDbSymbolTableRecord
100
AcDbLinetypeTableRecord
2
BYLAYER
70
0
0
LTYPE
5
16
100
AcDbSymbolTableRecord
100
AcDbLinetypeTableRecord
2
DASHED
70
0
3
Dashed __ __ __ __ __ __ __ __ __ __ __ __ __ _
72
65
73
2
40
0.75
49
0.5
74
0
49
-0.25
74
0
0
ENDTAB
0
TABLE
2
LAYER
5
2
100
AcDbSymbolTable
70
2
0
LAYER
5
50
100
AcDbSymbolTableRecord
100
AcDbLayerTableRecord
2
0
70
0
62
7
6
CONTINUOUS
0
ENDTAB
0
TABLE
2
STYLE
5
3
100
AcDbSymbolTable
70
1
0
STYLE
5
11
100
AcDbSymbolTableRecord
100
AcDbTextStyleTableRecord
2
STANDARD
70
0
0
ENDTAB
0
TABLE
2
VIEW
5
6
100
AcDbSymbolTable
70
0
0
ENDTAB
0
TABLE
2
UCS
5
7
100
AcDbSymbolTable
70
0
0
ENDTAB
0
TABLE
2
APPID
5
9
100
AcDbSymbolTable
70
2
0
APPID
5
12
100
AcDbSymbolTableRecord
100
AcDbRegAppTableRecord
2
ACAD
70
0
0
ENDTAB
0
TABLE
2
DIMSTYLE
5
A
100
AcDbSymbolTable
70
1
0
ENDTAB
0
TABLE
2
BLOCK_RECORD
5
1
100
AcDbSymbolTable
70
1
0
BLOCK_RECORD
5
1F
100
AcDbSymbolTableRecord
100
AcDbBlockTableRecord
2
*MODEL_SPACE
0
BLOCK_RECORD
5
1B
100
AcDbSymbolTableRecord
100
AcDbBlockTableRecord
2
*PAPER_SPACE
0
ENDTAB
0
ENDSEC
0
SECTION
2
BLOCKS
0
BLOCK
5
20
100
AcDbEntity
100
AcDbBlockBegin
2
*MODEL_SPACE
0
ENDBLK
5
21
100
AcDbEntity
100
AcDbBlockEnd
0
BLOCK
5
1C
100
AcDbEntity
100
AcDbBlockBegin
2
*PAPER_SPACE
0
ENDBLK
5
1D
100
AcDbEntity
100
AcDbBlockEnd
0
ENDSEC
0
SECTION
2
ENTITIES
0
SPLINE
5
100
100
AcDbEntity
8
0
100
AcDbSpline
70
0
71
3
72
29
73
25
74
0
42
0.000000001
43
0.0000000001
44
0.0000000001
40
0
40
0
40
0
40
0
40
0.11641968664143826
40
0.11641968664143826
40
0.11641968664143826
40
0.17462952996215739
40
0.17462952996215739
40
0.17462952996215739
40
0.23283937328287652
40
0.23283937328287652
40
0.23283937328287652
40
0.29104921660359562
40
0.29104921660359562
40
0.29104921660359562
40
0.34925905992431477
40
0.34925905992431477
40
0.34925905992431477
40
0.40746890324503393
40
0.40746890324503393
40
0.40746890324503393
40
0.43657382490539348
40
0.43657382490539348
40
0.43657382490539348
40
0.46567874656575303
40
0.46567874656575303
40
0.46567874656575303
40
0.46567874656575303
10
-14.593771696090737
20
5.8945238590240443
30
0
10
-14.20570607395261
20
5.8945238590240443
30
0
10
-14.028066123181869
20
5.8960301064424172
30
0
10
-13.600164581405426
20
5.8907142563029193
30
0
10
-13.386213810517207
20
5.8880563312331704
30
0
10
-13.10969764187756
20
5.8836928817739533
30
0
10
-12.875376877542132
20
5.8919219788416441
30
0
10
-12.641056113206705
20
5.9001510759093359
30
0
10
-12.448930753175492
20
5.9209727195039354
30
0
10
-12.267231411461083
20
5.8691285422963171
30
0
10
-12.085532069746671
20
5.8172843650886987
30
0
10
-11.914258746349059
20
5.6927743670788633
30
0
10
-11.812889767740691
20
5.5268730826516324
30
0
10
-11.711520789132322
20
5.3609717982243996
30
0
10
-11.680056155313194
20
5.1536792273797705
30
0
10
-11.724406236892495
20
4.9650352283406924
30
0
10
-11.768756318471796
20
4.7763912293016162
30
0
10
-11.888921115449527
20
4.6063958020680893
30
0
10
-12.051606581228832
20
4.4998674526234792
30
0
10
-12.132949314118482
20
4.4466032779011746
30
0
10
-12.224922214208529
20
4.4092058726260994
30
0
10
-12.320203866551594
20
4.3922549276711074
30
0
10
-12.415485518894657
20
4.3753039827161153
30
0
10
-12.514075923490742
20
4.3787994980812073
30
0
10
-12.611092329025272
20
4.3787994980812073
30
0
0
LINE
5
101
100
AcDbEntity
8
0
100
AcDbLine
10
-12.611092329025276
20
4.3787994980812073
30
0
11
-12.611092329025272
21
0.47379493713378851
31
0
0
SPLINE
5
102
100
AcDbEntity
8
0
100
AcDbSpline
70
0
71
3
72
29
73
25
74
0
42
0.000000001
43
0.0000000001
44
0.0000000001
40
0
40
0
40
0
40
0
40
0.029104929874318588
40
0.029104929874318588
40
0.029104929874318588
40
0.058209859748637176
40
0.058209859748637176
40
0.058209859748637176
40
0.11641971949727435
40
0.11641971949727435
40
0.11641971949727435
40
0.17462957924591152
40
0.17462957924591152
40
0.17462957924591152
40
0.2328394389945487
40
0.2328394389945487
40
0.2328394389945487
40
0.29104929874318586
40
0.29104929874318586
40
0.29104929874318586
40
0.34925915849182304
40
0.34925915849182304
40
0.34925915849182304
40
0.46567887798909741
40
0.46567887798909741
40
0.46567887798909741
40
0.46567887798909741
10
-12.611092329025272
20
0.4737949371337884
30
0
10
-12.514075896110878
20
0.4737949371337884
30
0
10
-12.415485049252988
20
0.47729366969954434
30
0
10
-12.32020344821253
20
0.46034309572136767
30
0
10
-12.224921847172073
20
0.44339252174319099
30
0
10
-12.132949491949045
20
0.4059926412210817
30
0
10
-12.051606996453506
20
0.35272725688143325
30
0
10
-11.888922005462426
20
0.24619648820213655
30
0
10
-11.768756453381288
20
0.076203704252683205
30
0
10
-11.724406070826612
20
-0.11244015202153027
30
0
10
-11.680055688271935
20
-0.30108400829574378
30
0
10
-11.711520475243713
20
-0.50837893689471769
30
0
10
-11.812889368357366
20
-0.67427823140349386
30
0
10
-11.914258261471019
20
-0.84017752591226968
30
0
10
-12.085531260726546
20
-0.96468118633084843
30
0
10
-12.267230561196294
20
-1.0165350813052796
30
0
10
-12.448929861666045
20
-1.0683889762797103
30
0
10
-12.641055463350018
20
-1.0475931058099939
30
0
10
-12.87537636273094
20
-1.0393789232191517
30
0
10
-13.109697262111863
20
-1.0311647406283102
30
0
10
-13.386213459189737
20
-1.0355322459163416
30
0
10
-13.600164269584729
20
-1.038186259640737
30
0
10
-14.028065890374711
20
-1.0434942870895278
30
0
10
-14.205705964433157
20
-1.0419483482837719
30
0
10
-14.593771696090737
20
-1.0419483482837719
30
0
0
LINE
5
103
100
AcDbEntity
8
0
100
AcDbLine
10
-14.593771696090737
20
-1.0419483482837719
30
0
11
-14.593771696090736
21
-5.719906091690067
31
0
0
SPLINE
5
104
100
AcDbEntity
8
0
100
AcDbSpline
70
0
71
3
72
29
73
25
74
0
42
0.000000001
43
0.0000000001
44
0.0000000001
40
0
40
0
40
0
40
0
40
0.1164201251864207
40
0.1164201251864207
40
0.1164201251864207
40
0.17463018777963105
40
0.17463018777963105
40
0.17463018777963105
40
0.2328402503728414
40
0.2328402503728414
40
0.2328402503728414
40
0.29105031296605177
40
0.29105031296605177
40
0.29105031296605177
40
0.34926037555926209
40
0.34926037555926209
40
0.34926037555926209
40
0.40747043815247241
40
0.40747043815247241
40
0.40747043815247241
40
0.4365754694490776
40
0.4365754694490776
40
0.4365754694490776
40
0.46568050074568279
40
0.46568050074568279
40
0.46568050074568279
40
0.46568050074568279
10
-14.593771696090736
20
-5.719906091690067
30
0
10
-14.205704612136001
20
-5.719906091690067
30
0
10
-14.028062175474235
20
-5.7183797161888599
30
0
10
-13.600159298096417
20
-5.7236920429263813
30
0
10
-13.386207859407506
20
-5.7263482062951425
30
0
10
-13.109691310539587
20
-5.7307140452235847
30
0
10
-12.875369240280621
20
-5.7224917649187299
30
0
10
-12.641047170021656
20
-5.7142694846138751
30
0
10
-12.448919578371644
20
-5.6934590850757214
30
0
10
-12.267222458417322
20
-5.7453111031234547
30
0
10
-12.085525338462997
20
-5.797163121171188
30
0
10
-11.914258690204356
20
-5.921677556804811
30
0
10
-11.812890531575997
20
-6.0875764776394927
30
0
10
-11.711522372947638
20
-6.2534753984741744
30
0
10
-11.680052703949556
20
-6.460758804509914
30
0
10
-11.724402507122297
20
-6.6493981160333728
30
0
10
-11.768752310295039
20
-6.8380374275568307
30
0
10
-11.888921585638599
20
-7.0080326445680061
30
0
10
-12.051606809457818
20
-7.1145662928267903
30
0
10
-12.132949421367424
20
-7.1678331169561824
30
0
10
-12.22492102039595
20
-7.2052345488974767
30
0
10
-12.32020255456324
20
-7.2221857454618075
30
0
10
-12.415484088730528
20
-7.2391369420261373
30
0
10
-12.514075558036588
20
-7.2356379032135045
30
0
10
-12.61109232902527
20
-7.2356379032135045
30
0
0
LINE
5
105
100
AcDbEntity
8
0
100
AcDbLine
10
-12.61109232902527
20
-7.2356379032135045
30
0
11
-12.61109232902527
21
-12.641276121139526
31
0
0
SPLINE
5
106
100
AcDbEntity
8
0
100
AcDbSpline
70
0
71
3
72
29
73
25
74
0
42
0.000000001
43
0.0000000001
44
0.0000000001
40
0
40
0
40
0
40
0
40
0.029104934325478973
40
0.029104934325478973
40
0.029104934325478973
40
0.058209868650957945
40
0.058209868650957945
40
0.058209868650957945
40
0.11641973730191589
40
0.11641973730191589
40
0.11641973730191589
40
0.17462960595287383
40
0.17462960595287383
40
0.17462960595287383
40
0.23283947460383178
40
0.23283947460383178
40
0.23283947460383178
40
0.29104934325478971
40
0.29104934325478971
40
0.29104934325478971
40
0.34925921190574766
40
0.34925921190574766
40
0.34925921190574766
40
0.46567894920766356
40
0.46567894920766356
40
0.46567894920766356
40
0.46567894920766356
10
-12.61109232902527
20
-12.641276121139526
30
0
10
-12.514075881273675
20
-12.641276121139526
30
0
10
-12.415485044273025
20
-12.637777853210412
30
0
10
-12.32020347337812
20
-12.654728655370576
30
0
10
-12.224921902483214
20
-12.671679457530736
30
0
10
-12.132949597694049
20
-12.709079329780174
30
0
10
-12.051607151652771
20
-12.762344718176049
30
0
10
-11.88892225957021
20
-12.868875494967799
30
0
10
-11.768756802479192
20
-13.03886833634531
30
0
10
-11.724406421931885
20
-13.227511850730519
30
0
10
-11.680056041384578
20
-13.416155365115728
30
0
10
-11.711520737380985
20
-13.623449552508633
30
0
10
-11.812889456745104
20
-13.789349790741818
30
0
10
-11.914258176109222
20
-13.955250028975003
30
0
10
-12.08553091884106
20
-14.079756318048464
30
0
10
-12.267230160714021
20
-14.131606312484797
30
0
10
-12.448929402586984
20
-14.18345630692113
30
0
10
-12.64105514360107
20
-14.16265000672033
30
0
10
-12.875376126167748
20
-14.154429718497779
30
0
10
-13.109697108734427
20
-14.146209430275224
30
0
10
-13.386213332853696
20
-14.150575154030916
30
0
10
-13.600164162710112
20
-14.153230758700516
30
0
10
-14.028065822422938
20
-14.158541968039719
30
0
10
-14.205705905084349
20
-14.157012701034553
30
0
10
-14.593771696090736
20
-14.157012701034553
30
0
0
LINE
5
107
100
AcDbEntity
8
0
100
AcDbLine
10
-14.593771696090736
20
-14.157012701034549
30
0
11
-14.593771696090736
21
-20.011613368988044
31
0
0
LINE
5
108
100
AcDbEntity
8
0
100
AcDbLine
10
-14.593771696090736
20
-20.011613368988044
30
0
11
-6.5040767192840683
21
-20.011613368988044
31
0
0
SPLINE
5
109
100
AcDbEntity
8
0
100
AcDbSpline
70
0
71
3
72
47
73
43
74
0
42
0.000000001
43
0.0000000001
44
0.0000000001
40
0
40
0
40
0
40
0
40
0.16558284347630642
40
0.16558284347630642
40
0.16558284347630642
40
0.33116568695261284
40
0.33116568695261284
40
0.33116568695261284
40
0.49674853042891925
40
0.49674853042891925
40
0.49674853042891925
40
0.66233137390522567
40
0.66233137390522567
40
0.66233137390522567
40
0.82791421738153215
40
0.82791421738153215
40
0.82791421738153215
40
0.99349706085783851
40
0.99349706085783851
40
0.99349706085783851
40
1.1590799043341449
40
1.1590799043341449
40
1.1590799043341449
40
1.3246627478104513
40
1.3246627478104513
40
1.3246627478104513
40
1.4902455912867578
40
1.4902455912867578
40
1.4902455912867578
40
1.5730370130249112
40
1.5730370130249112
40
1.5730370130249112
40
1.6558284347630643
40
1.6558284347630643
40
1.6558284347630643
40
1.986994121715677
40
1.986994121715677
40
1.986994121715677
40
2.3181598086682897
40
2.3181598086682897
40
2.3181598086682897
40
2.6493254956209027
40
2.6493254956209027
40
2.6493254956209027
40
2.6493254956209027
10
-6.5040767192840674
20
-20.011613368988041
30
0
10
-6.5016033064308418
20
-19.459676099461714
30
0
10
-6.5232778432879641
20
-19.118695465423301
30
0
10
-6.5415577723478657
20
-18.576760238947653
30
0
10
-6.5598377014077673
20
-18.034825012472005
30
0
10
-6.5747230226704456
20
-17.291935193559123
30
0
10
-6.3977050977974672
20
-16.710645284594946
30
0
10
-6.220687172924487
20
-16.129355375630766
30
0
10
-5.8517660019158511
20
-15.709665376615296
30
0
10
-5.3730620652188357
20
-15.46013772977685
30
0
10
-4.8943581285218212
20
-15.210610082938409
30
0
10
-4.3058714261364255
20
-15.131244788276989
30
0
10
-3.7579992885738047
20
-15.208530578439561
30
0
10
-3.2101271510111835
20
-15.285816368602132
30
0
10
-2.7028695782713346
20
-15.51975324358869
30
0
10
-2.2052168855332468
20
-15.764131829503862
30
0
10
-1.7075641927951599
20
-16.008510415419032
30
0
10
-1.2195163800588336
20
-16.263330712262817
30
0
10
-0.73180002702103231
20
-16.52007127625242
30
0
10
-0.24408367398323055
20
-16.776811840242022
30
0
10
0.24330121935604646
20
-17.035472671377438
30
0
10
0.73400465310402829
20
-17.289970691713684
30
0
10
1.2247080868520102
20
-17.544468712049934
30
0
10
1.7187300610086962
20
-17.794803921587008
30
0
10
2.2337604091985157
20
-17.990125831588241
30
0
10
2.7487907573883352
20
-18.185447741589471
30
0
10
3.2848294796112882
20
-18.325756352054853
30
0
10
3.8271599174008921
20
-18.43563525365154
30
0
10
4.0983251362956956
20
-18.490574704449887
30
0
10
4.3710632840821617
20
-18.537906728031054
30
0
10
4.6448697280894997
20
-18.566835510732446
30
0
10
4.9186761720968359
20
-18.595764293433838
30
0
10
5.1935509123250458
20
-18.606289835255453
30
0
10
5.472078044683002
20
-18.613761016178028
30
0
10
6.58618657411483
20
-18.643645739868319
30
0
10
7.7587333776226028
20
-18.624660689173961
30
0
10
8.8108253107123282
20
-18.61516518503165
30
0
10
9.8629172438020554
20
-18.605669680889342
30
0
10
10.794554306473733
20
-18.60566372329907
30
0
10
11.90439457245267
20
-18.606736785389881
30
0
10
13.014234838431607
20
-18.607809847480691
30
0
10
14.302278307717792
20
-18.609961929252574
30
0
10
15.406163930892973
20
-18.609961271286018
30
0
0
LINE
5
110
100
AcDbEntity
8
0
100
AcDbLine
10
15.406163930892973
20
-18.609961271286014
30
0
11
15.406163930892973
21
-12.301429510116574
31
0
0
SPLINE
5
111
100
AcDbEntity
8
0
100
AcDbSpline
70
0
71
3
72
29
73
25
74
0
42
0.000000001
43
0.0000000001
44
0.0000000001
40
0
40
0
40
0
40
0
40
0.11670844203850102
40
0.11670844203850102
40
0.11670844203850102
40
0.17506266305775153
40
0.17506266305775153
40
0.17506266305775153
40
0.23341688407700203
40
0.23341688407700203
40
0.23341688407700203
40
0.29177110509625254
40
0.29177110509625254
40
0.29177110509625254
40
0.35012532611550307
40
0.35012532611550307
40
0.35012532611550307
40
0.40847954713475354
40
0.40847954713475354
40
0.40847954713475354
40
0.43765665764437878
40
0.43765665764437878
40
0.43765665764437878
40
0.46683376815400407
40
0.46683376815400407
40
0.46683376815400407
40
0.46683376815400407
10
15.406163930892973
20
-12.301429510116575
30
0
10
15.017135790764637
20
-12.301429510116575
30
0
10
14.8386699481542
20
-12.302949863407143
30
0
10
14.409562324819534
20
-12.297531601517766
30
0
10
14.195008513152201
20
-12.294822470573079
30
0
10
13.917794256303814
20
-12.290378685833405
30
0
10
13.683070444919856
20
-12.298803688051967
30
0
10
13.448346633535902
20
-12.307228690270529
30
0
10
13.256113267616382
20
-12.328522479447324
30
0
10
13.073668376804861
20
-12.277482162604965
30
0
10
12.891223485993342
20
-12.226441845762606
30
0
10
12.718567070289826
20
-12.103067422901091
30
0
10
12.615977942524133
20
-11.937466710272727
30
0
10
12.513388814758441
20
-11.771865997644362
30
0
10
12.480866974930569
20
-11.564038995249144
30
0
10
12.524600938902639
20
-11.374734335659969
30
0
10
12.56833490287471
20
-11.185429676070795
30
0
10
12.688324670646715
20
-11.014647359287665
30
0
10
12.851247218366556
20
-10.907534327445468
30
0
10
12.932708492226475
20
-10.853977811524366
30
0
10
13.02490296107335
20
-10.816338616838499
30
0
10
13.120396067269105
20
-10.799265012327005
30
0
10
13.215889173464859
20
-10.782191407815516
30
0
10
13.314680917009492
20
-10.785683393478397
30
0
10
13.411937952041576
20
-10.785683393478397
30
0
0
LINE
5
112
100
AcDbEntity
8
0
100
AcDbLine
10
13.411937952041574
20
-10.785683393478397
30
0
11
13.411937952041574
21
-2.2419452667236373
31
0
0
SPLINE
5
113
100
AcDbEntity
8
0
100
AcDbSpline
70
0
71
3
72
134
73
130
74
0
42
0.000000001
43
0.0000000001
44
0.0000000001
40
0
40
0
40
0
40
0
40
0.04667869005743297
40
0.04667869005743297
40
0.04667869005743297
40
0.09335738011486594
40
0.09335738011486594
40
0.09335738011486594
40
0.14003607017229891
40
0.14003607017229891
40
0.14003607017229891
40
0.18671476022973188
40
0.18671476022973188
40
0.18671476022973188
40
0.23339345028716485
40
0.23339345028716485
40
0.23339345028716485
40
0.28007214034459782
40
0.28007214034459782
40
0.28007214034459782
40
0.37342952045946376
40
0.37342952045946376
40
0.37342952045946376
40
0.56014428068919564
40
0.56014428068919564
40
0.56014428068919564
40
0.65350166080406158
40
0.65350166080406158
40
0.65350166080406158
40
0.70018035086149455
40
0.70018035086149455
40
0.70018035086149455
40
0.74685904091892752
40
0.74685904091892752
40
0.74685904091892752
40
0.84021642103379346
40
0.84021642103379346
40
0.84021642103379346
40
0.88689511109122643
40
0.88689511109122643
40
0.88689511109122643
40
0.9335738011486594
40
0.9335738011486594
40
0.9335738011486594
40
1.1202885613783913
40
1.1202885613783913
40
1.1202885613783913
40
1.2136459414932572
40
1.2136459414932572
40
1.2136459414932572
40
1.3070033216081232
40
1.3070033216081232
40
1.3070033216081232
40
1.4003607017229891
40
1.4003607017229891
40
1.4003607017229891
40
1.493718081837855
40
1.493718081837855
40
1.493718081837855
40
1.6804328420675869
40
1.6804328420675869
40
1.6804328420675869
40
1.8671476022973188
40
1.8671476022973188
40
1.8671476022973188
40
2.0538623625270507
40
2.0538623625270507
40
2.0538623625270507
40
2.2405771227567826
40
2.2405771227567826
40
2.2405771227567826
40
2.6140066432162463
40
2.6140066432162463
40
2.6140066432162463
40
2.9874361636757101
40
2.9874361636757101
40
2.9874361636757101
40
3.3608656841351738
40
3.3608656841351738
40
3.3608656841351738
40
3.7342952045946376
40
3.7342952045946376
40
3.7342952045946376
40
3.9210099648243695
40
3.9210099648243695
40
3.9210099648243695
40
4.0143673449392354
40
4.0143673449392354
40
4.0143673449392354
40
4.1077247250541014
40
4.1077247250541014
40
4.1077247250541014
40
4.2944394852838332
40
4.2944394852838332
40
4.2944394852838332
40
4.3877968653986992
40
4.3877968653986992
40
4.3877968653986992
40
4.4811542455135651
40
4.4811542455135651
40
4.4811542455135651
40
4.667869005743297
40
4.667869005743297
40
4.667869005743297
40
4.8545837659730289
40
4.8545837659730289
40
4.8545837659730289
40
4.9479411460878948
40
4.9479411460878948
40
4.9479411460878948
40
5.0412985262027608
40
5.0412985262027608
40
5.0412985262027608
40
5.1346559063176267
40
5.1346559063176267
40
5.1346559063176267
40
5.2280132864324926
40
5.2280132864324926
40
5.2280132864324926
40
5.3213706665473586
40
5.3213706665473586
40
5.3213706665473586
40
5.4147280466622245
40
5.4147280466622245
40
5.4147280466622245
40
5.6014428068919564
40
5.6014428068919564
40
5.6014428068919564
40
5.9748723273514202
40
5.9748723273514202
40
5.9748723273514202
40
5.9748723273514202
10
13.411937952041574
20
-2.241945266723639
30
0
10
13.256342318516799
20
-2.241945266723639
30
0
10
13.095240709425823
20
-2.2351977722108378
30
0
10
12.953650527334213
20
-2.1758508788705209
30
0
10
12.812060345242603
20
-2.1165039855302044
30
0
10
12.68998159015036
20
-2.0045576933623712
30
0
10
12.610792273515251
20
-1.8693255336317305
30
0
10
12.531602956880146
20
-1.73409337390109
30
0
10
12.495303078702172
20
-1.5755753466076423
30
0
10
12.508213619416468
20
-1.4207448079805685
30
0
10
12.521124160130766
20
-1.2659142693534946
30
0
10
12.583245119737335
20
-1.1147712193927948
30
0
10
12.684064250386156
20
-0.99551811419071756
30
0
10
12.784883381034977
20
-0.87626500898863968
30
0
10
12.924400682726054
20
-0.78890184854518419
30
0
10
13.073494790241805
20
-0.75020039415797091
30
0
10
13.222588897757554
20
-0.71149893977075762
30
0
10
13.38125981109798
20
-0.72145919143978676
30
0
10
13.538481923640227
20
-0.72852573217502647
30
0
10
13.852926148724716
20
-0.74265881364550634
30
0
10
14.161575170616487
20
-0.74521705138082883
30
0
10
14.471370195513593
20
-0.7499402848016361
30
0
10
15.090960245307805
20
-0.75938675164325076
30
0
10
15.715134307123344
20
-0.7774932012268031
30
0
10
16.337905521552372
20
-0.76694289341836797
30
0
10
16.64929112876688
20
-0.76166773951415012
30
0
10
16.960326024134766
20
-0.74922839626193549
30
0
10
17.272772415838965
20
-0.72832687564664533
30
0
10
17.428995611691064
20
-0.71787611533899964
30
0
10
17.58557168162724
20
-0.70530981069058574
30
0
10
17.734726682670477
20
-0.66357379824850893
30
0
10
17.883881683713714
20
-0.62183778580643212
30
0
10
18.025615615864012
20
-0.55093206557069274
30
0
10
18.154722603407262
20
-0.46061193536341627
30
0
10
18.412936578493756
20
-0.27997167494886377
30
0
10
18.620642775152071
20
-0.021673774648163158
30
0
10
18.702250751180433
20
0.27512031573027329
30
0
10
18.743054739194616
20
0.42351736091949155
30
0
10
18.752334172051313
20
0.58153845362814405
30
0
10
18.761988696532626
20
0.7380353511091744
30
0
10
18.771643221013946
20
0.89453224859020475
30
0
10
18.781672837119881
20
1.0495049508436136
30
0
10
18.78897943719684
20
1.2046988635638594
30
0
10
18.818205837504685
20
1.8254745144448421
30
0
10
18.803863981348933
20
2.4497895327952186
30
0
10
18.796781544308693
20
3.0719936941077073
30
0
10
18.793240325788574
20
3.3830957747639525
30
0
10
18.791513962047333
20
3.6936701411607249
30
0
10
18.781274093358206
20
4.0053861398214305
30
0
10
18.77103422466908
20
4.3171021384821371
30
0
10
18.752280851032076
20
4.6299597694067742
30
0
10
18.679910980306474
20
4.9312489083958768
30
0
10
18.607541109580872
20
5.2325380473849794
30
0
10
18.481554741766679
20
5.5222586944385448
30
0
10
18.330159869993182
20
5.7958799115868223
30
0
10
18.178764998219687
20
6.0695011287350997
30
0
10
18.001961622486888
20
6.3270229159780893
30
0
10
17.802591089745505
20
6.5644855646890985
30
0
10
17.403850024262738
20
7.0394108621111187
30
0
10
16.914840330745612
20
7.4340996054052173
30
0
10
16.428912795722756
20
7.8266125631600971
30
0
10
15.942985260699905
20
8.2191255209149769
30
0
10
15.460139884171323
20
8.6094626931306379
30
0
10
14.967407782329596
20
8.9886696314341883
30
0
10
14.47467568048787
20
9.3678765697377404
30
0
10
13.972056853332997
20
9.7359532741291819
30
0
10
13.464331272716274
20
10.096266517272731
30
0
10
12.956605692099552
20
10.456579760416281
30
0
10
12.443773358020987
20
10.809129542311934
30
0
10
11.925928701869012
20
11.154264928386832
30
0
10
10.89023938956506
20
11.844535700536628
30
0
10
9.8345007889674836
20
12.50514888940339
30
0
10
8.7616910633736147
20
13.136533847548598
30
0
10
7.6888813377797423
20
13.76791880569381
30
0
10
6.5990004871895769
20
14.370075533117465
30
0
10
5.4935796161945003
20
14.942381506727493
30
0
10
4.3881587451994228
20
15.514687480337521
30
0
10
3.2671978537994355
20
16.057142700133923
30
0
10
2.1308081462653754
20
16.565127552889138
30
0
10
0.99441843873131541
20
17.073112405644352
30
0
10
-0.15740008493681665
20
17.54662689135839
30
0
10
-1.3223274756434631
20
17.985015788564013
30
0
10
-1.904791170996786
20
18.204210237166826
30
0
10
-2.4905320831097382
20
18.414623288642535
30
0
10
-3.0902144843202661
20
18.583792217839221
30
0
10
-3.3900556849255303
20
18.668376682437565
30
0
10
-3.6933822578051876
20
18.742650116466148
30
0
10
-4.0012307660294395
20
18.786214295348898
30
0
10
-4.3090792742536905
20
18.829778474231645
30
0
10
-4.6214497178225358
20
18.842633397968559
30
0
10
-4.9330091758454921
20
18.838424317185108
30
0
10
-5.5561280918914022
20
18.830006155618207
30
0
10
-6.1760030657537532
20
18.753331975969868
30
0
10
-6.782487107958425
20
18.609337024838005
30
0
10
-7.0857291290607591
20
18.537339549272073
30
0
10
-7.3856234172486754
20
18.448511880835262
30
0
10
-7.6738835444308604
20
18.332069369190595
30
0
10
-7.9621436716130454
20
18.215626857545931
30
0
10
-8.2387696377895026
20
18.071569502693418
30
0
10
-8.5102407062791112
20
17.919074495859189
30
0
10
-9.0531828432583303
20
17.614084482190734
30
0
10
-9.5755053894901625
20
17.275343860595417
30
0
10
-10.099430367630637
20
16.938863105689506
30
0
10
-10.623355345771108
20
16.602382350783596
30
0
10
-11.148882755820219
20
16.268161462567093
30
0
10
-11.663218978761041
20
15.918493491661225
30
0
10
-11.920387090231451
20
15.743659506208289
30
0
10
-12.174757404924787
20
15.564963750083017
30
0
10
-12.429710258024445
20
15.385372699245696
30
0
10
-12.684663111124102
20
15.205781648408374
30
0
10
-12.940198502630075
20
15.025295302859007
30
0
10
-13.173234734020681
20
14.81902703797642
30
0
10
-13.406270965411288
20
14.612758773093832
30
0
10
-13.616808036686525
20
14.380708588878024
30
0
10
-13.797630584703022
20
14.128005892857834
30
0
10
-13.978453132719523
20
13.875303196837642
30
0
10
-14.129561157477282
20
13.60194798901307
30
0
10
-14.255453518081376
20
13.31586277624131
30
0
10
-14.381345878685467
20
13.029777563469548
30
0
10
-14.482022575135895
20
12.730962345750596
30
0
10
-14.537671315215459
20
12.426721124371847
30
0
10
-14.593320055295022
20
12.122479902993099
30
0
10
-14.603940839003723
20
11.812812677954557
30
0
10
-14.61325509148651
20
11.480427601237329
30
0
10
-14.631883596452081
20
10.815657447802867
30
0
10
-14.645285976513984
20
10.060015887653652
30
0
10
-14.645518780938914
20
9.3996499764282913
30
0
10
-14.645984389788778
20
8.0789181539775701
30
0
10
-14.593771696090737
20
7.1392889272222568
30
0
10
-14.593771696090737
20
5.8945238590240443
30
0
0
SPLINE
5
114
100
AcDbEntity
8
0
100
AcDbSpline
70
2
71
3
72
203
73
199
74
0
42
0.000000001
43
0.0000000001
44
0.0000000001
40
0
40
0
40
0
40
0
40
0.010742850002474527
40
0.010742850002474527
40
0.010742850002474527
40
0.021485326225790295
40
0.021485326225790295
40
0.021485326225790295
40
0.032228286931176631
40
0.032228286931176631
40
0.032228286931176631
40
0.042970963999365092
40
0.042970963999365092
40
0.042970963999365092
40
0.053713877424909129
40
0.053713877424909129
40
0.053713877424909129
40
0.06445623489059582
40
0.06445623489059582
40
0.06445623489059582
40
0.075199556380677282
40
0.075199556380677282
40
0.075199556380677282
40
0.085942075385388769
40
0.085942075385388769
40
0.085942075385388769
40
0.096684610941718846
40
0.096684610941718846
40
0.096684610941718846
40
0.10742745367728034
40
0.10742745367728034
40
0.10742745367728034
40
0.11817046528743454
40
0.11817046528743454
40
0.11817046528743454
40
0.12576636762744486
40
0.12576636762744486
40
0.12576636762744486
40
0.12891290835989688
40
0.12891290835989688
40
0.12891290835989688
40
0.13965550510751937
40
0.13965550510751937
40
0.13965550510751937
40
0.15039837937841846
40
0.15039837937841846
40
0.15039837937841846
40
0.16114119186764214
40
0.16114119186764214
40
0.16114119186764214
40
0.1718840301737376
40
0.1718840301737376
40
0.1718840301737376
40
0.18262674941401746
40
0.18262674941401746
40
0.18262674941401746
40
0.1933694439840408
40
0.1933694439840408
40
0.1933694439840408
40
0.20411231825494
40
0.20411231825494
40
0.20411231825494
40
0.21485491500256249
40
0.21485491500256249
40
0.21485491500256249
40
0.22559746583525192
40
0.22559746583525192
40
0.22559746583525192
40
0.23634057969272226
40
0.23634057969272226
40
0.23634057969272226
40
0.24708332667878796
40
0.24708332667878796
40
0.24708332667878796
40
0.25782577390418421
40
0.25782577390418421
40
0.25782577390418421
40
0.2685683729648114
40
0.2685683729648114
40
0.2685683729648114
40
0.27931162344550065
40
0.27931162344550065
40
0.27931162344550065
40
0.29005404219940245
40
0.29005404219940245
40
0.29005404219940245
40
0.30079695562494657
40
0.30079695562494657
40
0.30079695562494657
40
0.31153963269313506
40
0.31153963269313506
40
0.31153963269313506
40
0.32228259339852139
40
0.32228259339852139
40
0.32228259339852139
40
0.33302506962183714
40
0.33302506962183714
40
0.33302506962183714
40
0.34376791962431169
40
0.34376791962431169
40
0.34376791962431169
40
0.35451053149541745
40
0.35451053149541745
40
0.35451053149541745
40
0.36525336147567278
40
0.36525336147567278
40
0.36525336147567278
40
0.37599632218105911
40
0.37599632218105911
40
0.37599632218105911
40
0.38673899924924759
40
0.38673899924924759
40
0.38673899924924759
40
0.39748180491071083
40
0.39748180491071083
40
0.39748180491071083
40
0.40822432591228014
40
0.40822432591228014
40
0.40822432591228014
40
0.41896719338588301
40
0.41896719338588301
40
0.41896719338588301
40
0.4297097924465102
40
0.4297097924465102
40
0.4297097924465102
40
0.43872820127904416
40
0.43872820127904416
40
0.43872820127904416
40
0.44045231972791016
40
0.44045231972791016
40
0.44045231972791016
40
0.45119549281103499
40
0.45119549281103499
40
0.45119549281103499
40
0.46193842280677078
40
0.46193842280677078
40
0.46193842280677078
40
0.47268112653348138
40
0.47268112653348138
40
0.47268112653348138
40
0.48342372328110383
40
0.48342372328110383
40
0.48342372328110383
40
0.49416642374834158
40
0.49416642374834158
40
0.49416642374834158
40
0.50490917079591902
40
0.50490917079591902
40
0.50490917079591902
40
0.51565190758294133
40
0.51565190758294133
40
0.51565190758294133
40
0.52639476343558489
40
0.52639476343558489
40
0.52639476343558489
40
0.53713762840178658
40
0.53713762840178658
40
0.53713762840178658
40
0.54788032886902416
40
0.54788032886902416
40
0.54788032886902416
40
0.55862292561664662
40
0.55862292561664662
40
0.55862292561664662
40
0.56936552157849563
40
0.56936552157849563
40
0.56936552157849563
40
0.58010834932516531
40
0.58010834932516531
40
0.58010834932516531
40
0.59085161815398834
40
0.59085161815398834
40
0.59085161815398834
40
0.60159423376346521
40
0.60159423376346521
40
0.60159423376346521
40
0.61233675276817667
40
0.61233675276817667
40
0.61233675276817667
40
0.62307969125370333
40
0.62307969125370333
40
0.62307969125370333
40
0.63382215096764083
40
0.63382215096764083
40
0.63382215096764083
40
0.64456495662910396
40
0.64456495662910396
40
0.64456495662910396
40
0.65530763369729239
40
0.65530763369729239
40
0.65530763369729239
40
0.66605059440267878
40
0.66605059440267878
40
0.66605059440267878
40
0.67679342438293411
40
0.67679342438293411
40
0.67679342438293411
40
0.68753603625403981
40
0.68753603625403981
40
0.68753603625403981
40
0.68753603625403981
10
-12.808007001876833
20
12.401837110519413
30
0
10
-12.808007076904458
20
12.437660991301684
30
0
10
-12.806247199166698
20
12.473484884841938
30
0
10
-12.802735567092897
20
12.509136199951175
30
0
10
-12.799224057200352
20
12.544786274633664
30
0
10
-12.793960914868256
20
12.58026378289407
30
0
10
-12.786972522735597
20
12.615398168563846
30
0
10
-12.7799838154288
20
12.650534138782621
30
0
10
-12.77126970270155
20
12.68532695546064
30
0
10
-12.760870456695557
20
12.719608545303348
30
0
10
-12.750471485251957
20
12.753889230038579
30
0
10
-12.738387469510698
20
12.78765871493311
30
0
10
-12.724678516387941
20
12.820755243301399
30
0
10
-12.71096926164466
20
12.853852499850182
30
0
10
-12.695634998016267
20
12.886276770259997
30
0
10
-12.678747177124031
20
12.917870283126833
30
0
10
-12.661860230198672
20
12.949462160987951
30
0
10
-12.643419886802558
20
12.980223367289447
30
0
10
-12.623518705368049
20
13.010009527206424
30
0
10
-12.603615737991818
20
13.039798360147913
30
0
10
-12.582251670372784
20
13.06861197169475
30
0
10
-12.559523582458503
20
13.096302747726444
30
0
10
-12.53679719224619
20
13.123991455362194
30
0
10
-12.512706985505302
20
13.15055749521964
30
0
10
-12.487381696701057
20
13.175899982452394
30
0
10
-12.462056368876675
20
13.201242508731781
30
0
10
-12.435495955183004
20
13.225361478616072
30
0
10
-12.40778207778931
20
13.248039484024051
30
0
10
-12.380067407926509
20
13.270718137902053
30
0
10
-12.351199208396919
20
13.291955744894768
30
0
10
-12.321494817733774
20
13.312034606933601
30
0
10
-12.291789960125609
20
13.332113784606731
30
0
10
-12.26124888509429
20
13.351034180895381
30
0
10
-12.229350805282596
20
13.367267847061161
30
0
10
-12.206797101733171
20
13.37874594531613
30
0
10
-12.183564994758152
20
13.388880874449399
30
0
10
-12.160683870315559
20
13.399742841720585
30
0
10
-12.151205550711094
20
13.404242323273071
30
0
10
-12.141787458417795
20
13.408866561894971
30
0
10
-12.132238149642951
20
13.413193225860599
30
0
10
-12.099635878733611
20
13.427964878350542
30
0
10
-12.065504140442826
20
13.439267982339882
30
0
10
-12.031091451644905
20
13.449382781982425
30
0
10
-11.996677873832679
20
13.459497842929796
30
0
10
-11.961983330997031
20
13.46842453813248
30
0
10
-11.926883459091195
20
13.475490808486942
30
0
10
-11.891783789042785
20
13.482557038203677
30
0
10
-11.856278794586215
20
13.487762864470522
30
0
10
-11.820617914199838
20
13.491252660751346
30
0
10
-11.784956948114081
20
13.494742465418767
30
0
10
-11.74914009534926
20
13.49651623185231
30
0
10
-11.713318824768075
20
13.496521711349491
30
0
10
-11.677497951203829
20
13.496527190785944
30
0
10
-11.641672659921145
20
13.494764422482639
30
0
10
-11.606020927429208
20
13.491252660751346
30
0
10
-11.570369276810153
20
13.487740907084687
30
0
10
-11.534891184184701
20
13.482480168023031
30
0
10
-11.499756574630746
20
13.475490808486942
30
0
10
-11.46462137735459
20
13.468501332034748
30
0
10
-11.429829674641406
20
13.459783177275852
30
0
10
-11.395548582077033
20
13.449382781982425
30
0
10
-11.361268375104441
20
13.438982655364933
30
0
10
-11.327498751899569
20
13.426900375127243
30
0
10
-11.294401884078988
20
13.413193225860599
30
0
10
-11.261305157717732
20
13.399486135179689
30
0
10
-11.228881180989925
20
13.384154189359503
30
0
10
-11.197288036346444
20
13.367267847061161
30
0
10
-11.165693235883632
20
13.350380619737528
30
0
10
-11.134929354596432
20
13.331938832997404
30
0
10
-11.105142831802375
20
13.312034606933597
30
0
10
-11.075357326201621
20
13.292131060588119
30
0
10
-11.046549112342642
20
13.27076517480025
30
0
10
-11.018856763839729
20
13.248039484024051
30
0
10
-10.991165188051365
20
13.225314427375071
30
0
10
-10.964589415346746
20
13.201229641623451
30
0
10
-10.939258337020883
20
13.175899982452396
30
0
10
-10.913926900662062
20
13.150569965268449
30
0
10
-10.889840193867609
20
13.123995039474394
30
0
10
-10.867115259170539
20
13.096302747726444
30
0
10
-10.844388946457006
20
13.068608776746654
30
0
10
-10.823024570998751
20
13.039797304297032
30
0
10
-10.803121328353891
20
13.010009527206424
30
0
10
-10.783219626589053
20
12.980224056242086
30
0
10
-10.764778831408817
20
12.949462431799073
30
0
10
-10.747891664505012
20
12.917870283126835
30
0
10
-10.731003719973488
20
12.886276679685384
30
0
10
-10.715669546806005
20
12.853852475524254
30
0
10
-10.701960325241096
20
12.820755243301395
30
0
10
-10.688251405295981
20
12.7876587392585
30
0
10
-10.676167365452343
20
12.753889236768448
30
0
10
-10.665768384933481
20
12.719608545303348
30
0
10
-10.655369129851985
20
12.685326948730594
30
0
10
-10.646655023077145
20
12.650534136188758
30
0
10
-10.63966631889344
20
12.615398168563846
30
0
10
-10.632677929883734
20
12.580263785487817
30
0
10
-10.627414787845535
20
12.544786278278977
30
0
10
-10.62390327453614
20
12.509136199951175
30
0
10
-10.620391639045373
20
12.473484881196493
30
0
10
-10.618631754179642
20
12.437660979313584
30
0
10
-10.618631839752204
20
12.401837110519413
30
0
10
-10.61863192532287
20
12.366014035814974
30
0
10
-10.620391903307929
20
12.330190994197798
30
0
10
-10.623903274536142
20
12.294540405273441
30
0
10
-10.627414717056345
20
12.258889092528868
30
0
10
-10.632677623938122
20
12.223410239479859
30
0
10
-10.639666318893441
20
12.188274860382087
30
0
10
-10.646655098891351
20
12.153139053736169
30
0
10
-10.655369708963882
20
12.118346729400727
30
0
10
-10.665768384933479
20
12.084064483642582
30
0
10
-10.676166786355735
20
12.049783143009236
30
0
10
-10.688249164750321
20
12.016011854019204
30
0
10
-10.7019603252411
20
11.982917785644538
30
0
10
-10.715671649858846
20
11.949823321123304
30
0
10
-10.731011795567101
20
11.917406093430628
30
0
10
-10.747891664505012
20
11.885803937911991
30
0
10
-10.764771086164824
20
11.854202619778533
30
0
10
-10.783190149457052
20
11.823416330624571
30
0
10
-10.803121328353889
20
11.793663501739506
30
0
10
-10.823053150078985
20
11.763909713254442
30
0
10
-10.844497184948967
20
11.735189451702485
30
0
10
-10.867115259170539
20
11.707375049591068
30
0
10
-10.889732768274406
20
11.679561342428784
30
0
10
-10.913524258063321
20
11.652653449441397
30
0
10
-10.939258337020881
20
11.627777814865116
30
0
10
-10.960862088930286
20
11.606894726767765
30
0
10
-10.983834899533047
20
11.587443892638355
30
0
10
-11.006081104278573
20
11.567214727401735
30
0
10
-11.010334082019019
20
11.563347362588578
30
0
10
-11.014560503111673
20
11.559451550626427
30
0
10
-11.018856763839729
20
11.555637121200562
30
0
10
-11.045627240451756
20
11.531868988818246
30
0
10
-11.075109362553041
20
11.511260675157121
30
0
10
-11.105142831802375
20
11.491634845733643
30
0
10
-11.135175621479894
20
11.472009460386751
30
0
10
-11.165759733354912
20
11.453366514816373
30
0
10
-11.197288036346444
20
11.436405181884769
30
0
10
-11.228815675284649
20
11.419444206195022
30
0
10
-11.261287465566433
20
11.404164772308093
30
0
10
-11.294401884078987
20
11.390476226806642
30
0
10
-11.327515972828159
20
11.376787817619864
30
0
10
-11.361272677009202
20
11.36469026513363
30
0
10
-11.395548582077035
20
11.354286670684816
30
0
10
-11.429824818078234
20
11.343882975789448
30
0
10
-11.464620264992034
20
11.33517327164194
30
0
10
-11.499756574630746
20
11.328185796737671
30
0
10
-11.534893036620467
20
11.321198291535717
30
0
10
-11.570370364291072
20
11.315933030512205
30
0
10
-11.606020927429206
20
11.31242036819458
30
0
10
-11.641671456516967
20
11.308907709231953
30
0
10
-11.67749522074134
20
11.307147645627346
30
0
10
-11.713318824768075
20
11.307147741317751
30
0
10
-11.749142825840714
20
11.307147837009218
30
0
10
-11.784966666712172
20
11.308908131012869
30
0
10
-11.820617914199836
20
11.312420368194582
30
0
10
-11.856269191931759
20
11.315932608355855
30
0
10
-11.891747875987054
20
11.321196794667664
30
0
10
-11.926883459091195
20
11.328185796737674
30
0
10
-11.962018504185499
20
11.335174691789343
30
0
10
-11.996810458835967
20
11.343888349777508
30
0
10
-12.031091451644905
20
11.354286670684818
30
0
10
-12.065372113474552
20
11.364684891197463
30
0
10
-12.099141823329187
20
11.376767742098931
30
0
10
-12.132238149642951
20
11.390476226806642
30
0
10
-12.165334473535864
20
11.40418471051164
30
0
10
-12.19775741398642
20
11.41951882778506
30
0
10
-12.2293508052826
20
11.436405181884769
30
0
10
-12.260944878245351
20
11.453291900328493
30
0
10
-12.291709366256242
20
11.471730922582093
30
0
10
-12.321494817733768
20
11.491634845733644
30
0
10
-12.351281492151045
20
11.511539586106277
30
0
10
-12.380089049638174
20
11.532909347671982
30
0
10
-12.407782077789314
20
11.555637121200563
30
0
10
-12.435473422130613
20
11.578363512820006
30
0
10
-12.46205037266451
20
11.60244775126586
30
0
10
-12.487381696701059
20
11.627777814865116
30
0
10
-12.512712792941443
20
11.653107650679546
30
0
10
-12.536798285087391
20
11.6796832892409
30
0
10
-12.559523582458503
20
11.707375049591068
30
0
10
-12.582249767221693
20
11.735067891266965
30
0
10
-12.603615650980448
20
11.763876941899468
30
0
10
-12.623518705368049
20
11.793663501739506
30
0
10
-12.643420872752809
20
11.82344873410675
30
0
10
-12.661860341148902
20
11.854211388555791
30
0
10
-12.678747177124031
20
11.885803937911991
30
0
10
-12.695634556918662
20
11.917397504666869
30
0
10
-12.710969204289528
20
11.949821019781224
30
0
10
-12.724678516387941
20
11.982917785644535
30
0
10
-12.738387664383474
20
12.016014155333732
30
0
10
-12.750471516017416
20
12.049783759654119
30
0
10
-12.760870456695558
20
12.084064483642582
30
0
10
-12.771269671935281
20
12.118346112739564
30
0
10
-12.779983887245157
20
12.153138888495008
30
0
10
-12.786972522735597
20
12.188274860382084
30
0
10
-12.793961073185208
20
12.223410404719006
30
0
10
-12.79922408581038
20
12.258889136835286
30
0
10
-12.802735567092897
20
12.294540405273441
30
0
10
-12.806246977082639
20
12.33019094989228
30
0
10
-12.80800692685087
20
12.366014023827141
30
0
10
-12.808007001876833
20
12.401837110519413
30
0
0
SPLINE
5
115
100
AcDbEntity
8
0
100
AcDbSpline
70
2
71
3
72
212
73
208
74
0
42
0.000000001
43
0.0000000001
44
0.0000000001
40
0
40
0
40
0
40
0
40
0.055505225655364053
40
0.055505225655364053
40
0.055505225655364053
40
0.11629544775189121
40
0.11629544775189121
40
0.11629544775189121
40
0.17993764593497261
40
0.17993764593497261
40
0.17993764593497261
40
0.24357974407424487
40
0.24357974407424487
40
0.24357974407424487
40
0.30436985270435901
40
0.30436985270435901
40
0.30436985270435901
40
0.35987498624104541
40
0.35987498624104541
40
0.35987498624104541
40
0.49807206014028482
40
0.49807206014028482
40
0.49807206014028482
40
0.64908805302954353
40
0.64908805302954353
40
0.64908805302954353
40
0.68939613347896955
40
0.68939613347896955
40
0.68939613347896955
40
0.7343858034039854
40
0.7343858034039854
40
0.7343858034039854
40
0.78272579536678777
40
0.78272579536678777
40
0.78272579536678777
40
0.8328762898368125
40
0.8328762898368125
40
0.8328762898368125
40
0.88953112956931679
40
0.88953112956931679
40
0.88953112956931679
40
0.92855817645942329
40
0.92855817645942329
40
0.92855817645942329
40
0.96517747971337919
40
0.96517747971337919
40
0.96517747971337919
40
0.99836175462307275
40
0.99836175462307275
40
0.99836175462307275
40
1.0482733932297095
40
1.0482733932297095
40
1.0482733932297095
40
1.0935453734688876
40
1.0935453734688876
40
1.0935453734688876
40
1.1397600568136259
40
1.1397600568136259
40
1.1397600568136259
40
1.1868164706029871
40
1.1868164706029871
40
1.1868164706029871
40
1.2346117625365427
40
1.2346117625365427
40
1.2346117625365427
40
1.2830406225687736
40
1.2830406225687736
40
1.2830406225687736
40
1.3319955745638175
40
1.3319955745638175
40
1.3319955745638175
40
1.3813681208494506
40
1.3813681208494506
40
1.3813681208494506
40
1.4310472991480032
40
1.4310472991480032
40
1.4310472991480032
40
1.4809228752874417
40
1.4809228752874417
40
1.4809228752874417
40
1.530883136906021
40
1.530883136906021
40
1.530883136906021
40
1.5808159798129899
40
1.5808159798129899
40
1.5808159798129899
40
1.6306099883522835
40
1.6306099883522835
40
1.6306099883522835
40
1.6801541962332069
40
1.6801541962332069
40
1.6801541962332069
40
1.7293370963226635
40
1.7293370963226635
40
1.7293370963226635
40
1.7836278561388714
40
1.7836278561388714
40
1.7836278561388714
40
1.8372746542136507
40
1.8372746542136507
40
1.8372746542136507
40
1.8901584658458654
40
1.8901584658458654
40
1.8901584658458654
40
1.9421610010772827
40
1.9421610010772827
40
1.9421610010772827
40
1.9931718675927677
40
1.9931718675927677
40
1.9931718675927677
40
2.0430780069324297
40
2.0430780069324297
40
2.0430780069324297
40
2.0917734792274683
40
2.0917734792274683
40
2.0917734792274683
40
2.139154254772881
40
2.139154254772881
40
2.139154254772881
40
2.1851228600311714
40
2.1851228600311714
40
2.1851228600311714
40
2.1996807921041164
40
2.1996807921041164
40
2.1996807921041164
40
2.253250933956759
40
2.253250933956759
40
2.253250933956759
40
2.3125082848302099
40
2.3125082848302099
40
2.3125082848302099
40
2.374482413683122
40
2.374482413683122
40
2.374482413683122
40
2.4358786077401922
40
2.4358786077401922
40
2.4358786077401922
40
2.4934696377097434
40
2.4934696377097434
40
2.4934696377097434
40
2.5444966523136632
40
2.5444966523136632
40
2.5444966523136632
40
3.9009194349558181
40
3.9009194349558181
40
3.9009194349558181
40
3.9531301410083017
40
3.9531301410083017
40
3.9531301410083017
40
4.0053412886298752
40
4.0053412886298752
40
4.0053412886298752
40
4.057552608516124
40
4.057552608516124
40
4.057552608516124
40
4.1097641341638376
40
4.1097641341638376
40
4.1097641341638376
40
4.1619751214180685
40
4.1619751214180685
40
4.1619751214180685
40
4.2141857557569091
40
4.2141857557569091
40
4.2141857557569091
40
4.4738214426312988
40
4.4738214426312988
40
4.4738214426312988
40
4.5316079586210387
40
4.5316079586210387
40
4.5316079586210387
40
4.5979529110957351
40
4.5979529110957351
40
4.5979529110957351
40
4.6687697698205586
40
4.6687697698205586
40
4.6687697698205586
40
4.7395864213866412
40
4.7395864213866412
40
4.7395864213866412
40
4.8059315442477182
40
4.8059315442477182
40
4.8059315442477182
40
4.8637180223349334
40
4.8637180223349334
40
4.8637180223349334
40
5.9808893673198567
40
5.9808893673198567
40
5.9808893673198567
40
6.0363383432197724
40
6.0363383432197724
40
6.0363383432197724
40
6.0969887757742285
40
6.0969887757742285
40
6.0969887757742285
40
6.1604483380483916
40
6.1604483380483916
40
6.1604483380483916
40
6.2239075902502741
40
6.2239075902502741
40
6.2239075902502741
40
6.2845580359576712
40
6.2845580359576712
40
6.2845580359576712
40
6.3400067817337273
40
6.3400067817337273
40
6.3400067817337273
40
7.305193884289956
40
7.305193884289956
40
7.305193884289956
40
7.305193884289956
10
-9.4798415899276804
20
3.9141234755516074
30
0
10
-9.4675681254212112
20
4.0992551042064456
30
0
10
-9.4545924857073089
20
4.2844068282578105
30
0
10
-9.4209402799606394
20
4.466041624546051
30
0
10
-9.3840838391981034
20
4.6649709951854534
30
0
10
-9.3224258881668369
20
4.85968181619271
30
0
10
-9.248254895210275
20
5.0489008426666251
30
0
10
-9.1706041666822227
20
5.2469970885355899
30
0
10
-9.0792387548701452
20
5.4390741567229481
30
0
10
-8.9735490083694565
20
5.6229823827743521
30
0
10
-8.8678594280101848
20
5.8068903197270139
30
0
10
-8.747845557997195
20
5.9826294402260967
30
0
10
-8.6155462265014755
20
6.1491626501083365
30
0
10
-8.4891756169763735
20
6.3082330172905881
30
0
10
-8.3515959696004174
20
6.4589040743858073
30
0
10
-8.1986439228057968
20
6.591583490371705
30
0
10
-8.058989232703146
20
6.7127280131866982
30
0
10
-7.9065188487280578
20
6.8188732272770025
30
0
10
-7.751250863075267
20
6.9200974702835092
30
0
10
-7.3646635346570388
20
7.1721263061734142
30
0
10
-6.9607334838848143
20
7.3936493570909336
30
0
10
-6.5568202733993664
20
7.6152080297470102
30
0
10
-6.1154407795974812
20
7.8573180975678305
30
0
10
-5.6740813951288942
20
8.0994707020403638
30
0
10
-5.2210038900375526
20
8.3196067810058576
30
0
10
-5.1000717677130041
20
8.3783638875281401
30
0
10
-4.9783048187224681
20
8.4355524846300671
30
0
10
-4.8534408211708246
20
8.4850502014160174
30
0
10
-4.7140744714778702
20
8.5402968396933154
30
0
10
-4.5708498803967439
20
8.5859623325151642
30
0
10
-4.4262728095054813
20
8.6262398958206195
30
0
10
-4.2709292727216495
20
8.6695168767300572
30
0
10
-4.1140243210189684
20
8.7065735847263319
30
0
10
-3.9559131860733219
20
8.7377625703811628
30
0
10
-3.7918802337128299
20
8.770119693109109
30
0
10
-3.6265490545179531
20
8.7961613288289193
30
0
10
-3.4604421257972917
20
8.8153231143951434
30
0
10
-3.2727917043093746
20
8.8369701171159605
30
0
10
-3.0841512602169923
20
8.8498369569865449
30
0
10
-2.8953519463539337
20
8.8559454679489118
30
0
10
-2.7652963375172863
20
8.8601533545987152
30
0
10
-2.6351653413061564
20
8.8611542581320553
30
0
10
-2.5050815939903477
20
8.8562470674514788
30
0
10
-2.3830232633976691
20
8.851642622125059
30
0
10
-2.2610065315695218
20
8.841836585981266
30
0
10
-2.1403613686561807
20
8.8234370946884173
30
0
10
-2.0310331756843882
20
8.806763544866179
30
0
10
-1.9228313036183697
20
8.7830331216468203
30
0
10
-1.8152052164077983
20
8.7571567296981794
30
0
10
-1.6533275082427412
20
8.718236695227068
30
0
10
-1.4927523645503635
20
8.6744619609495945
30
0
10
-1.3337379693985221
20
8.625602722167967
30
0
10
-1.189505146032515
20
8.5812853133556484
30
0
10
-1.0465563913789651
20
8.532784749484998
30
0
10
-0.90374052524569082
20
8.4839785099029523
30
0
10
-0.75795078962811679
20
8.434155972969176
30
0
10
-0.61229953445417484
20
8.3840148975489033
30
0
10
-0.46709597110750833
20
8.3325809240341169
30
0
10
-0.31924774482925966
20
8.280210158611176
30
0
10
-0.1718636669483761
20
8.2264989698390369
30
0
10
-0.024856210220632127
20
8.1717872619628888
30
0
10
0.12445955239068338
20
8.1162164727856858
30
0
10
0.27338677360823715
20
8.0596134975936593
30
0
10
0.42190779000518064
20
8.0019611120223981
30
0
10
0.57239758144596653
20
7.9435444940166722
30
0
10
0.72247032749335682
20
7.8840504595396563
30
0
10
0.87212979793545897
20
7.8235357999801627
30
0
10
1.0234150478096189
20
7.7623637581076119
30
0
10
1.1742779943245001
20
7.7001487962190298
30
0
10
1.3247169554233258
20
7.636924982070922
30
0
10
1.4764391871347633
20
7.5731618577459772
30
0
10
1.6277301692400221
20
7.5083725963815597
30
0
10
1.7785857617854788
20
7.4425852298736563
30
0
10
1.930378254642594
20
7.3763892858437359
30
0
10
2.0817299331053869
20
7.3091828005539448
30
0
10
2.232634127140015
20
7.2409862279891959
30
0
10
2.3841348942039087
20
7.1725200523419028
30
0
10
2.5351846317449978
20
7.103055945676112
30
0
10
2.6857742667197861
20
7.0326083898544303
30
0
10
2.8366195930846008
20
6.9620412186722689
30
0
10
2.9870032531082802
20
6.8904872558337456
30
0
10
3.1369137763976731
20
6.8179553747177115
30
0
10
3.2867420272314742
20
6.7454632998530144
30
0
10
3.4360976605132136
20
6.671994379799723
30
0
10
3.5849651694297497
20
6.5975493192672721
30
0
10
3.7334187638710685
20
6.523311247408083
30
0
10
3.8813869445569242
20
6.4481024556880842
30
0
10
4.028851091861692
20
6.3719177246093741
30
0
10
4.1755754585751124
20
6.2961151880263362
30
0
10
4.321800836371799
20
6.2193464794759832
30
0
10
4.4674992561339986
20
6.14159047603607
30
0
10
4.6121351505977612
20
6.0644015186965525
30
0
10
4.7562517448265904
20
5.9862396139218701
30
0
10
4.8998552560805928
20
5.9071463346481288
30
0
10
5.0583726213452405
20
5.8198388716820029
30
0
10
5.2162647978279679
20
5.7313965340130659
30
0
10
5.3735435009002313
20
5.6418764591217005
30
0
10
5.5289566661192229
20
5.5534182132324537
30
0
10
5.6837708248636893
20
5.4639076453304591
30
0
10
5.8379310369491204
20
5.3732836246490443
30
0
10
5.9898987201973206
20
5.2839484954137559
30
0
10
6.1412309258955915
20
5.1935313601242274
30
0
10
6.2918841838836297
20
5.1019972562789873
30
0
10
6.4400268973993562
20
5.0119885123330672
30
0
10
6.587513103157109
20
4.9208997168438815
30
0
10
6.7342972755431738
20
4.8286896944045985
30
0
10
6.8782823291727881
20
4.7382380822839956
30
0
10
7.0215918691586854
20
4.646707598227902
30
0
10
7.1641260385512942
20
4.5539933443069422
30
0
10
7.303573387798167
20
4.4632869754287032
30
0
10
7.4422785867340355
20
4.3714475545867053
30
0
10
7.5803208351134863
20
4.2785951495170558
30
0
10
7.7150143331570051
20
4.1879952397980631
30
0
10
7.8490766553781341
20
4.0964308974426364
30
0
10
7.9818791151046344
20
4.003139436244961
30
0
10
8.1110961293283808
20
3.9123666893142159
30
0
10
8.2391203911141844
20
3.819958823298264
30
0
10
8.3678382635116186
20
3.7283134460449183
30
0
10
8.4927197370166994
20
3.6393995327074657
30
0
10
8.6182540915554835
20
3.5512033339539162
30
0
10
8.7372726202010735
20
3.4547635912895167
30
0
10
8.7749649462072412
20
3.4242218070663064
30
0
10
8.8120037713065731
20
3.3928532414788308
30
0
10
8.8484877347945776
20
3.3608245849609339
30
0
10
8.9827410813279958
20
3.2429658352143296
30
0
10
9.1094811250241072
20
3.1161688872590854
30
0
10
9.2259371280670148
20
2.9806825518608093
30
0
10
9.3547565411762026
20
2.8308124742840479
30
0
10
9.4709924194276081
20
2.6703100768371724
30
0
10
9.5776557922363246
20
2.5037786364555359
30
0
10
9.6892093718833596
20
2.3296122116635605
30
0
10
9.7902925817709665
20
2.1488512428203581
30
0
10
9.8796790838241595
20
1.9626121222972868
30
0
10
9.9682320191815172
20
1.7781097598390643
30
0
10
10.045305382950311
20
1.5882309414350897
30
0
10
10.111421346664429
20
1.3940659165382381
30
0
10
10.173439628191556
20
1.2119346958720354
30
0
10
10.225816638303497
20
1.0260320987905218
30
0
10
10.257093906402579
20
0.83688355982303564
30
0
10
10.28480630565827
20
0.66929348085922991
30
0
10
10.295954607562299
20
0.49915521446430344
30
0
10
10.306764841079701
20
0.32903671264648393
30
0
10
10.594127273362012
20
-4.1931289167908163
30
0
10
10.642601674034999
20
-8.7013283751590755
30
0
10
10.306329727172843
20
-13.235191106796266
30
0
10
10.29338612581493
20
-13.409706145464909
30
0
10
10.279872486877945
20
-13.584259206665173
30
0
10
10.238161087036129
20
-13.752828836441047
30
0
10
10.196449334422509
20
-13.921399891885018
30
0
10
10.126539343940106
20
-14.083987414695114
30
0
10
10.038341283798218
20
-14.235190153121952
30
0
10
9.950142932656977
20
-14.386393390424834
30
0
10
9.8436563911772854
20
-14.526211768218772
30
0
10
9.7204893827438337
20
-14.649403095245363
30
0
10
9.597321888917099
20
-14.77259490776108
30
0
10
9.4574737966630469
20
-14.879159538456912
30
0
10
9.3062633275985736
20
-14.967241287231452
30
0
10
9.1550544177823703
20
-15.055322127726852
30
0
10
8.9924833654870753
20
-15.124920467481623
30
0
10
8.8238948583602497
20
-15.167039632797248
30
0
10
8.6553074907920138
20
-15.209158513412229
30
0
10
8.4807027497408409
20
-15.223798591072743
30
0
10
8.3062553405761346
20
-15.235189199447639
30
0
10
7.4387544286356349
20
-15.291832993701123
30
0
10
6.5751442152385797
20
-15.268119870482735
30
0
10
5.7098984718322434
20
-15.235189199447639
30
0
10
5.5173227223722145
20
-15.22785989594845
30
0
10
5.3246659546790722
20
-15.220073988514443
30
0
10
5.133015513420073
20
-15.201511383056648
30
0
10
4.9129808011813116
20
-15.180199574310077
30
0
10
4.6942725717735065
20
-15.144682529153243
30
0
10
4.4769540429114976
20
-15.10277628898621
30
0
10
4.2449874051695122
20
-15.058045406245297
30
0
10
4.0146041241507371
20
-15.006034987703741
30
0
10
3.7864232063293151
20
-14.945709705352787
30
0
10
3.5582429559996793
20
-14.885384599469836
30
0
10
3.3322650559823823
20
-14.816744678423925
30
0
10
3.1084847450256063
20
-14.741016626358036
30
0
10
2.898834445329312
20
-14.670070220290629
30
0
10
2.6911129745736071
20
-14.592902545428409
30
0
10
2.4893346428870871
20
-14.502645730972297
30
0
10
2.3135860928860059
20
-14.424032214170001
30
0
10
2.142346232513455
20
-14.335488782007083
30
0
10
1.9711707532405587
20
-14.24684524536133
30
0
10
-1.3381214330581055
20
-12.533122202588382
30
0
10
-4.6233508552794724
20
-10.781984599230029
30
0
10
-7.7411121129989731
20
-8.7260895967483538
30
0
10
-7.8958571032075362
20
-8.6240486045969647
30
0
10
-8.0501895404214476
20
-8.521256851379885
30
0
10
-8.1911277770996183
20
-8.4021377563476616
30
0
10
-8.3452868914793381
20
-8.2718445539584948
30
0
10
-8.483421024130033
20
-8.1220171245303145
30
0
10
-8.6104768514633268
20
-7.9639667272567785
30
0
10
-8.7434174892685572
20
-7.7985959523784496
30
0
10
-8.8642298343818933
20
-7.6242228474534981
30
0
10
-8.9705795049667447
20
-7.441436648368839
30
0
10
-9.0769286559122584
20
-7.2586513424030654
30
0
10
-9.1688152736622381
20
-7.0674530244924894
30
0
10
-9.2468947172164988
20
-6.8701595067977941
30
0
10
-9.3215182415701463
20
-6.681598511069442
30
0
10
-9.3835297968428879
20
-6.4874699408229786
30
0
10
-9.4205951690673899
20
-6.2890607118606603
30
0
10
-9.4544816208090072
20
-6.1076680977085562
30
0
10
-9.4675174241292392
20
-5.9226976011315706
30
0
10
-9.4798415899276804
20
-5.737747550010682
30
0
10
-9.6943662957968062
20
-2.5183527474670924
30
0
10
-9.6932663531902037
20
0.69484712556685102
30
0
10
-9.4798415899276804
20
3.9141234755516074
30
0
0
ENDSEC
0
SECTION
2
OBJECTS
0
DICTIONARY
5
C
100
AcDbDictionary
3
ACAD_GROUP
350
D
3
ACAD_MLINESTYLE
350
17
0
DICTIONARY
5
D
100
AcDbDictionary
0
DICTIONARY
5
1A
330
C
100
AcDbDictionary
0
DICTIONARY
5
17
100
AcDbDictionary
0
ENDSEC
0
EOF
